G04*
G04 #@! TF.GenerationSoftware,Altium Limited,Altium Designer,23.0.1 (38)*
G04*
G04 Layer_Color=128*
%FSLAX25Y25*%
%MOIN*%
G70*
G04*
G04 #@! TF.SameCoordinates,5AACE2FC-F550-4568-A226-762E45A29E99*
G04*
G04*
G04 #@! TF.FilePolarity,Positive*
G04*
G01*
G75*
%ADD11C,0.00500*%
D11*
X518110Y406299D02*
X522047D01*
X520079Y404331D02*
Y408268D01*
X518110Y439370D02*
X522047D01*
X520079Y437402D02*
Y441339D01*
X518701Y430709D02*
X521457D01*
X520079Y429331D02*
Y432087D01*
X518701Y422835D02*
X521457D01*
X520079Y421457D02*
Y424213D01*
X518701Y414961D02*
X521457D01*
X520079Y413583D02*
Y416339D01*
X510827Y686221D02*
X513976D01*
X512402Y684646D02*
Y687795D01*
X510827Y705905D02*
X513976D01*
X512402Y704331D02*
Y707480D01*
X444095Y366576D02*
X446457D01*
X445276Y365394D02*
Y367757D01*
X420669Y377205D02*
X422638D01*
X421654Y376221D02*
Y378190D01*
X440354Y377205D02*
X442323D01*
X441339Y376221D02*
Y378190D01*
X416535Y366576D02*
X418898D01*
X417717Y365394D02*
Y367757D01*
X379724Y364705D02*
X382480D01*
X381102Y363328D02*
Y366084D01*
X387598Y364705D02*
X390354D01*
X388976Y363328D02*
Y366084D01*
X362598Y714764D02*
X370473D01*
X366535Y710827D02*
Y718701D01*
X496457Y610433D02*
X504331D01*
X500394Y606496D02*
Y614370D01*
X350787Y731299D02*
X355511D01*
X353149Y728937D02*
Y733661D01*
X507481Y731299D02*
X512205D01*
X509843Y728937D02*
Y733661D01*
X350787Y650984D02*
X355511D01*
X353149Y648622D02*
Y653346D01*
X507481Y650984D02*
X512205D01*
X509843Y648622D02*
Y653346D01*
X387697Y743701D02*
X390059D01*
X388878Y742520D02*
Y744882D01*
X395571Y743701D02*
X397933D01*
X396752Y742520D02*
Y744882D01*
X522835Y615925D02*
X526378D01*
X524606Y614154D02*
Y617697D01*
X522835Y605925D02*
X526378D01*
X524606Y604154D02*
Y607697D01*
X522835Y595925D02*
X526378D01*
X524606Y594154D02*
Y597697D01*
X522835Y585925D02*
X526378D01*
X524606Y584154D02*
Y587697D01*
X378197Y752658D02*
X382197D01*
X380197Y750658D02*
Y754658D01*
X368197Y752658D02*
X372197D01*
X370197Y750658D02*
Y754658D01*
X454252Y389370D02*
X457795D01*
X456024Y387598D02*
Y391142D01*
X464252Y389370D02*
X467795D01*
X466024Y387598D02*
Y391142D01*
X337303Y585925D02*
X340846D01*
X339075Y584154D02*
Y587697D01*
X337303Y595925D02*
X340846D01*
X339075Y594154D02*
Y597697D01*
X337303Y605925D02*
X340846D01*
X339075Y604154D02*
Y607697D01*
X337303Y615925D02*
X340846D01*
X339075Y614154D02*
Y617697D01*
X484726Y762447D02*
X488663D01*
X486695Y760478D02*
Y764415D01*
X343110Y371654D02*
X355315D01*
X349213Y365551D02*
Y377756D01*
X508465Y371654D02*
X520669D01*
X514567Y365551D02*
Y377756D01*
X343110Y773228D02*
X355315D01*
X349213Y767126D02*
Y779331D01*
X508465Y773228D02*
X520669D01*
X514567Y767126D02*
Y779331D01*
X515637Y754583D02*
X516818D01*
X516227Y753992D02*
Y755173D01*
X525479Y734898D02*
X526660D01*
X526070Y734307D02*
Y735488D01*
X515637Y715213D02*
X516818D01*
X516227Y714622D02*
Y715803D01*
X525479Y695528D02*
X526660D01*
X526070Y694937D02*
Y696118D01*
X515637Y675843D02*
X516818D01*
X516227Y675252D02*
Y676433D01*
X525479Y538047D02*
X526660D01*
X526070Y537457D02*
Y538638D01*
X495952Y754583D02*
X497133D01*
X496542Y753992D02*
Y755173D01*
X495952Y715213D02*
X497133D01*
X496542Y714622D02*
Y715803D01*
X495952Y636473D02*
X497133D01*
X496542Y635882D02*
Y637063D01*
X505794Y616787D02*
X506975D01*
X506385Y616197D02*
Y617378D01*
X505794Y577417D02*
X506975D01*
X506385Y576827D02*
Y578008D01*
X495952Y557732D02*
X497133D01*
X496542Y557142D02*
Y558323D01*
X505794Y538047D02*
X506975D01*
X506385Y537457D02*
Y538638D01*
X476266Y754583D02*
X477448D01*
X476857Y753992D02*
Y755173D01*
X476266Y715213D02*
X477448D01*
X476857Y714622D02*
Y715803D01*
X476266Y675843D02*
X477448D01*
X476857Y675252D02*
Y676433D01*
X486109Y656157D02*
X487290D01*
X486700Y655567D02*
Y656748D01*
X476266Y636473D02*
X477448D01*
X476857Y635882D02*
Y637063D01*
X486109Y616787D02*
X487290D01*
X486700Y616197D02*
Y617378D01*
X486109Y577417D02*
X487290D01*
X486700Y576827D02*
Y578008D01*
X456581Y754583D02*
X457763D01*
X457172Y753992D02*
Y755173D01*
X456581Y636473D02*
X457763D01*
X457172Y635882D02*
Y637063D01*
X466424Y616787D02*
X467605D01*
X467015Y616197D02*
Y617378D01*
X456581Y597102D02*
X457763D01*
X457172Y596512D02*
Y597693D01*
X466424Y538047D02*
X467605D01*
X467015Y537457D02*
Y538638D01*
X466424Y498677D02*
X467605D01*
X467015Y498087D02*
Y499268D01*
X456581Y478992D02*
X457763D01*
X457172Y478402D02*
Y479583D01*
X466424Y459307D02*
X467605D01*
X467015Y458717D02*
Y459898D01*
X456581Y439622D02*
X457763D01*
X457172Y439032D02*
Y440213D01*
X466424Y419937D02*
X467605D01*
X467015Y419347D02*
Y420528D01*
X446739Y774268D02*
X447920D01*
X447330Y773677D02*
Y774858D01*
X436896Y754583D02*
X438077D01*
X437487Y753992D02*
Y755173D01*
X446739Y498677D02*
X447920D01*
X447330Y498087D02*
Y499268D01*
X436896Y478992D02*
X438077D01*
X437487Y478402D02*
Y479583D01*
X436896Y439622D02*
X438077D01*
X437487Y439032D02*
Y440213D01*
X446739Y419937D02*
X447920D01*
X447330Y419347D02*
Y420528D01*
X436896Y400252D02*
X438077D01*
X437487Y399661D02*
Y400843D01*
X427054Y774268D02*
X428235D01*
X427644Y773677D02*
Y774858D01*
X417211Y754583D02*
X418393D01*
X417802Y753992D02*
Y755173D01*
X427054Y695528D02*
X428235D01*
X427644Y694937D02*
Y696118D01*
X417211Y675843D02*
X418393D01*
X417802Y675252D02*
Y676433D01*
X427054Y656157D02*
X428235D01*
X427644Y655567D02*
Y656748D01*
X417211Y518362D02*
X418393D01*
X417802Y517772D02*
Y518953D01*
X427054Y498677D02*
X428235D01*
X427644Y498087D02*
Y499268D01*
X427054Y459307D02*
X428235D01*
X427644Y458717D02*
Y459898D01*
X427054Y419937D02*
X428235D01*
X427644Y419347D02*
Y420528D01*
X407369Y774268D02*
X408550D01*
X407959Y773677D02*
Y774858D01*
X407369Y695528D02*
X408550D01*
X407959Y694937D02*
Y696118D01*
X407369Y656157D02*
X408550D01*
X407959Y655567D02*
Y656748D01*
X397526Y636473D02*
X398707D01*
X398117Y635882D02*
Y637063D01*
X397526Y518362D02*
X398707D01*
X398117Y517772D02*
Y518953D01*
X407369Y498677D02*
X408550D01*
X407959Y498087D02*
Y499268D01*
X397526Y478992D02*
X398707D01*
X398117Y478402D02*
Y479583D01*
X407369Y459307D02*
X408550D01*
X407959Y458717D02*
Y459898D01*
X397526Y439622D02*
X398707D01*
X398117Y439032D02*
Y440213D01*
X397526Y360882D02*
X398707D01*
X398117Y360291D02*
Y361473D01*
X377841Y715213D02*
X379022D01*
X378432Y714622D02*
Y715803D01*
X377841Y636473D02*
X379022D01*
X378432Y635882D02*
Y637063D01*
X377841Y597102D02*
X379022D01*
X378432Y596512D02*
Y597693D01*
X387684Y498677D02*
X388865D01*
X388274Y498087D02*
Y499268D01*
X367999Y695528D02*
X369180D01*
X368589Y694937D02*
Y696118D01*
X358156Y518362D02*
X359337D01*
X358747Y517772D02*
Y518953D01*
X367999Y498677D02*
X369180D01*
X368589Y498087D02*
Y499268D01*
X367999Y459307D02*
X369180D01*
X368589Y458717D02*
Y459898D01*
X367999Y380567D02*
X369180D01*
X368589Y379976D02*
Y381157D01*
X358156Y360882D02*
X359337D01*
X358747Y360291D02*
Y361473D01*
X338471Y754583D02*
X339652D01*
X339062Y753992D02*
Y755173D01*
X348314Y459307D02*
X349495D01*
X348904Y458717D02*
Y459898D01*
X425000Y538189D02*
X426181D01*
X425591Y537598D02*
Y538779D01*
X428201Y583811D02*
X429382D01*
X428792Y583221D02*
Y584402D01*
X422244Y577854D02*
X423425D01*
X422835Y577264D02*
Y578445D01*
X426215Y581826D02*
X427396D01*
X426806Y581235D02*
Y582416D01*
X424230Y579840D02*
X425411D01*
X424820Y579249D02*
Y580431D01*
X437650Y581941D02*
X438831D01*
X438240Y581351D02*
Y582532D01*
X431693Y575984D02*
X432874D01*
X432283Y575394D02*
Y576575D01*
X435664Y579956D02*
X436845D01*
X436255Y579365D02*
Y580546D01*
X433679Y577970D02*
X434860D01*
X434269Y577379D02*
Y578560D01*
X398905Y563441D02*
X400087D01*
X399496Y562850D02*
Y564032D01*
X404906Y563441D02*
X406087D01*
X405496Y562850D02*
Y564032D01*
X401905Y563441D02*
X403087D01*
X402496Y562850D02*
Y564032D01*
X427196Y545026D02*
X428377D01*
X427786Y544435D02*
Y545616D01*
X335976Y561584D02*
X337157D01*
X336566Y560993D02*
Y562174D01*
X455916Y569619D02*
X457097D01*
X456507Y569029D02*
Y570210D01*
X458916Y569619D02*
X460097D01*
X459507Y569029D02*
Y570210D01*
X459938Y598436D02*
X461119D01*
X460529Y597846D02*
Y599027D01*
X462938Y598436D02*
X464119D01*
X463529Y597846D02*
Y599027D01*
X465938Y598436D02*
X467119D01*
X466529Y597846D02*
Y599027D01*
X357087Y637992D02*
X358268D01*
X357677Y637402D02*
Y638583D01*
X359547Y619882D02*
X361122D01*
X360335Y619095D02*
Y620669D01*
X397526Y576870D02*
X398707D01*
X398117Y576279D02*
Y577461D01*
X421063Y573917D02*
X422244D01*
X421654Y573327D02*
Y574508D01*
X421063Y568012D02*
X422244D01*
X421654Y567421D02*
Y568602D01*
X401596Y577362D02*
X402777D01*
X402187Y576772D02*
Y577953D01*
X409401Y583065D02*
X410582D01*
X409991Y582475D02*
Y583656D01*
X375803Y402413D02*
X376984D01*
X376394Y401822D02*
Y403004D01*
X380610Y397077D02*
X381791D01*
X381201Y396486D02*
Y397667D01*
X406988Y543110D02*
X408169D01*
X407579Y542520D02*
Y543701D01*
X487127Y538047D02*
X488308D01*
X487718Y537457D02*
Y538638D01*
X489935Y538047D02*
X491116D01*
X490526Y537457D02*
Y538638D01*
X492307Y459947D02*
X493488D01*
X492898Y459356D02*
Y460538D01*
X497924Y459947D02*
X499105D01*
X498514Y459356D02*
Y460538D01*
X489499Y459947D02*
X490680D01*
X490090Y459356D02*
Y460538D01*
X495116Y459947D02*
X496297D01*
X495706Y459356D02*
Y460538D01*
X445892Y360083D02*
X447073D01*
X446482Y359492D02*
Y360673D01*
X444734Y373368D02*
X445915D01*
X445325Y372777D02*
Y373958D01*
X498687Y359416D02*
X499868D01*
X499278Y358826D02*
Y360007D01*
X501495Y359416D02*
X502676D01*
X502086Y358826D02*
Y360007D01*
X504303Y359416D02*
X505484D01*
X504894Y358826D02*
Y360007D01*
X481791Y367982D02*
X482972D01*
X482382Y367392D02*
Y368573D01*
X458741Y376613D02*
X459922D01*
X459331Y376022D02*
Y377203D01*
X480967Y361034D02*
X482148D01*
X481557Y360443D02*
Y361625D01*
X478159Y361034D02*
X479340D01*
X478749Y360443D02*
Y361625D01*
X475350Y361034D02*
X476532D01*
X475941Y360443D02*
Y361625D01*
X472542Y361034D02*
X473723D01*
X473133Y360443D02*
Y361625D01*
X461310Y361034D02*
X462491D01*
X461900Y360443D02*
Y361625D01*
X469734Y361034D02*
X470915D01*
X470325Y360443D02*
Y361625D01*
X466926Y361034D02*
X468107D01*
X467517Y360443D02*
Y361625D01*
X464118Y361034D02*
X465299D01*
X464708Y360443D02*
Y361625D01*
X502559Y785270D02*
X503740D01*
X503150Y784679D02*
Y785860D01*
X359252Y785132D02*
X360433D01*
X359842Y784541D02*
Y785722D01*
X337487Y382727D02*
X338668D01*
X338077Y382136D02*
Y383317D01*
X361910Y402947D02*
X363091D01*
X362500Y402356D02*
Y403537D01*
X345332Y403297D02*
X346513D01*
X345923Y402707D02*
Y403888D01*
X369783Y371972D02*
X370965D01*
X370374Y371382D02*
Y372563D01*
X393810Y377400D02*
X394991D01*
X394401Y376809D02*
Y377991D01*
X381194Y382067D02*
X382375D01*
X381784Y381476D02*
Y382657D01*
X421656Y397521D02*
X422837D01*
X422247Y396931D02*
Y398112D01*
X384055Y400111D02*
X385236D01*
X384646Y399521D02*
Y400702D01*
X408053Y358760D02*
X409234D01*
X408644Y358169D02*
Y359350D01*
X408053Y367184D02*
X409234D01*
X408644Y366594D02*
Y367775D01*
X408053Y361568D02*
X409234D01*
X408644Y360977D02*
Y362158D01*
X408053Y364376D02*
X409234D01*
X408644Y363785D02*
Y364967D01*
X401521Y385965D02*
X402702D01*
X402111Y385375D02*
Y386556D01*
X401521Y394390D02*
X402702D01*
X402111Y393799D02*
Y394980D01*
X401521Y388773D02*
X402702D01*
X402111Y388183D02*
Y389364D01*
X401521Y391582D02*
X402702D01*
X402111Y390991D02*
Y392172D01*
X436417Y547146D02*
X437598D01*
X437008Y546555D02*
Y547736D01*
X336516Y394390D02*
X337697D01*
X337106Y393799D02*
Y394980D01*
X341142Y578844D02*
X342323D01*
X341732Y578253D02*
Y579434D01*
X343504Y620866D02*
X344685D01*
X344094Y620276D02*
Y621457D01*
X520483Y652598D02*
X521664D01*
X521074Y652008D02*
Y653189D01*
X520483Y655407D02*
X521664D01*
X521074Y654816D02*
Y655997D01*
X520483Y649790D02*
X521664D01*
X521074Y649200D02*
Y650381D01*
X365945Y739698D02*
X367126D01*
X366535Y739107D02*
Y740288D01*
X370493Y629880D02*
X371674D01*
X371083Y629289D02*
Y630470D01*
X370493Y627072D02*
X371674D01*
X371083Y626481D02*
Y627662D01*
X370493Y624263D02*
X371674D01*
X371083Y623673D02*
Y624854D01*
X394757Y760028D02*
X395938D01*
X395347Y759437D02*
Y760618D01*
X391949Y760028D02*
X393130D01*
X392539Y759437D02*
Y760618D01*
X389141Y760028D02*
X390322D01*
X389731Y759437D02*
Y760618D01*
X524938Y630856D02*
X526119D01*
X525529Y630266D02*
Y631447D01*
X524938Y633664D02*
X526119D01*
X525529Y633074D02*
Y634255D01*
X524938Y628048D02*
X526119D01*
X525529Y627458D02*
Y628639D01*
X524938Y636473D02*
X526119D01*
X525529Y635882D02*
Y637063D01*
X423224Y626249D02*
X424405D01*
X423815Y625659D02*
Y626840D01*
X425210Y624263D02*
X426391D01*
X425801Y623673D02*
Y624854D01*
X421239Y628235D02*
X422420D01*
X421829Y627644D02*
Y628825D01*
X427196Y622278D02*
X428377D01*
X427786Y621687D02*
Y622868D01*
X446855Y621876D02*
X448036D01*
X447445Y621285D02*
Y622467D01*
X448841Y619890D02*
X450022D01*
X449431Y619300D02*
Y620481D01*
X444869Y623862D02*
X446050D01*
X445460Y623271D02*
Y624452D01*
X450826Y617905D02*
X452007D01*
X451417Y617314D02*
Y618495D01*
X430809Y602166D02*
X431990D01*
X431399Y601575D02*
Y602756D01*
X430809Y599358D02*
X431990D01*
X431399Y598767D02*
Y599948D01*
X430809Y604974D02*
X431990D01*
X431399Y604383D02*
Y605564D01*
X430809Y596549D02*
X431990D01*
X431399Y595959D02*
Y597140D01*
X385973Y359035D02*
X387155D01*
X386564Y358444D02*
Y359625D01*
X383165Y359035D02*
X384346D01*
X383756Y358444D02*
Y359625D01*
X388782Y359035D02*
X389963D01*
X389372Y358444D02*
Y359625D01*
X380357Y359035D02*
X381538D01*
X380948Y358444D02*
Y359625D01*
X464666Y582141D02*
X465847D01*
X465257Y581550D02*
Y582731D01*
X464666Y584949D02*
X465847D01*
X465257Y584358D02*
Y585539D01*
X504620Y533209D02*
X505801D01*
X505210Y532618D02*
Y533799D01*
X507428Y533209D02*
X508609D01*
X508019Y532618D02*
Y533799D01*
X501812Y533209D02*
X502993D01*
X502402Y532618D02*
Y533799D01*
X510236Y533209D02*
X511417D01*
X510827Y532618D02*
Y533799D01*
X482677Y554131D02*
X483858D01*
X483268Y553541D02*
Y554722D01*
X482677Y551323D02*
X483858D01*
X483268Y550732D02*
Y551913D01*
X482677Y556939D02*
X483858D01*
X483268Y556349D02*
Y557530D01*
X482677Y548515D02*
X483858D01*
X483268Y547924D02*
Y549105D01*
X470234Y554271D02*
X471415D01*
X470825Y553681D02*
Y554862D01*
X470234Y551463D02*
X471415D01*
X470825Y550873D02*
Y552054D01*
X470234Y557080D02*
X471415D01*
X470825Y556489D02*
Y557670D01*
X470234Y548655D02*
X471415D01*
X470825Y548065D02*
Y549246D01*
X470340Y532431D02*
X471521D01*
X470930Y531840D02*
Y533021D01*
X470340Y535239D02*
X471521D01*
X470930Y534649D02*
Y535830D01*
X470340Y529623D02*
X471521D01*
X470930Y529032D02*
Y530213D01*
X470340Y538047D02*
X471521D01*
X470930Y537457D02*
Y538638D01*
X437364Y576844D02*
X438546D01*
X437955Y576254D02*
Y577435D01*
X406920Y580535D02*
X408102D01*
X407511Y579944D02*
Y581125D01*
X404935Y578549D02*
X406116D01*
X405525Y577958D02*
Y579139D01*
X389499Y584640D02*
X390680D01*
X390089Y584049D02*
Y585230D01*
X391484Y582654D02*
X392666D01*
X392075Y582063D02*
Y583245D01*
X387513Y586625D02*
X388694D01*
X388104Y586035D02*
Y587216D01*
X401185Y613590D02*
X402366D01*
X401776Y613000D02*
Y614181D01*
X403171Y615576D02*
X404352D01*
X403761Y614986D02*
Y616167D01*
X399199Y611605D02*
X400381D01*
X399790Y611014D02*
Y612195D01*
X405156Y617562D02*
X406337D01*
X405747Y616971D02*
Y618152D01*
X404833Y705360D02*
X406014D01*
X405423Y704769D02*
Y705950D01*
X407641Y705360D02*
X408822D01*
X408232Y704769D02*
Y705950D01*
X402025Y705360D02*
X403206D01*
X402615Y704769D02*
Y705950D01*
X410449Y705360D02*
X411630D01*
X411040Y704769D02*
Y705950D01*
X469400Y682779D02*
X470581D01*
X469991Y682188D02*
Y683369D01*
X472208Y682779D02*
X473389D01*
X472799Y682188D02*
Y683369D01*
X455413Y676962D02*
X456595D01*
X456004Y676371D02*
Y677553D01*
X475017Y682779D02*
X476198D01*
X475607Y682188D02*
Y683369D01*
X422321Y646391D02*
X423502D01*
X422912Y645800D02*
Y646981D01*
X425129Y646391D02*
X426310D01*
X425720Y645800D02*
Y646981D01*
X427938Y646391D02*
X429119D01*
X428528Y645800D02*
Y646981D01*
X493336Y621213D02*
X494517D01*
X493927Y620623D02*
Y621804D01*
X496144Y621213D02*
X497325D01*
X496735Y620623D02*
Y621804D01*
X490528Y621213D02*
X491709D01*
X491118Y620623D02*
Y621804D01*
X498952Y621213D02*
X500134D01*
X499543Y620623D02*
Y621804D01*
X485253Y636473D02*
X486434D01*
X485844Y635882D02*
Y637063D01*
X488061Y636473D02*
X489243D01*
X488652Y635882D02*
Y637063D01*
X482445Y636473D02*
X483626D01*
X483036Y635882D02*
Y637063D01*
X490870Y636473D02*
X492051D01*
X491460Y635882D02*
Y637063D01*
X484705Y607562D02*
X485886D01*
X485295Y606971D02*
Y608152D01*
X487513Y607562D02*
X488694D01*
X488103Y606971D02*
Y608152D01*
X481897Y607562D02*
X483078D01*
X482487Y606971D02*
Y608152D01*
X490321Y607562D02*
X491502D01*
X490912Y606971D02*
Y608152D01*
X484705Y598436D02*
X485886D01*
X485295Y597846D02*
Y599027D01*
X487513Y598436D02*
X488694D01*
X488103Y597846D02*
Y599027D01*
X481897Y598436D02*
X483078D01*
X482487Y597846D02*
Y599027D01*
X490321Y598436D02*
X491502D01*
X490912Y597846D02*
Y599027D01*
X490870Y554271D02*
X492051D01*
X491460Y553681D02*
Y554862D01*
X490870Y551463D02*
X492051D01*
X491460Y550873D02*
Y552054D01*
X490870Y557080D02*
X492051D01*
X491460Y556489D02*
Y557670D01*
X490870Y548655D02*
X492051D01*
X491460Y548065D02*
Y549246D01*
X497595Y538047D02*
X498776D01*
X498186Y537457D02*
Y538638D01*
X482677Y537252D02*
X483858D01*
X483268Y536662D02*
Y537843D01*
X494787Y538047D02*
X495968D01*
X495378Y537457D02*
Y538638D01*
X482677Y534444D02*
X483858D01*
X483268Y533854D02*
Y535035D01*
X464692Y398297D02*
X465873D01*
X465282Y397707D02*
Y398888D01*
X355049Y567870D02*
X356230D01*
X355640Y567280D02*
Y568461D01*
X525628Y533209D02*
X526809D01*
X526218Y532618D02*
Y533799D01*
X339407Y699326D02*
X340588D01*
X339997Y698736D02*
Y699917D01*
X364567Y679731D02*
X365748D01*
X365158Y679140D02*
Y680321D01*
X467817Y602945D02*
X468998D01*
X468407Y602355D02*
Y603536D01*
X470274Y602945D02*
X471455D01*
X470864Y602355D02*
Y603536D01*
X484172Y602945D02*
X485353D01*
X484762Y602355D02*
Y603536D01*
X481715Y602945D02*
X482896D01*
X482306Y602355D02*
Y603536D01*
X525628Y519245D02*
X526809D01*
X526218Y518655D02*
Y519836D01*
X525628Y527670D02*
X526809D01*
X526218Y527079D02*
Y528260D01*
X525628Y522053D02*
X526809D01*
X526218Y521463D02*
Y522644D01*
X525628Y524861D02*
X526809D01*
X526218Y524271D02*
Y525452D01*
X510295Y527461D02*
X511476D01*
X510885Y526870D02*
Y528051D01*
X504678Y527461D02*
X505859D01*
X505269Y526870D02*
Y528051D01*
X507486Y527461D02*
X508668D01*
X508077Y526870D02*
Y528051D01*
X501870Y527461D02*
X503051D01*
X502461Y526870D02*
Y528051D01*
X501870Y524821D02*
X503051D01*
X502461Y524230D02*
Y525411D01*
X507486Y524821D02*
X508668D01*
X508077Y524230D02*
Y525411D01*
X504678Y524821D02*
X505859D01*
X505269Y524230D02*
Y525411D01*
X482677Y527559D02*
X483858D01*
X483268Y526968D02*
Y528150D01*
X482677Y524861D02*
X483858D01*
X483268Y524271D02*
Y525452D01*
X482677Y519245D02*
X483858D01*
X483268Y518655D02*
Y519836D01*
X482677Y522053D02*
X483858D01*
X483268Y521463D02*
Y522644D01*
X506762Y448484D02*
X507943D01*
X507352Y447894D02*
Y449075D01*
X489995Y448484D02*
X491176D01*
X490586Y447894D02*
Y449075D01*
X503954Y448484D02*
X505135D01*
X504544Y447894D02*
Y449075D01*
X492803Y448484D02*
X493985D01*
X493394Y447894D02*
Y449075D01*
X498711Y482248D02*
X499892D01*
X499301Y481657D02*
Y482838D01*
X490286Y482248D02*
X491468D01*
X490877Y481657D02*
Y482838D01*
X495903Y482248D02*
X497084D01*
X496493Y481657D02*
Y482838D01*
X493094Y482248D02*
X494276D01*
X493685Y481657D02*
Y482838D01*
X510031Y482248D02*
X511212D01*
X510621Y481657D02*
Y482838D01*
X501606Y482248D02*
X502787D01*
X502197Y481657D02*
Y482838D01*
X507223Y482248D02*
X508404D01*
X507813Y481657D02*
Y482838D01*
X504414Y482248D02*
X505595D01*
X505005Y481657D02*
Y482838D01*
X509983Y496143D02*
X511164D01*
X510573Y495553D02*
Y496734D01*
X509983Y498952D02*
X511164D01*
X510573Y498361D02*
Y499542D01*
X509983Y493335D02*
X511164D01*
X510573Y492745D02*
Y493926D01*
X509983Y501760D02*
X511164D01*
X510573Y501169D02*
Y502350D01*
X516746Y491589D02*
X517927D01*
X517337Y490999D02*
Y492180D01*
X517520Y483697D02*
X518701D01*
X518110Y483107D02*
Y484288D01*
X525857Y488593D02*
X527039D01*
X526448Y488002D02*
Y489184D01*
X525857Y491401D02*
X527039D01*
X526448Y490811D02*
Y491992D01*
X525857Y485785D02*
X527039D01*
X526448Y485194D02*
Y486375D01*
X525857Y494209D02*
X527039D01*
X526448Y493619D02*
Y494800D01*
X525857Y477268D02*
X527039D01*
X526448Y476677D02*
Y477858D01*
X525857Y480076D02*
X527039D01*
X526448Y479485D02*
Y480666D01*
X525857Y474460D02*
X527039D01*
X526448Y473869D02*
Y475050D01*
X525857Y482884D02*
X527039D01*
X526448Y482294D02*
Y483475D01*
X520011Y460329D02*
X521192D01*
X520602Y459739D02*
Y460920D01*
X522819Y460329D02*
X524001D01*
X523410Y459739D02*
Y460920D01*
X517203Y460329D02*
X518384D01*
X517794Y459739D02*
Y460920D01*
X525628Y460329D02*
X526809D01*
X526218Y459739D02*
Y460920D01*
X525628Y444193D02*
X526809D01*
X526218Y443602D02*
Y444783D01*
X517203Y444193D02*
X518384D01*
X517794Y443602D02*
Y444783D01*
X522819Y444193D02*
X524001D01*
X523410Y443602D02*
Y444783D01*
X520011Y444193D02*
X521192D01*
X520602Y443602D02*
Y444783D01*
X437795Y361783D02*
X438976D01*
X438386Y361192D02*
Y362373D01*
X434350Y361783D02*
X435532D01*
X434941Y361192D02*
Y362373D01*
X482435Y408766D02*
X483616D01*
X483026Y408175D02*
Y409356D01*
X485243Y408766D02*
X486424D01*
X485834Y408175D02*
Y409356D01*
X487992Y408766D02*
X489173D01*
X488583Y408175D02*
Y409356D01*
X489836Y397263D02*
X491017D01*
X490426Y396672D02*
Y397853D01*
X491821Y399248D02*
X493002D01*
X492412Y398658D02*
Y399839D01*
X493765Y401192D02*
X494946D01*
X494355Y400601D02*
Y401782D01*
X490269Y431901D02*
X491450D01*
X490860Y431310D02*
Y432491D01*
X490269Y429152D02*
X491450D01*
X490860Y428562D02*
Y429743D01*
X490269Y426344D02*
X491450D01*
X490860Y425753D02*
Y426934D01*
X485245Y431854D02*
X486426D01*
X485836Y431264D02*
Y432445D01*
X485245Y429105D02*
X486426D01*
X485836Y428515D02*
Y429696D01*
X485245Y426297D02*
X486426D01*
X485836Y425707D02*
Y426888D01*
X424016Y361783D02*
X425197D01*
X424606Y361192D02*
Y362373D01*
X427461Y361783D02*
X428642D01*
X428051Y361192D02*
Y362373D01*
X430905Y361783D02*
X432087D01*
X431496Y361192D02*
Y362373D01*
X523043Y399942D02*
X524224D01*
X523633Y399351D02*
Y400532D01*
X521057Y397956D02*
X522238D01*
X521648Y397365D02*
Y398547D01*
X519072Y395970D02*
X520253D01*
X519662Y395380D02*
Y396561D01*
X525029Y401927D02*
X526210D01*
X525619Y401337D02*
Y402518D01*
X517086Y393985D02*
X518267D01*
X517676Y393394D02*
Y394575D01*
X515100Y391999D02*
X516281D01*
X515691Y391408D02*
Y392589D01*
X513115Y390013D02*
X514296D01*
X513705Y389423D02*
Y390604D01*
X511129Y388028D02*
X512310D01*
X511720Y387437D02*
Y388618D01*
X498687Y378341D02*
X499868D01*
X499278Y377751D02*
Y378932D01*
X498687Y375533D02*
X499868D01*
X499278Y374943D02*
Y376124D01*
X498687Y372725D02*
X499868D01*
X499278Y372134D02*
Y373316D01*
X498687Y381150D02*
X499868D01*
X499278Y380559D02*
Y381740D01*
X498687Y369917D02*
X499868D01*
X499278Y369326D02*
Y370508D01*
X501502Y431901D02*
X502683D01*
X502092Y431310D02*
Y432491D01*
X498694Y431901D02*
X499874D01*
X499284Y431310D02*
Y432491D01*
X495885Y431901D02*
X497066D01*
X496476Y431310D02*
Y432491D01*
X504310Y431901D02*
X505491D01*
X504900Y431310D02*
Y432491D01*
X493077Y431901D02*
X494258D01*
X493668Y431310D02*
Y432491D01*
X490269Y423536D02*
X491450D01*
X490860Y422945D02*
Y424126D01*
X490269Y420728D02*
X491450D01*
X490860Y420137D02*
Y421318D01*
X490269Y417919D02*
X491450D01*
X490860Y417329D02*
Y418510D01*
X526316Y429152D02*
X527498D01*
X526907Y428562D02*
Y429743D01*
X526316Y426344D02*
X527498D01*
X526907Y425753D02*
Y426934D01*
X526316Y423536D02*
X527498D01*
X526907Y422945D02*
Y424126D01*
X526316Y431960D02*
X527498D01*
X526907Y431370D02*
Y432551D01*
X526316Y420728D02*
X527498D01*
X526907Y420137D02*
Y421318D01*
X526316Y417919D02*
X527498D01*
X526907Y417329D02*
Y418510D01*
X526316Y415111D02*
X527498D01*
X526907Y414521D02*
Y415702D01*
X526316Y412303D02*
X527498D01*
X526907Y411713D02*
Y412894D01*
X488816Y405020D02*
X489997D01*
X489407Y404429D02*
Y405610D01*
X350051Y697146D02*
X351232D01*
X350641Y696555D02*
Y697736D01*
X421836Y737853D02*
X423017D01*
X422426Y737262D02*
Y738443D01*
X418782Y738031D02*
X419964D01*
X419373Y737440D02*
Y738621D01*
X447835Y715631D02*
X449016D01*
X448425Y715040D02*
Y716221D01*
X413485Y702923D02*
X414666D01*
X414076Y702332D02*
Y703513D01*
X406004Y681293D02*
X407185D01*
X406595Y680702D02*
Y681883D01*
X444242Y552217D02*
X445423D01*
X444833Y551627D02*
Y552808D01*
X346752Y693504D02*
X347933D01*
X347342Y692913D02*
Y694095D01*
X368483Y648320D02*
X369665D01*
X369074Y647730D02*
Y648911D01*
X368483Y655509D02*
X369665D01*
X369074Y654918D02*
Y656099D01*
X429232Y573425D02*
X430413D01*
X429823Y572835D02*
Y574016D01*
X441763Y576617D02*
X442944D01*
X442353Y576026D02*
Y577207D01*
X387996Y682083D02*
X389177D01*
X388587Y681492D02*
Y682673D01*
X383465Y682083D02*
X384646D01*
X384055Y681492D02*
Y682673D01*
X454373Y564623D02*
X455554D01*
X454963Y564033D02*
Y565214D01*
X441929Y572342D02*
X443110D01*
X442520Y571752D02*
Y572933D01*
X446555Y572205D02*
X447736D01*
X447146Y571615D02*
Y572796D01*
X402658Y543110D02*
X403839D01*
X403248Y542520D02*
Y543701D01*
X398327Y543110D02*
X399508D01*
X398917Y542520D02*
Y543701D01*
X368996Y402413D02*
X370177D01*
X369587Y401822D02*
Y403004D01*
X475197Y399854D02*
X476378D01*
X475787Y399263D02*
Y400445D01*
X448327Y377458D02*
X449508D01*
X448917Y376868D02*
Y378049D01*
X489961Y359449D02*
X491142D01*
X490551Y358858D02*
Y360039D01*
X421656Y381778D02*
X422837D01*
X422247Y381187D02*
Y382368D01*
X424016Y381778D02*
X425197D01*
X424606Y381187D02*
Y382368D01*
X421656Y384494D02*
X422837D01*
X422247Y383904D02*
Y385085D01*
X424016Y384494D02*
X425197D01*
X424606Y383904D02*
Y385085D01*
X424016Y387303D02*
X425197D01*
X424606Y386713D02*
Y387894D01*
X421656Y387303D02*
X422837D01*
X422247Y386713D02*
Y387894D01*
X462795Y371571D02*
X463976D01*
X463386Y370981D02*
Y372162D01*
X462795Y369050D02*
X463976D01*
X463386Y368460D02*
Y369641D01*
X468071Y369050D02*
X469252D01*
X468661Y368460D02*
Y369641D01*
X465433Y369050D02*
X466614D01*
X466024Y368460D02*
Y369641D01*
X468071Y371571D02*
X469252D01*
X468661Y370981D02*
Y372162D01*
X465433Y371571D02*
X466614D01*
X466024Y370981D02*
Y372162D01*
X465433Y376613D02*
X466614D01*
X466024Y376022D02*
Y377203D01*
X462795Y376613D02*
X463976D01*
X463386Y376022D02*
Y377203D01*
X465433Y379134D02*
X466614D01*
X466024Y378543D02*
Y379724D01*
X462795Y379134D02*
X463976D01*
X463386Y378543D02*
Y379724D01*
X468071Y379134D02*
X469252D01*
X468661Y378543D02*
Y379724D01*
X468071Y376613D02*
X469252D01*
X468661Y376022D02*
Y377203D01*
X468071Y374092D02*
X469252D01*
X468661Y373502D02*
Y374683D01*
X462795Y374092D02*
X463976D01*
X463386Y373502D02*
Y374683D01*
X465433Y374092D02*
X466614D01*
X466024Y373502D02*
Y374683D01*
X405709Y396909D02*
X406890D01*
X406299Y396319D02*
Y397500D01*
X405709Y392579D02*
X406890D01*
X406299Y391988D02*
Y393169D01*
X434350Y370965D02*
X435532D01*
X434941Y370374D02*
Y371555D01*
X430020Y370965D02*
X431201D01*
X430610Y370374D02*
Y371555D01*
X403445Y714156D02*
X404626D01*
X404035Y713566D02*
Y714747D01*
X446260Y546063D02*
X447441D01*
X446850Y545472D02*
Y546654D01*
X431595Y547146D02*
X432776D01*
X432185Y546555D02*
Y547736D01*
X439267Y604528D02*
X440448D01*
X439857Y603937D02*
Y605118D01*
X442873Y604528D02*
X444054D01*
X443464Y603937D02*
Y605118D01*
X446479Y604528D02*
X447660D01*
X447070Y603937D02*
Y605118D01*
X450085Y604528D02*
X451267D01*
X450676Y603937D02*
Y605118D01*
X481009Y765518D02*
X482190D01*
X481599Y764928D02*
Y766109D01*
X480258Y761253D02*
X481439D01*
X480849Y760662D02*
Y761843D01*
X482617Y757621D02*
X483798D01*
X483207Y757030D02*
Y758211D01*
X483056Y753312D02*
X484238D01*
X483647Y752722D02*
Y753903D01*
X483056Y748982D02*
X484238D01*
X483647Y748391D02*
Y749572D01*
X483056Y744651D02*
X484238D01*
X483647Y744061D02*
Y745242D01*
X483056Y740320D02*
X484238D01*
X483647Y739730D02*
Y740911D01*
X483056Y735990D02*
X484238D01*
X483647Y735399D02*
Y736580D01*
X483056Y731659D02*
X484238D01*
X483647Y731069D02*
Y732250D01*
X483056Y727328D02*
X484238D01*
X483647Y726738D02*
Y727919D01*
X483056Y722998D02*
X484238D01*
X483647Y722407D02*
Y723588D01*
X483056Y718667D02*
X484238D01*
X483647Y718076D02*
Y719257D01*
X483056Y714336D02*
X484238D01*
X483647Y713746D02*
Y714927D01*
X483056Y710006D02*
X484238D01*
X483647Y709415D02*
Y710596D01*
X483056Y705675D02*
X484238D01*
X483647Y705084D02*
Y706265D01*
X483056Y701344D02*
X484238D01*
X483647Y700754D02*
Y701935D01*
X483056Y697013D02*
X484238D01*
X483647Y696423D02*
Y697604D01*
X483056Y692683D02*
X484238D01*
X483647Y692092D02*
Y693273D01*
X483056Y688352D02*
X484238D01*
X483647Y687761D02*
Y688943D01*
X483056Y684021D02*
X484238D01*
X483647Y683431D02*
Y684612D01*
X483056Y679691D02*
X484238D01*
X483647Y679100D02*
Y680281D01*
X483056Y675360D02*
X484238D01*
X483647Y674769D02*
Y675950D01*
X483056Y671029D02*
X484238D01*
X483647Y670439D02*
Y671620D01*
X482511Y666733D02*
X483692D01*
X483101Y666143D02*
Y667324D01*
X480449Y662925D02*
X481630D01*
X481040Y662334D02*
Y663515D01*
X477189Y660074D02*
X478370D01*
X477779Y659483D02*
Y660665D01*
X473142Y658533D02*
X474323D01*
X473732Y657942D02*
Y659123D01*
X468815Y658356D02*
X469996D01*
X469405Y657766D02*
Y658947D01*
X456347Y656914D02*
X457528D01*
X456938Y656323D02*
Y657504D01*
X470014Y652261D02*
X471195D01*
X470604Y651670D02*
Y652851D01*
X474331Y652598D02*
X475512D01*
X474922Y652008D02*
Y653189D01*
X478458Y653913D02*
X479639D01*
X479048Y653322D02*
Y654503D01*
X482165Y656151D02*
X483347D01*
X482756Y655560D02*
Y656741D01*
X485230Y659210D02*
X486412D01*
X485821Y658620D02*
Y659801D01*
X487481Y662910D02*
X488662D01*
X488072Y662319D02*
Y663500D01*
X488803Y667034D02*
X489984D01*
X489394Y666443D02*
Y667625D01*
X489152Y671351D02*
X490333D01*
X489742Y670760D02*
Y671941D01*
X489152Y675681D02*
X490333D01*
X489742Y675091D02*
Y676272D01*
X489152Y680012D02*
X490333D01*
X489742Y679422D02*
Y680603D01*
X489152Y684343D02*
X490333D01*
X489742Y683752D02*
Y684933D01*
X489152Y688673D02*
X490333D01*
X489742Y688083D02*
Y689264D01*
X489152Y693004D02*
X490333D01*
X489742Y692414D02*
Y693595D01*
X489152Y697335D02*
X490333D01*
X489742Y696744D02*
Y697926D01*
X489152Y701666D02*
X490333D01*
X489742Y701075D02*
Y702256D01*
X489152Y705996D02*
X490333D01*
X489742Y705406D02*
Y706587D01*
X489152Y710327D02*
X490333D01*
X489742Y709736D02*
Y710918D01*
X489152Y714658D02*
X490333D01*
X489742Y714067D02*
Y715248D01*
X489152Y718988D02*
X490333D01*
X489742Y718398D02*
Y719579D01*
X489152Y723319D02*
X490333D01*
X489742Y722729D02*
Y723910D01*
X489152Y727650D02*
X490333D01*
X489742Y727059D02*
Y728240D01*
X489152Y731981D02*
X490333D01*
X489742Y731390D02*
Y732571D01*
X489152Y736311D02*
X490333D01*
X489742Y735721D02*
Y736902D01*
X489152Y740642D02*
X490333D01*
X489742Y740051D02*
Y741232D01*
X489152Y744973D02*
X490333D01*
X489742Y744382D02*
Y745563D01*
X489152Y749303D02*
X490333D01*
X489742Y748713D02*
Y749894D01*
X489152Y753634D02*
X490333D01*
X489742Y753044D02*
Y754225D01*
X489945Y757892D02*
X491126D01*
X490535Y757301D02*
Y758482D01*
X492009Y761699D02*
X493190D01*
X492599Y761108D02*
Y762289D01*
X490957Y765900D02*
X492138D01*
X491547Y765309D02*
Y766490D01*
X357828Y371654D02*
X359797D01*
X358812Y370669D02*
Y372638D01*
X356542Y376453D02*
X358510D01*
X357526Y375469D02*
Y377438D01*
X353028Y379967D02*
X354997D01*
X354012Y378983D02*
Y380951D01*
X348228Y381253D02*
X350197D01*
X349213Y380269D02*
Y382238D01*
X343428Y379967D02*
X345397D01*
X344413Y378983D02*
Y380951D01*
X339915Y376453D02*
X341883D01*
X340899Y375469D02*
Y377438D01*
X338629Y371654D02*
X340597D01*
X339613Y370669D02*
Y372638D01*
X339915Y366854D02*
X341883D01*
X340899Y365869D02*
Y367838D01*
X343428Y363340D02*
X345397D01*
X344413Y362356D02*
Y364324D01*
X348228Y362054D02*
X350197D01*
X349213Y361070D02*
Y363038D01*
X353028Y363340D02*
X354997D01*
X354012Y362356D02*
Y364324D01*
X356542Y366854D02*
X358510D01*
X357526Y365869D02*
Y367838D01*
X523182Y371654D02*
X525151D01*
X524167Y370669D02*
Y372638D01*
X521896Y376453D02*
X523865D01*
X522881Y375469D02*
Y377438D01*
X518383Y379967D02*
X520351D01*
X519367Y378983D02*
Y380951D01*
X513583Y381253D02*
X515551D01*
X514567Y380269D02*
Y382238D01*
X508783Y379967D02*
X510751D01*
X509767Y378983D02*
Y380951D01*
X505269Y376453D02*
X507238D01*
X506253Y375469D02*
Y377438D01*
X503983Y371654D02*
X505951D01*
X504967Y370669D02*
Y372638D01*
X505269Y366854D02*
X507238D01*
X506253Y365869D02*
Y367838D01*
X508783Y363340D02*
X510751D01*
X509767Y362356D02*
Y364324D01*
X513583Y362054D02*
X515551D01*
X514567Y361070D02*
Y363038D01*
X518383Y363340D02*
X520351D01*
X519367Y362356D02*
Y364324D01*
X521896Y366854D02*
X523865D01*
X522881Y365869D02*
Y367838D01*
X357828Y773228D02*
X359797D01*
X358812Y772244D02*
Y774213D01*
X356542Y778028D02*
X358510D01*
X357526Y777044D02*
Y779012D01*
X353028Y781542D02*
X354997D01*
X354012Y780558D02*
Y782526D01*
X348228Y782828D02*
X350197D01*
X349213Y781844D02*
Y783812D01*
X343428Y781542D02*
X345397D01*
X344413Y780558D02*
Y782526D01*
X339915Y778028D02*
X341883D01*
X340899Y777044D02*
Y779012D01*
X338629Y773228D02*
X340597D01*
X339613Y772244D02*
Y774213D01*
X339915Y768429D02*
X341883D01*
X340899Y767444D02*
Y769413D01*
X343428Y764915D02*
X345397D01*
X344413Y763931D02*
Y765899D01*
X348228Y763629D02*
X350197D01*
X349213Y762644D02*
Y764613D01*
X353028Y764915D02*
X354997D01*
X354012Y763931D02*
Y765899D01*
X356542Y768429D02*
X358510D01*
X357526Y767444D02*
Y769413D01*
X523182Y773228D02*
X525151D01*
X524167Y772244D02*
Y774213D01*
X521896Y778028D02*
X523865D01*
X522881Y777044D02*
Y779012D01*
X518383Y781542D02*
X520351D01*
X519367Y780558D02*
Y782526D01*
X513583Y782828D02*
X515551D01*
X514567Y781844D02*
Y783812D01*
X508783Y781542D02*
X510751D01*
X509767Y780558D02*
Y782526D01*
X505269Y778028D02*
X507238D01*
X506253Y777044D02*
Y779012D01*
X503983Y773228D02*
X505951D01*
X504967Y772244D02*
Y774213D01*
X505269Y768429D02*
X507238D01*
X506253Y767444D02*
Y769413D01*
X508783Y764915D02*
X510751D01*
X509767Y763931D02*
Y765899D01*
X513583Y763629D02*
X515551D01*
X514567Y762644D02*
Y764613D01*
X518383Y764915D02*
X520351D01*
X519367Y763931D02*
Y765899D01*
X521896Y768429D02*
X523865D01*
X522881Y767444D02*
Y769413D01*
M02*
