G04*
G04 #@! TF.GenerationSoftware,Altium Limited,Altium Designer,23.0.1 (38)*
G04*
G04 Layer_Color=16711935*
%FSLAX25Y25*%
%MOIN*%
G70*
G04*
G04 #@! TF.SameCoordinates,5AACE2FC-F550-4568-A226-762E45A29E99*
G04*
G04*
G04 #@! TF.FilePolarity,Positive*
G04*
G01*
G75*
%ADD10C,0.00394*%
%ADD11C,0.00500*%
%ADD12C,0.00787*%
%ADD15C,0.01181*%
%ADD16C,0.00591*%
%ADD126C,0.00600*%
G36*
X501048Y508044D02*
X501095Y507968D01*
X501146Y507895D01*
X501197Y507837D01*
X501240Y507789D01*
X501280Y507753D01*
X501295Y507738D01*
X501306Y507727D01*
X501313Y507724D01*
X501317Y507720D01*
X501397Y507662D01*
X501473Y507611D01*
X501543Y507571D01*
X501604Y507542D01*
X501655Y507520D01*
X501692Y507502D01*
X501706Y507498D01*
X501717Y507495D01*
X501721Y507491D01*
X501724D01*
Y507054D01*
X501593Y507105D01*
X501477Y507160D01*
X501422Y507189D01*
X501371Y507222D01*
X501324Y507251D01*
X501280Y507280D01*
X501240Y507309D01*
X501204Y507334D01*
X501175Y507356D01*
X501149Y507378D01*
X501128Y507396D01*
X501113Y507407D01*
X501106Y507414D01*
X501102Y507418D01*
Y505594D01*
X500618D01*
Y508128D01*
X501011D01*
X501048Y508044D01*
D02*
G37*
G36*
X504284Y505594D02*
X503330D01*
X503231Y505598D01*
X503140Y505602D01*
X503064Y505609D01*
X503002Y505620D01*
X502951Y505631D01*
X502911Y505638D01*
X502900Y505642D01*
X502889D01*
X502886Y505646D01*
X502882D01*
X502802Y505675D01*
X502729Y505707D01*
X502671Y505740D01*
X502620Y505773D01*
X502580Y505802D01*
X502551Y505824D01*
X502533Y505838D01*
X502525Y505846D01*
X502463Y505915D01*
X502409Y505988D01*
X502361Y506064D01*
X502325Y506133D01*
X502296Y506199D01*
X502282Y506224D01*
X502274Y506246D01*
X502267Y506268D01*
X502260Y506283D01*
X502256Y506290D01*
Y506293D01*
X502231Y506381D01*
X502209Y506472D01*
X502194Y506559D01*
X502187Y506643D01*
X502183Y506683D01*
X502180Y506719D01*
Y506748D01*
X502176Y506777D01*
Y506799D01*
Y506814D01*
Y506825D01*
Y506828D01*
X502180Y506956D01*
X502190Y507069D01*
X502194Y507123D01*
X502201Y507171D01*
X502209Y507218D01*
X502216Y507258D01*
X502227Y507294D01*
X502234Y507327D01*
X502241Y507356D01*
X502245Y507378D01*
X502252Y507396D01*
X502256Y507411D01*
X502260Y507418D01*
Y507422D01*
X502292Y507509D01*
X502332Y507589D01*
X502373Y507658D01*
X502413Y507717D01*
X502445Y507764D01*
X502474Y507800D01*
X502493Y507822D01*
X502496Y507830D01*
X502500D01*
X502562Y507888D01*
X502624Y507935D01*
X502689Y507975D01*
X502747Y508008D01*
X502798Y508033D01*
X502842Y508051D01*
X502857Y508055D01*
X502868Y508059D01*
X502875Y508062D01*
X502878D01*
X502948Y508081D01*
X503024Y508091D01*
X503104Y508103D01*
X503181Y508106D01*
X503250Y508110D01*
X503279Y508113D01*
X504284D01*
Y505594D01*
D02*
G37*
%LPC*%
G36*
X503774Y507688D02*
X503443D01*
X503395Y507684D01*
X503352D01*
X503315Y507680D01*
X503282D01*
X503250Y507677D01*
X503224D01*
X503184Y507669D01*
X503155Y507666D01*
X503137Y507662D01*
X503133D01*
X503082Y507648D01*
X503039Y507629D01*
X502998Y507611D01*
X502962Y507589D01*
X502937Y507571D01*
X502915Y507556D01*
X502904Y507546D01*
X502900Y507542D01*
X502868Y507506D01*
X502838Y507466D01*
X502813Y507425D01*
X502791Y507389D01*
X502776Y507353D01*
X502766Y507324D01*
X502758Y507305D01*
X502755Y507302D01*
Y507298D01*
X502737Y507233D01*
X502722Y507163D01*
X502715Y507087D01*
X502707Y507014D01*
X502704Y506952D01*
X502700Y506923D01*
Y506898D01*
Y506879D01*
Y506865D01*
Y506854D01*
Y506850D01*
X502704Y506748D01*
X502707Y506654D01*
X502718Y506577D01*
X502726Y506512D01*
X502737Y506457D01*
X502740Y506435D01*
X502747Y506421D01*
X502751Y506406D01*
Y506395D01*
X502755Y506392D01*
Y506388D01*
X502776Y506330D01*
X502795Y506279D01*
X502820Y506239D01*
X502838Y506206D01*
X502857Y506180D01*
X502871Y506162D01*
X502882Y506151D01*
X502886Y506148D01*
X502918Y506122D01*
X502951Y506101D01*
X502984Y506082D01*
X503017Y506068D01*
X503046Y506057D01*
X503068Y506049D01*
X503082Y506042D01*
X503090D01*
X503130Y506035D01*
X503177Y506031D01*
X503228Y506024D01*
X503279D01*
X503326Y506020D01*
X503774D01*
Y507688D01*
D02*
G37*
%LPD*%
D10*
X486334Y513806D02*
Y521680D01*
Y513806D02*
X498483D01*
X486334Y521680D02*
X498483D01*
X498483Y513806D02*
X504333D01*
X498483Y521680D02*
X504333D01*
X504333Y513806D02*
X504333Y521680D01*
X509051Y464370D02*
Y472244D01*
Y464370D02*
X514902D01*
X509051Y472244D02*
X514902D01*
Y464370D02*
X527051D01*
X514902Y472244D02*
X527051D01*
Y464370D02*
Y472244D01*
X497743Y816929D02*
Y818504D01*
X475486Y816929D02*
Y818504D01*
X473228Y780315D02*
X500000D01*
Y787062D01*
X473228Y816929D02*
X475486D01*
X473228Y787062D02*
X475484D01*
X497745D02*
Y800787D01*
X473228D02*
Y816929D01*
X497745Y800787D02*
X500000D01*
X473228D02*
X475484D01*
X500000D02*
Y816929D01*
X473228Y780315D02*
Y787062D01*
X475486Y818504D02*
X497743D01*
X475484Y787062D02*
Y800787D01*
X497745Y787062D02*
X500000D01*
X497743Y816929D02*
X500000D01*
D11*
X529918Y695963D02*
G03*
X529918Y695963I-17717J0D01*
G01*
X396850Y368642D02*
G03*
X396850Y368642I-11811J0D01*
G01*
X376181Y733354D02*
Y747835D01*
X364370Y733354D02*
X376181D01*
X364370D02*
Y747835D01*
X376181D01*
X336124Y630487D02*
Y636287D01*
X346924Y630487D02*
Y636287D01*
X336124Y630487D02*
X346924Y630487D01*
X336124Y636287D02*
X346924Y636287D01*
X336124Y642776D02*
X346924D01*
X336124Y636976D02*
X346924D01*
Y642776D01*
X336124Y636976D02*
Y642776D01*
X377461Y623610D02*
Y638091D01*
X365650Y623610D02*
X377461D01*
X365650D02*
Y638091D01*
X377461D01*
X400613Y580242D02*
X406626Y586255D01*
X396716Y584139D02*
X402729Y590152D01*
X406626Y586255D01*
X396716Y584139D02*
X400613Y580242D01*
X527658Y650185D02*
Y664665D01*
X515846Y650185D02*
X527658D01*
X515846D02*
Y664665D01*
X527658D01*
X440328Y627854D02*
X448832D01*
X440328Y633366D02*
X448832D01*
Y627854D02*
Y633366D01*
X440328Y627854D02*
Y633366D01*
X508284Y501094D02*
Y512094D01*
X481284D02*
X508284D01*
X481284Y501094D02*
Y512094D01*
Y501094D02*
X508284D01*
X512146Y486319D02*
X523957D01*
X512146Y479626D02*
X523957D01*
X512146D02*
Y486319D01*
X523957Y479626D02*
Y486319D01*
X477402Y417913D02*
X489331D01*
X477402Y400197D02*
X489331D01*
X477402D02*
Y417913D01*
X489331Y400197D02*
Y417913D01*
X495020Y414468D02*
X501713D01*
X495020Y402658D02*
X501713D01*
Y414468D01*
X495020Y402658D02*
Y414468D01*
X484404Y367732D02*
X490204D01*
X484404Y356932D02*
X490204D01*
X484404D02*
Y367732D01*
X490204Y356932D02*
Y367732D01*
X496679Y356932D02*
Y367732D01*
X490879Y356932D02*
Y367732D01*
Y356932D02*
X496679D01*
X490879Y367732D02*
X496679D01*
X427244Y383110D02*
X435748D01*
X427244Y388622D02*
X435748D01*
Y383110D02*
Y388622D01*
X427244Y383110D02*
Y388622D01*
X334660Y388375D02*
X345460Y388375D01*
X334660Y394175D02*
X345460Y394175D01*
X334660Y388375D02*
Y394175D01*
X345460Y388375D02*
Y394175D01*
X345460Y400448D02*
X345460Y394648D01*
X334660Y394648D02*
Y400448D01*
X345460Y400448D01*
X334660Y394648D02*
X345460Y394648D01*
X503006Y626194D02*
Y636995D01*
X508806Y626194D02*
Y636995D01*
X503006Y626194D02*
X508806D01*
X503006Y636995D02*
X508806D01*
X508804Y688793D02*
Y699593D01*
X503004Y688793D02*
Y699593D01*
X508804D01*
X503004Y688793D02*
X508804D01*
X354187Y626194D02*
Y636995D01*
X359987Y626194D02*
Y636995D01*
X354187Y626194D02*
X359987D01*
X354187Y636995D02*
X359987D01*
X359985Y688793D02*
Y699593D01*
X354185Y688793D02*
Y699593D01*
X359985D01*
X354185Y688793D02*
X359985D01*
D12*
X514705Y492047D02*
G03*
X514705Y492047I-394J0D01*
G01*
X487560Y402855D02*
G03*
X487560Y402855I-394J0D01*
G01*
X489685Y404823D02*
G03*
X489685Y404823I-394J0D01*
G01*
X419354Y417244D02*
G03*
X419354Y417244I-394J0D01*
G01*
X361811Y371654D02*
G03*
X361811Y371654I-12598J0D01*
G01*
X527165D02*
G03*
X527165Y371654I-12598J0D01*
G01*
X361811Y773228D02*
G03*
X361811Y773228I-12598J0D01*
G01*
X527165D02*
G03*
X527165Y773228I-12598J0D01*
G01*
X499088Y617224D02*
Y643996D01*
X471824Y617224D02*
X499088D01*
X471824D02*
Y643996D01*
X499088D01*
X495508Y539544D02*
Y566316D01*
X522771D01*
Y539544D02*
Y566316D01*
X495508Y539544D02*
X522771D01*
X528740Y402362D02*
Y443307D01*
X511024Y402362D02*
X528740D01*
X511024D02*
Y443307D01*
X528740D01*
X334646Y528248D02*
Y565256D01*
X348819D01*
Y528248D02*
Y565256D01*
X334646Y528248D02*
X348819D01*
X481393Y466542D02*
Y495883D01*
X507977D01*
Y466542D02*
Y495883D01*
X481393Y466542D02*
X507977D01*
X394783Y380256D02*
X394783Y419232D01*
X410138Y380256D02*
Y419232D01*
X394783Y380256D02*
X410138D01*
X394783Y419232D02*
X410138Y419232D01*
X416732Y356076D02*
Y358702D01*
X446260Y356076D02*
Y358702D01*
X416732D02*
Y377796D01*
Y358702D02*
X446260D01*
X416732Y377796D02*
X446260D01*
X416732Y356076D02*
X446260D01*
Y360867D02*
Y377796D01*
Y358702D02*
Y360867D01*
X478596Y564711D02*
X502506D01*
X478596Y540801D02*
Y564711D01*
Y540801D02*
X502506D01*
Y564711D01*
X419541Y584396D02*
X443451D01*
X419541Y560486D02*
Y584396D01*
Y560486D02*
X443451D01*
Y584396D01*
X360486Y540801D02*
X360486Y564711D01*
X384396Y564711D01*
Y540801D02*
Y564711D01*
X360486Y540801D02*
X384396D01*
X419541Y521116D02*
X443451Y521116D01*
Y545026D01*
X419541Y545026D02*
X443451Y545026D01*
X419541Y521116D02*
Y545026D01*
X360486Y509592D02*
X384396Y509592D01*
X360486Y485683D02*
Y509592D01*
Y485683D02*
X384396Y485683D01*
X384396Y509592D01*
X478596Y509593D02*
X502506Y509593D01*
X478596Y485683D02*
X478596Y509593D01*
X478596Y485683D02*
X502506Y485683D01*
X502506Y509593D02*
X502506Y485683D01*
X419541Y509592D02*
X443451Y509592D01*
X419541Y485683D02*
Y509592D01*
Y485683D02*
X443451Y485683D01*
Y509592D01*
X419541Y478096D02*
X443451D01*
X419541Y454187D02*
Y478096D01*
Y454187D02*
X443451D01*
Y478096D01*
X360486Y478096D02*
X384396D01*
X360486Y454187D02*
X360486Y478096D01*
X360486Y454187D02*
X384396D01*
X384396Y478096D02*
X384396Y454187D01*
X360486Y446600D02*
X384396Y446600D01*
X360486Y422691D02*
Y446600D01*
Y422691D02*
X384396D01*
X384396Y446600D02*
X384396Y422691D01*
X419541Y446600D02*
X443451D01*
X419541Y422691D02*
Y446600D01*
Y422691D02*
X443451D01*
Y446600D01*
X478596Y478096D02*
X502506D01*
X478596Y454187D02*
Y478096D01*
Y454187D02*
X502506D01*
Y478096D01*
X478596Y446600D02*
X502506D01*
X478596D02*
X478596Y422691D01*
X502506Y422691D01*
Y446600D01*
X478596Y415104D02*
X502506D01*
X478596Y391195D02*
Y415104D01*
Y391195D02*
X502506Y391195D01*
X502506Y415104D01*
X419541Y415104D02*
X443451D01*
X419541Y391195D02*
Y415104D01*
Y391195D02*
X443451D01*
Y415104D01*
X384396Y391195D02*
Y415104D01*
X360486Y391195D02*
X384396Y391195D01*
X360486Y391195D02*
Y415104D01*
X384396Y415104D01*
X529606Y580925D02*
Y620926D01*
X519607D02*
X529606D01*
X519607Y580925D02*
Y620926D01*
Y580925D02*
X529606D01*
X446260Y384646D02*
Y419685D01*
X475787D01*
Y384646D02*
Y419685D01*
X446260Y384646D02*
X475787D01*
X334075Y580925D02*
X344075D01*
X334075D02*
Y620926D01*
X344075D01*
Y580925D02*
Y620926D01*
X400394Y723903D02*
Y786303D01*
Y723903D02*
X444294Y723903D01*
Y717803D02*
Y723903D01*
Y717803D02*
X462694D01*
Y786303D01*
X400394D02*
X462694D01*
X349213Y371654D02*
Y387402D01*
X333465Y371654D02*
X349213D01*
Y355906D02*
Y371654D01*
X364961D01*
X514567D02*
Y387402D01*
X498819Y371654D02*
X514567D01*
Y355906D02*
Y371654D01*
X530315D01*
X349213Y773228D02*
Y788976D01*
X333465Y773228D02*
X349213D01*
Y757480D02*
Y773228D01*
X364961D01*
X514567D02*
Y788976D01*
X498819Y773228D02*
X514567D01*
Y757480D02*
Y773228D01*
X530315D01*
D15*
X437008Y381930D02*
G03*
X437008Y381930I-394J0D01*
G01*
D16*
X424311Y630315D02*
G03*
X429429Y630315I2559J0D01*
G01*
Y631299D02*
G03*
X424311Y631299I-2559J0D01*
G01*
X359685Y636122D02*
X364724D01*
X359685Y632185D02*
Y636122D01*
X364724Y632185D02*
Y636122D01*
X359685Y625098D02*
Y632185D01*
X364724Y625098D02*
Y632185D01*
X359685Y625098D02*
X364724D01*
X347036Y643577D02*
Y648616D01*
X343099Y648616D02*
X347036Y648616D01*
X343099Y643577D02*
X347036Y643577D01*
X336012Y648616D02*
X343099D01*
X336012Y643577D02*
X343099D01*
X336012D02*
Y648616D01*
X400945Y369528D02*
Y374567D01*
Y369528D02*
X408032D01*
X400945Y374567D02*
X408032D01*
Y369528D02*
X411969D01*
X408032Y374567D02*
X411969D01*
Y369528D02*
Y374567D01*
X380681Y414921D02*
X385720D01*
X380681Y407835D02*
Y414921D01*
X385720Y407835D02*
Y414921D01*
X380681Y403898D02*
Y407835D01*
X385720Y403898D02*
Y407835D01*
X380681Y403898D02*
X385720D01*
X408134Y553066D02*
X411698Y556630D01*
X408134Y553066D02*
X410918Y550282D01*
X411698Y556630D02*
X414482Y553846D01*
X410918Y550282D02*
X415929Y545271D01*
X414482Y553846D02*
X419493Y548835D01*
X415929Y545271D02*
X419493Y548835D01*
X494971Y445665D02*
Y453740D01*
X502058Y445665D02*
Y453740D01*
X494971Y445665D02*
X502058D01*
X494971Y458665D02*
X502058D01*
X494971Y453740D02*
Y458665D01*
X502058Y453740D02*
Y458665D01*
X500278Y529429D02*
Y537504D01*
X493192Y529429D02*
Y537504D01*
X500278D01*
X493191Y524504D02*
X500278D01*
Y529429D01*
X493191Y524504D02*
X493192Y529429D01*
X377795Y748228D02*
X382835D01*
X377795Y741142D02*
Y748228D01*
X382835Y741142D02*
Y748228D01*
X377795Y737205D02*
Y741142D01*
X382835Y737205D02*
Y741142D01*
X377795Y737205D02*
X382835D01*
X375886Y726909D02*
Y731949D01*
X371949D02*
X375886D01*
X371949Y726909D02*
X375886D01*
X364862Y731949D02*
X371949D01*
X364862Y726909D02*
X371949D01*
X364862D02*
Y731949D01*
X336012Y624552D02*
Y629591D01*
Y624552D02*
X343099D01*
X336012Y629591D02*
X343099D01*
Y624552D02*
X347036Y624552D01*
X343099Y629591D02*
X347036Y629591D01*
Y624552D02*
Y629591D01*
X366339Y617264D02*
Y622303D01*
Y617264D02*
X373425D01*
X366339Y622303D02*
X373425D01*
Y617264D02*
X377362D01*
X373425Y622303D02*
X377362D01*
Y617264D02*
Y622303D01*
X370099Y660177D02*
Y665217D01*
Y660177D02*
X377186D01*
X370099Y665217D02*
X377186D01*
Y660177D02*
X381123D01*
X377186Y665217D02*
X381123D01*
Y660177D02*
Y665217D01*
X370099Y652989D02*
Y658028D01*
Y652989D02*
X377186D01*
X370099Y658028D02*
X377186D01*
Y652989D02*
X381123D01*
X377186Y658028D02*
X381123D01*
Y652989D02*
Y658028D01*
Y645801D02*
Y650840D01*
X374036D02*
X381123D01*
X374036Y645801D02*
X381123D01*
X370099Y650840D02*
X374036D01*
X370099Y645801D02*
X374036D01*
X370099D02*
Y650840D01*
X429429Y630315D02*
Y631299D01*
X424311Y630315D02*
Y631299D01*
X519232Y677362D02*
X524272D01*
X519232Y670276D02*
Y677362D01*
X524272Y670276D02*
Y677362D01*
X519232Y666339D02*
X519232Y670276D01*
X524272Y666339D02*
X524272Y670276D01*
X519232Y666339D02*
X524272D01*
X527658Y642953D02*
Y647992D01*
X523721D02*
X527658D01*
X523721Y642953D02*
X527658D01*
X516634Y647992D02*
X523721D01*
X516634Y642953D02*
X523721D01*
X516634D02*
Y647992D01*
X514567Y532579D02*
X514567Y524504D01*
X521654Y532579D02*
X521654Y524504D01*
X514567D02*
X521654D01*
X514567Y537504D02*
X521654Y537504D01*
X514567Y532579D02*
X514567Y537504D01*
X521654Y532579D02*
Y537504D01*
X492618Y529429D02*
Y537504D01*
X485532Y529429D02*
Y537504D01*
X492618D01*
X485532Y524504D02*
X492618Y524504D01*
Y529429D01*
X485532Y524504D02*
Y529429D01*
X512402Y504961D02*
Y510000D01*
Y504961D02*
X516339Y504961D01*
X512402Y510000D02*
X516339Y510000D01*
Y504961D02*
X523425D01*
X516339Y510000D02*
X523425D01*
Y504961D02*
Y510000D01*
X523425Y498612D02*
Y503652D01*
X519488D02*
X523425D01*
X519488Y498612D02*
X523425D01*
X512402Y503652D02*
X519488D01*
X512402Y498612D02*
X519488D01*
X512402D02*
Y503652D01*
X512402Y492264D02*
Y497303D01*
Y492264D02*
X516339Y492264D01*
X512402Y497303D02*
X516339Y497303D01*
Y492264D02*
X523425D01*
X516339Y497303D02*
X523425D01*
Y492264D02*
Y497303D01*
X518504Y445665D02*
Y453740D01*
X525591Y445665D02*
X525591Y453740D01*
X518504Y445665D02*
X525591D01*
X518504Y458665D02*
X525591D01*
X518504Y453740D02*
Y458665D01*
X525591D02*
X525591Y453740D01*
X503740Y416648D02*
Y421687D01*
X496654D02*
X503740D01*
X496654Y416648D02*
X503740D01*
X492717Y421687D02*
X496654D01*
X492717Y416648D02*
X496654D01*
X492717D02*
Y421687D01*
X497067Y389150D02*
Y394189D01*
Y389150D02*
X504153D01*
X497067Y394189D02*
X504153D01*
Y389150D02*
X508090D01*
X504153Y394189D02*
X508090D01*
Y389150D02*
Y394189D01*
X484784Y380276D02*
X489823D01*
X484784Y376339D02*
Y380276D01*
X489823Y376339D02*
Y380276D01*
X484784Y369252D02*
Y376339D01*
X489823Y369252D02*
Y376339D01*
X484784Y369252D02*
X489823D01*
X491260Y380276D02*
X496299D01*
X491260Y376339D02*
Y380276D01*
X496299Y376339D02*
Y380276D01*
X491260Y369252D02*
Y376339D01*
X496299Y369252D02*
Y376339D01*
X491260Y369252D02*
X496299D01*
X459646Y358110D02*
Y363150D01*
X452559D02*
X459646D01*
X452559Y358110D02*
X459646D01*
X448622Y363150D02*
X452559D01*
X448622Y358110D02*
X452559D01*
X448622D02*
Y363150D01*
X367067Y414921D02*
X372106D01*
X367067Y407835D02*
Y414921D01*
X372106Y407835D02*
Y414921D01*
X367067Y403898D02*
Y407835D01*
X372106Y403898D02*
Y407835D01*
X367067Y403898D02*
X372106D01*
X373874Y414921D02*
X378913Y414921D01*
X373874Y407835D02*
Y414921D01*
X378913Y407835D02*
Y414921D01*
X373874Y403898D02*
Y407835D01*
X378913Y407835D02*
X378913Y403898D01*
X373874D02*
X378913D01*
X357874Y395029D02*
Y400068D01*
X353937Y400068D02*
X357874Y400068D01*
X353937Y395029D02*
X357874Y395029D01*
X346850Y400068D02*
X353937D01*
X346850Y395029D02*
X353937D01*
X346850D02*
Y400068D01*
X357874Y388756D02*
Y393796D01*
X353937Y393796D02*
X357874Y393796D01*
X353937Y388756D02*
X357874Y388756D01*
X346850Y393796D02*
X353937D01*
X346850Y388756D02*
X353937D01*
X346850D02*
Y393796D01*
D126*
X431496Y553511D02*
X450426Y572441D01*
X431496Y591371D02*
X450426Y572441D01*
X412566D02*
X431496Y591371D01*
X412566Y572441D02*
X431496Y553511D01*
M02*
