G04*
G04 #@! TF.GenerationSoftware,Altium Limited,Altium Designer,23.0.1 (38)*
G04*
G04 Layer_Color=128*
%FSLAX25Y25*%
%MOIN*%
G70*
G04*
G04 #@! TF.SameCoordinates,D75D10E2-2566-4FA1-905F-50A539E45678*
G04*
G04*
G04 #@! TF.FilePolarity,Positive*
G04*
G01*
G75*
G04:AMPARAMS|DCode=18|XSize=41.34mil|YSize=31.5mil|CornerRadius=3.15mil|HoleSize=0mil|Usage=FLASHONLY|Rotation=0.000|XOffset=0mil|YOffset=0mil|HoleType=Round|Shape=RoundedRectangle|*
%AMROUNDEDRECTD18*
21,1,0.04134,0.02520,0,0,0.0*
21,1,0.03504,0.03150,0,0,0.0*
1,1,0.00630,0.01752,-0.01260*
1,1,0.00630,-0.01752,-0.01260*
1,1,0.00630,-0.01752,0.01260*
1,1,0.00630,0.01752,0.01260*
%
%ADD18ROUNDEDRECTD18*%
G04:AMPARAMS|DCode=20|XSize=53.15mil|YSize=165.35mil|CornerRadius=5.32mil|HoleSize=0mil|Usage=FLASHONLY|Rotation=180.000|XOffset=0mil|YOffset=0mil|HoleType=Round|Shape=RoundedRectangle|*
%AMROUNDEDRECTD20*
21,1,0.05315,0.15472,0,0,180.0*
21,1,0.04252,0.16535,0,0,180.0*
1,1,0.01063,-0.02126,0.07736*
1,1,0.01063,0.02126,0.07736*
1,1,0.01063,0.02126,-0.07736*
1,1,0.01063,-0.02126,-0.07736*
%
%ADD20ROUNDEDRECTD20*%
%ADD53C,0.07087*%
G04:AMPARAMS|DCode=63|XSize=35.43mil|YSize=39.37mil|CornerRadius=3.54mil|HoleSize=0mil|Usage=FLASHONLY|Rotation=90.000|XOffset=0mil|YOffset=0mil|HoleType=Round|Shape=RoundedRectangle|*
%AMROUNDEDRECTD63*
21,1,0.03543,0.03228,0,0,90.0*
21,1,0.02835,0.03937,0,0,90.0*
1,1,0.00709,0.01614,0.01417*
1,1,0.00709,0.01614,-0.01417*
1,1,0.00709,-0.01614,-0.01417*
1,1,0.00709,-0.01614,0.01417*
%
%ADD63ROUNDEDRECTD63*%
G04:AMPARAMS|DCode=64|XSize=35.43mil|YSize=39.37mil|CornerRadius=3.54mil|HoleSize=0mil|Usage=FLASHONLY|Rotation=0.000|XOffset=0mil|YOffset=0mil|HoleType=Round|Shape=RoundedRectangle|*
%AMROUNDEDRECTD64*
21,1,0.03543,0.03228,0,0,0.0*
21,1,0.02835,0.03937,0,0,0.0*
1,1,0.00709,0.01417,-0.01614*
1,1,0.00709,-0.01417,-0.01614*
1,1,0.00709,-0.01417,0.01614*
1,1,0.00709,0.01417,0.01614*
%
%ADD64ROUNDEDRECTD64*%
%ADD65O,0.07087X0.02362*%
%ADD66O,0.02362X0.07087*%
G04:AMPARAMS|DCode=67|XSize=35.43mil|YSize=39.37mil|CornerRadius=3.54mil|HoleSize=0mil|Usage=FLASHONLY|Rotation=135.000|XOffset=0mil|YOffset=0mil|HoleType=Round|Shape=RoundedRectangle|*
%AMROUNDEDRECTD67*
21,1,0.03543,0.03228,0,0,135.0*
21,1,0.02835,0.03937,0,0,135.0*
1,1,0.00709,0.00139,0.02144*
1,1,0.00709,0.02144,0.00139*
1,1,0.00709,-0.00139,-0.02144*
1,1,0.00709,-0.02144,-0.00139*
%
%ADD67ROUNDEDRECTD67*%
G04:AMPARAMS|DCode=68|XSize=39.37mil|YSize=55.12mil|CornerRadius=4.92mil|HoleSize=0mil|Usage=FLASHONLY|Rotation=90.000|XOffset=0mil|YOffset=0mil|HoleType=Round|Shape=RoundedRectangle|*
%AMROUNDEDRECTD68*
21,1,0.03937,0.04528,0,0,90.0*
21,1,0.02953,0.05512,0,0,90.0*
1,1,0.00984,0.02264,0.01476*
1,1,0.00984,0.02264,-0.01476*
1,1,0.00984,-0.02264,-0.01476*
1,1,0.00984,-0.02264,0.01476*
%
%ADD68ROUNDEDRECTD68*%
G04:AMPARAMS|DCode=69|XSize=51.18mil|YSize=66.93mil|CornerRadius=5.12mil|HoleSize=0mil|Usage=FLASHONLY|Rotation=0.000|XOffset=0mil|YOffset=0mil|HoleType=Round|Shape=RoundedRectangle|*
%AMROUNDEDRECTD69*
21,1,0.05118,0.05669,0,0,0.0*
21,1,0.04095,0.06693,0,0,0.0*
1,1,0.01024,0.02047,-0.02835*
1,1,0.01024,-0.02047,-0.02835*
1,1,0.01024,-0.02047,0.02835*
1,1,0.01024,0.02047,0.02835*
%
%ADD69ROUNDEDRECTD69*%
G04:AMPARAMS|DCode=70|XSize=118.11mil|YSize=59.06mil|CornerRadius=5.91mil|HoleSize=0mil|Usage=FLASHONLY|Rotation=0.000|XOffset=0mil|YOffset=0mil|HoleType=Round|Shape=RoundedRectangle|*
%AMROUNDEDRECTD70*
21,1,0.11811,0.04724,0,0,0.0*
21,1,0.10630,0.05906,0,0,0.0*
1,1,0.01181,0.05315,-0.02362*
1,1,0.01181,-0.05315,-0.02362*
1,1,0.01181,-0.05315,0.02362*
1,1,0.01181,0.05315,0.02362*
%
%ADD70ROUNDEDRECTD70*%
G04:AMPARAMS|DCode=71|XSize=37.01mil|YSize=40.16mil|CornerRadius=3.7mil|HoleSize=0mil|Usage=FLASHONLY|Rotation=270.000|XOffset=0mil|YOffset=0mil|HoleType=Round|Shape=RoundedRectangle|*
%AMROUNDEDRECTD71*
21,1,0.03701,0.03276,0,0,270.0*
21,1,0.02961,0.04016,0,0,270.0*
1,1,0.00740,-0.01638,-0.01480*
1,1,0.00740,-0.01638,0.01480*
1,1,0.00740,0.01638,0.01480*
1,1,0.00740,0.01638,-0.01480*
%
%ADD71ROUNDEDRECTD71*%
G04:AMPARAMS|DCode=72|XSize=37.4mil|YSize=35.43mil|CornerRadius=3.54mil|HoleSize=0mil|Usage=FLASHONLY|Rotation=90.000|XOffset=0mil|YOffset=0mil|HoleType=Round|Shape=RoundedRectangle|*
%AMROUNDEDRECTD72*
21,1,0.03740,0.02835,0,0,90.0*
21,1,0.03032,0.03543,0,0,90.0*
1,1,0.00709,0.01417,0.01516*
1,1,0.00709,0.01417,-0.01516*
1,1,0.00709,-0.01417,-0.01516*
1,1,0.00709,-0.01417,0.01516*
%
%ADD72ROUNDEDRECTD72*%
G04:AMPARAMS|DCode=73|XSize=37.01mil|YSize=40.16mil|CornerRadius=3.7mil|HoleSize=0mil|Usage=FLASHONLY|Rotation=180.000|XOffset=0mil|YOffset=0mil|HoleType=Round|Shape=RoundedRectangle|*
%AMROUNDEDRECTD73*
21,1,0.03701,0.03276,0,0,180.0*
21,1,0.02961,0.04016,0,0,180.0*
1,1,0.00740,-0.01480,0.01638*
1,1,0.00740,0.01480,0.01638*
1,1,0.00740,0.01480,-0.01638*
1,1,0.00740,-0.01480,-0.01638*
%
%ADD73ROUNDEDRECTD73*%
G04:AMPARAMS|DCode=74|XSize=41.34mil|YSize=31.5mil|CornerRadius=3.15mil|HoleSize=0mil|Usage=FLASHONLY|Rotation=270.000|XOffset=0mil|YOffset=0mil|HoleType=Round|Shape=RoundedRectangle|*
%AMROUNDEDRECTD74*
21,1,0.04134,0.02520,0,0,270.0*
21,1,0.03504,0.03150,0,0,270.0*
1,1,0.00630,-0.01260,-0.01752*
1,1,0.00630,-0.01260,0.01752*
1,1,0.00630,0.01260,0.01752*
1,1,0.00630,0.01260,-0.01752*
%
%ADD74ROUNDEDRECTD74*%
G04:AMPARAMS|DCode=75|XSize=59.06mil|YSize=47.24mil|CornerRadius=4.72mil|HoleSize=0mil|Usage=FLASHONLY|Rotation=90.000|XOffset=0mil|YOffset=0mil|HoleType=Round|Shape=RoundedRectangle|*
%AMROUNDEDRECTD75*
21,1,0.05906,0.03780,0,0,90.0*
21,1,0.04961,0.04724,0,0,90.0*
1,1,0.00945,0.01890,0.02480*
1,1,0.00945,0.01890,-0.02480*
1,1,0.00945,-0.01890,-0.02480*
1,1,0.00945,-0.01890,0.02480*
%
%ADD75ROUNDEDRECTD75*%
G04:AMPARAMS|DCode=76|XSize=66.93mil|YSize=94.49mil|CornerRadius=6.69mil|HoleSize=0mil|Usage=FLASHONLY|Rotation=45.000|XOffset=0mil|YOffset=0mil|HoleType=Round|Shape=RoundedRectangle|*
%AMROUNDEDRECTD76*
21,1,0.06693,0.08110,0,0,45.0*
21,1,0.05354,0.09449,0,0,45.0*
1,1,0.01339,0.04760,-0.00974*
1,1,0.01339,0.00974,-0.04760*
1,1,0.01339,-0.04760,0.00974*
1,1,0.01339,-0.00974,0.04760*
%
%ADD76ROUNDEDRECTD76*%
G04:AMPARAMS|DCode=77|XSize=37.01mil|YSize=40.16mil|CornerRadius=3.7mil|HoleSize=0mil|Usage=FLASHONLY|Rotation=45.000|XOffset=0mil|YOffset=0mil|HoleType=Round|Shape=RoundedRectangle|*
%AMROUNDEDRECTD77*
21,1,0.03701,0.03276,0,0,45.0*
21,1,0.02961,0.04016,0,0,45.0*
1,1,0.00740,0.02205,-0.00111*
1,1,0.00740,0.00111,-0.02205*
1,1,0.00740,-0.02205,0.00111*
1,1,0.00740,-0.00111,0.02205*
%
%ADD77ROUNDEDRECTD77*%
G04:AMPARAMS|DCode=78|XSize=39.37mil|YSize=55.12mil|CornerRadius=4.92mil|HoleSize=0mil|Usage=FLASHONLY|Rotation=45.000|XOffset=0mil|YOffset=0mil|HoleType=Round|Shape=RoundedRectangle|*
%AMROUNDEDRECTD78*
21,1,0.03937,0.04528,0,0,45.0*
21,1,0.02953,0.05512,0,0,45.0*
1,1,0.00984,0.02645,-0.00557*
1,1,0.00984,0.00557,-0.02645*
1,1,0.00984,-0.02645,0.00557*
1,1,0.00984,-0.00557,0.02645*
%
%ADD78ROUNDEDRECTD78*%
G04:AMPARAMS|DCode=79|XSize=39.37mil|YSize=55.12mil|CornerRadius=4.92mil|HoleSize=0mil|Usage=FLASHONLY|Rotation=0.000|XOffset=0mil|YOffset=0mil|HoleType=Round|Shape=RoundedRectangle|*
%AMROUNDEDRECTD79*
21,1,0.03937,0.04528,0,0,0.0*
21,1,0.02953,0.05512,0,0,0.0*
1,1,0.00984,0.01476,-0.02264*
1,1,0.00984,-0.01476,-0.02264*
1,1,0.00984,-0.01476,0.02264*
1,1,0.00984,0.01476,0.02264*
%
%ADD79ROUNDEDRECTD79*%
G04:AMPARAMS|DCode=80|XSize=59.06mil|YSize=21.65mil|CornerRadius=3.25mil|HoleSize=0mil|Usage=FLASHONLY|Rotation=315.000|XOffset=0mil|YOffset=0mil|HoleType=Round|Shape=RoundedRectangle|*
%AMROUNDEDRECTD80*
21,1,0.05906,0.01516,0,0,315.0*
21,1,0.05256,0.02165,0,0,315.0*
1,1,0.00650,0.01322,-0.02394*
1,1,0.00650,-0.02394,0.01322*
1,1,0.00650,-0.01322,0.02394*
1,1,0.00650,0.02394,-0.01322*
%
%ADD80ROUNDEDRECTD80*%
G04:AMPARAMS|DCode=81|XSize=21.65mil|YSize=59.06mil|CornerRadius=3.25mil|HoleSize=0mil|Usage=FLASHONLY|Rotation=315.000|XOffset=0mil|YOffset=0mil|HoleType=Round|Shape=RoundedRectangle|*
%AMROUNDEDRECTD81*
21,1,0.02165,0.05256,0,0,315.0*
21,1,0.01516,0.05906,0,0,315.0*
1,1,0.00650,-0.01322,-0.02394*
1,1,0.00650,-0.02394,-0.01322*
1,1,0.00650,0.01322,0.02394*
1,1,0.00650,0.02394,0.01322*
%
%ADD81ROUNDEDRECTD81*%
G04:AMPARAMS|DCode=82|XSize=98.43mil|YSize=66.93mil|CornerRadius=9.71mil|HoleSize=0mil|Usage=FLASHONLY|Rotation=0.000|XOffset=0mil|YOffset=0mil|HoleType=Round|Shape=RoundedRectangle|*
%AMROUNDEDRECTD82*
21,1,0.09843,0.04752,0,0,0.0*
21,1,0.07902,0.06693,0,0,0.0*
1,1,0.01941,0.03951,-0.02376*
1,1,0.01941,-0.03951,-0.02376*
1,1,0.01941,-0.03951,0.02376*
1,1,0.01941,0.03951,0.02376*
%
%ADD82ROUNDEDRECTD82*%
G04:AMPARAMS|DCode=83|XSize=95.43mil|YSize=134.65mil|CornerRadius=9.54mil|HoleSize=0mil|Usage=FLASHONLY|Rotation=270.000|XOffset=0mil|YOffset=0mil|HoleType=Round|Shape=RoundedRectangle|*
%AMROUNDEDRECTD83*
21,1,0.09543,0.11556,0,0,270.0*
21,1,0.07635,0.13465,0,0,270.0*
1,1,0.01909,-0.05778,-0.03817*
1,1,0.01909,-0.05778,0.03817*
1,1,0.01909,0.05778,0.03817*
1,1,0.01909,0.05778,-0.03817*
%
%ADD83ROUNDEDRECTD83*%
G04:AMPARAMS|DCode=84|XSize=53.94mil|YSize=23.23mil|CornerRadius=5.81mil|HoleSize=0mil|Usage=FLASHONLY|Rotation=270.000|XOffset=0mil|YOffset=0mil|HoleType=Round|Shape=RoundedRectangle|*
%AMROUNDEDRECTD84*
21,1,0.05394,0.01161,0,0,270.0*
21,1,0.04232,0.02323,0,0,270.0*
1,1,0.01161,-0.00581,-0.02116*
1,1,0.01161,-0.00581,0.02116*
1,1,0.01161,0.00581,0.02116*
1,1,0.01161,0.00581,-0.02116*
%
%ADD84ROUNDEDRECTD84*%
G04:AMPARAMS|DCode=85|XSize=61.42mil|YSize=15.75mil|CornerRadius=1.97mil|HoleSize=0mil|Usage=FLASHONLY|Rotation=90.000|XOffset=0mil|YOffset=0mil|HoleType=Round|Shape=RoundedRectangle|*
%AMROUNDEDRECTD85*
21,1,0.06142,0.01181,0,0,90.0*
21,1,0.05748,0.01575,0,0,90.0*
1,1,0.00394,0.00591,0.02874*
1,1,0.00394,0.00591,-0.02874*
1,1,0.00394,-0.00591,-0.02874*
1,1,0.00394,-0.00591,0.02874*
%
%ADD85ROUNDEDRECTD85*%
G04:AMPARAMS|DCode=86|XSize=53.94mil|YSize=23.23mil|CornerRadius=5.81mil|HoleSize=0mil|Usage=FLASHONLY|Rotation=180.000|XOffset=0mil|YOffset=0mil|HoleType=Round|Shape=RoundedRectangle|*
%AMROUNDEDRECTD86*
21,1,0.05394,0.01161,0,0,180.0*
21,1,0.04232,0.02323,0,0,180.0*
1,1,0.01161,-0.02116,0.00581*
1,1,0.01161,0.02116,0.00581*
1,1,0.01161,0.02116,-0.00581*
1,1,0.01161,-0.02116,-0.00581*
%
%ADD86ROUNDEDRECTD86*%
%ADD87R,0.01968X0.01968*%
G04:AMPARAMS|DCode=88|XSize=51.18mil|YSize=27.56mil|CornerRadius=2.76mil|HoleSize=0mil|Usage=FLASHONLY|Rotation=0.000|XOffset=0mil|YOffset=0mil|HoleType=Round|Shape=RoundedRectangle|*
%AMROUNDEDRECTD88*
21,1,0.05118,0.02205,0,0,0.0*
21,1,0.04567,0.02756,0,0,0.0*
1,1,0.00551,0.02284,-0.01102*
1,1,0.00551,-0.02284,-0.01102*
1,1,0.00551,-0.02284,0.01102*
1,1,0.00551,0.02284,0.01102*
%
%ADD88ROUNDEDRECTD88*%
G04:AMPARAMS|DCode=89|XSize=77.56mil|YSize=23.62mil|CornerRadius=2.95mil|HoleSize=0mil|Usage=FLASHONLY|Rotation=180.000|XOffset=0mil|YOffset=0mil|HoleType=Round|Shape=RoundedRectangle|*
%AMROUNDEDRECTD89*
21,1,0.07756,0.01772,0,0,180.0*
21,1,0.07165,0.02362,0,0,180.0*
1,1,0.00591,-0.03583,0.00886*
1,1,0.00591,0.03583,0.00886*
1,1,0.00591,0.03583,-0.00886*
1,1,0.00591,-0.03583,-0.00886*
%
%ADD89ROUNDEDRECTD89*%
G04:AMPARAMS|DCode=90|XSize=15.75mil|YSize=53.15mil|CornerRadius=1.58mil|HoleSize=0mil|Usage=FLASHONLY|Rotation=180.000|XOffset=0mil|YOffset=0mil|HoleType=Round|Shape=RoundedRectangle|*
%AMROUNDEDRECTD90*
21,1,0.01575,0.05000,0,0,180.0*
21,1,0.01260,0.05315,0,0,180.0*
1,1,0.00315,-0.00630,0.02500*
1,1,0.00315,0.00630,0.02500*
1,1,0.00315,0.00630,-0.02500*
1,1,0.00315,-0.00630,-0.02500*
%
%ADD90ROUNDEDRECTD90*%
G04:AMPARAMS|DCode=91|XSize=157.48mil|YSize=47.24mil|CornerRadius=4.72mil|HoleSize=0mil|Usage=FLASHONLY|Rotation=90.000|XOffset=0mil|YOffset=0mil|HoleType=Round|Shape=RoundedRectangle|*
%AMROUNDEDRECTD91*
21,1,0.15748,0.03780,0,0,90.0*
21,1,0.14803,0.04724,0,0,90.0*
1,1,0.00945,0.01890,0.07402*
1,1,0.00945,0.01890,-0.07402*
1,1,0.00945,-0.01890,-0.07402*
1,1,0.00945,-0.01890,0.07402*
%
%ADD91ROUNDEDRECTD91*%
G04:AMPARAMS|DCode=92|XSize=61.02mil|YSize=102.36mil|CornerRadius=6.1mil|HoleSize=0mil|Usage=FLASHONLY|Rotation=0.000|XOffset=0mil|YOffset=0mil|HoleType=Round|Shape=RoundedRectangle|*
%AMROUNDEDRECTD92*
21,1,0.06102,0.09016,0,0,0.0*
21,1,0.04882,0.10236,0,0,0.0*
1,1,0.01221,0.02441,-0.04508*
1,1,0.01221,-0.02441,-0.04508*
1,1,0.01221,-0.02441,0.04508*
1,1,0.01221,0.02441,0.04508*
%
%ADD92ROUNDEDRECTD92*%
G04:AMPARAMS|DCode=93|XSize=35.43mil|YSize=53.15mil|CornerRadius=3.54mil|HoleSize=0mil|Usage=FLASHONLY|Rotation=0.000|XOffset=0mil|YOffset=0mil|HoleType=Round|Shape=RoundedRectangle|*
%AMROUNDEDRECTD93*
21,1,0.03543,0.04606,0,0,0.0*
21,1,0.02835,0.05315,0,0,0.0*
1,1,0.00709,0.01417,-0.02303*
1,1,0.00709,-0.01417,-0.02303*
1,1,0.00709,-0.01417,0.02303*
1,1,0.00709,0.01417,0.02303*
%
%ADD93ROUNDEDRECTD93*%
G36*
X427444Y633192D02*
X427803Y633044D01*
X428125Y632828D01*
X428399Y632554D01*
X428615Y632232D01*
X428763Y631873D01*
X428839Y631493D01*
Y631299D01*
X424902D01*
Y631299D01*
X424902Y631493D01*
X424977Y631873D01*
X425126Y632232D01*
X425341Y632554D01*
X425615Y632828D01*
X425938Y633044D01*
X426296Y633192D01*
X426676Y633268D01*
X427064Y633268D01*
X427444Y633192D01*
D02*
G37*
G36*
X428839Y630315D02*
Y630121D01*
X428763Y629741D01*
X428615Y629383D01*
X428399Y629060D01*
X428125Y628786D01*
X427803Y628571D01*
X427444Y628422D01*
X427064Y628346D01*
X426676Y628346D01*
X426296Y628422D01*
X425938Y628571D01*
X425615Y628786D01*
X425341Y629060D01*
X425126Y629383D01*
X424977Y629741D01*
X424902Y630121D01*
Y630315D01*
X428839D01*
Y630315D01*
D02*
G37*
G36*
X470524Y375592D02*
X467024D01*
X467024Y379592D01*
X470524D01*
Y375592D01*
D02*
G37*
G36*
X465024D02*
X461524D01*
Y379592D01*
X465024D01*
X465024Y375592D01*
D02*
G37*
G36*
X470524Y368092D02*
X467024D01*
X467024Y372092D01*
X470524D01*
Y368092D01*
D02*
G37*
G36*
X465024Y372092D02*
X465024Y368092D01*
X461524D01*
Y372092D01*
X465024Y372092D01*
D02*
G37*
G36*
X445373Y370313D02*
X445471Y370305D01*
X445568Y370293D01*
X445664Y370275D01*
X445760Y370252D01*
X445854Y370224D01*
X445946Y370192D01*
X446036Y370154D01*
X446125Y370112D01*
X446211Y370065D01*
X446294Y370014D01*
X446375Y369959D01*
X446453Y369899D01*
X446527Y369835D01*
X446598Y369768D01*
X446665Y369697D01*
X446729Y369623D01*
X446789Y369545D01*
X446844Y369464D01*
X446895Y369381D01*
X446942Y369295D01*
X446984Y369206D01*
X447021Y369116D01*
X447054Y369024D01*
X447082Y368930D01*
X447105Y368834D01*
X447123Y368738D01*
X447135Y368641D01*
X447143Y368544D01*
X447146Y368446D01*
Y364705D01*
X447143Y364608D01*
X447135Y364510D01*
X447123Y364413D01*
X447105Y364317D01*
X447082Y364222D01*
X447054Y364128D01*
X447021Y364035D01*
X446984Y363945D01*
X446942Y363857D01*
X446895Y363771D01*
X446844Y363687D01*
X446789Y363606D01*
X446729Y363529D01*
X446665Y363454D01*
X446598Y363383D01*
X446527Y363316D01*
X446453Y363252D01*
X446375Y363193D01*
X446294Y363137D01*
X446211Y363086D01*
X446125Y363039D01*
X446036Y362997D01*
X445946Y362960D01*
X445854Y362927D01*
X445760Y362899D01*
X445664Y362876D01*
X445568Y362859D01*
X445471Y362846D01*
X445373Y362838D01*
X445276Y362835D01*
X440551D01*
Y370316D01*
X445276D01*
X445373Y370313D01*
D02*
G37*
G36*
X422441Y362835D02*
X417717D01*
X417619Y362838D01*
X417521Y362846D01*
X417424Y362859D01*
X417328Y362876D01*
X417233Y362899D01*
X417139Y362927D01*
X417046Y362960D01*
X416956Y362997D01*
X416867Y363039D01*
X416782Y363086D01*
X416698Y363137D01*
X416617Y363193D01*
X416540Y363252D01*
X416465Y363316D01*
X416394Y363383D01*
X416327Y363454D01*
X416263Y363529D01*
X416204Y363606D01*
X416148Y363687D01*
X416097Y363771D01*
X416050Y363857D01*
X416008Y363945D01*
X415971Y364035D01*
X415938Y364128D01*
X415910Y364222D01*
X415887Y364317D01*
X415870Y364413D01*
X415857Y364510D01*
X415849Y364608D01*
X415846Y364705D01*
Y368446D01*
X415849Y368544D01*
X415857Y368641D01*
X415870Y368738D01*
X415887Y368834D01*
X415910Y368930D01*
X415938Y369024D01*
X415971Y369116D01*
X416008Y369206D01*
X416050Y369295D01*
X416097Y369381D01*
X416148Y369464D01*
X416204Y369545D01*
X416263Y369623D01*
X416327Y369697D01*
X416394Y369768D01*
X416465Y369835D01*
X416540Y369899D01*
X416617Y369959D01*
X416698Y370014D01*
X416782Y370065D01*
X416867Y370112D01*
X416956Y370154D01*
X417046Y370192D01*
X417139Y370224D01*
X417233Y370252D01*
X417328Y370275D01*
X417424Y370293D01*
X417521Y370305D01*
X417619Y370313D01*
X417717Y370316D01*
X422441D01*
Y362835D01*
D02*
G37*
D18*
X487304Y365284D02*
D03*
Y359379D02*
D03*
X493779D02*
D03*
Y365284D02*
D03*
D20*
X475492Y770472D02*
D03*
X497736D02*
D03*
D53*
X479764Y457972D02*
D03*
X387367Y658219D02*
D03*
X387286Y648320D02*
D03*
X518110Y518012D02*
D03*
D63*
X362205Y633720D02*
D03*
Y627500D02*
D03*
X383201Y412520D02*
D03*
Y406299D02*
D03*
X380315Y745827D02*
D03*
Y739606D02*
D03*
X521752Y674961D02*
D03*
X521752Y668740D02*
D03*
X487304Y377874D02*
D03*
Y371654D02*
D03*
X493779Y377874D02*
D03*
Y371654D02*
D03*
X369587Y412520D02*
D03*
Y406299D02*
D03*
X376394Y412520D02*
D03*
X376394Y406299D02*
D03*
D64*
X344634Y646096D02*
D03*
X338414Y646096D02*
D03*
X403346Y372047D02*
D03*
X409567D02*
D03*
X373484Y729429D02*
D03*
X367264D02*
D03*
X338414Y627072D02*
D03*
X344634Y627072D02*
D03*
X368740Y619783D02*
D03*
X374961D02*
D03*
X372501Y662697D02*
D03*
X378721D02*
D03*
X372501Y655509D02*
D03*
X378721D02*
D03*
X378721Y648320D02*
D03*
X372501D02*
D03*
X525256Y645472D02*
D03*
X519035D02*
D03*
X514803Y507480D02*
D03*
X521024Y507480D02*
D03*
X521024Y501132D02*
D03*
X514803D02*
D03*
X514803Y494783D02*
D03*
X521024Y494783D02*
D03*
X501339Y419168D02*
D03*
X495118D02*
D03*
X499469Y391669D02*
D03*
X505689D02*
D03*
X457244Y360630D02*
D03*
X451024D02*
D03*
X355472Y397548D02*
D03*
X349252Y397549D02*
D03*
X355472Y391276D02*
D03*
X349252Y391276D02*
D03*
D65*
X399897Y650978D02*
D03*
Y655308D02*
D03*
Y659639D02*
D03*
Y663970D02*
D03*
Y668301D02*
D03*
Y672631D02*
D03*
Y676962D02*
D03*
Y681293D02*
D03*
Y685624D02*
D03*
Y689954D02*
D03*
Y694285D02*
D03*
Y698616D02*
D03*
X462495D02*
D03*
Y694285D02*
D03*
Y689954D02*
D03*
Y685624D02*
D03*
Y681293D02*
D03*
Y676962D02*
D03*
Y672631D02*
D03*
Y668301D02*
D03*
Y663970D02*
D03*
Y659639D02*
D03*
Y655308D02*
D03*
Y650978D02*
D03*
D66*
X413873Y709836D02*
D03*
X418204D02*
D03*
X422535D02*
D03*
X426865D02*
D03*
X431196D02*
D03*
X435527D02*
D03*
X439857D02*
D03*
X444188D02*
D03*
X448519D02*
D03*
Y639757D02*
D03*
X444188D02*
D03*
X439857D02*
D03*
X435527D02*
D03*
X431196D02*
D03*
X426865D02*
D03*
X422535D02*
D03*
X418204D02*
D03*
X413873D02*
D03*
D67*
X411614Y553150D02*
D03*
X416013Y548751D02*
D03*
D68*
X498514Y448484D02*
D03*
Y455847D02*
D03*
X496735Y534685D02*
D03*
Y527323D02*
D03*
X518110D02*
D03*
Y534685D02*
D03*
X489075D02*
D03*
Y527323D02*
D03*
X522047Y448484D02*
D03*
Y455847D02*
D03*
D69*
X489428Y517743D02*
D03*
X501239Y517743D02*
D03*
X512146Y468307D02*
D03*
X523957Y468307D02*
D03*
D70*
X476548Y630610D02*
D03*
X495052D02*
D03*
X518047Y552930D02*
D03*
X499543D02*
D03*
D71*
X388878Y749303D02*
D03*
X388878Y755524D02*
D03*
X396752Y749303D02*
D03*
Y755524D02*
D03*
X380906Y704783D02*
D03*
Y698563D02*
D03*
X391732Y698555D02*
D03*
Y704776D02*
D03*
X472677Y678852D02*
D03*
X472677Y672631D02*
D03*
X422247Y402244D02*
D03*
Y408465D02*
D03*
X381201Y393561D02*
D03*
Y387340D02*
D03*
D72*
X374016Y735433D02*
D03*
X370276Y745276D02*
D03*
X366535Y735433D02*
D03*
X375295Y625689D02*
D03*
X371555Y635532D02*
D03*
X367815Y625689D02*
D03*
X525492Y652264D02*
D03*
X521752Y662106D02*
D03*
X518012Y652264D02*
D03*
D73*
X393642Y714156D02*
D03*
X399862D02*
D03*
X495118Y425565D02*
D03*
X501339D02*
D03*
X499665Y398559D02*
D03*
X505886D02*
D03*
X479764Y389370D02*
D03*
X485984D02*
D03*
X381088Y372047D02*
D03*
X374868D02*
D03*
X395335D02*
D03*
X389114D02*
D03*
D74*
X338571Y633387D02*
D03*
X344477Y633387D02*
D03*
X344477Y639877D02*
D03*
X338571D02*
D03*
X337107Y391275D02*
D03*
X343012Y391275D02*
D03*
X343012Y397548D02*
D03*
X337107Y397548D02*
D03*
D75*
X341732Y561502D02*
D03*
Y532002D02*
D03*
D76*
X421061Y608660D02*
D03*
X409647Y597246D02*
D03*
D77*
X414601Y617455D02*
D03*
X410202Y613057D02*
D03*
X400886Y603839D02*
D03*
X405284Y608237D02*
D03*
X398459Y592652D02*
D03*
X394061Y588253D02*
D03*
X453461Y554210D02*
D03*
X449062Y549811D02*
D03*
D78*
X399068Y582594D02*
D03*
X404274Y587800D02*
D03*
D79*
X440899Y630610D02*
D03*
X448261D02*
D03*
X427815Y385866D02*
D03*
X435177D02*
D03*
D80*
X411730Y576617D02*
D03*
X413958Y578844D02*
D03*
X416185Y581071D02*
D03*
X418412Y583298D02*
D03*
X420639Y585525D02*
D03*
X422866Y587752D02*
D03*
X425093Y589979D02*
D03*
X427320Y592206D02*
D03*
X451262Y568265D02*
D03*
X449035Y566038D02*
D03*
X446807Y563811D02*
D03*
X444580Y561584D02*
D03*
X442353Y559357D02*
D03*
X440126Y557130D02*
D03*
X437899Y554903D02*
D03*
X435672Y552675D02*
D03*
D81*
Y592206D02*
D03*
X437899Y589979D02*
D03*
X440126Y587752D02*
D03*
X442353Y585525D02*
D03*
X444580Y583298D02*
D03*
X446807Y581071D02*
D03*
X449035Y578844D02*
D03*
X451262Y576617D02*
D03*
X427320Y552675D02*
D03*
X425093Y554903D02*
D03*
X422866Y557130D02*
D03*
X420639Y559357D02*
D03*
X418412Y561584D02*
D03*
X416185Y563811D02*
D03*
X413958Y566038D02*
D03*
X411730Y568265D02*
D03*
D82*
X502658Y506595D02*
D03*
X486909D02*
D03*
D83*
X494685Y468307D02*
D03*
Y494118D02*
D03*
D84*
X514311Y487579D02*
D03*
X518051Y487579D02*
D03*
X521791Y487579D02*
D03*
Y478366D02*
D03*
X518051Y478366D02*
D03*
X514311Y478366D02*
D03*
D85*
X487205Y420394D02*
D03*
X484646D02*
D03*
X482087D02*
D03*
X479528D02*
D03*
X479528Y397717D02*
D03*
X482087D02*
D03*
X484646D02*
D03*
X487205D02*
D03*
D86*
X502972Y404823D02*
D03*
X502973Y408563D02*
D03*
X502972Y412303D02*
D03*
X493760D02*
D03*
X493760Y408563D02*
D03*
X493760Y404823D02*
D03*
D87*
X466024Y374092D02*
D03*
D88*
X455197Y381592D02*
D03*
Y376592D02*
D03*
Y366592D02*
D03*
Y371592D02*
D03*
X476850Y381592D02*
D03*
Y376592D02*
D03*
Y366592D02*
D03*
Y371592D02*
D03*
D89*
X392717Y417244D02*
D03*
Y412244D02*
D03*
Y407244D02*
D03*
Y402244D02*
D03*
Y397244D02*
D03*
Y392244D02*
D03*
Y387244D02*
D03*
Y382244D02*
D03*
X412205Y382244D02*
D03*
Y387244D02*
D03*
X412205Y392244D02*
D03*
X412205Y397244D02*
D03*
Y402244D02*
D03*
Y407244D02*
D03*
Y412244D02*
D03*
X412205Y417244D02*
D03*
D90*
X426378Y377107D02*
D03*
X431496Y377107D02*
D03*
X434055Y377107D02*
D03*
X436614D02*
D03*
D91*
X359842Y650984D02*
D03*
X503150D02*
D03*
Y731299D02*
D03*
X359842D02*
D03*
D92*
X400394Y730203D02*
D03*
Y779494D02*
D03*
X462598D02*
D03*
Y730203D02*
D03*
D93*
X431540Y720360D02*
D03*
X421540D02*
D03*
X411540D02*
D03*
X426540Y720360D02*
D03*
X416540Y720360D02*
D03*
X406540D02*
D03*
M02*
