G04*
G04 #@! TF.GenerationSoftware,Altium Limited,Altium Designer,23.0.1 (38)*
G04*
G04 Layer_Color=255*
%FSLAX25Y25*%
%MOIN*%
G70*
G04*
G04 #@! TF.SameCoordinates,D75D10E2-2566-4FA1-905F-50A539E45678*
G04*
G04*
G04 #@! TF.FilePolarity,Positive*
G04*
G01*
G75*
G04:AMPARAMS|DCode=17|XSize=61.02mil|YSize=51.18mil|CornerRadius=5.12mil|HoleSize=0mil|Usage=FLASHONLY|Rotation=0.000|XOffset=0mil|YOffset=0mil|HoleType=Round|Shape=RoundedRectangle|*
%AMROUNDEDRECTD17*
21,1,0.06102,0.04095,0,0,0.0*
21,1,0.05079,0.05118,0,0,0.0*
1,1,0.01024,0.02539,-0.02047*
1,1,0.01024,-0.02539,-0.02047*
1,1,0.01024,-0.02539,0.02047*
1,1,0.01024,0.02539,0.02047*
%
%ADD17ROUNDEDRECTD17*%
G04:AMPARAMS|DCode=18|XSize=41.34mil|YSize=31.5mil|CornerRadius=3.15mil|HoleSize=0mil|Usage=FLASHONLY|Rotation=0.000|XOffset=0mil|YOffset=0mil|HoleType=Round|Shape=RoundedRectangle|*
%AMROUNDEDRECTD18*
21,1,0.04134,0.02520,0,0,0.0*
21,1,0.03504,0.03150,0,0,0.0*
1,1,0.00630,0.01752,-0.01260*
1,1,0.00630,-0.01752,-0.01260*
1,1,0.00630,-0.01752,0.01260*
1,1,0.00630,0.01752,0.01260*
%
%ADD18ROUNDEDRECTD18*%
G04:AMPARAMS|DCode=19|XSize=157.48mil|YSize=31.5mil|CornerRadius=3.15mil|HoleSize=0mil|Usage=FLASHONLY|Rotation=90.000|XOffset=0mil|YOffset=0mil|HoleType=Round|Shape=RoundedRectangle|*
%AMROUNDEDRECTD19*
21,1,0.15748,0.02520,0,0,90.0*
21,1,0.15118,0.03150,0,0,90.0*
1,1,0.00630,0.01260,0.07559*
1,1,0.00630,0.01260,-0.07559*
1,1,0.00630,-0.01260,-0.07559*
1,1,0.00630,-0.01260,0.07559*
%
%ADD19ROUNDEDRECTD19*%
G04:AMPARAMS|DCode=20|XSize=53.15mil|YSize=165.35mil|CornerRadius=5.32mil|HoleSize=0mil|Usage=FLASHONLY|Rotation=180.000|XOffset=0mil|YOffset=0mil|HoleType=Round|Shape=RoundedRectangle|*
%AMROUNDEDRECTD20*
21,1,0.05315,0.15472,0,0,180.0*
21,1,0.04252,0.16535,0,0,180.0*
1,1,0.01063,-0.02126,0.07736*
1,1,0.01063,0.02126,0.07736*
1,1,0.01063,0.02126,-0.07736*
1,1,0.01063,-0.02126,-0.07736*
%
%ADD20ROUNDEDRECTD20*%
G04:AMPARAMS|DCode=21|XSize=50mil|YSize=141.73mil|CornerRadius=5mil|HoleSize=0mil|Usage=FLASHONLY|Rotation=180.000|XOffset=0mil|YOffset=0mil|HoleType=Round|Shape=RoundedRectangle|*
%AMROUNDEDRECTD21*
21,1,0.05000,0.13173,0,0,180.0*
21,1,0.04000,0.14173,0,0,180.0*
1,1,0.01000,-0.02000,0.06587*
1,1,0.01000,0.02000,0.06587*
1,1,0.01000,0.02000,-0.06587*
1,1,0.01000,-0.02000,-0.06587*
%
%ADD21ROUNDEDRECTD21*%
%ADD31O,0.03740X0.07480*%
G04:AMPARAMS|DCode=45|XSize=86.61mil|YSize=59.06mil|CornerRadius=17.72mil|HoleSize=0mil|Usage=FLASHONLY|Rotation=0.000|XOffset=0mil|YOffset=0mil|HoleType=Round|Shape=RoundedRectangle|*
%AMROUNDEDRECTD45*
21,1,0.08661,0.02362,0,0,0.0*
21,1,0.05118,0.05906,0,0,0.0*
1,1,0.03543,0.02559,-0.01181*
1,1,0.03543,-0.02559,-0.01181*
1,1,0.03543,-0.02559,0.01181*
1,1,0.03543,0.02559,0.01181*
%
%ADD45ROUNDEDRECTD45*%
%ADD46C,0.04724*%
G04:AMPARAMS|DCode=47|XSize=59.06mil|YSize=39.37mil|CornerRadius=9.84mil|HoleSize=0mil|Usage=FLASHONLY|Rotation=90.000|XOffset=0mil|YOffset=0mil|HoleType=Round|Shape=RoundedRectangle|*
%AMROUNDEDRECTD47*
21,1,0.05906,0.01968,0,0,90.0*
21,1,0.03937,0.03937,0,0,90.0*
1,1,0.01968,0.00984,0.01968*
1,1,0.01968,0.00984,-0.01968*
1,1,0.01968,-0.00984,-0.01968*
1,1,0.01968,-0.00984,0.01968*
%
%ADD47ROUNDEDRECTD47*%
%ADD48O,0.03937X0.05906*%
%ADD49O,0.04724X0.02756*%
%ADD50C,0.07874*%
%ADD51O,0.04724X0.19685*%
G04:AMPARAMS|DCode=52|XSize=47.24mil|YSize=47.24mil|CornerRadius=11.81mil|HoleSize=0mil|Usage=FLASHONLY|Rotation=270.000|XOffset=0mil|YOffset=0mil|HoleType=Round|Shape=RoundedRectangle|*
%AMROUNDEDRECTD52*
21,1,0.04724,0.02362,0,0,270.0*
21,1,0.02362,0.04724,0,0,270.0*
1,1,0.02362,-0.01181,-0.01181*
1,1,0.02362,-0.01181,0.01181*
1,1,0.02362,0.01181,0.01181*
1,1,0.02362,0.01181,-0.01181*
%
%ADD52ROUNDEDRECTD52*%
%ADD53C,0.07087*%
G04:AMPARAMS|DCode=54|XSize=70.87mil|YSize=70.87mil|CornerRadius=7.09mil|HoleSize=0mil|Usage=FLASHONLY|Rotation=90.000|XOffset=0mil|YOffset=0mil|HoleType=Round|Shape=RoundedRectangle|*
%AMROUNDEDRECTD54*
21,1,0.07087,0.05669,0,0,90.0*
21,1,0.05669,0.07087,0,0,90.0*
1,1,0.01417,0.02835,0.02835*
1,1,0.01417,0.02835,-0.02835*
1,1,0.01417,-0.02835,-0.02835*
1,1,0.01417,-0.02835,0.02835*
%
%ADD54ROUNDEDRECTD54*%
%ADD55C,0.06500*%
G04:AMPARAMS|DCode=56|XSize=65mil|YSize=65mil|CornerRadius=6.5mil|HoleSize=0mil|Usage=FLASHONLY|Rotation=0.000|XOffset=0mil|YOffset=0mil|HoleType=Round|Shape=RoundedRectangle|*
%AMROUNDEDRECTD56*
21,1,0.06500,0.05200,0,0,0.0*
21,1,0.05200,0.06500,0,0,0.0*
1,1,0.01300,0.02600,-0.02600*
1,1,0.01300,-0.02600,-0.02600*
1,1,0.01300,-0.02600,0.02600*
1,1,0.01300,0.02600,0.02600*
%
%ADD56ROUNDEDRECTD56*%
G04:AMPARAMS|DCode=57|XSize=70.87mil|YSize=70.87mil|CornerRadius=17.72mil|HoleSize=0mil|Usage=FLASHONLY|Rotation=0.000|XOffset=0mil|YOffset=0mil|HoleType=Round|Shape=RoundedRectangle|*
%AMROUNDEDRECTD57*
21,1,0.07087,0.03543,0,0,0.0*
21,1,0.03543,0.07087,0,0,0.0*
1,1,0.03543,0.01772,-0.01772*
1,1,0.03543,-0.01772,-0.01772*
1,1,0.03543,-0.01772,0.01772*
1,1,0.03543,0.01772,0.01772*
%
%ADD57ROUNDEDRECTD57*%
%ADD58C,0.23622*%
D17*
X474902Y561614D02*
D03*
Y543898D02*
D03*
X506201Y561614D02*
D03*
Y543898D02*
D03*
X415846Y563583D02*
D03*
X447146Y581299D02*
D03*
Y563583D02*
D03*
X415846Y581299D02*
D03*
X356791Y561614D02*
D03*
Y543898D02*
D03*
X388090Y561614D02*
D03*
Y543898D02*
D03*
X447146Y524213D02*
D03*
X447146Y541929D02*
D03*
X415846Y524213D02*
D03*
Y541929D02*
D03*
X356791Y506496D02*
D03*
Y488780D02*
D03*
X388091Y506496D02*
D03*
Y488780D02*
D03*
X474902Y506496D02*
D03*
X474902Y488780D02*
D03*
X506201Y506496D02*
D03*
Y488780D02*
D03*
X415846Y506496D02*
D03*
Y488779D02*
D03*
X447146Y506496D02*
D03*
Y488779D02*
D03*
X415846Y475000D02*
D03*
Y457283D02*
D03*
X447146Y475000D02*
D03*
Y457283D02*
D03*
X356791Y475000D02*
D03*
Y457283D02*
D03*
X388090Y475000D02*
D03*
Y457283D02*
D03*
X356791Y443504D02*
D03*
Y425787D02*
D03*
X388090Y443504D02*
D03*
Y425787D02*
D03*
X415846Y443504D02*
D03*
Y425787D02*
D03*
X447146Y443504D02*
D03*
Y425787D02*
D03*
X474902Y457283D02*
D03*
X506201D02*
D03*
Y475000D02*
D03*
X474902D02*
D03*
X474902Y443504D02*
D03*
Y425787D02*
D03*
X506201Y443504D02*
D03*
Y425787D02*
D03*
X474902Y412008D02*
D03*
Y394291D02*
D03*
X506201Y412008D02*
D03*
Y394291D02*
D03*
X415846Y412008D02*
D03*
Y394291D02*
D03*
X447146Y412008D02*
D03*
Y394291D02*
D03*
X388091D02*
D03*
Y412008D02*
D03*
X356791Y394291D02*
D03*
Y412008D02*
D03*
D18*
X505905Y628642D02*
D03*
Y634547D02*
D03*
X505904Y697146D02*
D03*
Y691240D02*
D03*
X357087Y628642D02*
D03*
Y634547D02*
D03*
X357085Y697146D02*
D03*
Y691240D02*
D03*
D19*
X415335Y726975D02*
D03*
X419373D02*
D03*
X423411D02*
D03*
X427448D02*
D03*
X443598Y727032D02*
D03*
X439561D02*
D03*
X435523D02*
D03*
X431485D02*
D03*
X447635D02*
D03*
D20*
X475492Y770472D02*
D03*
X497736D02*
D03*
D21*
X486614Y771654D02*
D03*
D31*
X445276Y366576D02*
D03*
X417717D02*
D03*
D45*
X520079Y406299D02*
D03*
Y439370D02*
D03*
D46*
Y430709D02*
D03*
Y422835D02*
D03*
Y414961D02*
D03*
X381102Y364705D02*
D03*
X388976D02*
D03*
X396752Y743701D02*
D03*
D47*
X512402Y686221D02*
D03*
D48*
Y705905D02*
D03*
D49*
X421654Y377205D02*
D03*
X441339D02*
D03*
D50*
X366535Y714764D02*
D03*
X500394Y610433D02*
D03*
D51*
X353149Y731299D02*
D03*
X509843D02*
D03*
X353149Y650984D02*
D03*
X509843D02*
D03*
D52*
X388878Y743701D02*
D03*
D53*
X524606Y615925D02*
D03*
Y605925D02*
D03*
Y595925D02*
D03*
X456024Y389370D02*
D03*
X339075Y595925D02*
D03*
Y605925D02*
D03*
Y615925D02*
D03*
X486695Y762447D02*
D03*
D54*
X524606Y585925D02*
D03*
X339075D02*
D03*
D55*
X380197Y752658D02*
D03*
D56*
X370197D02*
D03*
D57*
X466024Y389370D02*
D03*
D58*
X349213Y371654D02*
D03*
X514567D02*
D03*
X349213Y773228D02*
D03*
X514567D02*
D03*
M02*
