G04*
G04 #@! TF.GenerationSoftware,Altium Limited,Altium Designer,23.0.1 (38)*
G04*
G04 Layer_Color=16711935*
%FSLAX25Y25*%
%MOIN*%
G70*
G04*
G04 #@! TF.SameCoordinates,D75D10E2-2566-4FA1-905F-50A539E45678*
G04*
G04*
G04 #@! TF.FilePolarity,Negative*
G04*
G01*
G75*
%ADD14C,0.00197*%
G04:AMPARAMS|DCode=23|XSize=49.34mil|YSize=39.5mil|CornerRadius=7.15mil|HoleSize=0mil|Usage=FLASHONLY|Rotation=0.000|XOffset=0mil|YOffset=0mil|HoleType=Round|Shape=RoundedRectangle|*
%AMROUNDEDRECTD23*
21,1,0.04934,0.02520,0,0,0.0*
21,1,0.03504,0.03950,0,0,0.0*
1,1,0.01430,0.01752,-0.01260*
1,1,0.01430,-0.01752,-0.01260*
1,1,0.01430,-0.01752,0.01260*
1,1,0.01430,0.01752,0.01260*
%
%ADD23ROUNDEDRECTD23*%
G04:AMPARAMS|DCode=25|XSize=61.15mil|YSize=173.35mil|CornerRadius=9.32mil|HoleSize=0mil|Usage=FLASHONLY|Rotation=180.000|XOffset=0mil|YOffset=0mil|HoleType=Round|Shape=RoundedRectangle|*
%AMROUNDEDRECTD25*
21,1,0.06115,0.15472,0,0,180.0*
21,1,0.04252,0.17335,0,0,180.0*
1,1,0.01863,-0.02126,0.07736*
1,1,0.01863,0.02126,0.07736*
1,1,0.01863,0.02126,-0.07736*
1,1,0.01863,-0.02126,-0.07736*
%
%ADD25ROUNDEDRECTD25*%
G04:AMPARAMS|DCode=27|XSize=94.61mil|YSize=67.06mil|CornerRadius=21.72mil|HoleSize=0mil|Usage=FLASHONLY|Rotation=0.000|XOffset=0mil|YOffset=0mil|HoleType=Round|Shape=RoundedRectangle|*
%AMROUNDEDRECTD27*
21,1,0.09461,0.02362,0,0,0.0*
21,1,0.05118,0.06706,0,0,0.0*
1,1,0.04343,0.02559,-0.01181*
1,1,0.04343,-0.02559,-0.01181*
1,1,0.04343,-0.02559,0.01181*
1,1,0.04343,0.02559,0.01181*
%
%ADD27ROUNDEDRECTD27*%
%ADD28C,0.05524*%
G04:AMPARAMS|DCode=29|XSize=67.06mil|YSize=47.37mil|CornerRadius=13.84mil|HoleSize=0mil|Usage=FLASHONLY|Rotation=90.000|XOffset=0mil|YOffset=0mil|HoleType=Round|Shape=RoundedRectangle|*
%AMROUNDEDRECTD29*
21,1,0.06706,0.01968,0,0,90.0*
21,1,0.03937,0.04737,0,0,90.0*
1,1,0.02769,0.00984,0.01968*
1,1,0.02769,0.00984,-0.01968*
1,1,0.02769,-0.00984,-0.01968*
1,1,0.02769,-0.00984,0.01968*
%
%ADD29ROUNDEDRECTD29*%
%ADD30O,0.04737X0.06706*%
%ADD31O,0.03740X0.07480*%
%ADD32O,0.05524X0.03556*%
%ADD33C,0.08674*%
%ADD34O,0.05524X0.20485*%
G04:AMPARAMS|DCode=35|XSize=55.24mil|YSize=55.24mil|CornerRadius=15.81mil|HoleSize=0mil|Usage=FLASHONLY|Rotation=270.000|XOffset=0mil|YOffset=0mil|HoleType=Round|Shape=RoundedRectangle|*
%AMROUNDEDRECTD35*
21,1,0.05524,0.02362,0,0,270.0*
21,1,0.02362,0.05524,0,0,270.0*
1,1,0.03162,-0.01181,-0.01181*
1,1,0.03162,-0.01181,0.01181*
1,1,0.03162,0.01181,0.01181*
1,1,0.03162,0.01181,-0.01181*
%
%ADD35ROUNDEDRECTD35*%
%ADD36C,0.07887*%
G04:AMPARAMS|DCode=37|XSize=78.87mil|YSize=78.87mil|CornerRadius=11.09mil|HoleSize=0mil|Usage=FLASHONLY|Rotation=90.000|XOffset=0mil|YOffset=0mil|HoleType=Round|Shape=RoundedRectangle|*
%AMROUNDEDRECTD37*
21,1,0.07887,0.05669,0,0,90.0*
21,1,0.05669,0.07887,0,0,90.0*
1,1,0.02217,0.02835,0.02835*
1,1,0.02217,0.02835,-0.02835*
1,1,0.02217,-0.02835,-0.02835*
1,1,0.02217,-0.02835,0.02835*
%
%ADD37ROUNDEDRECTD37*%
%ADD38C,0.07300*%
G04:AMPARAMS|DCode=39|XSize=73mil|YSize=73mil|CornerRadius=10.5mil|HoleSize=0mil|Usage=FLASHONLY|Rotation=0.000|XOffset=0mil|YOffset=0mil|HoleType=Round|Shape=RoundedRectangle|*
%AMROUNDEDRECTD39*
21,1,0.07300,0.05200,0,0,0.0*
21,1,0.05200,0.07300,0,0,0.0*
1,1,0.02100,0.02600,-0.02600*
1,1,0.02100,-0.02600,-0.02600*
1,1,0.02100,-0.02600,0.02600*
1,1,0.02100,0.02600,0.02600*
%
%ADD39ROUNDEDRECTD39*%
G04:AMPARAMS|DCode=40|XSize=78.87mil|YSize=78.87mil|CornerRadius=21.72mil|HoleSize=0mil|Usage=FLASHONLY|Rotation=0.000|XOffset=0mil|YOffset=0mil|HoleType=Round|Shape=RoundedRectangle|*
%AMROUNDEDRECTD40*
21,1,0.07887,0.03543,0,0,0.0*
21,1,0.03543,0.07887,0,0,0.0*
1,1,0.04343,0.01772,-0.01772*
1,1,0.04343,-0.01772,-0.01772*
1,1,0.04343,-0.01772,0.01772*
1,1,0.04343,0.01772,0.01772*
%
%ADD40ROUNDEDRECTD40*%
%ADD41C,0.24422*%
G04:AMPARAMS|DCode=94|XSize=43.43mil|YSize=47.37mil|CornerRadius=7.54mil|HoleSize=0mil|Usage=FLASHONLY|Rotation=90.000|XOffset=0mil|YOffset=0mil|HoleType=Round|Shape=RoundedRectangle|*
%AMROUNDEDRECTD94*
21,1,0.04343,0.03228,0,0,90.0*
21,1,0.02835,0.04737,0,0,90.0*
1,1,0.01509,0.01614,0.01417*
1,1,0.01509,0.01614,-0.01417*
1,1,0.01509,-0.01614,-0.01417*
1,1,0.01509,-0.01614,0.01417*
%
%ADD94ROUNDEDRECTD94*%
G04:AMPARAMS|DCode=95|XSize=43.43mil|YSize=47.37mil|CornerRadius=7.54mil|HoleSize=0mil|Usage=FLASHONLY|Rotation=0.000|XOffset=0mil|YOffset=0mil|HoleType=Round|Shape=RoundedRectangle|*
%AMROUNDEDRECTD95*
21,1,0.04343,0.03228,0,0,0.0*
21,1,0.02835,0.04737,0,0,0.0*
1,1,0.01509,0.01417,-0.01614*
1,1,0.01509,-0.01417,-0.01614*
1,1,0.01509,-0.01417,0.01614*
1,1,0.01509,0.01417,0.01614*
%
%ADD95ROUNDEDRECTD95*%
%ADD96O,0.07887X0.03162*%
%ADD97O,0.03162X0.07887*%
G04:AMPARAMS|DCode=98|XSize=43.43mil|YSize=47.37mil|CornerRadius=7.54mil|HoleSize=0mil|Usage=FLASHONLY|Rotation=135.000|XOffset=0mil|YOffset=0mil|HoleType=Round|Shape=RoundedRectangle|*
%AMROUNDEDRECTD98*
21,1,0.04343,0.03228,0,0,135.0*
21,1,0.02835,0.04737,0,0,135.0*
1,1,0.01509,0.00139,0.02144*
1,1,0.01509,0.02144,0.00139*
1,1,0.01509,-0.00139,-0.02144*
1,1,0.01509,-0.02144,-0.00139*
%
%ADD98ROUNDEDRECTD98*%
G04:AMPARAMS|DCode=99|XSize=47.37mil|YSize=63.12mil|CornerRadius=8.92mil|HoleSize=0mil|Usage=FLASHONLY|Rotation=90.000|XOffset=0mil|YOffset=0mil|HoleType=Round|Shape=RoundedRectangle|*
%AMROUNDEDRECTD99*
21,1,0.04737,0.04528,0,0,90.0*
21,1,0.02953,0.06312,0,0,90.0*
1,1,0.01784,0.02264,0.01476*
1,1,0.01784,0.02264,-0.01476*
1,1,0.01784,-0.02264,-0.01476*
1,1,0.01784,-0.02264,0.01476*
%
%ADD99ROUNDEDRECTD99*%
G04:AMPARAMS|DCode=100|XSize=59.18mil|YSize=74.93mil|CornerRadius=9.12mil|HoleSize=0mil|Usage=FLASHONLY|Rotation=0.000|XOffset=0mil|YOffset=0mil|HoleType=Round|Shape=RoundedRectangle|*
%AMROUNDEDRECTD100*
21,1,0.05918,0.05669,0,0,0.0*
21,1,0.04095,0.07493,0,0,0.0*
1,1,0.01824,0.02047,-0.02835*
1,1,0.01824,-0.02047,-0.02835*
1,1,0.01824,-0.02047,0.02835*
1,1,0.01824,0.02047,0.02835*
%
%ADD100ROUNDEDRECTD100*%
G04:AMPARAMS|DCode=101|XSize=126.11mil|YSize=67.06mil|CornerRadius=9.91mil|HoleSize=0mil|Usage=FLASHONLY|Rotation=0.000|XOffset=0mil|YOffset=0mil|HoleType=Round|Shape=RoundedRectangle|*
%AMROUNDEDRECTD101*
21,1,0.12611,0.04724,0,0,0.0*
21,1,0.10630,0.06706,0,0,0.0*
1,1,0.01981,0.05315,-0.02362*
1,1,0.01981,-0.05315,-0.02362*
1,1,0.01981,-0.05315,0.02362*
1,1,0.01981,0.05315,0.02362*
%
%ADD101ROUNDEDRECTD101*%
G04:AMPARAMS|DCode=102|XSize=45.01mil|YSize=48.16mil|CornerRadius=7.7mil|HoleSize=0mil|Usage=FLASHONLY|Rotation=270.000|XOffset=0mil|YOffset=0mil|HoleType=Round|Shape=RoundedRectangle|*
%AMROUNDEDRECTD102*
21,1,0.04501,0.03276,0,0,270.0*
21,1,0.02961,0.04816,0,0,270.0*
1,1,0.01540,-0.01638,-0.01480*
1,1,0.01540,-0.01638,0.01480*
1,1,0.01540,0.01638,0.01480*
1,1,0.01540,0.01638,-0.01480*
%
%ADD102ROUNDEDRECTD102*%
G04:AMPARAMS|DCode=103|XSize=45.4mil|YSize=43.43mil|CornerRadius=7.54mil|HoleSize=0mil|Usage=FLASHONLY|Rotation=90.000|XOffset=0mil|YOffset=0mil|HoleType=Round|Shape=RoundedRectangle|*
%AMROUNDEDRECTD103*
21,1,0.04540,0.02835,0,0,90.0*
21,1,0.03032,0.04343,0,0,90.0*
1,1,0.01509,0.01417,0.01516*
1,1,0.01509,0.01417,-0.01516*
1,1,0.01509,-0.01417,-0.01516*
1,1,0.01509,-0.01417,0.01516*
%
%ADD103ROUNDEDRECTD103*%
G04:AMPARAMS|DCode=104|XSize=45.01mil|YSize=48.16mil|CornerRadius=7.7mil|HoleSize=0mil|Usage=FLASHONLY|Rotation=180.000|XOffset=0mil|YOffset=0mil|HoleType=Round|Shape=RoundedRectangle|*
%AMROUNDEDRECTD104*
21,1,0.04501,0.03276,0,0,180.0*
21,1,0.02961,0.04816,0,0,180.0*
1,1,0.01540,-0.01480,0.01638*
1,1,0.01540,0.01480,0.01638*
1,1,0.01540,0.01480,-0.01638*
1,1,0.01540,-0.01480,-0.01638*
%
%ADD104ROUNDEDRECTD104*%
G04:AMPARAMS|DCode=105|XSize=49.34mil|YSize=39.5mil|CornerRadius=7.15mil|HoleSize=0mil|Usage=FLASHONLY|Rotation=270.000|XOffset=0mil|YOffset=0mil|HoleType=Round|Shape=RoundedRectangle|*
%AMROUNDEDRECTD105*
21,1,0.04934,0.02520,0,0,270.0*
21,1,0.03504,0.03950,0,0,270.0*
1,1,0.01430,-0.01260,-0.01752*
1,1,0.01430,-0.01260,0.01752*
1,1,0.01430,0.01260,0.01752*
1,1,0.01430,0.01260,-0.01752*
%
%ADD105ROUNDEDRECTD105*%
G04:AMPARAMS|DCode=106|XSize=67.06mil|YSize=55.24mil|CornerRadius=8.72mil|HoleSize=0mil|Usage=FLASHONLY|Rotation=90.000|XOffset=0mil|YOffset=0mil|HoleType=Round|Shape=RoundedRectangle|*
%AMROUNDEDRECTD106*
21,1,0.06706,0.03780,0,0,90.0*
21,1,0.04961,0.05524,0,0,90.0*
1,1,0.01745,0.01890,0.02480*
1,1,0.01745,0.01890,-0.02480*
1,1,0.01745,-0.01890,-0.02480*
1,1,0.01745,-0.01890,0.02480*
%
%ADD106ROUNDEDRECTD106*%
G04:AMPARAMS|DCode=107|XSize=70.93mil|YSize=98.49mil|CornerRadius=8.69mil|HoleSize=0mil|Usage=FLASHONLY|Rotation=45.000|XOffset=0mil|YOffset=0mil|HoleType=Round|Shape=RoundedRectangle|*
%AMROUNDEDRECTD107*
21,1,0.07093,0.08110,0,0,45.0*
21,1,0.05354,0.09849,0,0,45.0*
1,1,0.01739,0.04760,-0.00974*
1,1,0.01739,0.00974,-0.04760*
1,1,0.01739,-0.04760,0.00974*
1,1,0.01739,-0.00974,0.04760*
%
%ADD107ROUNDEDRECTD107*%
G04:AMPARAMS|DCode=108|XSize=45.01mil|YSize=48.16mil|CornerRadius=7.7mil|HoleSize=0mil|Usage=FLASHONLY|Rotation=45.000|XOffset=0mil|YOffset=0mil|HoleType=Round|Shape=RoundedRectangle|*
%AMROUNDEDRECTD108*
21,1,0.04501,0.03276,0,0,45.0*
21,1,0.02961,0.04816,0,0,45.0*
1,1,0.01540,0.02205,-0.00111*
1,1,0.01540,0.00111,-0.02205*
1,1,0.01540,-0.02205,0.00111*
1,1,0.01540,-0.00111,0.02205*
%
%ADD108ROUNDEDRECTD108*%
G04:AMPARAMS|DCode=109|XSize=47.37mil|YSize=63.12mil|CornerRadius=8.92mil|HoleSize=0mil|Usage=FLASHONLY|Rotation=45.000|XOffset=0mil|YOffset=0mil|HoleType=Round|Shape=RoundedRectangle|*
%AMROUNDEDRECTD109*
21,1,0.04737,0.04528,0,0,45.0*
21,1,0.02953,0.06312,0,0,45.0*
1,1,0.01784,0.02645,-0.00557*
1,1,0.01784,0.00557,-0.02645*
1,1,0.01784,-0.02645,0.00557*
1,1,0.01784,-0.00557,0.02645*
%
%ADD109ROUNDEDRECTD109*%
G04:AMPARAMS|DCode=110|XSize=47.37mil|YSize=63.12mil|CornerRadius=8.92mil|HoleSize=0mil|Usage=FLASHONLY|Rotation=0.000|XOffset=0mil|YOffset=0mil|HoleType=Round|Shape=RoundedRectangle|*
%AMROUNDEDRECTD110*
21,1,0.04737,0.04528,0,0,0.0*
21,1,0.02953,0.06312,0,0,0.0*
1,1,0.01784,0.01476,-0.02264*
1,1,0.01784,-0.01476,-0.02264*
1,1,0.01784,-0.01476,0.02264*
1,1,0.01784,0.01476,0.02264*
%
%ADD110ROUNDEDRECTD110*%
G04:AMPARAMS|DCode=111|XSize=67.06mil|YSize=29.65mil|CornerRadius=7.25mil|HoleSize=0mil|Usage=FLASHONLY|Rotation=315.000|XOffset=0mil|YOffset=0mil|HoleType=Round|Shape=RoundedRectangle|*
%AMROUNDEDRECTD111*
21,1,0.06706,0.01516,0,0,315.0*
21,1,0.05256,0.02965,0,0,315.0*
1,1,0.01450,0.01322,-0.02394*
1,1,0.01450,-0.02394,0.01322*
1,1,0.01450,-0.01322,0.02394*
1,1,0.01450,0.02394,-0.01322*
%
%ADD111ROUNDEDRECTD111*%
G04:AMPARAMS|DCode=112|XSize=29.65mil|YSize=67.06mil|CornerRadius=7.25mil|HoleSize=0mil|Usage=FLASHONLY|Rotation=315.000|XOffset=0mil|YOffset=0mil|HoleType=Round|Shape=RoundedRectangle|*
%AMROUNDEDRECTD112*
21,1,0.02965,0.05256,0,0,315.0*
21,1,0.01516,0.06706,0,0,315.0*
1,1,0.01450,-0.01322,-0.02394*
1,1,0.01450,-0.02394,-0.01322*
1,1,0.01450,0.01322,0.02394*
1,1,0.01450,0.02394,0.01322*
%
%ADD112ROUNDEDRECTD112*%
G04:AMPARAMS|DCode=113|XSize=106.42mil|YSize=74.93mil|CornerRadius=13.71mil|HoleSize=0mil|Usage=FLASHONLY|Rotation=0.000|XOffset=0mil|YOffset=0mil|HoleType=Round|Shape=RoundedRectangle|*
%AMROUNDEDRECTD113*
21,1,0.10642,0.04752,0,0,0.0*
21,1,0.07902,0.07493,0,0,0.0*
1,1,0.02741,0.03951,-0.02376*
1,1,0.02741,-0.03951,-0.02376*
1,1,0.02741,-0.03951,0.02376*
1,1,0.02741,0.03951,0.02376*
%
%ADD113ROUNDEDRECTD113*%
G04:AMPARAMS|DCode=114|XSize=99.43mil|YSize=138.65mil|CornerRadius=11.54mil|HoleSize=0mil|Usage=FLASHONLY|Rotation=270.000|XOffset=0mil|YOffset=0mil|HoleType=Round|Shape=RoundedRectangle|*
%AMROUNDEDRECTD114*
21,1,0.09943,0.11556,0,0,270.0*
21,1,0.07635,0.13865,0,0,270.0*
1,1,0.02309,-0.05778,-0.03817*
1,1,0.02309,-0.05778,0.03817*
1,1,0.02309,0.05778,0.03817*
1,1,0.02309,0.05778,-0.03817*
%
%ADD114ROUNDEDRECTD114*%
G04:AMPARAMS|DCode=115|XSize=61.94mil|YSize=31.23mil|CornerRadius=9.81mil|HoleSize=0mil|Usage=FLASHONLY|Rotation=270.000|XOffset=0mil|YOffset=0mil|HoleType=Round|Shape=RoundedRectangle|*
%AMROUNDEDRECTD115*
21,1,0.06194,0.01161,0,0,270.0*
21,1,0.04232,0.03123,0,0,270.0*
1,1,0.01961,-0.00581,-0.02116*
1,1,0.01961,-0.00581,0.02116*
1,1,0.01961,0.00581,0.02116*
1,1,0.01961,0.00581,-0.02116*
%
%ADD115ROUNDEDRECTD115*%
G04:AMPARAMS|DCode=116|XSize=69.42mil|YSize=23.75mil|CornerRadius=5.97mil|HoleSize=0mil|Usage=FLASHONLY|Rotation=90.000|XOffset=0mil|YOffset=0mil|HoleType=Round|Shape=RoundedRectangle|*
%AMROUNDEDRECTD116*
21,1,0.06942,0.01181,0,0,90.0*
21,1,0.05748,0.02375,0,0,90.0*
1,1,0.01194,0.00591,0.02874*
1,1,0.01194,0.00591,-0.02874*
1,1,0.01194,-0.00591,-0.02874*
1,1,0.01194,-0.00591,0.02874*
%
%ADD116ROUNDEDRECTD116*%
G04:AMPARAMS|DCode=117|XSize=61.94mil|YSize=31.23mil|CornerRadius=9.81mil|HoleSize=0mil|Usage=FLASHONLY|Rotation=180.000|XOffset=0mil|YOffset=0mil|HoleType=Round|Shape=RoundedRectangle|*
%AMROUNDEDRECTD117*
21,1,0.06194,0.01161,0,0,180.0*
21,1,0.04232,0.03123,0,0,180.0*
1,1,0.01961,-0.02116,0.00581*
1,1,0.01961,0.02116,0.00581*
1,1,0.01961,0.02116,-0.00581*
1,1,0.01961,-0.02116,-0.00581*
%
%ADD117ROUNDEDRECTD117*%
%ADD118R,0.02769X0.02769*%
G04:AMPARAMS|DCode=119|XSize=59.18mil|YSize=35.56mil|CornerRadius=6.76mil|HoleSize=0mil|Usage=FLASHONLY|Rotation=0.000|XOffset=0mil|YOffset=0mil|HoleType=Round|Shape=RoundedRectangle|*
%AMROUNDEDRECTD119*
21,1,0.05918,0.02205,0,0,0.0*
21,1,0.04567,0.03556,0,0,0.0*
1,1,0.01351,0.02284,-0.01102*
1,1,0.01351,-0.02284,-0.01102*
1,1,0.01351,-0.02284,0.01102*
1,1,0.01351,0.02284,0.01102*
%
%ADD119ROUNDEDRECTD119*%
G04:AMPARAMS|DCode=120|XSize=85.56mil|YSize=31.62mil|CornerRadius=6.95mil|HoleSize=0mil|Usage=FLASHONLY|Rotation=180.000|XOffset=0mil|YOffset=0mil|HoleType=Round|Shape=RoundedRectangle|*
%AMROUNDEDRECTD120*
21,1,0.08556,0.01772,0,0,180.0*
21,1,0.07165,0.03162,0,0,180.0*
1,1,0.01391,-0.03583,0.00886*
1,1,0.01391,0.03583,0.00886*
1,1,0.01391,0.03583,-0.00886*
1,1,0.01391,-0.03583,-0.00886*
%
%ADD120ROUNDEDRECTD120*%
G04:AMPARAMS|DCode=121|XSize=23.75mil|YSize=61.15mil|CornerRadius=5.58mil|HoleSize=0mil|Usage=FLASHONLY|Rotation=180.000|XOffset=0mil|YOffset=0mil|HoleType=Round|Shape=RoundedRectangle|*
%AMROUNDEDRECTD121*
21,1,0.02375,0.05000,0,0,180.0*
21,1,0.01260,0.06115,0,0,180.0*
1,1,0.01115,-0.00630,0.02500*
1,1,0.01115,0.00630,0.02500*
1,1,0.01115,0.00630,-0.02500*
1,1,0.01115,-0.00630,-0.02500*
%
%ADD121ROUNDEDRECTD121*%
G04:AMPARAMS|DCode=122|XSize=165.48mil|YSize=55.24mil|CornerRadius=8.72mil|HoleSize=0mil|Usage=FLASHONLY|Rotation=90.000|XOffset=0mil|YOffset=0mil|HoleType=Round|Shape=RoundedRectangle|*
%AMROUNDEDRECTD122*
21,1,0.16548,0.03780,0,0,90.0*
21,1,0.14803,0.05524,0,0,90.0*
1,1,0.01745,0.01890,0.07402*
1,1,0.01745,0.01890,-0.07402*
1,1,0.01745,-0.01890,-0.07402*
1,1,0.01745,-0.01890,0.07402*
%
%ADD122ROUNDEDRECTD122*%
G04:AMPARAMS|DCode=123|XSize=69.02mil|YSize=110.36mil|CornerRadius=10.1mil|HoleSize=0mil|Usage=FLASHONLY|Rotation=0.000|XOffset=0mil|YOffset=0mil|HoleType=Round|Shape=RoundedRectangle|*
%AMROUNDEDRECTD123*
21,1,0.06902,0.09016,0,0,0.0*
21,1,0.04882,0.11036,0,0,0.0*
1,1,0.02020,0.02441,-0.04508*
1,1,0.02020,-0.02441,-0.04508*
1,1,0.02020,-0.02441,0.04508*
1,1,0.02020,0.02441,0.04508*
%
%ADD123ROUNDEDRECTD123*%
G04:AMPARAMS|DCode=124|XSize=43.43mil|YSize=61.15mil|CornerRadius=7.54mil|HoleSize=0mil|Usage=FLASHONLY|Rotation=0.000|XOffset=0mil|YOffset=0mil|HoleType=Round|Shape=RoundedRectangle|*
%AMROUNDEDRECTD124*
21,1,0.04343,0.04606,0,0,0.0*
21,1,0.02835,0.06115,0,0,0.0*
1,1,0.01509,0.01417,-0.02303*
1,1,0.01509,-0.01417,-0.02303*
1,1,0.01509,-0.01417,0.02303*
1,1,0.01509,0.01417,0.02303*
%
%ADD124ROUNDEDRECTD124*%
G36*
X427444Y633192D02*
X427803Y633044D01*
X428125Y632828D01*
X428399Y632554D01*
X428615Y632232D01*
X428763Y631873D01*
X428839Y631493D01*
Y631299D01*
Y630315D01*
Y630315D01*
Y630121D01*
X428763Y629741D01*
X428615Y629383D01*
X428399Y629060D01*
X428125Y628786D01*
X427803Y628571D01*
X427444Y628422D01*
X427064Y628346D01*
X426676Y628346D01*
X426296Y628422D01*
X425938Y628571D01*
X425615Y628786D01*
X425341Y629060D01*
X425126Y629383D01*
X424977Y629741D01*
X424902Y630121D01*
Y630315D01*
Y631299D01*
Y631299D01*
X424902Y631493D01*
X424977Y631873D01*
X425126Y632232D01*
X425341Y632554D01*
X425615Y632828D01*
X425938Y633044D01*
X426296Y633192D01*
X426676Y633268D01*
X427064Y633268D01*
X427444Y633192D01*
D02*
G37*
G36*
X470824Y367392D02*
X461274D01*
Y380692D01*
X470824Y380692D01*
X470824Y367392D01*
D02*
G37*
G36*
X445394Y370706D02*
X445512Y370697D01*
X445630Y370682D01*
X445746Y370660D01*
X445861Y370632D01*
X445975Y370599D01*
X446087Y370559D01*
X446196Y370514D01*
X446303Y370463D01*
X446408Y370406D01*
X446509Y370344D01*
X446606Y370277D01*
X446700Y370205D01*
X446790Y370128D01*
X446876Y370046D01*
X446958Y369960D01*
X447035Y369870D01*
X447107Y369776D01*
X447174Y369679D01*
X447236Y369578D01*
X447293Y369473D01*
X447344Y369366D01*
X447389Y369257D01*
X447429Y369145D01*
X447462Y369032D01*
X447490Y368916D01*
X447511Y368800D01*
X447527Y368682D01*
X447536Y368564D01*
X447539Y368446D01*
Y364705D01*
X447536Y364587D01*
X447527Y364469D01*
X447511Y364351D01*
X447490Y364235D01*
X447462Y364120D01*
X447429Y364006D01*
X447389Y363894D01*
X447344Y363785D01*
X447293Y363678D01*
X447236Y363574D01*
X447174Y363473D01*
X447107Y363375D01*
X447035Y363281D01*
X446958Y363191D01*
X446876Y363105D01*
X446790Y363023D01*
X446700Y362946D01*
X446606Y362874D01*
X446509Y362807D01*
X446408Y362745D01*
X446303Y362688D01*
X446196Y362637D01*
X446087Y362592D01*
X445975Y362552D01*
X445861Y362519D01*
X445746Y362491D01*
X445630Y362470D01*
X445512Y362454D01*
X445394Y362445D01*
X445276Y362442D01*
X440158D01*
Y370709D01*
X445276D01*
X445394Y370706D01*
D02*
G37*
G36*
X422835Y362442D02*
X417717D01*
X417598Y362445D01*
X417480Y362454D01*
X417362Y362470D01*
X417246Y362491D01*
X417131Y362519D01*
X417017Y362552D01*
X416905Y362592D01*
X416796Y362637D01*
X416689Y362688D01*
X416585Y362745D01*
X416484Y362807D01*
X416386Y362874D01*
X416292Y362946D01*
X416202Y363023D01*
X416116Y363105D01*
X416034Y363191D01*
X415957Y363281D01*
X415885Y363375D01*
X415818Y363473D01*
X415756Y363574D01*
X415699Y363678D01*
X415649Y363785D01*
X415603Y363894D01*
X415564Y364006D01*
X415530Y364120D01*
X415502Y364235D01*
X415481Y364351D01*
X415465Y364469D01*
X415456Y364587D01*
X415453Y364705D01*
Y368446D01*
X415456Y368564D01*
X415465Y368682D01*
X415481Y368800D01*
X415502Y368916D01*
X415530Y369032D01*
X415564Y369145D01*
X415603Y369257D01*
X415649Y369366D01*
X415699Y369473D01*
X415756Y369578D01*
X415818Y369679D01*
X415885Y369776D01*
X415957Y369870D01*
X416034Y369960D01*
X416116Y370046D01*
X416202Y370128D01*
X416292Y370205D01*
X416386Y370277D01*
X416484Y370344D01*
X416585Y370406D01*
X416689Y370463D01*
X416796Y370514D01*
X416905Y370559D01*
X417017Y370599D01*
X417131Y370632D01*
X417246Y370660D01*
X417362Y370682D01*
X417480Y370697D01*
X417598Y370706D01*
X417717Y370709D01*
X422835D01*
Y362442D01*
D02*
G37*
D14*
X424902Y630315D02*
G03*
X428839Y630315I1969J0D01*
G01*
Y631299D02*
G03*
X424902Y631299I-1969J0D01*
G01*
Y630315D02*
X428839D01*
X424902Y631299D02*
X428839D01*
X424902Y630315D02*
Y631299D01*
X428839Y630315D02*
Y631299D01*
D23*
X487304Y365284D02*
D03*
Y359379D02*
D03*
X493779D02*
D03*
Y365284D02*
D03*
D25*
X475492Y770472D02*
D03*
X497736D02*
D03*
D27*
X520079Y406299D02*
D03*
Y439370D02*
D03*
D28*
Y430709D02*
D03*
Y422835D02*
D03*
Y414961D02*
D03*
X381102Y364705D02*
D03*
X388976D02*
D03*
X396752Y743701D02*
D03*
D29*
X512402Y686221D02*
D03*
D30*
Y705905D02*
D03*
D31*
X445276Y366576D02*
D03*
X417717D02*
D03*
D32*
X421654Y377205D02*
D03*
X441339D02*
D03*
D33*
X366535Y714764D02*
D03*
X500394Y610433D02*
D03*
D34*
X353149Y731299D02*
D03*
X509843D02*
D03*
X353149Y650984D02*
D03*
X509843D02*
D03*
D35*
X388878Y743701D02*
D03*
D36*
X479764Y457972D02*
D03*
X387367Y658219D02*
D03*
X387286Y648320D02*
D03*
X518110Y518012D02*
D03*
X524606Y615925D02*
D03*
Y605925D02*
D03*
Y595925D02*
D03*
X456024Y389370D02*
D03*
X339075Y595925D02*
D03*
Y605925D02*
D03*
Y615925D02*
D03*
X486695Y762447D02*
D03*
D37*
X524606Y585925D02*
D03*
X339075D02*
D03*
D38*
X380197Y752658D02*
D03*
D39*
X370197D02*
D03*
D40*
X466024Y389370D02*
D03*
D41*
X349213Y371654D02*
D03*
X514567D02*
D03*
X349213Y773228D02*
D03*
X514567D02*
D03*
D94*
X362205Y633720D02*
D03*
Y627500D02*
D03*
X383201Y412520D02*
D03*
Y406299D02*
D03*
X380315Y745827D02*
D03*
Y739606D02*
D03*
X521752Y674961D02*
D03*
X521752Y668740D02*
D03*
X487304Y377874D02*
D03*
Y371654D02*
D03*
X493779Y377874D02*
D03*
Y371654D02*
D03*
X369587Y412520D02*
D03*
Y406299D02*
D03*
X376394Y412520D02*
D03*
X376394Y406299D02*
D03*
D95*
X344634Y646096D02*
D03*
X338414Y646096D02*
D03*
X403346Y372047D02*
D03*
X409567D02*
D03*
X373484Y729429D02*
D03*
X367264D02*
D03*
X338414Y627072D02*
D03*
X344634Y627072D02*
D03*
X368740Y619783D02*
D03*
X374961D02*
D03*
X372501Y662697D02*
D03*
X378721D02*
D03*
X372501Y655509D02*
D03*
X378721D02*
D03*
X378721Y648320D02*
D03*
X372501D02*
D03*
X525256Y645472D02*
D03*
X519035D02*
D03*
X514803Y507480D02*
D03*
X521024Y507480D02*
D03*
X521024Y501132D02*
D03*
X514803D02*
D03*
X514803Y494783D02*
D03*
X521024Y494783D02*
D03*
X501339Y419168D02*
D03*
X495118D02*
D03*
X499469Y391669D02*
D03*
X505689D02*
D03*
X457244Y360630D02*
D03*
X451024D02*
D03*
X355472Y397548D02*
D03*
X349252Y397549D02*
D03*
X355472Y391276D02*
D03*
X349252Y391276D02*
D03*
D96*
X399897Y650978D02*
D03*
Y655308D02*
D03*
Y659639D02*
D03*
Y663970D02*
D03*
Y668301D02*
D03*
Y672631D02*
D03*
Y676962D02*
D03*
Y681293D02*
D03*
Y685624D02*
D03*
Y689954D02*
D03*
Y694285D02*
D03*
Y698616D02*
D03*
X462495D02*
D03*
Y694285D02*
D03*
Y689954D02*
D03*
Y685624D02*
D03*
Y681293D02*
D03*
Y676962D02*
D03*
Y672631D02*
D03*
Y668301D02*
D03*
Y663970D02*
D03*
Y659639D02*
D03*
Y655308D02*
D03*
Y650978D02*
D03*
D97*
X413873Y709836D02*
D03*
X418204D02*
D03*
X422535D02*
D03*
X426865D02*
D03*
X431196D02*
D03*
X435527D02*
D03*
X439857D02*
D03*
X444188D02*
D03*
X448519D02*
D03*
Y639757D02*
D03*
X444188D02*
D03*
X439857D02*
D03*
X435527D02*
D03*
X431196D02*
D03*
X426865D02*
D03*
X422535D02*
D03*
X418204D02*
D03*
X413873D02*
D03*
D98*
X411614Y553150D02*
D03*
X416013Y548751D02*
D03*
D99*
X498514Y448484D02*
D03*
Y455847D02*
D03*
X496735Y534685D02*
D03*
Y527323D02*
D03*
X518110D02*
D03*
Y534685D02*
D03*
X489075D02*
D03*
Y527323D02*
D03*
X522047Y448484D02*
D03*
Y455847D02*
D03*
D100*
X489428Y517743D02*
D03*
X501239Y517743D02*
D03*
X512146Y468307D02*
D03*
X523957Y468307D02*
D03*
D101*
X476548Y630610D02*
D03*
X495052D02*
D03*
X518047Y552930D02*
D03*
X499543D02*
D03*
D102*
X388878Y749303D02*
D03*
X388878Y755524D02*
D03*
X396752Y749303D02*
D03*
Y755524D02*
D03*
X380906Y704783D02*
D03*
Y698563D02*
D03*
X391732Y698555D02*
D03*
Y704776D02*
D03*
X472677Y678852D02*
D03*
X472677Y672631D02*
D03*
X422247Y402244D02*
D03*
Y408465D02*
D03*
X381201Y393561D02*
D03*
Y387340D02*
D03*
D103*
X374016Y735433D02*
D03*
X370276Y745276D02*
D03*
X366535Y735433D02*
D03*
X375295Y625689D02*
D03*
X371555Y635532D02*
D03*
X367815Y625689D02*
D03*
X525492Y652264D02*
D03*
X521752Y662106D02*
D03*
X518012Y652264D02*
D03*
D104*
X393642Y714156D02*
D03*
X399862D02*
D03*
X495118Y425565D02*
D03*
X501339D02*
D03*
X499665Y398559D02*
D03*
X505886D02*
D03*
X479764Y389370D02*
D03*
X485984D02*
D03*
X381088Y372047D02*
D03*
X374868D02*
D03*
X395335D02*
D03*
X389114D02*
D03*
D105*
X338571Y633387D02*
D03*
X344477Y633387D02*
D03*
X344477Y639877D02*
D03*
X338571D02*
D03*
X337107Y391275D02*
D03*
X343012Y391275D02*
D03*
X343012Y397548D02*
D03*
X337107Y397548D02*
D03*
D106*
X341732Y561502D02*
D03*
Y532002D02*
D03*
D107*
X421061Y608660D02*
D03*
X409647Y597246D02*
D03*
D108*
X414601Y617455D02*
D03*
X410202Y613057D02*
D03*
X400886Y603839D02*
D03*
X405284Y608237D02*
D03*
X398459Y592652D02*
D03*
X394061Y588253D02*
D03*
X453461Y554210D02*
D03*
X449062Y549811D02*
D03*
D109*
X399068Y582594D02*
D03*
X404274Y587800D02*
D03*
D110*
X440899Y630610D02*
D03*
X448261D02*
D03*
X427815Y385866D02*
D03*
X435177D02*
D03*
D111*
X411730Y576617D02*
D03*
X413958Y578844D02*
D03*
X416185Y581071D02*
D03*
X418412Y583298D02*
D03*
X420639Y585525D02*
D03*
X422866Y587752D02*
D03*
X425093Y589979D02*
D03*
X427320Y592206D02*
D03*
X451262Y568265D02*
D03*
X449035Y566038D02*
D03*
X446807Y563811D02*
D03*
X444580Y561584D02*
D03*
X442353Y559357D02*
D03*
X440126Y557130D02*
D03*
X437899Y554903D02*
D03*
X435672Y552675D02*
D03*
D112*
Y592206D02*
D03*
X437899Y589979D02*
D03*
X440126Y587752D02*
D03*
X442353Y585525D02*
D03*
X444580Y583298D02*
D03*
X446807Y581071D02*
D03*
X449035Y578844D02*
D03*
X451262Y576617D02*
D03*
X427320Y552675D02*
D03*
X425093Y554903D02*
D03*
X422866Y557130D02*
D03*
X420639Y559357D02*
D03*
X418412Y561584D02*
D03*
X416185Y563811D02*
D03*
X413958Y566038D02*
D03*
X411730Y568265D02*
D03*
D113*
X502658Y506595D02*
D03*
X486909D02*
D03*
D114*
X494685Y468307D02*
D03*
Y494118D02*
D03*
D115*
X514311Y487579D02*
D03*
X518051Y487579D02*
D03*
X521791Y487579D02*
D03*
Y478366D02*
D03*
X518051Y478366D02*
D03*
X514311Y478366D02*
D03*
D116*
X487205Y420394D02*
D03*
X484646D02*
D03*
X482087D02*
D03*
X479528D02*
D03*
X479528Y397717D02*
D03*
X482087D02*
D03*
X484646D02*
D03*
X487205D02*
D03*
D117*
X502972Y404823D02*
D03*
X502973Y408563D02*
D03*
X502972Y412303D02*
D03*
X493760D02*
D03*
X493760Y408563D02*
D03*
X493760Y404823D02*
D03*
D118*
X466024Y374092D02*
D03*
D119*
X455197Y381592D02*
D03*
Y376592D02*
D03*
Y366592D02*
D03*
Y371592D02*
D03*
X476850Y381592D02*
D03*
Y376592D02*
D03*
Y366592D02*
D03*
Y371592D02*
D03*
D120*
X392717Y417244D02*
D03*
Y412244D02*
D03*
Y407244D02*
D03*
Y402244D02*
D03*
Y397244D02*
D03*
Y392244D02*
D03*
Y387244D02*
D03*
Y382244D02*
D03*
X412205Y382244D02*
D03*
Y387244D02*
D03*
X412205Y392244D02*
D03*
X412205Y397244D02*
D03*
Y402244D02*
D03*
Y407244D02*
D03*
Y412244D02*
D03*
X412205Y417244D02*
D03*
D121*
X426378Y377107D02*
D03*
X431496Y377107D02*
D03*
X434055Y377107D02*
D03*
X436614D02*
D03*
D122*
X359842Y650984D02*
D03*
X503150D02*
D03*
Y731299D02*
D03*
X359842D02*
D03*
D123*
X400394Y730203D02*
D03*
Y779494D02*
D03*
X462598D02*
D03*
Y730203D02*
D03*
D124*
X431540Y720360D02*
D03*
X421540D02*
D03*
X411540D02*
D03*
X426540Y720360D02*
D03*
X416540Y720360D02*
D03*
X406540D02*
D03*
M02*
