G04*
G04 #@! TF.GenerationSoftware,Altium Limited,Altium Designer,23.0.1 (38)*
G04*
G04 Layer_Color=2752767*
%FSLAX25Y25*%
%MOIN*%
G70*
G04*
G04 #@! TF.SameCoordinates,5AACE2FC-F550-4568-A226-762E45A29E99*
G04*
G04*
G04 #@! TF.FilePolarity,Positive*
G04*
G01*
G75*
%ADD11C,0.00500*%
%ADD129C,0.00667*%
%ADD130C,0.00400*%
D11*
X518079Y406299D02*
X520079Y408299D01*
X522079Y406299D01*
X520079Y404299D01*
X518079Y406299D01*
Y439370D02*
X520079Y441370D01*
X522079Y439370D01*
X520079Y437370D01*
X518079Y439370D01*
Y428709D02*
X519079D01*
X520079Y429709D01*
X521079Y428709D01*
X522079D01*
Y429709D01*
X521079Y430709D01*
X522079Y431709D01*
Y432709D01*
X521079D01*
X520079Y431709D01*
X519079Y432709D01*
X518079D01*
Y431709D01*
X519079Y430709D01*
X518079Y429709D01*
Y428709D01*
Y420835D02*
X519079D01*
X520079Y421835D01*
X521079Y420835D01*
X522079D01*
Y421835D01*
X521079Y422835D01*
X522079Y423835D01*
Y424835D01*
X521079D01*
X520079Y423835D01*
X519079Y424835D01*
X518079D01*
Y423835D01*
X519079Y422835D01*
X518079Y421835D01*
Y420835D01*
Y412961D02*
X519079D01*
X520079Y413961D01*
X521079Y412961D01*
X522079D01*
Y413961D01*
X521079Y414961D01*
X522079Y415961D01*
Y416961D01*
X521079D01*
X520079Y415961D01*
X519079Y416961D01*
X518079D01*
Y415961D01*
X519079Y414961D01*
X518079Y413961D01*
Y412961D01*
X445276Y364576D02*
X443276Y368576D01*
X447276D01*
X445276Y364576D01*
X421654Y375205D02*
X422653Y376205D01*
X423654D01*
X422653Y377205D01*
X423654Y378205D01*
X422653D01*
X421654Y379205D01*
X420653Y378205D01*
X419654D01*
X420653Y377205D01*
X419654Y376205D01*
X420653D01*
X421654Y375205D01*
X441339D02*
X442339Y376205D01*
X443339D01*
X442339Y377205D01*
X443339Y378205D01*
X442339D01*
X441339Y379205D01*
X440339Y378205D01*
X439339D01*
X440339Y377205D01*
X439339Y376205D01*
X440339D01*
X441339Y375205D01*
X417717Y364576D02*
X415717Y368576D01*
X419717D01*
X417717Y364576D01*
X379102Y362705D02*
X380102D01*
X381102Y363705D01*
X382102Y362705D01*
X383102D01*
Y363705D01*
X382102Y364705D01*
X383102Y365705D01*
Y366705D01*
X382102D01*
X381102Y365705D01*
X380102Y366705D01*
X379102D01*
Y365705D01*
X380102Y364705D01*
X379102Y363705D01*
Y362705D01*
X386976D02*
X387976D01*
X388976Y363705D01*
X389976Y362705D01*
X390976D01*
Y363705D01*
X389976Y364705D01*
X390976Y365705D01*
Y366705D01*
X389976D01*
X388976Y365705D01*
X387976Y366705D01*
X386976D01*
Y365705D01*
X387976Y364705D01*
X386976Y363705D01*
Y362705D01*
X351149Y729299D02*
Y733299D01*
X355149D01*
Y729299D01*
X351149D01*
X351949Y730099D02*
Y732499D01*
X354349D01*
Y730099D01*
X351949D01*
X507843Y729299D02*
Y733299D01*
X511843D01*
Y729299D01*
X507843D01*
X508643Y730099D02*
Y732499D01*
X511043D01*
Y730099D01*
X508643D01*
X351149Y648984D02*
Y652984D01*
X355149D01*
Y648984D01*
X351149D01*
X351949Y649784D02*
Y652184D01*
X354349D01*
Y649784D01*
X351949D01*
X507843Y648984D02*
Y652984D01*
X511843D01*
Y648984D01*
X507843D01*
X508643Y649784D02*
Y652184D01*
X511043D01*
Y649784D01*
X508643D01*
X386878Y741701D02*
X387878Y743701D01*
X386878Y745701D01*
X388878Y744701D01*
X390878Y745701D01*
X389878Y743701D01*
X390878Y741701D01*
X388878Y742701D01*
X386878Y741701D01*
X394752D02*
X395752Y743701D01*
X394752Y745701D01*
X396752Y744701D01*
X398752Y745701D01*
X397752Y743701D01*
X398752Y741701D01*
X396752Y742701D01*
X394752Y741701D01*
X523606Y614925D02*
Y613925D01*
X525606D01*
Y614925D01*
X526606D01*
Y616925D01*
X525606D01*
Y617925D01*
X523606D01*
Y616925D01*
X522606D01*
Y614925D01*
X523606D01*
Y604925D02*
Y603925D01*
X525606D01*
Y604925D01*
X526606D01*
Y606925D01*
X525606D01*
Y607925D01*
X523606D01*
Y606925D01*
X522606D01*
Y604925D01*
X523606D01*
Y594925D02*
Y593925D01*
X525606D01*
Y594925D01*
X526606D01*
Y596925D01*
X525606D01*
Y597925D01*
X523606D01*
Y596925D01*
X522606D01*
Y594925D01*
X523606D01*
Y584925D02*
Y583925D01*
X525606D01*
Y584925D01*
X526606D01*
Y586925D01*
X525606D01*
Y587925D01*
X523606D01*
Y586925D01*
X522606D01*
Y584925D01*
X523606D01*
X378197Y750658D02*
X379197Y752658D01*
X378197Y754658D01*
X380197Y753657D01*
X382197Y754658D01*
X381197Y752658D01*
X382197Y750658D01*
X380197Y751657D01*
X378197Y750658D01*
X378997Y751458D02*
X379597Y752658D01*
X378997Y753858D01*
X380197Y753258D01*
X381397Y753858D01*
X380797Y752658D01*
X381397Y751458D01*
X380197Y752058D01*
X378997Y751458D01*
X368197Y750658D02*
X369197Y752658D01*
X368197Y754658D01*
X370197Y753657D01*
X372197Y754658D01*
X371197Y752658D01*
X372197Y750658D01*
X370197Y751657D01*
X368197Y750658D01*
X368997Y751458D02*
X369597Y752658D01*
X368997Y753858D01*
X370197Y753258D01*
X371397Y753858D01*
X370797Y752658D01*
X371397Y751458D01*
X370197Y752058D01*
X368997Y751458D01*
X455024Y388370D02*
Y387370D01*
X457024D01*
Y388370D01*
X458024D01*
Y390370D01*
X457024D01*
Y391370D01*
X455024D01*
Y390370D01*
X454024D01*
Y388370D01*
X455024D01*
X465024D02*
Y387370D01*
X467024D01*
Y388370D01*
X468024D01*
Y390370D01*
X467024D01*
Y391370D01*
X465024D01*
Y390370D01*
X464024D01*
Y388370D01*
X465024D01*
X338075Y584925D02*
Y583925D01*
X340075D01*
Y584925D01*
X341075D01*
Y586925D01*
X340075D01*
Y587925D01*
X338075D01*
Y586925D01*
X337075D01*
Y584925D01*
X338075D01*
Y594925D02*
Y593925D01*
X340075D01*
Y594925D01*
X341075D01*
Y596925D01*
X340075D01*
Y597925D01*
X338075D01*
Y596925D01*
X337075D01*
Y594925D01*
X338075D01*
Y604925D02*
Y603925D01*
X340075D01*
Y604925D01*
X341075D01*
Y606925D01*
X340075D01*
Y607925D01*
X338075D01*
Y606925D01*
X337075D01*
Y604925D01*
X338075D01*
Y614925D02*
Y613925D01*
X340075D01*
Y614925D01*
X341075D01*
Y616925D01*
X340075D01*
Y617925D01*
X338075D01*
Y616925D01*
X337075D01*
Y614925D01*
X338075D01*
X484695Y760447D02*
Y764447D01*
X488695D01*
Y760447D01*
X484695D01*
X349213Y369654D02*
X347213Y373654D01*
X351213D01*
X349213Y369654D01*
Y370454D02*
X348013Y372853D01*
X350413D01*
X349213Y370454D01*
X514567Y369654D02*
X512567Y373654D01*
X516567D01*
X514567Y369654D01*
Y370454D02*
X513367Y372853D01*
X515767D01*
X514567Y370454D01*
X349213Y771228D02*
X347213Y775228D01*
X351213D01*
X349213Y771228D01*
Y772028D02*
X348013Y774428D01*
X350413D01*
X349213Y772028D01*
X514567Y771228D02*
X512567Y775228D01*
X516567D01*
X514567Y771228D01*
Y772028D02*
X513367Y774428D01*
X515767D01*
X514567Y772028D01*
X515227Y753583D02*
Y752583D01*
X517227D01*
Y753583D01*
X518227D01*
Y755583D01*
X517227D01*
Y756583D01*
X515227D01*
Y755583D01*
X514227D01*
Y753583D01*
X515227D01*
X515627Y753983D02*
Y753383D01*
X516827D01*
Y753983D01*
X517427D01*
Y755183D01*
X516827D01*
Y755783D01*
X515627D01*
Y755183D01*
X515027D01*
Y753983D01*
X515627D01*
X525070Y733898D02*
Y732898D01*
X527070D01*
Y733898D01*
X528070D01*
Y735898D01*
X527070D01*
Y736898D01*
X525070D01*
Y735898D01*
X524070D01*
Y733898D01*
X525070D01*
X525470Y734298D02*
Y733698D01*
X526670D01*
Y734298D01*
X527270D01*
Y735498D01*
X526670D01*
Y736098D01*
X525470D01*
Y735498D01*
X524870D01*
Y734298D01*
X525470D01*
X515227Y714213D02*
Y713213D01*
X517227D01*
Y714213D01*
X518227D01*
Y716213D01*
X517227D01*
Y717213D01*
X515227D01*
Y716213D01*
X514227D01*
Y714213D01*
X515227D01*
X515627Y714613D02*
Y714013D01*
X516827D01*
Y714613D01*
X517427D01*
Y715813D01*
X516827D01*
Y716413D01*
X515627D01*
Y715813D01*
X515027D01*
Y714613D01*
X515627D01*
X525070Y694528D02*
Y693528D01*
X527070D01*
Y694528D01*
X528070D01*
Y696528D01*
X527070D01*
Y697528D01*
X525070D01*
Y696528D01*
X524070D01*
Y694528D01*
X525070D01*
X525470Y694928D02*
Y694328D01*
X526670D01*
Y694928D01*
X527270D01*
Y696128D01*
X526670D01*
Y696728D01*
X525470D01*
Y696128D01*
X524870D01*
Y694928D01*
X525470D01*
X515227Y674843D02*
Y673843D01*
X517227D01*
Y674843D01*
X518227D01*
Y676843D01*
X517227D01*
Y677843D01*
X515227D01*
Y676843D01*
X514227D01*
Y674843D01*
X515227D01*
X515627Y675243D02*
Y674643D01*
X516827D01*
Y675243D01*
X517427D01*
Y676443D01*
X516827D01*
Y677043D01*
X515627D01*
Y676443D01*
X515027D01*
Y675243D01*
X515627D01*
X525070Y537047D02*
Y536047D01*
X527070D01*
Y537047D01*
X528070D01*
Y539047D01*
X527070D01*
Y540047D01*
X525070D01*
Y539047D01*
X524070D01*
Y537047D01*
X525070D01*
X525470Y537447D02*
Y536847D01*
X526670D01*
Y537447D01*
X527270D01*
Y538647D01*
X526670D01*
Y539247D01*
X525470D01*
Y538647D01*
X524870D01*
Y537447D01*
X525470D01*
X495542Y753583D02*
Y752583D01*
X497542D01*
Y753583D01*
X498542D01*
Y755583D01*
X497542D01*
Y756583D01*
X495542D01*
Y755583D01*
X494542D01*
Y753583D01*
X495542D01*
X495942Y753983D02*
Y753383D01*
X497142D01*
Y753983D01*
X497742D01*
Y755183D01*
X497142D01*
Y755783D01*
X495942D01*
Y755183D01*
X495342D01*
Y753983D01*
X495942D01*
X495542Y714213D02*
Y713213D01*
X497542D01*
Y714213D01*
X498542D01*
Y716213D01*
X497542D01*
Y717213D01*
X495542D01*
Y716213D01*
X494542D01*
Y714213D01*
X495542D01*
X495942Y714613D02*
Y714013D01*
X497142D01*
Y714613D01*
X497742D01*
Y715813D01*
X497142D01*
Y716413D01*
X495942D01*
Y715813D01*
X495342D01*
Y714613D01*
X495942D01*
X495542Y635472D02*
Y634473D01*
X497542D01*
Y635472D01*
X498542D01*
Y637472D01*
X497542D01*
Y638473D01*
X495542D01*
Y637472D01*
X494542D01*
Y635472D01*
X495542D01*
X495942Y635873D02*
Y635273D01*
X497142D01*
Y635873D01*
X497742D01*
Y637073D01*
X497142D01*
Y637673D01*
X495942D01*
Y637073D01*
X495342D01*
Y635873D01*
X495942D01*
X505385Y615787D02*
Y614787D01*
X507385D01*
Y615787D01*
X508385D01*
Y617787D01*
X507385D01*
Y618787D01*
X505385D01*
Y617787D01*
X504385D01*
Y615787D01*
X505385D01*
X505785Y616187D02*
Y615587D01*
X506985D01*
Y616187D01*
X507585D01*
Y617387D01*
X506985D01*
Y617987D01*
X505785D01*
Y617387D01*
X505185D01*
Y616187D01*
X505785D01*
X505385Y576417D02*
Y575417D01*
X507385D01*
Y576417D01*
X508385D01*
Y578417D01*
X507385D01*
Y579417D01*
X505385D01*
Y578417D01*
X504385D01*
Y576417D01*
X505385D01*
X505785Y576817D02*
Y576217D01*
X506985D01*
Y576817D01*
X507585D01*
Y578017D01*
X506985D01*
Y578617D01*
X505785D01*
Y578017D01*
X505185D01*
Y576817D01*
X505785D01*
X495542Y556732D02*
Y555732D01*
X497542D01*
Y556732D01*
X498542D01*
Y558732D01*
X497542D01*
Y559732D01*
X495542D01*
Y558732D01*
X494542D01*
Y556732D01*
X495542D01*
X495942Y557132D02*
Y556532D01*
X497142D01*
Y557132D01*
X497742D01*
Y558332D01*
X497142D01*
Y558932D01*
X495942D01*
Y558332D01*
X495342D01*
Y557132D01*
X495942D01*
X505385Y537047D02*
Y536047D01*
X507385D01*
Y537047D01*
X508385D01*
Y539047D01*
X507385D01*
Y540047D01*
X505385D01*
Y539047D01*
X504385D01*
Y537047D01*
X505385D01*
X505785Y537447D02*
Y536847D01*
X506985D01*
Y537447D01*
X507585D01*
Y538647D01*
X506985D01*
Y539247D01*
X505785D01*
Y538647D01*
X505185D01*
Y537447D01*
X505785D01*
X475857Y753583D02*
Y752583D01*
X477857D01*
Y753583D01*
X478857D01*
Y755583D01*
X477857D01*
Y756583D01*
X475857D01*
Y755583D01*
X474857D01*
Y753583D01*
X475857D01*
X476257Y753983D02*
Y753383D01*
X477457D01*
Y753983D01*
X478057D01*
Y755183D01*
X477457D01*
Y755783D01*
X476257D01*
Y755183D01*
X475657D01*
Y753983D01*
X476257D01*
X475857Y714213D02*
Y713213D01*
X477857D01*
Y714213D01*
X478857D01*
Y716213D01*
X477857D01*
Y717213D01*
X475857D01*
Y716213D01*
X474857D01*
Y714213D01*
X475857D01*
X476257Y714613D02*
Y714013D01*
X477457D01*
Y714613D01*
X478057D01*
Y715813D01*
X477457D01*
Y716413D01*
X476257D01*
Y715813D01*
X475657D01*
Y714613D01*
X476257D01*
X475857Y674843D02*
Y673843D01*
X477857D01*
Y674843D01*
X478857D01*
Y676843D01*
X477857D01*
Y677843D01*
X475857D01*
Y676843D01*
X474857D01*
Y674843D01*
X475857D01*
X476257Y675243D02*
Y674643D01*
X477457D01*
Y675243D01*
X478057D01*
Y676443D01*
X477457D01*
Y677043D01*
X476257D01*
Y676443D01*
X475657D01*
Y675243D01*
X476257D01*
X485700Y655158D02*
Y654157D01*
X487700D01*
Y655158D01*
X488700D01*
Y657158D01*
X487700D01*
Y658157D01*
X485700D01*
Y657158D01*
X484700D01*
Y655158D01*
X485700D01*
X486100Y655557D02*
Y654957D01*
X487300D01*
Y655557D01*
X487900D01*
Y656757D01*
X487300D01*
Y657358D01*
X486100D01*
Y656757D01*
X485500D01*
Y655557D01*
X486100D01*
X475857Y635472D02*
Y634473D01*
X477857D01*
Y635472D01*
X478857D01*
Y637472D01*
X477857D01*
Y638473D01*
X475857D01*
Y637472D01*
X474857D01*
Y635472D01*
X475857D01*
X476257Y635873D02*
Y635273D01*
X477457D01*
Y635873D01*
X478057D01*
Y637073D01*
X477457D01*
Y637673D01*
X476257D01*
Y637073D01*
X475657D01*
Y635873D01*
X476257D01*
X485700Y615787D02*
Y614787D01*
X487700D01*
Y615787D01*
X488700D01*
Y617787D01*
X487700D01*
Y618787D01*
X485700D01*
Y617787D01*
X484700D01*
Y615787D01*
X485700D01*
X486100Y616187D02*
Y615587D01*
X487300D01*
Y616187D01*
X487900D01*
Y617387D01*
X487300D01*
Y617987D01*
X486100D01*
Y617387D01*
X485500D01*
Y616187D01*
X486100D01*
X485700Y576417D02*
Y575417D01*
X487700D01*
Y576417D01*
X488700D01*
Y578417D01*
X487700D01*
Y579417D01*
X485700D01*
Y578417D01*
X484700D01*
Y576417D01*
X485700D01*
X486100Y576817D02*
Y576217D01*
X487300D01*
Y576817D01*
X487900D01*
Y578017D01*
X487300D01*
Y578617D01*
X486100D01*
Y578017D01*
X485500D01*
Y576817D01*
X486100D01*
X456172Y753583D02*
Y752583D01*
X458172D01*
Y753583D01*
X459172D01*
Y755583D01*
X458172D01*
Y756583D01*
X456172D01*
Y755583D01*
X455172D01*
Y753583D01*
X456172D01*
X456572Y753983D02*
Y753383D01*
X457772D01*
Y753983D01*
X458372D01*
Y755183D01*
X457772D01*
Y755783D01*
X456572D01*
Y755183D01*
X455972D01*
Y753983D01*
X456572D01*
X456172Y635472D02*
Y634473D01*
X458172D01*
Y635472D01*
X459172D01*
Y637472D01*
X458172D01*
Y638473D01*
X456172D01*
Y637472D01*
X455172D01*
Y635472D01*
X456172D01*
X456572Y635873D02*
Y635273D01*
X457772D01*
Y635873D01*
X458372D01*
Y637073D01*
X457772D01*
Y637673D01*
X456572D01*
Y637073D01*
X455972D01*
Y635873D01*
X456572D01*
X466014Y615787D02*
Y614787D01*
X468014D01*
Y615787D01*
X469015D01*
Y617787D01*
X468014D01*
Y618787D01*
X466014D01*
Y617787D01*
X465015D01*
Y615787D01*
X466014D01*
X466414Y616187D02*
Y615587D01*
X467615D01*
Y616187D01*
X468215D01*
Y617387D01*
X467615D01*
Y617987D01*
X466414D01*
Y617387D01*
X465814D01*
Y616187D01*
X466414D01*
X456172Y596102D02*
Y595102D01*
X458172D01*
Y596102D01*
X459172D01*
Y598102D01*
X458172D01*
Y599102D01*
X456172D01*
Y598102D01*
X455172D01*
Y596102D01*
X456172D01*
X456572Y596502D02*
Y595902D01*
X457772D01*
Y596502D01*
X458372D01*
Y597702D01*
X457772D01*
Y598302D01*
X456572D01*
Y597702D01*
X455972D01*
Y596502D01*
X456572D01*
X466014Y537047D02*
Y536047D01*
X468014D01*
Y537047D01*
X469015D01*
Y539047D01*
X468014D01*
Y540047D01*
X466014D01*
Y539047D01*
X465015D01*
Y537047D01*
X466014D01*
X466414Y537447D02*
Y536847D01*
X467615D01*
Y537447D01*
X468215D01*
Y538647D01*
X467615D01*
Y539247D01*
X466414D01*
Y538647D01*
X465814D01*
Y537447D01*
X466414D01*
X466014Y497677D02*
Y496677D01*
X468014D01*
Y497677D01*
X469015D01*
Y499677D01*
X468014D01*
Y500677D01*
X466014D01*
Y499677D01*
X465015D01*
Y497677D01*
X466014D01*
X466414Y498077D02*
Y497477D01*
X467615D01*
Y498077D01*
X468215D01*
Y499277D01*
X467615D01*
Y499877D01*
X466414D01*
Y499277D01*
X465814D01*
Y498077D01*
X466414D01*
X456172Y477992D02*
Y476992D01*
X458172D01*
Y477992D01*
X459172D01*
Y479992D01*
X458172D01*
Y480992D01*
X456172D01*
Y479992D01*
X455172D01*
Y477992D01*
X456172D01*
X456572Y478392D02*
Y477792D01*
X457772D01*
Y478392D01*
X458372D01*
Y479592D01*
X457772D01*
Y480192D01*
X456572D01*
Y479592D01*
X455972D01*
Y478392D01*
X456572D01*
X466014Y458307D02*
Y457307D01*
X468014D01*
Y458307D01*
X469015D01*
Y460307D01*
X468014D01*
Y461307D01*
X466014D01*
Y460307D01*
X465015D01*
Y458307D01*
X466014D01*
X466414Y458707D02*
Y458107D01*
X467615D01*
Y458707D01*
X468215D01*
Y459907D01*
X467615D01*
Y460507D01*
X466414D01*
Y459907D01*
X465814D01*
Y458707D01*
X466414D01*
X456172Y438622D02*
Y437622D01*
X458172D01*
Y438622D01*
X459172D01*
Y440622D01*
X458172D01*
Y441622D01*
X456172D01*
Y440622D01*
X455172D01*
Y438622D01*
X456172D01*
X456572Y439022D02*
Y438422D01*
X457772D01*
Y439022D01*
X458372D01*
Y440222D01*
X457772D01*
Y440822D01*
X456572D01*
Y440222D01*
X455972D01*
Y439022D01*
X456572D01*
X466014Y418937D02*
Y417937D01*
X468014D01*
Y418937D01*
X469015D01*
Y420937D01*
X468014D01*
Y421937D01*
X466014D01*
Y420937D01*
X465015D01*
Y418937D01*
X466014D01*
X466414Y419337D02*
Y418737D01*
X467615D01*
Y419337D01*
X468215D01*
Y420537D01*
X467615D01*
Y421137D01*
X466414D01*
Y420537D01*
X465814D01*
Y419337D01*
X466414D01*
X446329Y773268D02*
Y772268D01*
X448329D01*
Y773268D01*
X449330D01*
Y775268D01*
X448329D01*
Y776268D01*
X446329D01*
Y775268D01*
X445330D01*
Y773268D01*
X446329D01*
X446730Y773668D02*
Y773068D01*
X447929D01*
Y773668D01*
X448529D01*
Y774868D01*
X447929D01*
Y775468D01*
X446730D01*
Y774868D01*
X446130D01*
Y773668D01*
X446730D01*
X436487Y753583D02*
Y752583D01*
X438487D01*
Y753583D01*
X439487D01*
Y755583D01*
X438487D01*
Y756583D01*
X436487D01*
Y755583D01*
X435487D01*
Y753583D01*
X436487D01*
X436887Y753983D02*
Y753383D01*
X438087D01*
Y753983D01*
X438687D01*
Y755183D01*
X438087D01*
Y755783D01*
X436887D01*
Y755183D01*
X436287D01*
Y753983D01*
X436887D01*
X446329Y497677D02*
Y496677D01*
X448329D01*
Y497677D01*
X449330D01*
Y499677D01*
X448329D01*
Y500677D01*
X446329D01*
Y499677D01*
X445330D01*
Y497677D01*
X446329D01*
X446730Y498077D02*
Y497477D01*
X447929D01*
Y498077D01*
X448529D01*
Y499277D01*
X447929D01*
Y499877D01*
X446730D01*
Y499277D01*
X446130D01*
Y498077D01*
X446730D01*
X436487Y477992D02*
Y476992D01*
X438487D01*
Y477992D01*
X439487D01*
Y479992D01*
X438487D01*
Y480992D01*
X436487D01*
Y479992D01*
X435487D01*
Y477992D01*
X436487D01*
X436887Y478392D02*
Y477792D01*
X438087D01*
Y478392D01*
X438687D01*
Y479592D01*
X438087D01*
Y480192D01*
X436887D01*
Y479592D01*
X436287D01*
Y478392D01*
X436887D01*
X436487Y438622D02*
Y437622D01*
X438487D01*
Y438622D01*
X439487D01*
Y440622D01*
X438487D01*
Y441622D01*
X436487D01*
Y440622D01*
X435487D01*
Y438622D01*
X436487D01*
X436887Y439022D02*
Y438422D01*
X438087D01*
Y439022D01*
X438687D01*
Y440222D01*
X438087D01*
Y440822D01*
X436887D01*
Y440222D01*
X436287D01*
Y439022D01*
X436887D01*
X446329Y418937D02*
Y417937D01*
X448329D01*
Y418937D01*
X449330D01*
Y420937D01*
X448329D01*
Y421937D01*
X446329D01*
Y420937D01*
X445330D01*
Y418937D01*
X446329D01*
X446730Y419337D02*
Y418737D01*
X447929D01*
Y419337D01*
X448529D01*
Y420537D01*
X447929D01*
Y421137D01*
X446730D01*
Y420537D01*
X446130D01*
Y419337D01*
X446730D01*
X436487Y399252D02*
Y398252D01*
X438487D01*
Y399252D01*
X439487D01*
Y401252D01*
X438487D01*
Y402252D01*
X436487D01*
Y401252D01*
X435487D01*
Y399252D01*
X436487D01*
X436887Y399652D02*
Y399052D01*
X438087D01*
Y399652D01*
X438687D01*
Y400852D01*
X438087D01*
Y401452D01*
X436887D01*
Y400852D01*
X436287D01*
Y399652D01*
X436887D01*
X426644Y773268D02*
Y772268D01*
X428644D01*
Y773268D01*
X429644D01*
Y775268D01*
X428644D01*
Y776268D01*
X426644D01*
Y775268D01*
X425644D01*
Y773268D01*
X426644D01*
X427044Y773668D02*
Y773068D01*
X428244D01*
Y773668D01*
X428844D01*
Y774868D01*
X428244D01*
Y775468D01*
X427044D01*
Y774868D01*
X426444D01*
Y773668D01*
X427044D01*
X416802Y753583D02*
Y752583D01*
X418802D01*
Y753583D01*
X419802D01*
Y755583D01*
X418802D01*
Y756583D01*
X416802D01*
Y755583D01*
X415802D01*
Y753583D01*
X416802D01*
X417202Y753983D02*
Y753383D01*
X418402D01*
Y753983D01*
X419002D01*
Y755183D01*
X418402D01*
Y755783D01*
X417202D01*
Y755183D01*
X416602D01*
Y753983D01*
X417202D01*
X426644Y694528D02*
Y693528D01*
X428644D01*
Y694528D01*
X429644D01*
Y696528D01*
X428644D01*
Y697528D01*
X426644D01*
Y696528D01*
X425644D01*
Y694528D01*
X426644D01*
X427044Y694928D02*
Y694328D01*
X428244D01*
Y694928D01*
X428844D01*
Y696128D01*
X428244D01*
Y696728D01*
X427044D01*
Y696128D01*
X426444D01*
Y694928D01*
X427044D01*
X416802Y674843D02*
Y673843D01*
X418802D01*
Y674843D01*
X419802D01*
Y676843D01*
X418802D01*
Y677843D01*
X416802D01*
Y676843D01*
X415802D01*
Y674843D01*
X416802D01*
X417202Y675243D02*
Y674643D01*
X418402D01*
Y675243D01*
X419002D01*
Y676443D01*
X418402D01*
Y677043D01*
X417202D01*
Y676443D01*
X416602D01*
Y675243D01*
X417202D01*
X426644Y655158D02*
Y654157D01*
X428644D01*
Y655158D01*
X429644D01*
Y657158D01*
X428644D01*
Y658157D01*
X426644D01*
Y657158D01*
X425644D01*
Y655158D01*
X426644D01*
X427044Y655557D02*
Y654957D01*
X428244D01*
Y655557D01*
X428844D01*
Y656757D01*
X428244D01*
Y657358D01*
X427044D01*
Y656757D01*
X426444D01*
Y655557D01*
X427044D01*
X416802Y517362D02*
Y516362D01*
X418802D01*
Y517362D01*
X419802D01*
Y519362D01*
X418802D01*
Y520362D01*
X416802D01*
Y519362D01*
X415802D01*
Y517362D01*
X416802D01*
X417202Y517762D02*
Y517162D01*
X418402D01*
Y517762D01*
X419002D01*
Y518962D01*
X418402D01*
Y519562D01*
X417202D01*
Y518962D01*
X416602D01*
Y517762D01*
X417202D01*
X426644Y497677D02*
Y496677D01*
X428644D01*
Y497677D01*
X429644D01*
Y499677D01*
X428644D01*
Y500677D01*
X426644D01*
Y499677D01*
X425644D01*
Y497677D01*
X426644D01*
X427044Y498077D02*
Y497477D01*
X428244D01*
Y498077D01*
X428844D01*
Y499277D01*
X428244D01*
Y499877D01*
X427044D01*
Y499277D01*
X426444D01*
Y498077D01*
X427044D01*
X426644Y458307D02*
Y457307D01*
X428644D01*
Y458307D01*
X429644D01*
Y460307D01*
X428644D01*
Y461307D01*
X426644D01*
Y460307D01*
X425644D01*
Y458307D01*
X426644D01*
X427044Y458707D02*
Y458107D01*
X428244D01*
Y458707D01*
X428844D01*
Y459907D01*
X428244D01*
Y460507D01*
X427044D01*
Y459907D01*
X426444D01*
Y458707D01*
X427044D01*
X426644Y418937D02*
Y417937D01*
X428644D01*
Y418937D01*
X429644D01*
Y420937D01*
X428644D01*
Y421937D01*
X426644D01*
Y420937D01*
X425644D01*
Y418937D01*
X426644D01*
X427044Y419337D02*
Y418737D01*
X428244D01*
Y419337D01*
X428844D01*
Y420537D01*
X428244D01*
Y421137D01*
X427044D01*
Y420537D01*
X426444D01*
Y419337D01*
X427044D01*
X406959Y773268D02*
Y772268D01*
X408959D01*
Y773268D01*
X409959D01*
Y775268D01*
X408959D01*
Y776268D01*
X406959D01*
Y775268D01*
X405959D01*
Y773268D01*
X406959D01*
X407359Y773668D02*
Y773068D01*
X408559D01*
Y773668D01*
X409159D01*
Y774868D01*
X408559D01*
Y775468D01*
X407359D01*
Y774868D01*
X406759D01*
Y773668D01*
X407359D01*
X406959Y694528D02*
Y693528D01*
X408959D01*
Y694528D01*
X409959D01*
Y696528D01*
X408959D01*
Y697528D01*
X406959D01*
Y696528D01*
X405959D01*
Y694528D01*
X406959D01*
X407359Y694928D02*
Y694328D01*
X408559D01*
Y694928D01*
X409159D01*
Y696128D01*
X408559D01*
Y696728D01*
X407359D01*
Y696128D01*
X406759D01*
Y694928D01*
X407359D01*
X406959Y655158D02*
Y654157D01*
X408959D01*
Y655158D01*
X409959D01*
Y657158D01*
X408959D01*
Y658157D01*
X406959D01*
Y657158D01*
X405959D01*
Y655158D01*
X406959D01*
X407359Y655557D02*
Y654957D01*
X408559D01*
Y655557D01*
X409159D01*
Y656757D01*
X408559D01*
Y657358D01*
X407359D01*
Y656757D01*
X406759D01*
Y655557D01*
X407359D01*
X397117Y635472D02*
Y634473D01*
X399117D01*
Y635472D01*
X400117D01*
Y637472D01*
X399117D01*
Y638473D01*
X397117D01*
Y637472D01*
X396117D01*
Y635472D01*
X397117D01*
X397517Y635873D02*
Y635273D01*
X398717D01*
Y635873D01*
X399317D01*
Y637073D01*
X398717D01*
Y637673D01*
X397517D01*
Y637073D01*
X396917D01*
Y635873D01*
X397517D01*
X397117Y517362D02*
Y516362D01*
X399117D01*
Y517362D01*
X400117D01*
Y519362D01*
X399117D01*
Y520362D01*
X397117D01*
Y519362D01*
X396117D01*
Y517362D01*
X397117D01*
X397517Y517762D02*
Y517162D01*
X398717D01*
Y517762D01*
X399317D01*
Y518962D01*
X398717D01*
Y519562D01*
X397517D01*
Y518962D01*
X396917D01*
Y517762D01*
X397517D01*
X406959Y497677D02*
Y496677D01*
X408959D01*
Y497677D01*
X409959D01*
Y499677D01*
X408959D01*
Y500677D01*
X406959D01*
Y499677D01*
X405959D01*
Y497677D01*
X406959D01*
X407359Y498077D02*
Y497477D01*
X408559D01*
Y498077D01*
X409159D01*
Y499277D01*
X408559D01*
Y499877D01*
X407359D01*
Y499277D01*
X406759D01*
Y498077D01*
X407359D01*
X397117Y477992D02*
Y476992D01*
X399117D01*
Y477992D01*
X400117D01*
Y479992D01*
X399117D01*
Y480992D01*
X397117D01*
Y479992D01*
X396117D01*
Y477992D01*
X397117D01*
X397517Y478392D02*
Y477792D01*
X398717D01*
Y478392D01*
X399317D01*
Y479592D01*
X398717D01*
Y480192D01*
X397517D01*
Y479592D01*
X396917D01*
Y478392D01*
X397517D01*
X406959Y458307D02*
Y457307D01*
X408959D01*
Y458307D01*
X409959D01*
Y460307D01*
X408959D01*
Y461307D01*
X406959D01*
Y460307D01*
X405959D01*
Y458307D01*
X406959D01*
X407359Y458707D02*
Y458107D01*
X408559D01*
Y458707D01*
X409159D01*
Y459907D01*
X408559D01*
Y460507D01*
X407359D01*
Y459907D01*
X406759D01*
Y458707D01*
X407359D01*
X397117Y438622D02*
Y437622D01*
X399117D01*
Y438622D01*
X400117D01*
Y440622D01*
X399117D01*
Y441622D01*
X397117D01*
Y440622D01*
X396117D01*
Y438622D01*
X397117D01*
X397517Y439022D02*
Y438422D01*
X398717D01*
Y439022D01*
X399317D01*
Y440222D01*
X398717D01*
Y440822D01*
X397517D01*
Y440222D01*
X396917D01*
Y439022D01*
X397517D01*
X397117Y359882D02*
Y358882D01*
X399117D01*
Y359882D01*
X400117D01*
Y361882D01*
X399117D01*
Y362882D01*
X397117D01*
Y361882D01*
X396117D01*
Y359882D01*
X397117D01*
X397517Y360282D02*
Y359682D01*
X398717D01*
Y360282D01*
X399317D01*
Y361482D01*
X398717D01*
Y362082D01*
X397517D01*
Y361482D01*
X396917D01*
Y360282D01*
X397517D01*
X377432Y714213D02*
Y713213D01*
X379432D01*
Y714213D01*
X380432D01*
Y716213D01*
X379432D01*
Y717213D01*
X377432D01*
Y716213D01*
X376432D01*
Y714213D01*
X377432D01*
X377832Y714613D02*
Y714013D01*
X379032D01*
Y714613D01*
X379632D01*
Y715813D01*
X379032D01*
Y716413D01*
X377832D01*
Y715813D01*
X377232D01*
Y714613D01*
X377832D01*
X377432Y635472D02*
Y634473D01*
X379432D01*
Y635472D01*
X380432D01*
Y637472D01*
X379432D01*
Y638473D01*
X377432D01*
Y637472D01*
X376432D01*
Y635472D01*
X377432D01*
X377832Y635873D02*
Y635273D01*
X379032D01*
Y635873D01*
X379632D01*
Y637073D01*
X379032D01*
Y637673D01*
X377832D01*
Y637073D01*
X377232D01*
Y635873D01*
X377832D01*
X377432Y596102D02*
Y595102D01*
X379432D01*
Y596102D01*
X380432D01*
Y598102D01*
X379432D01*
Y599102D01*
X377432D01*
Y598102D01*
X376432D01*
Y596102D01*
X377432D01*
X377832Y596502D02*
Y595902D01*
X379032D01*
Y596502D01*
X379632D01*
Y597702D01*
X379032D01*
Y598302D01*
X377832D01*
Y597702D01*
X377232D01*
Y596502D01*
X377832D01*
X387274Y497677D02*
Y496677D01*
X389274D01*
Y497677D01*
X390274D01*
Y499677D01*
X389274D01*
Y500677D01*
X387274D01*
Y499677D01*
X386274D01*
Y497677D01*
X387274D01*
X387674Y498077D02*
Y497477D01*
X388874D01*
Y498077D01*
X389474D01*
Y499277D01*
X388874D01*
Y499877D01*
X387674D01*
Y499277D01*
X387074D01*
Y498077D01*
X387674D01*
X367589Y694528D02*
Y693528D01*
X369589D01*
Y694528D01*
X370589D01*
Y696528D01*
X369589D01*
Y697528D01*
X367589D01*
Y696528D01*
X366589D01*
Y694528D01*
X367589D01*
X367989Y694928D02*
Y694328D01*
X369189D01*
Y694928D01*
X369789D01*
Y696128D01*
X369189D01*
Y696728D01*
X367989D01*
Y696128D01*
X367389D01*
Y694928D01*
X367989D01*
X357747Y517362D02*
Y516362D01*
X359747D01*
Y517362D01*
X360747D01*
Y519362D01*
X359747D01*
Y520362D01*
X357747D01*
Y519362D01*
X356747D01*
Y517362D01*
X357747D01*
X358147Y517762D02*
Y517162D01*
X359347D01*
Y517762D01*
X359947D01*
Y518962D01*
X359347D01*
Y519562D01*
X358147D01*
Y518962D01*
X357547D01*
Y517762D01*
X358147D01*
X367589Y497677D02*
Y496677D01*
X369589D01*
Y497677D01*
X370589D01*
Y499677D01*
X369589D01*
Y500677D01*
X367589D01*
Y499677D01*
X366589D01*
Y497677D01*
X367589D01*
X367989Y498077D02*
Y497477D01*
X369189D01*
Y498077D01*
X369789D01*
Y499277D01*
X369189D01*
Y499877D01*
X367989D01*
Y499277D01*
X367389D01*
Y498077D01*
X367989D01*
X367589Y458307D02*
Y457307D01*
X369589D01*
Y458307D01*
X370589D01*
Y460307D01*
X369589D01*
Y461307D01*
X367589D01*
Y460307D01*
X366589D01*
Y458307D01*
X367589D01*
X367989Y458707D02*
Y458107D01*
X369189D01*
Y458707D01*
X369789D01*
Y459907D01*
X369189D01*
Y460507D01*
X367989D01*
Y459907D01*
X367389D01*
Y458707D01*
X367989D01*
X367589Y379567D02*
Y378567D01*
X369589D01*
Y379567D01*
X370589D01*
Y381567D01*
X369589D01*
Y382567D01*
X367589D01*
Y381567D01*
X366589D01*
Y379567D01*
X367589D01*
X367989Y379967D02*
Y379367D01*
X369189D01*
Y379967D01*
X369789D01*
Y381167D01*
X369189D01*
Y381767D01*
X367989D01*
Y381167D01*
X367389D01*
Y379967D01*
X367989D01*
X357747Y359882D02*
Y358882D01*
X359747D01*
Y359882D01*
X360747D01*
Y361882D01*
X359747D01*
Y362882D01*
X357747D01*
Y361882D01*
X356747D01*
Y359882D01*
X357747D01*
X358147Y360282D02*
Y359682D01*
X359347D01*
Y360282D01*
X359947D01*
Y361482D01*
X359347D01*
Y362082D01*
X358147D01*
Y361482D01*
X357547D01*
Y360282D01*
X358147D01*
X338062Y753583D02*
Y752583D01*
X340062D01*
Y753583D01*
X341062D01*
Y755583D01*
X340062D01*
Y756583D01*
X338062D01*
Y755583D01*
X337062D01*
Y753583D01*
X338062D01*
X338462Y753983D02*
Y753383D01*
X339662D01*
Y753983D01*
X340262D01*
Y755183D01*
X339662D01*
Y755783D01*
X338462D01*
Y755183D01*
X337862D01*
Y753983D01*
X338462D01*
X347904Y458307D02*
Y457307D01*
X349904D01*
Y458307D01*
X350904D01*
Y460307D01*
X349904D01*
Y461307D01*
X347904D01*
Y460307D01*
X346904D01*
Y458307D01*
X347904D01*
X348304Y458707D02*
Y458107D01*
X349504D01*
Y458707D01*
X350104D01*
Y459907D01*
X349504D01*
Y460507D01*
X348304D01*
Y459907D01*
X347704D01*
Y458707D01*
X348304D01*
X424590Y537189D02*
Y536189D01*
X426590D01*
Y537189D01*
X427591D01*
Y539189D01*
X426590D01*
Y540189D01*
X424590D01*
Y539189D01*
X423591D01*
Y537189D01*
X424590D01*
X424991Y537589D02*
Y536989D01*
X426191D01*
Y537589D01*
X426791D01*
Y538789D01*
X426191D01*
Y539389D01*
X424991D01*
Y538789D01*
X424391D01*
Y537589D01*
X424991D01*
X427792Y582811D02*
Y581811D01*
X429792D01*
Y582811D01*
X430792D01*
Y584811D01*
X429792D01*
Y585811D01*
X427792D01*
Y584811D01*
X426792D01*
Y582811D01*
X427792D01*
X428192Y583211D02*
Y582611D01*
X429392D01*
Y583211D01*
X429992D01*
Y584411D01*
X429392D01*
Y585011D01*
X428192D01*
Y584411D01*
X427592D01*
Y583211D01*
X428192D01*
X421835Y576854D02*
Y575854D01*
X423835D01*
Y576854D01*
X424835D01*
Y578854D01*
X423835D01*
Y579854D01*
X421835D01*
Y578854D01*
X420835D01*
Y576854D01*
X421835D01*
X422235Y577254D02*
Y576654D01*
X423435D01*
Y577254D01*
X424035D01*
Y578454D01*
X423435D01*
Y579054D01*
X422235D01*
Y578454D01*
X421635D01*
Y577254D01*
X422235D01*
X425806Y580826D02*
Y579826D01*
X427806D01*
Y580826D01*
X428806D01*
Y582826D01*
X427806D01*
Y583826D01*
X425806D01*
Y582826D01*
X424806D01*
Y580826D01*
X425806D01*
X426206Y581226D02*
Y580626D01*
X427406D01*
Y581226D01*
X428006D01*
Y582426D01*
X427406D01*
Y583026D01*
X426206D01*
Y582426D01*
X425606D01*
Y581226D01*
X426206D01*
X423820Y578840D02*
Y577840D01*
X425820D01*
Y578840D01*
X426820D01*
Y580840D01*
X425820D01*
Y581840D01*
X423820D01*
Y580840D01*
X422820D01*
Y578840D01*
X423820D01*
X424220Y579240D02*
Y578640D01*
X425420D01*
Y579240D01*
X426020D01*
Y580440D01*
X425420D01*
Y581040D01*
X424220D01*
Y580440D01*
X423620D01*
Y579240D01*
X424220D01*
X437241Y580941D02*
Y579941D01*
X439241D01*
Y580941D01*
X440240D01*
Y582941D01*
X439241D01*
Y583941D01*
X437241D01*
Y582941D01*
X436240D01*
Y580941D01*
X437241D01*
X437640Y581341D02*
Y580741D01*
X438840D01*
Y581341D01*
X439440D01*
Y582541D01*
X438840D01*
Y583141D01*
X437640D01*
Y582541D01*
X437041D01*
Y581341D01*
X437640D01*
X431284Y574984D02*
Y573984D01*
X433284D01*
Y574984D01*
X434283D01*
Y576984D01*
X433284D01*
Y577984D01*
X431284D01*
Y576984D01*
X430283D01*
Y574984D01*
X431284D01*
X431683Y575384D02*
Y574784D01*
X432884D01*
Y575384D01*
X433484D01*
Y576584D01*
X432884D01*
Y577184D01*
X431683D01*
Y576584D01*
X431083D01*
Y575384D01*
X431683D01*
X435255Y578956D02*
Y577956D01*
X437255D01*
Y578956D01*
X438255D01*
Y580956D01*
X437255D01*
Y581956D01*
X435255D01*
Y580956D01*
X434255D01*
Y578956D01*
X435255D01*
X435655Y579356D02*
Y578756D01*
X436855D01*
Y579356D01*
X437455D01*
Y580556D01*
X436855D01*
Y581156D01*
X435655D01*
Y580556D01*
X435055D01*
Y579356D01*
X435655D01*
X433269Y576970D02*
Y575970D01*
X435269D01*
Y576970D01*
X436269D01*
Y578970D01*
X435269D01*
Y579970D01*
X433269D01*
Y578970D01*
X432269D01*
Y576970D01*
X433269D01*
X433669Y577370D02*
Y576770D01*
X434869D01*
Y577370D01*
X435469D01*
Y578570D01*
X434869D01*
Y579170D01*
X433669D01*
Y578570D01*
X433069D01*
Y577370D01*
X433669D01*
X398496Y562441D02*
Y561441D01*
X400496D01*
Y562441D01*
X401496D01*
Y564441D01*
X400496D01*
Y565441D01*
X398496D01*
Y564441D01*
X397496D01*
Y562441D01*
X398496D01*
X398896Y562841D02*
Y562241D01*
X400096D01*
Y562841D01*
X400696D01*
Y564041D01*
X400096D01*
Y564641D01*
X398896D01*
Y564041D01*
X398296D01*
Y562841D01*
X398896D01*
X404496Y562441D02*
Y561441D01*
X406496D01*
Y562441D01*
X407496D01*
Y564441D01*
X406496D01*
Y565441D01*
X404496D01*
Y564441D01*
X403496D01*
Y562441D01*
X404496D01*
X404896Y562841D02*
Y562241D01*
X406096D01*
Y562841D01*
X406696D01*
Y564041D01*
X406096D01*
Y564641D01*
X404896D01*
Y564041D01*
X404296D01*
Y562841D01*
X404896D01*
X401496Y562441D02*
Y561441D01*
X403496D01*
Y562441D01*
X404496D01*
Y564441D01*
X403496D01*
Y565441D01*
X401496D01*
Y564441D01*
X400496D01*
Y562441D01*
X401496D01*
X401896Y562841D02*
Y562241D01*
X403096D01*
Y562841D01*
X403696D01*
Y564041D01*
X403096D01*
Y564641D01*
X401896D01*
Y564041D01*
X401296D01*
Y562841D01*
X401896D01*
X426786Y544026D02*
Y543026D01*
X428786D01*
Y544026D01*
X429786D01*
Y546026D01*
X428786D01*
Y547026D01*
X426786D01*
Y546026D01*
X425786D01*
Y544026D01*
X426786D01*
X427186Y544426D02*
Y543826D01*
X428386D01*
Y544426D01*
X428986D01*
Y545626D01*
X428386D01*
Y546226D01*
X427186D01*
Y545626D01*
X426586D01*
Y544426D01*
X427186D01*
X335566Y560584D02*
Y559584D01*
X337566D01*
Y560584D01*
X338566D01*
Y562584D01*
X337566D01*
Y563584D01*
X335566D01*
Y562584D01*
X334566D01*
Y560584D01*
X335566D01*
X335966Y560984D02*
Y560384D01*
X337166D01*
Y560984D01*
X337766D01*
Y562184D01*
X337166D01*
Y562784D01*
X335966D01*
Y562184D01*
X335366D01*
Y560984D01*
X335966D01*
X455507Y568619D02*
Y567619D01*
X457507D01*
Y568619D01*
X458507D01*
Y570619D01*
X457507D01*
Y571619D01*
X455507D01*
Y570619D01*
X454507D01*
Y568619D01*
X455507D01*
X455907Y569019D02*
Y568419D01*
X457107D01*
Y569019D01*
X457707D01*
Y570219D01*
X457107D01*
Y570819D01*
X455907D01*
Y570219D01*
X455307D01*
Y569019D01*
X455907D01*
X458507Y568619D02*
Y567619D01*
X460507D01*
Y568619D01*
X461507D01*
Y570619D01*
X460507D01*
Y571619D01*
X458507D01*
Y570619D01*
X457507D01*
Y568619D01*
X458507D01*
X458907Y569019D02*
Y568419D01*
X460107D01*
Y569019D01*
X460707D01*
Y570219D01*
X460107D01*
Y570819D01*
X458907D01*
Y570219D01*
X458307D01*
Y569019D01*
X458907D01*
X459529Y597436D02*
Y596436D01*
X461529D01*
Y597436D01*
X462529D01*
Y599436D01*
X461529D01*
Y600436D01*
X459529D01*
Y599436D01*
X458529D01*
Y597436D01*
X459529D01*
X459929Y597836D02*
Y597236D01*
X461129D01*
Y597836D01*
X461729D01*
Y599036D01*
X461129D01*
Y599636D01*
X459929D01*
Y599036D01*
X459329D01*
Y597836D01*
X459929D01*
X462529Y597436D02*
Y596436D01*
X464529D01*
Y597436D01*
X465529D01*
Y599436D01*
X464529D01*
Y600436D01*
X462529D01*
Y599436D01*
X461529D01*
Y597436D01*
X462529D01*
X462929Y597836D02*
Y597236D01*
X464129D01*
Y597836D01*
X464729D01*
Y599036D01*
X464129D01*
Y599636D01*
X462929D01*
Y599036D01*
X462329D01*
Y597836D01*
X462929D01*
X465529Y597436D02*
Y596436D01*
X467529D01*
Y597436D01*
X468529D01*
Y599436D01*
X467529D01*
Y600436D01*
X465529D01*
Y599436D01*
X464529D01*
Y597436D01*
X465529D01*
X465929Y597836D02*
Y597236D01*
X467129D01*
Y597836D01*
X467729D01*
Y599036D01*
X467129D01*
Y599636D01*
X465929D01*
Y599036D01*
X465329D01*
Y597836D01*
X465929D01*
X356677Y636992D02*
Y635992D01*
X358677D01*
Y636992D01*
X359677D01*
Y638992D01*
X358677D01*
Y639992D01*
X356677D01*
Y638992D01*
X355677D01*
Y636992D01*
X356677D01*
X357077Y637392D02*
Y636792D01*
X358277D01*
Y637392D01*
X358877D01*
Y638592D01*
X358277D01*
Y639192D01*
X357077D01*
Y638592D01*
X356477D01*
Y637392D01*
X357077D01*
X358335Y617882D02*
X359335D01*
X360335Y618882D01*
X361335Y617882D01*
X362335D01*
Y618882D01*
X361335Y619882D01*
X362335Y620882D01*
Y621882D01*
X361335D01*
X360335Y620882D01*
X359335Y621882D01*
X358335D01*
Y620882D01*
X359335Y619882D01*
X358335Y618882D01*
Y617882D01*
X359135Y618682D02*
X359735D01*
X360335Y619282D01*
X360935Y618682D01*
X361535D01*
Y619282D01*
X360935Y619882D01*
X361535Y620482D01*
Y621082D01*
X360935D01*
X360335Y620482D01*
X359735Y621082D01*
X359135D01*
Y620482D01*
X359735Y619882D01*
X359135Y619282D01*
Y618682D01*
X397117Y575870D02*
Y574870D01*
X399117D01*
Y575870D01*
X400117D01*
Y577870D01*
X399117D01*
Y578870D01*
X397117D01*
Y577870D01*
X396117D01*
Y575870D01*
X397117D01*
X397517Y576270D02*
Y575670D01*
X398717D01*
Y576270D01*
X399317D01*
Y577470D01*
X398717D01*
Y578070D01*
X397517D01*
Y577470D01*
X396917D01*
Y576270D01*
X397517D01*
X420653Y572917D02*
Y571917D01*
X422653D01*
Y572917D01*
X423654D01*
Y574917D01*
X422653D01*
Y575917D01*
X420653D01*
Y574917D01*
X419654D01*
Y572917D01*
X420653D01*
X421054Y573317D02*
Y572717D01*
X422254D01*
Y573317D01*
X422854D01*
Y574517D01*
X422254D01*
Y575117D01*
X421054D01*
Y574517D01*
X420454D01*
Y573317D01*
X421054D01*
X420653Y567012D02*
Y566012D01*
X422653D01*
Y567012D01*
X423654D01*
Y569012D01*
X422653D01*
Y570012D01*
X420653D01*
Y569012D01*
X419654D01*
Y567012D01*
X420653D01*
X421054Y567412D02*
Y566812D01*
X422254D01*
Y567412D01*
X422854D01*
Y568612D01*
X422254D01*
Y569212D01*
X421054D01*
Y568612D01*
X420454D01*
Y567412D01*
X421054D01*
X401187Y576362D02*
Y575362D01*
X403187D01*
Y576362D01*
X404187D01*
Y578362D01*
X403187D01*
Y579362D01*
X401187D01*
Y578362D01*
X400187D01*
Y576362D01*
X401187D01*
X401587Y576762D02*
Y576162D01*
X402787D01*
Y576762D01*
X403387D01*
Y577962D01*
X402787D01*
Y578562D01*
X401587D01*
Y577962D01*
X400987D01*
Y576762D01*
X401587D01*
X408991Y582065D02*
Y581065D01*
X410991D01*
Y582065D01*
X411991D01*
Y584065D01*
X410991D01*
Y585065D01*
X408991D01*
Y584065D01*
X407991D01*
Y582065D01*
X408991D01*
X409391Y582465D02*
Y581865D01*
X410591D01*
Y582465D01*
X411191D01*
Y583665D01*
X410591D01*
Y584265D01*
X409391D01*
Y583665D01*
X408791D01*
Y582465D01*
X409391D01*
X375394Y401413D02*
Y400413D01*
X377394D01*
Y401413D01*
X378394D01*
Y403413D01*
X377394D01*
Y404413D01*
X375394D01*
Y403413D01*
X374394D01*
Y401413D01*
X375394D01*
X375794Y401813D02*
Y401213D01*
X376994D01*
Y401813D01*
X377594D01*
Y403013D01*
X376994D01*
Y403613D01*
X375794D01*
Y403013D01*
X375194D01*
Y401813D01*
X375794D01*
X380201Y396077D02*
Y395077D01*
X382201D01*
Y396077D01*
X383201D01*
Y398077D01*
X382201D01*
Y399077D01*
X380201D01*
Y398077D01*
X379201D01*
Y396077D01*
X380201D01*
X380601Y396477D02*
Y395877D01*
X381801D01*
Y396477D01*
X382401D01*
Y397677D01*
X381801D01*
Y398277D01*
X380601D01*
Y397677D01*
X380001D01*
Y396477D01*
X380601D01*
X406579Y542110D02*
Y541110D01*
X408579D01*
Y542110D01*
X409579D01*
Y544110D01*
X408579D01*
Y545110D01*
X406579D01*
Y544110D01*
X405579D01*
Y542110D01*
X406579D01*
X406979Y542510D02*
Y541910D01*
X408179D01*
Y542510D01*
X408779D01*
Y543710D01*
X408179D01*
Y544310D01*
X406979D01*
Y543710D01*
X406379D01*
Y542510D01*
X406979D01*
X486718Y537047D02*
Y536047D01*
X488718D01*
Y537047D01*
X489718D01*
Y539047D01*
X488718D01*
Y540047D01*
X486718D01*
Y539047D01*
X485718D01*
Y537047D01*
X486718D01*
X487118Y537447D02*
Y536847D01*
X488318D01*
Y537447D01*
X488918D01*
Y538647D01*
X488318D01*
Y539247D01*
X487118D01*
Y538647D01*
X486518D01*
Y537447D01*
X487118D01*
X489526Y537047D02*
Y536047D01*
X491526D01*
Y537047D01*
X492526D01*
Y539047D01*
X491526D01*
Y540047D01*
X489526D01*
Y539047D01*
X488526D01*
Y537047D01*
X489526D01*
X489926Y537447D02*
Y536847D01*
X491126D01*
Y537447D01*
X491726D01*
Y538647D01*
X491126D01*
Y539247D01*
X489926D01*
Y538647D01*
X489326D01*
Y537447D01*
X489926D01*
X491898Y458947D02*
Y457947D01*
X493898D01*
Y458947D01*
X494898D01*
Y460947D01*
X493898D01*
Y461947D01*
X491898D01*
Y460947D01*
X490898D01*
Y458947D01*
X491898D01*
X492298Y459347D02*
Y458747D01*
X493498D01*
Y459347D01*
X494098D01*
Y460547D01*
X493498D01*
Y461147D01*
X492298D01*
Y460547D01*
X491698D01*
Y459347D01*
X492298D01*
X497514Y458947D02*
Y457947D01*
X499514D01*
Y458947D01*
X500514D01*
Y460947D01*
X499514D01*
Y461947D01*
X497514D01*
Y460947D01*
X496514D01*
Y458947D01*
X497514D01*
X497914Y459347D02*
Y458747D01*
X499114D01*
Y459347D01*
X499714D01*
Y460547D01*
X499114D01*
Y461147D01*
X497914D01*
Y460547D01*
X497314D01*
Y459347D01*
X497914D01*
X489090Y458947D02*
Y457947D01*
X491090D01*
Y458947D01*
X492090D01*
Y460947D01*
X491090D01*
Y461947D01*
X489090D01*
Y460947D01*
X488090D01*
Y458947D01*
X489090D01*
X489490Y459347D02*
Y458747D01*
X490690D01*
Y459347D01*
X491290D01*
Y460547D01*
X490690D01*
Y461147D01*
X489490D01*
Y460547D01*
X488890D01*
Y459347D01*
X489490D01*
X494706Y458947D02*
Y457947D01*
X496706D01*
Y458947D01*
X497706D01*
Y460947D01*
X496706D01*
Y461947D01*
X494706D01*
Y460947D01*
X493706D01*
Y458947D01*
X494706D01*
X495106Y459347D02*
Y458747D01*
X496306D01*
Y459347D01*
X496906D01*
Y460547D01*
X496306D01*
Y461147D01*
X495106D01*
Y460547D01*
X494506D01*
Y459347D01*
X495106D01*
X445482Y359083D02*
Y358083D01*
X447482D01*
Y359083D01*
X448482D01*
Y361083D01*
X447482D01*
Y362083D01*
X445482D01*
Y361083D01*
X444482D01*
Y359083D01*
X445482D01*
X445882Y359483D02*
Y358883D01*
X447082D01*
Y359483D01*
X447682D01*
Y360683D01*
X447082D01*
Y361283D01*
X445882D01*
Y360683D01*
X445282D01*
Y359483D01*
X445882D01*
X444324Y372368D02*
Y371368D01*
X446324D01*
Y372368D01*
X447325D01*
Y374368D01*
X446324D01*
Y375368D01*
X444324D01*
Y374368D01*
X443325D01*
Y372368D01*
X444324D01*
X444725Y372768D02*
Y372168D01*
X445925D01*
Y372768D01*
X446524D01*
Y373968D01*
X445925D01*
Y374568D01*
X444725D01*
Y373968D01*
X444125D01*
Y372768D01*
X444725D01*
X498278Y358416D02*
Y357416D01*
X500278D01*
Y358416D01*
X501278D01*
Y360416D01*
X500278D01*
Y361416D01*
X498278D01*
Y360416D01*
X497278D01*
Y358416D01*
X498278D01*
X498678Y358816D02*
Y358216D01*
X499878D01*
Y358816D01*
X500478D01*
Y360016D01*
X499878D01*
Y360616D01*
X498678D01*
Y360016D01*
X498078D01*
Y358816D01*
X498678D01*
X501086Y358416D02*
Y357416D01*
X503086D01*
Y358416D01*
X504086D01*
Y360416D01*
X503086D01*
Y361416D01*
X501086D01*
Y360416D01*
X500086D01*
Y358416D01*
X501086D01*
X501486Y358816D02*
Y358216D01*
X502686D01*
Y358816D01*
X503286D01*
Y360016D01*
X502686D01*
Y360616D01*
X501486D01*
Y360016D01*
X500886D01*
Y358816D01*
X501486D01*
X503894Y358416D02*
Y357416D01*
X505894D01*
Y358416D01*
X506894D01*
Y360416D01*
X505894D01*
Y361416D01*
X503894D01*
Y360416D01*
X502894D01*
Y358416D01*
X503894D01*
X504294Y358816D02*
Y358216D01*
X505494D01*
Y358816D01*
X506094D01*
Y360016D01*
X505494D01*
Y360616D01*
X504294D01*
Y360016D01*
X503694D01*
Y358816D01*
X504294D01*
X481382Y366982D02*
Y365982D01*
X483382D01*
Y366982D01*
X484382D01*
Y368982D01*
X483382D01*
Y369982D01*
X481382D01*
Y368982D01*
X480382D01*
Y366982D01*
X481382D01*
X481782Y367382D02*
Y366782D01*
X482982D01*
Y367382D01*
X483582D01*
Y368582D01*
X482982D01*
Y369182D01*
X481782D01*
Y368582D01*
X481182D01*
Y367382D01*
X481782D01*
X458331Y375613D02*
Y374613D01*
X460331D01*
Y375613D01*
X461331D01*
Y377613D01*
X460331D01*
Y378613D01*
X458331D01*
Y377613D01*
X457331D01*
Y375613D01*
X458331D01*
X458731Y376013D02*
Y375413D01*
X459931D01*
Y376013D01*
X460531D01*
Y377213D01*
X459931D01*
Y377813D01*
X458731D01*
Y377213D01*
X458131D01*
Y376013D01*
X458731D01*
X480557Y360034D02*
Y359034D01*
X482557D01*
Y360034D01*
X483557D01*
Y362034D01*
X482557D01*
Y363034D01*
X480557D01*
Y362034D01*
X479557D01*
Y360034D01*
X480557D01*
X480957Y360434D02*
Y359834D01*
X482157D01*
Y360434D01*
X482757D01*
Y361634D01*
X482157D01*
Y362234D01*
X480957D01*
Y361634D01*
X480357D01*
Y360434D01*
X480957D01*
X477749Y360034D02*
Y359034D01*
X479749D01*
Y360034D01*
X480749D01*
Y362034D01*
X479749D01*
Y363034D01*
X477749D01*
Y362034D01*
X476749D01*
Y360034D01*
X477749D01*
X478149Y360434D02*
Y359834D01*
X479349D01*
Y360434D01*
X479949D01*
Y361634D01*
X479349D01*
Y362234D01*
X478149D01*
Y361634D01*
X477549D01*
Y360434D01*
X478149D01*
X474941Y360034D02*
Y359034D01*
X476941D01*
Y360034D01*
X477941D01*
Y362034D01*
X476941D01*
Y363034D01*
X474941D01*
Y362034D01*
X473941D01*
Y360034D01*
X474941D01*
X475341Y360434D02*
Y359834D01*
X476541D01*
Y360434D01*
X477141D01*
Y361634D01*
X476541D01*
Y362234D01*
X475341D01*
Y361634D01*
X474741D01*
Y360434D01*
X475341D01*
X472133Y360034D02*
Y359034D01*
X474133D01*
Y360034D01*
X475133D01*
Y362034D01*
X474133D01*
Y363034D01*
X472133D01*
Y362034D01*
X471133D01*
Y360034D01*
X472133D01*
X472533Y360434D02*
Y359834D01*
X473733D01*
Y360434D01*
X474333D01*
Y361634D01*
X473733D01*
Y362234D01*
X472533D01*
Y361634D01*
X471933D01*
Y360434D01*
X472533D01*
X460900Y360034D02*
Y359034D01*
X462900D01*
Y360034D01*
X463900D01*
Y362034D01*
X462900D01*
Y363034D01*
X460900D01*
Y362034D01*
X459900D01*
Y360034D01*
X460900D01*
X461300Y360434D02*
Y359834D01*
X462500D01*
Y360434D01*
X463100D01*
Y361634D01*
X462500D01*
Y362234D01*
X461300D01*
Y361634D01*
X460700D01*
Y360434D01*
X461300D01*
X469325Y360034D02*
Y359034D01*
X471325D01*
Y360034D01*
X472325D01*
Y362034D01*
X471325D01*
Y363034D01*
X469325D01*
Y362034D01*
X468325D01*
Y360034D01*
X469325D01*
X469725Y360434D02*
Y359834D01*
X470925D01*
Y360434D01*
X471525D01*
Y361634D01*
X470925D01*
Y362234D01*
X469725D01*
Y361634D01*
X469125D01*
Y360434D01*
X469725D01*
X466516Y360034D02*
Y359034D01*
X468516D01*
Y360034D01*
X469517D01*
Y362034D01*
X468516D01*
Y363034D01*
X466516D01*
Y362034D01*
X465517D01*
Y360034D01*
X466516D01*
X466917Y360434D02*
Y359834D01*
X468117D01*
Y360434D01*
X468716D01*
Y361634D01*
X468117D01*
Y362234D01*
X466917D01*
Y361634D01*
X466317D01*
Y360434D01*
X466917D01*
X463708Y360034D02*
Y359034D01*
X465708D01*
Y360034D01*
X466708D01*
Y362034D01*
X465708D01*
Y363034D01*
X463708D01*
Y362034D01*
X462708D01*
Y360034D01*
X463708D01*
X464108Y360434D02*
Y359834D01*
X465308D01*
Y360434D01*
X465908D01*
Y361634D01*
X465308D01*
Y362234D01*
X464108D01*
Y361634D01*
X463508D01*
Y360434D01*
X464108D01*
X502150Y784270D02*
Y783270D01*
X504150D01*
Y784270D01*
X505150D01*
Y786270D01*
X504150D01*
Y787270D01*
X502150D01*
Y786270D01*
X501150D01*
Y784270D01*
X502150D01*
X502550Y784670D02*
Y784070D01*
X503750D01*
Y784670D01*
X504350D01*
Y785870D01*
X503750D01*
Y786470D01*
X502550D01*
Y785870D01*
X501950D01*
Y784670D01*
X502550D01*
X358842Y784132D02*
Y783132D01*
X360842D01*
Y784132D01*
X361842D01*
Y786132D01*
X360842D01*
Y787132D01*
X358842D01*
Y786132D01*
X357842D01*
Y784132D01*
X358842D01*
X359243Y784532D02*
Y783932D01*
X360442D01*
Y784532D01*
X361042D01*
Y785732D01*
X360442D01*
Y786332D01*
X359243D01*
Y785732D01*
X358643D01*
Y784532D01*
X359243D01*
X337077Y381727D02*
Y380727D01*
X339077D01*
Y381727D01*
X340077D01*
Y383727D01*
X339077D01*
Y384727D01*
X337077D01*
Y383727D01*
X336077D01*
Y381727D01*
X337077D01*
X337477Y382127D02*
Y381527D01*
X338677D01*
Y382127D01*
X339277D01*
Y383327D01*
X338677D01*
Y383927D01*
X337477D01*
Y383327D01*
X336877D01*
Y382127D01*
X337477D01*
X361500Y401947D02*
Y400947D01*
X363500D01*
Y401947D01*
X364500D01*
Y403947D01*
X363500D01*
Y404947D01*
X361500D01*
Y403947D01*
X360500D01*
Y401947D01*
X361500D01*
X361900Y402347D02*
Y401747D01*
X363100D01*
Y402347D01*
X363700D01*
Y403547D01*
X363100D01*
Y404147D01*
X361900D01*
Y403547D01*
X361300D01*
Y402347D01*
X361900D01*
X344923Y402297D02*
Y401297D01*
X346923D01*
Y402297D01*
X347923D01*
Y404297D01*
X346923D01*
Y405297D01*
X344923D01*
Y404297D01*
X343923D01*
Y402297D01*
X344923D01*
X345323Y402697D02*
Y402097D01*
X346523D01*
Y402697D01*
X347123D01*
Y403897D01*
X346523D01*
Y404497D01*
X345323D01*
Y403897D01*
X344723D01*
Y402697D01*
X345323D01*
X369374Y370972D02*
Y369972D01*
X371374D01*
Y370972D01*
X372374D01*
Y372972D01*
X371374D01*
Y373973D01*
X369374D01*
Y372972D01*
X368374D01*
Y370972D01*
X369374D01*
X369774Y371373D02*
Y370773D01*
X370974D01*
Y371373D01*
X371574D01*
Y372572D01*
X370974D01*
Y373172D01*
X369774D01*
Y372572D01*
X369174D01*
Y371373D01*
X369774D01*
X393401Y376400D02*
Y375400D01*
X395401D01*
Y376400D01*
X396401D01*
Y378400D01*
X395401D01*
Y379400D01*
X393401D01*
Y378400D01*
X392401D01*
Y376400D01*
X393401D01*
X393801Y376800D02*
Y376200D01*
X395001D01*
Y376800D01*
X395601D01*
Y378000D01*
X395001D01*
Y378600D01*
X393801D01*
Y378000D01*
X393201D01*
Y376800D01*
X393801D01*
X380784Y381067D02*
Y380067D01*
X382784D01*
Y381067D01*
X383784D01*
Y383067D01*
X382784D01*
Y384067D01*
X380784D01*
Y383067D01*
X379784D01*
Y381067D01*
X380784D01*
X381184Y381467D02*
Y380867D01*
X382384D01*
Y381467D01*
X382984D01*
Y382667D01*
X382384D01*
Y383267D01*
X381184D01*
Y382667D01*
X380584D01*
Y381467D01*
X381184D01*
X421246Y396521D02*
Y395521D01*
X423246D01*
Y396521D01*
X424247D01*
Y398521D01*
X423246D01*
Y399521D01*
X421246D01*
Y398521D01*
X420247D01*
Y396521D01*
X421246D01*
X421646Y396921D02*
Y396322D01*
X422847D01*
Y396921D01*
X423447D01*
Y398122D01*
X422847D01*
Y398722D01*
X421646D01*
Y398122D01*
X421046D01*
Y396921D01*
X421646D01*
X383646Y399111D02*
Y398111D01*
X385646D01*
Y399111D01*
X386646D01*
Y401111D01*
X385646D01*
Y402111D01*
X383646D01*
Y401111D01*
X382646D01*
Y399111D01*
X383646D01*
X384046Y399511D02*
Y398911D01*
X385246D01*
Y399511D01*
X385846D01*
Y400711D01*
X385246D01*
Y401311D01*
X384046D01*
Y400711D01*
X383446D01*
Y399511D01*
X384046D01*
X407644Y357760D02*
Y356760D01*
X409644D01*
Y357760D01*
X410644D01*
Y359760D01*
X409644D01*
Y360760D01*
X407644D01*
Y359760D01*
X406644D01*
Y357760D01*
X407644D01*
X408044Y358160D02*
Y357560D01*
X409244D01*
Y358160D01*
X409844D01*
Y359360D01*
X409244D01*
Y359960D01*
X408044D01*
Y359360D01*
X407444D01*
Y358160D01*
X408044D01*
X407644Y366184D02*
Y365184D01*
X409644D01*
Y366184D01*
X410644D01*
Y368184D01*
X409644D01*
Y369184D01*
X407644D01*
Y368184D01*
X406644D01*
Y366184D01*
X407644D01*
X408044Y366584D02*
Y365984D01*
X409244D01*
Y366584D01*
X409844D01*
Y367784D01*
X409244D01*
Y368384D01*
X408044D01*
Y367784D01*
X407444D01*
Y366584D01*
X408044D01*
X407644Y360568D02*
Y359568D01*
X409644D01*
Y360568D01*
X410644D01*
Y362568D01*
X409644D01*
Y363568D01*
X407644D01*
Y362568D01*
X406644D01*
Y360568D01*
X407644D01*
X408044Y360968D02*
Y360368D01*
X409244D01*
Y360968D01*
X409844D01*
Y362168D01*
X409244D01*
Y362768D01*
X408044D01*
Y362168D01*
X407444D01*
Y360968D01*
X408044D01*
X407644Y363376D02*
Y362376D01*
X409644D01*
Y363376D01*
X410644D01*
Y365376D01*
X409644D01*
Y366376D01*
X407644D01*
Y365376D01*
X406644D01*
Y363376D01*
X407644D01*
X408044Y363776D02*
Y363176D01*
X409244D01*
Y363776D01*
X409844D01*
Y364976D01*
X409244D01*
Y365576D01*
X408044D01*
Y364976D01*
X407444D01*
Y363776D01*
X408044D01*
X401111Y384965D02*
Y383965D01*
X403111D01*
Y384965D01*
X404111D01*
Y386965D01*
X403111D01*
Y387965D01*
X401111D01*
Y386965D01*
X400111D01*
Y384965D01*
X401111D01*
X401511Y385365D02*
Y384765D01*
X402711D01*
Y385365D01*
X403311D01*
Y386565D01*
X402711D01*
Y387165D01*
X401511D01*
Y386565D01*
X400911D01*
Y385365D01*
X401511D01*
X401111Y393390D02*
Y392390D01*
X403111D01*
Y393390D01*
X404111D01*
Y395390D01*
X403111D01*
Y396390D01*
X401111D01*
Y395390D01*
X400111D01*
Y393390D01*
X401111D01*
X401511Y393790D02*
Y393190D01*
X402711D01*
Y393790D01*
X403311D01*
Y394990D01*
X402711D01*
Y395590D01*
X401511D01*
Y394990D01*
X400911D01*
Y393790D01*
X401511D01*
X401111Y387773D02*
Y386773D01*
X403111D01*
Y387773D01*
X404111D01*
Y389774D01*
X403111D01*
Y390774D01*
X401111D01*
Y389774D01*
X400111D01*
Y387773D01*
X401111D01*
X401511Y388174D02*
Y387574D01*
X402711D01*
Y388174D01*
X403311D01*
Y389373D01*
X402711D01*
Y389973D01*
X401511D01*
Y389373D01*
X400911D01*
Y388174D01*
X401511D01*
X401111Y390582D02*
Y389582D01*
X403111D01*
Y390582D01*
X404111D01*
Y392582D01*
X403111D01*
Y393582D01*
X401111D01*
Y392582D01*
X400111D01*
Y390582D01*
X401111D01*
X401511Y390982D02*
Y390382D01*
X402711D01*
Y390982D01*
X403311D01*
Y392182D01*
X402711D01*
Y392782D01*
X401511D01*
Y392182D01*
X400911D01*
Y390982D01*
X401511D01*
X436008Y546146D02*
Y545146D01*
X438008D01*
Y546146D01*
X439008D01*
Y548146D01*
X438008D01*
Y549146D01*
X436008D01*
Y548146D01*
X435008D01*
Y546146D01*
X436008D01*
X436408Y546546D02*
Y545946D01*
X437608D01*
Y546546D01*
X438208D01*
Y547746D01*
X437608D01*
Y548346D01*
X436408D01*
Y547746D01*
X435808D01*
Y546546D01*
X436408D01*
X336106Y393390D02*
Y392390D01*
X338106D01*
Y393390D01*
X339106D01*
Y395390D01*
X338106D01*
Y396390D01*
X336106D01*
Y395390D01*
X335106D01*
Y393390D01*
X336106D01*
X336506Y393790D02*
Y393190D01*
X337706D01*
Y393790D01*
X338306D01*
Y394990D01*
X337706D01*
Y395590D01*
X336506D01*
Y394990D01*
X335906D01*
Y393790D01*
X336506D01*
X340732Y577844D02*
Y576844D01*
X342732D01*
Y577844D01*
X343732D01*
Y579844D01*
X342732D01*
Y580844D01*
X340732D01*
Y579844D01*
X339732D01*
Y577844D01*
X340732D01*
X341132Y578244D02*
Y577644D01*
X342332D01*
Y578244D01*
X342932D01*
Y579444D01*
X342332D01*
Y580044D01*
X341132D01*
Y579444D01*
X340532D01*
Y578244D01*
X341132D01*
X343094Y619866D02*
Y618866D01*
X345094D01*
Y619866D01*
X346094D01*
Y621866D01*
X345094D01*
Y622866D01*
X343094D01*
Y621866D01*
X342094D01*
Y619866D01*
X343094D01*
X343495Y620266D02*
Y619666D01*
X344694D01*
Y620266D01*
X345294D01*
Y621466D01*
X344694D01*
Y622066D01*
X343495D01*
Y621466D01*
X342895D01*
Y620266D01*
X343495D01*
X520074Y651598D02*
Y650598D01*
X522074D01*
Y651598D01*
X523074D01*
Y653598D01*
X522074D01*
Y654598D01*
X520074D01*
Y653598D01*
X519074D01*
Y651598D01*
X520074D01*
X520474Y651998D02*
Y651398D01*
X521674D01*
Y651998D01*
X522274D01*
Y653198D01*
X521674D01*
Y653798D01*
X520474D01*
Y653198D01*
X519874D01*
Y651998D01*
X520474D01*
X520074Y654407D02*
Y653407D01*
X522074D01*
Y654407D01*
X523074D01*
Y656407D01*
X522074D01*
Y657407D01*
X520074D01*
Y656407D01*
X519074D01*
Y654407D01*
X520074D01*
X520474Y654807D02*
Y654207D01*
X521674D01*
Y654807D01*
X522274D01*
Y656007D01*
X521674D01*
Y656607D01*
X520474D01*
Y656007D01*
X519874D01*
Y654807D01*
X520474D01*
X520074Y648790D02*
Y647790D01*
X522074D01*
Y648790D01*
X523074D01*
Y650790D01*
X522074D01*
Y651790D01*
X520074D01*
Y650790D01*
X519074D01*
Y648790D01*
X520074D01*
X520474Y649190D02*
Y648590D01*
X521674D01*
Y649190D01*
X522274D01*
Y650390D01*
X521674D01*
Y650990D01*
X520474D01*
Y650390D01*
X519874D01*
Y649190D01*
X520474D01*
X365535Y738697D02*
Y737698D01*
X367535D01*
Y738697D01*
X368535D01*
Y740697D01*
X367535D01*
Y741698D01*
X365535D01*
Y740697D01*
X364535D01*
Y738697D01*
X365535D01*
X365935Y739097D02*
Y738497D01*
X367135D01*
Y739097D01*
X367735D01*
Y740298D01*
X367135D01*
Y740898D01*
X365935D01*
Y740298D01*
X365335D01*
Y739097D01*
X365935D01*
X370083Y628880D02*
Y627880D01*
X372083D01*
Y628880D01*
X373083D01*
Y630880D01*
X372083D01*
Y631880D01*
X370083D01*
Y630880D01*
X369083D01*
Y628880D01*
X370083D01*
X370483Y629280D02*
Y628680D01*
X371684D01*
Y629280D01*
X372284D01*
Y630480D01*
X371684D01*
Y631080D01*
X370483D01*
Y630480D01*
X369883D01*
Y629280D01*
X370483D01*
X370083Y626072D02*
Y625072D01*
X372083D01*
Y626072D01*
X373083D01*
Y628072D01*
X372083D01*
Y629072D01*
X370083D01*
Y628072D01*
X369083D01*
Y626072D01*
X370083D01*
X370483Y626472D02*
Y625872D01*
X371684D01*
Y626472D01*
X372284D01*
Y627672D01*
X371684D01*
Y628272D01*
X370483D01*
Y627672D01*
X369883D01*
Y626472D01*
X370483D01*
X370083Y623264D02*
Y622263D01*
X372083D01*
Y623264D01*
X373083D01*
Y625264D01*
X372083D01*
Y626264D01*
X370083D01*
Y625264D01*
X369083D01*
Y623264D01*
X370083D01*
X370483Y623664D02*
Y623064D01*
X371684D01*
Y623664D01*
X372284D01*
Y624863D01*
X371684D01*
Y625463D01*
X370483D01*
Y624863D01*
X369883D01*
Y623664D01*
X370483D01*
X394348Y759027D02*
Y758028D01*
X396347D01*
Y759027D01*
X397347D01*
Y761027D01*
X396347D01*
Y762028D01*
X394348D01*
Y761027D01*
X393348D01*
Y759027D01*
X394348D01*
X394747Y759427D02*
Y758827D01*
X395948D01*
Y759427D01*
X396548D01*
Y760628D01*
X395948D01*
Y761228D01*
X394747D01*
Y760628D01*
X394147D01*
Y759427D01*
X394747D01*
X391539Y759027D02*
Y758028D01*
X393539D01*
Y759027D01*
X394539D01*
Y761027D01*
X393539D01*
Y762028D01*
X391539D01*
Y761027D01*
X390539D01*
Y759027D01*
X391539D01*
X391939Y759427D02*
Y758827D01*
X393139D01*
Y759427D01*
X393739D01*
Y760628D01*
X393139D01*
Y761228D01*
X391939D01*
Y760628D01*
X391339D01*
Y759427D01*
X391939D01*
X388731Y759027D02*
Y758028D01*
X390731D01*
Y759027D01*
X391731D01*
Y761027D01*
X390731D01*
Y762028D01*
X388731D01*
Y761027D01*
X387731D01*
Y759027D01*
X388731D01*
X389131Y759427D02*
Y758827D01*
X390331D01*
Y759427D01*
X390931D01*
Y760628D01*
X390331D01*
Y761228D01*
X389131D01*
Y760628D01*
X388531D01*
Y759427D01*
X389131D01*
X524529Y629856D02*
Y628856D01*
X526529D01*
Y629856D01*
X527529D01*
Y631856D01*
X526529D01*
Y632856D01*
X524529D01*
Y631856D01*
X523529D01*
Y629856D01*
X524529D01*
X524929Y630256D02*
Y629656D01*
X526129D01*
Y630256D01*
X526729D01*
Y631456D01*
X526129D01*
Y632056D01*
X524929D01*
Y631456D01*
X524329D01*
Y630256D01*
X524929D01*
X524529Y632664D02*
Y631664D01*
X526529D01*
Y632664D01*
X527529D01*
Y634664D01*
X526529D01*
Y635664D01*
X524529D01*
Y634664D01*
X523529D01*
Y632664D01*
X524529D01*
X524929Y633064D02*
Y632464D01*
X526129D01*
Y633064D01*
X526729D01*
Y634264D01*
X526129D01*
Y634864D01*
X524929D01*
Y634264D01*
X524329D01*
Y633064D01*
X524929D01*
X524529Y627048D02*
Y626048D01*
X526529D01*
Y627048D01*
X527529D01*
Y629048D01*
X526529D01*
Y630048D01*
X524529D01*
Y629048D01*
X523529D01*
Y627048D01*
X524529D01*
X524929Y627448D02*
Y626848D01*
X526129D01*
Y627448D01*
X526729D01*
Y628648D01*
X526129D01*
Y629248D01*
X524929D01*
Y628648D01*
X524329D01*
Y627448D01*
X524929D01*
X524529Y635472D02*
Y634473D01*
X526529D01*
Y635472D01*
X527529D01*
Y637472D01*
X526529D01*
Y638473D01*
X524529D01*
Y637472D01*
X523529D01*
Y635472D01*
X524529D01*
X524929Y635873D02*
Y635273D01*
X526129D01*
Y635873D01*
X526729D01*
Y637073D01*
X526129D01*
Y637673D01*
X524929D01*
Y637073D01*
X524329D01*
Y635873D01*
X524929D01*
X422815Y625249D02*
Y624249D01*
X424815D01*
Y625249D01*
X425815D01*
Y627249D01*
X424815D01*
Y628249D01*
X422815D01*
Y627249D01*
X421815D01*
Y625249D01*
X422815D01*
X423215Y625649D02*
Y625049D01*
X424415D01*
Y625649D01*
X425015D01*
Y626849D01*
X424415D01*
Y627449D01*
X423215D01*
Y626849D01*
X422615D01*
Y625649D01*
X423215D01*
X424801Y623264D02*
Y622263D01*
X426801D01*
Y623264D01*
X427801D01*
Y625264D01*
X426801D01*
Y626264D01*
X424801D01*
Y625264D01*
X423801D01*
Y623264D01*
X424801D01*
X425201Y623664D02*
Y623064D01*
X426401D01*
Y623664D01*
X427001D01*
Y624863D01*
X426401D01*
Y625463D01*
X425201D01*
Y624863D01*
X424601D01*
Y623664D01*
X425201D01*
X420829Y627235D02*
Y626235D01*
X422829D01*
Y627235D01*
X423829D01*
Y629235D01*
X422829D01*
Y630235D01*
X420829D01*
Y629235D01*
X419829D01*
Y627235D01*
X420829D01*
X421229Y627635D02*
Y627035D01*
X422429D01*
Y627635D01*
X423029D01*
Y628835D01*
X422429D01*
Y629435D01*
X421229D01*
Y628835D01*
X420629D01*
Y627635D01*
X421229D01*
X426786Y621278D02*
Y620278D01*
X428786D01*
Y621278D01*
X429786D01*
Y623278D01*
X428786D01*
Y624278D01*
X426786D01*
Y623278D01*
X425786D01*
Y621278D01*
X426786D01*
X427186Y621678D02*
Y621078D01*
X428386D01*
Y621678D01*
X428986D01*
Y622878D01*
X428386D01*
Y623478D01*
X427186D01*
Y622878D01*
X426586D01*
Y621678D01*
X427186D01*
X446446Y620876D02*
Y619876D01*
X448446D01*
Y620876D01*
X449445D01*
Y622876D01*
X448446D01*
Y623876D01*
X446446D01*
Y622876D01*
X445445D01*
Y620876D01*
X446446D01*
X446845Y621276D02*
Y620676D01*
X448045D01*
Y621276D01*
X448645D01*
Y622476D01*
X448045D01*
Y623076D01*
X446845D01*
Y622476D01*
X446245D01*
Y621276D01*
X446845D01*
X448431Y618890D02*
Y617890D01*
X450431D01*
Y618890D01*
X451431D01*
Y620890D01*
X450431D01*
Y621890D01*
X448431D01*
Y620890D01*
X447431D01*
Y618890D01*
X448431D01*
X448831Y619290D02*
Y618690D01*
X450031D01*
Y619290D01*
X450631D01*
Y620490D01*
X450031D01*
Y621090D01*
X448831D01*
Y620490D01*
X448231D01*
Y619290D01*
X448831D01*
X444460Y622862D02*
Y621862D01*
X446460D01*
Y622862D01*
X447460D01*
Y624862D01*
X446460D01*
Y625862D01*
X444460D01*
Y624862D01*
X443460D01*
Y622862D01*
X444460D01*
X444860Y623262D02*
Y622662D01*
X446060D01*
Y623262D01*
X446660D01*
Y624462D01*
X446060D01*
Y625062D01*
X444860D01*
Y624462D01*
X444260D01*
Y623262D01*
X444860D01*
X450417Y616905D02*
Y615905D01*
X452417D01*
Y616905D01*
X453417D01*
Y618905D01*
X452417D01*
Y619905D01*
X450417D01*
Y618905D01*
X449417D01*
Y616905D01*
X450417D01*
X450817Y617305D02*
Y616705D01*
X452017D01*
Y617305D01*
X452617D01*
Y618505D01*
X452017D01*
Y619105D01*
X450817D01*
Y618505D01*
X450217D01*
Y617305D01*
X450817D01*
X430399Y601166D02*
Y600166D01*
X432399D01*
Y601166D01*
X433399D01*
Y603166D01*
X432399D01*
Y604166D01*
X430399D01*
Y603166D01*
X429399D01*
Y601166D01*
X430399D01*
X430799Y601566D02*
Y600966D01*
X431999D01*
Y601566D01*
X432599D01*
Y602766D01*
X431999D01*
Y603366D01*
X430799D01*
Y602766D01*
X430199D01*
Y601566D01*
X430799D01*
X430399Y598357D02*
Y597358D01*
X432399D01*
Y598357D01*
X433399D01*
Y600357D01*
X432399D01*
Y601358D01*
X430399D01*
Y600357D01*
X429399D01*
Y598357D01*
X430399D01*
X430799Y598758D02*
Y598158D01*
X431999D01*
Y598758D01*
X432599D01*
Y599958D01*
X431999D01*
Y600558D01*
X430799D01*
Y599958D01*
X430199D01*
Y598758D01*
X430799D01*
X430399Y603974D02*
Y602974D01*
X432399D01*
Y603974D01*
X433399D01*
Y605974D01*
X432399D01*
Y606974D01*
X430399D01*
Y605974D01*
X429399D01*
Y603974D01*
X430399D01*
X430799Y604374D02*
Y603774D01*
X431999D01*
Y604374D01*
X432599D01*
Y605574D01*
X431999D01*
Y606174D01*
X430799D01*
Y605574D01*
X430199D01*
Y604374D01*
X430799D01*
X430399Y595549D02*
Y594549D01*
X432399D01*
Y595549D01*
X433399D01*
Y597549D01*
X432399D01*
Y598549D01*
X430399D01*
Y597549D01*
X429399D01*
Y595549D01*
X430399D01*
X430799Y595949D02*
Y595349D01*
X431999D01*
Y595949D01*
X432599D01*
Y597149D01*
X431999D01*
Y597749D01*
X430799D01*
Y597149D01*
X430199D01*
Y595949D01*
X430799D01*
X385564Y358035D02*
Y357035D01*
X387564D01*
Y358035D01*
X388564D01*
Y360035D01*
X387564D01*
Y361035D01*
X385564D01*
Y360035D01*
X384564D01*
Y358035D01*
X385564D01*
X385964Y358435D02*
Y357835D01*
X387164D01*
Y358435D01*
X387764D01*
Y359635D01*
X387164D01*
Y360235D01*
X385964D01*
Y359635D01*
X385364D01*
Y358435D01*
X385964D01*
X382756Y358035D02*
Y357035D01*
X384756D01*
Y358035D01*
X385756D01*
Y360035D01*
X384756D01*
Y361035D01*
X382756D01*
Y360035D01*
X381756D01*
Y358035D01*
X382756D01*
X383156Y358435D02*
Y357835D01*
X384356D01*
Y358435D01*
X384956D01*
Y359635D01*
X384356D01*
Y360235D01*
X383156D01*
Y359635D01*
X382556D01*
Y358435D01*
X383156D01*
X388372Y358035D02*
Y357035D01*
X390372D01*
Y358035D01*
X391372D01*
Y360035D01*
X390372D01*
Y361035D01*
X388372D01*
Y360035D01*
X387372D01*
Y358035D01*
X388372D01*
X388772Y358435D02*
Y357835D01*
X389972D01*
Y358435D01*
X390572D01*
Y359635D01*
X389972D01*
Y360235D01*
X388772D01*
Y359635D01*
X388172D01*
Y358435D01*
X388772D01*
X379948Y358035D02*
Y357035D01*
X381948D01*
Y358035D01*
X382948D01*
Y360035D01*
X381948D01*
Y361035D01*
X379948D01*
Y360035D01*
X378948D01*
Y358035D01*
X379948D01*
X380348Y358435D02*
Y357835D01*
X381548D01*
Y358435D01*
X382148D01*
Y359635D01*
X381548D01*
Y360235D01*
X380348D01*
Y359635D01*
X379748D01*
Y358435D01*
X380348D01*
X464257Y581141D02*
Y580141D01*
X466257D01*
Y581141D01*
X467257D01*
Y583141D01*
X466257D01*
Y584141D01*
X464257D01*
Y583141D01*
X463257D01*
Y581141D01*
X464257D01*
X464657Y581541D02*
Y580941D01*
X465857D01*
Y581541D01*
X466457D01*
Y582741D01*
X465857D01*
Y583341D01*
X464657D01*
Y582741D01*
X464057D01*
Y581541D01*
X464657D01*
X464257Y583949D02*
Y582949D01*
X466257D01*
Y583949D01*
X467257D01*
Y585949D01*
X466257D01*
Y586949D01*
X464257D01*
Y585949D01*
X463257D01*
Y583949D01*
X464257D01*
X464657Y584349D02*
Y583749D01*
X465857D01*
Y584349D01*
X466457D01*
Y585549D01*
X465857D01*
Y586149D01*
X464657D01*
Y585549D01*
X464057D01*
Y584349D01*
X464657D01*
X504211Y532209D02*
Y531209D01*
X506211D01*
Y532209D01*
X507210D01*
Y534209D01*
X506211D01*
Y535209D01*
X504211D01*
Y534209D01*
X503210D01*
Y532209D01*
X504211D01*
X504610Y532609D02*
Y532009D01*
X505810D01*
Y532609D01*
X506411D01*
Y533809D01*
X505810D01*
Y534409D01*
X504610D01*
Y533809D01*
X504010D01*
Y532609D01*
X504610D01*
X507019Y532209D02*
Y531209D01*
X509019D01*
Y532209D01*
X510019D01*
Y534209D01*
X509019D01*
Y535209D01*
X507019D01*
Y534209D01*
X506019D01*
Y532209D01*
X507019D01*
X507419Y532609D02*
Y532009D01*
X508619D01*
Y532609D01*
X509219D01*
Y533809D01*
X508619D01*
Y534409D01*
X507419D01*
Y533809D01*
X506819D01*
Y532609D01*
X507419D01*
X501402Y532209D02*
Y531209D01*
X503402D01*
Y532209D01*
X504402D01*
Y534209D01*
X503402D01*
Y535209D01*
X501402D01*
Y534209D01*
X500402D01*
Y532209D01*
X501402D01*
X501802Y532609D02*
Y532009D01*
X503002D01*
Y532609D01*
X503602D01*
Y533809D01*
X503002D01*
Y534409D01*
X501802D01*
Y533809D01*
X501202D01*
Y532609D01*
X501802D01*
X509827Y532209D02*
Y531209D01*
X511827D01*
Y532209D01*
X512827D01*
Y534209D01*
X511827D01*
Y535209D01*
X509827D01*
Y534209D01*
X508827D01*
Y532209D01*
X509827D01*
X510227Y532609D02*
Y532009D01*
X511427D01*
Y532609D01*
X512027D01*
Y533809D01*
X511427D01*
Y534409D01*
X510227D01*
Y533809D01*
X509627D01*
Y532609D01*
X510227D01*
X482268Y553131D02*
Y552131D01*
X484268D01*
Y553131D01*
X485268D01*
Y555131D01*
X484268D01*
Y556131D01*
X482268D01*
Y555131D01*
X481268D01*
Y553131D01*
X482268D01*
X482668Y553531D02*
Y552931D01*
X483868D01*
Y553531D01*
X484468D01*
Y554731D01*
X483868D01*
Y555331D01*
X482668D01*
Y554731D01*
X482068D01*
Y553531D01*
X482668D01*
X482268Y550323D02*
Y549323D01*
X484268D01*
Y550323D01*
X485268D01*
Y552323D01*
X484268D01*
Y553323D01*
X482268D01*
Y552323D01*
X481268D01*
Y550323D01*
X482268D01*
X482668Y550723D02*
Y550123D01*
X483868D01*
Y550723D01*
X484468D01*
Y551923D01*
X483868D01*
Y552523D01*
X482668D01*
Y551923D01*
X482068D01*
Y550723D01*
X482668D01*
X482268Y555939D02*
Y554939D01*
X484268D01*
Y555939D01*
X485268D01*
Y557939D01*
X484268D01*
Y558939D01*
X482268D01*
Y557939D01*
X481268D01*
Y555939D01*
X482268D01*
X482668Y556339D02*
Y555739D01*
X483868D01*
Y556339D01*
X484468D01*
Y557539D01*
X483868D01*
Y558139D01*
X482668D01*
Y557539D01*
X482068D01*
Y556339D01*
X482668D01*
X482268Y547515D02*
Y546515D01*
X484268D01*
Y547515D01*
X485268D01*
Y549515D01*
X484268D01*
Y550515D01*
X482268D01*
Y549515D01*
X481268D01*
Y547515D01*
X482268D01*
X482668Y547915D02*
Y547315D01*
X483868D01*
Y547915D01*
X484468D01*
Y549115D01*
X483868D01*
Y549715D01*
X482668D01*
Y549115D01*
X482068D01*
Y547915D01*
X482668D01*
X469825Y553271D02*
Y552271D01*
X471825D01*
Y553271D01*
X472825D01*
Y555271D01*
X471825D01*
Y556271D01*
X469825D01*
Y555271D01*
X468825D01*
Y553271D01*
X469825D01*
X470225Y553671D02*
Y553071D01*
X471425D01*
Y553671D01*
X472025D01*
Y554871D01*
X471425D01*
Y555471D01*
X470225D01*
Y554871D01*
X469625D01*
Y553671D01*
X470225D01*
X469825Y550463D02*
Y549463D01*
X471825D01*
Y550463D01*
X472825D01*
Y552463D01*
X471825D01*
Y553463D01*
X469825D01*
Y552463D01*
X468825D01*
Y550463D01*
X469825D01*
X470225Y550863D02*
Y550263D01*
X471425D01*
Y550863D01*
X472025D01*
Y552063D01*
X471425D01*
Y552663D01*
X470225D01*
Y552063D01*
X469625D01*
Y550863D01*
X470225D01*
X469825Y556079D02*
Y555080D01*
X471825D01*
Y556079D01*
X472825D01*
Y558079D01*
X471825D01*
Y559080D01*
X469825D01*
Y558079D01*
X468825D01*
Y556079D01*
X469825D01*
X470225Y556480D02*
Y555879D01*
X471425D01*
Y556480D01*
X472025D01*
Y557680D01*
X471425D01*
Y558280D01*
X470225D01*
Y557680D01*
X469625D01*
Y556480D01*
X470225D01*
X469825Y547655D02*
Y546655D01*
X471825D01*
Y547655D01*
X472825D01*
Y549655D01*
X471825D01*
Y550655D01*
X469825D01*
Y549655D01*
X468825D01*
Y547655D01*
X469825D01*
X470225Y548055D02*
Y547455D01*
X471425D01*
Y548055D01*
X472025D01*
Y549255D01*
X471425D01*
Y549855D01*
X470225D01*
Y549255D01*
X469625D01*
Y548055D01*
X470225D01*
X469931Y531431D02*
Y530431D01*
X471931D01*
Y531431D01*
X472930D01*
Y533431D01*
X471931D01*
Y534431D01*
X469931D01*
Y533431D01*
X468930D01*
Y531431D01*
X469931D01*
X470330Y531831D02*
Y531231D01*
X471530D01*
Y531831D01*
X472130D01*
Y533031D01*
X471530D01*
Y533631D01*
X470330D01*
Y533031D01*
X469731D01*
Y531831D01*
X470330D01*
X469931Y534239D02*
Y533239D01*
X471931D01*
Y534239D01*
X472930D01*
Y536239D01*
X471931D01*
Y537239D01*
X469931D01*
Y536239D01*
X468930D01*
Y534239D01*
X469931D01*
X470330Y534639D02*
Y534039D01*
X471530D01*
Y534639D01*
X472130D01*
Y535839D01*
X471530D01*
Y536439D01*
X470330D01*
Y535839D01*
X469731D01*
Y534639D01*
X470330D01*
X469931Y528623D02*
Y527623D01*
X471931D01*
Y528623D01*
X472930D01*
Y530623D01*
X471931D01*
Y531623D01*
X469931D01*
Y530623D01*
X468930D01*
Y528623D01*
X469931D01*
X470330Y529023D02*
Y528423D01*
X471530D01*
Y529023D01*
X472130D01*
Y530223D01*
X471530D01*
Y530823D01*
X470330D01*
Y530223D01*
X469731D01*
Y529023D01*
X470330D01*
X469931Y537047D02*
Y536047D01*
X471931D01*
Y537047D01*
X472930D01*
Y539047D01*
X471931D01*
Y540047D01*
X469931D01*
Y539047D01*
X468930D01*
Y537047D01*
X469931D01*
X470330Y537447D02*
Y536847D01*
X471530D01*
Y537447D01*
X472130D01*
Y538647D01*
X471530D01*
Y539247D01*
X470330D01*
Y538647D01*
X469731D01*
Y537447D01*
X470330D01*
X436955Y575844D02*
Y574844D01*
X438955D01*
Y575844D01*
X439955D01*
Y577844D01*
X438955D01*
Y578844D01*
X436955D01*
Y577844D01*
X435955D01*
Y575844D01*
X436955D01*
X437355Y576244D02*
Y575644D01*
X438555D01*
Y576244D01*
X439155D01*
Y577444D01*
X438555D01*
Y578044D01*
X437355D01*
Y577444D01*
X436755D01*
Y576244D01*
X437355D01*
X406511Y579535D02*
Y578535D01*
X408511D01*
Y579535D01*
X409511D01*
Y581535D01*
X408511D01*
Y582535D01*
X406511D01*
Y581535D01*
X405511D01*
Y579535D01*
X406511D01*
X406911Y579935D02*
Y579335D01*
X408111D01*
Y579935D01*
X408711D01*
Y581135D01*
X408111D01*
Y581735D01*
X406911D01*
Y581135D01*
X406311D01*
Y579935D01*
X406911D01*
X404525Y577549D02*
Y576549D01*
X406525D01*
Y577549D01*
X407525D01*
Y579549D01*
X406525D01*
Y580549D01*
X404525D01*
Y579549D01*
X403525D01*
Y577549D01*
X404525D01*
X404925Y577949D02*
Y577349D01*
X406125D01*
Y577949D01*
X406725D01*
Y579149D01*
X406125D01*
Y579749D01*
X404925D01*
Y579149D01*
X404325D01*
Y577949D01*
X404925D01*
X389089Y583640D02*
Y582640D01*
X391089D01*
Y583640D01*
X392089D01*
Y585640D01*
X391089D01*
Y586640D01*
X389089D01*
Y585640D01*
X388089D01*
Y583640D01*
X389089D01*
X389489Y584040D02*
Y583440D01*
X390689D01*
Y584040D01*
X391289D01*
Y585240D01*
X390689D01*
Y585840D01*
X389489D01*
Y585240D01*
X388889D01*
Y584040D01*
X389489D01*
X391075Y581654D02*
Y580654D01*
X393075D01*
Y581654D01*
X394075D01*
Y583654D01*
X393075D01*
Y584654D01*
X391075D01*
Y583654D01*
X390075D01*
Y581654D01*
X391075D01*
X391475Y582054D02*
Y581454D01*
X392675D01*
Y582054D01*
X393275D01*
Y583254D01*
X392675D01*
Y583854D01*
X391475D01*
Y583254D01*
X390875D01*
Y582054D01*
X391475D01*
X387104Y585625D02*
Y584625D01*
X389104D01*
Y585625D01*
X390104D01*
Y587625D01*
X389104D01*
Y588625D01*
X387104D01*
Y587625D01*
X386104D01*
Y585625D01*
X387104D01*
X387504Y586025D02*
Y585425D01*
X388704D01*
Y586025D01*
X389304D01*
Y587225D01*
X388704D01*
Y587825D01*
X387504D01*
Y587225D01*
X386904D01*
Y586025D01*
X387504D01*
X400776Y612590D02*
Y611590D01*
X402776D01*
Y612590D01*
X403776D01*
Y614590D01*
X402776D01*
Y615590D01*
X400776D01*
Y614590D01*
X399776D01*
Y612590D01*
X400776D01*
X401176Y612990D02*
Y612390D01*
X402376D01*
Y612990D01*
X402976D01*
Y614190D01*
X402376D01*
Y614790D01*
X401176D01*
Y614190D01*
X400576D01*
Y612990D01*
X401176D01*
X402761Y614576D02*
Y613576D01*
X404761D01*
Y614576D01*
X405761D01*
Y616576D01*
X404761D01*
Y617576D01*
X402761D01*
Y616576D01*
X401761D01*
Y614576D01*
X402761D01*
X403161Y614976D02*
Y614376D01*
X404361D01*
Y614976D01*
X404961D01*
Y616176D01*
X404361D01*
Y616776D01*
X403161D01*
Y616176D01*
X402561D01*
Y614976D01*
X403161D01*
X398790Y610605D02*
Y609605D01*
X400790D01*
Y610605D01*
X401790D01*
Y612605D01*
X400790D01*
Y613605D01*
X398790D01*
Y612605D01*
X397790D01*
Y610605D01*
X398790D01*
X399190Y611005D02*
Y610405D01*
X400390D01*
Y611005D01*
X400990D01*
Y612205D01*
X400390D01*
Y612805D01*
X399190D01*
Y612205D01*
X398590D01*
Y611005D01*
X399190D01*
X404747Y616562D02*
Y615562D01*
X406747D01*
Y616562D01*
X407747D01*
Y618562D01*
X406747D01*
Y619562D01*
X404747D01*
Y618562D01*
X403747D01*
Y616562D01*
X404747D01*
X405147Y616962D02*
Y616362D01*
X406347D01*
Y616962D01*
X406947D01*
Y618162D01*
X406347D01*
Y618762D01*
X405147D01*
Y618162D01*
X404547D01*
Y616962D01*
X405147D01*
X404424Y704359D02*
Y703360D01*
X406424D01*
Y704359D01*
X407423D01*
Y706359D01*
X406424D01*
Y707360D01*
X404424D01*
Y706359D01*
X403424D01*
Y704359D01*
X404424D01*
X404823Y704760D02*
Y704159D01*
X406024D01*
Y704760D01*
X406624D01*
Y705960D01*
X406024D01*
Y706560D01*
X404823D01*
Y705960D01*
X404223D01*
Y704760D01*
X404823D01*
X407232Y704359D02*
Y703360D01*
X409232D01*
Y704359D01*
X410232D01*
Y706359D01*
X409232D01*
Y707360D01*
X407232D01*
Y706359D01*
X406232D01*
Y704359D01*
X407232D01*
X407632Y704760D02*
Y704159D01*
X408832D01*
Y704760D01*
X409432D01*
Y705960D01*
X408832D01*
Y706560D01*
X407632D01*
Y705960D01*
X407032D01*
Y704760D01*
X407632D01*
X401615Y704359D02*
Y703360D01*
X403615D01*
Y704359D01*
X404615D01*
Y706359D01*
X403615D01*
Y707360D01*
X401615D01*
Y706359D01*
X400615D01*
Y704359D01*
X401615D01*
X402015Y704760D02*
Y704159D01*
X403215D01*
Y704760D01*
X403815D01*
Y705960D01*
X403215D01*
Y706560D01*
X402015D01*
Y705960D01*
X401415D01*
Y704760D01*
X402015D01*
X410040Y704359D02*
Y703360D01*
X412040D01*
Y704359D01*
X413040D01*
Y706359D01*
X412040D01*
Y707360D01*
X410040D01*
Y706359D01*
X409040D01*
Y704359D01*
X410040D01*
X410440Y704760D02*
Y704159D01*
X411640D01*
Y704760D01*
X412240D01*
Y705960D01*
X411640D01*
Y706560D01*
X410440D01*
Y705960D01*
X409840D01*
Y704760D01*
X410440D01*
X468991Y681778D02*
Y680779D01*
X470991D01*
Y681778D01*
X471991D01*
Y683778D01*
X470991D01*
Y684778D01*
X468991D01*
Y683778D01*
X467991D01*
Y681778D01*
X468991D01*
X469391Y682178D02*
Y681578D01*
X470591D01*
Y682178D01*
X471191D01*
Y683379D01*
X470591D01*
Y683979D01*
X469391D01*
Y683379D01*
X468791D01*
Y682178D01*
X469391D01*
X471799Y681778D02*
Y680779D01*
X473799D01*
Y681778D01*
X474799D01*
Y683778D01*
X473799D01*
Y684778D01*
X471799D01*
Y683778D01*
X470799D01*
Y681778D01*
X471799D01*
X472199Y682178D02*
Y681578D01*
X473399D01*
Y682178D01*
X473999D01*
Y683379D01*
X473399D01*
Y683979D01*
X472199D01*
Y683379D01*
X471599D01*
Y682178D01*
X472199D01*
X455004Y675962D02*
Y674962D01*
X457004D01*
Y675962D01*
X458004D01*
Y677962D01*
X457004D01*
Y678962D01*
X455004D01*
Y677962D01*
X454004D01*
Y675962D01*
X455004D01*
X455404Y676362D02*
Y675762D01*
X456604D01*
Y676362D01*
X457204D01*
Y677562D01*
X456604D01*
Y678162D01*
X455404D01*
Y677562D01*
X454804D01*
Y676362D01*
X455404D01*
X474607Y681778D02*
Y680779D01*
X476607D01*
Y681778D01*
X477607D01*
Y683778D01*
X476607D01*
Y684778D01*
X474607D01*
Y683778D01*
X473607D01*
Y681778D01*
X474607D01*
X475007Y682178D02*
Y681578D01*
X476207D01*
Y682178D01*
X476807D01*
Y683379D01*
X476207D01*
Y683979D01*
X475007D01*
Y683379D01*
X474407D01*
Y682178D01*
X475007D01*
X421912Y645391D02*
Y644391D01*
X423912D01*
Y645391D01*
X424912D01*
Y647391D01*
X423912D01*
Y648391D01*
X421912D01*
Y647391D01*
X420912D01*
Y645391D01*
X421912D01*
X422312Y645791D02*
Y645191D01*
X423512D01*
Y645791D01*
X424112D01*
Y646991D01*
X423512D01*
Y647591D01*
X422312D01*
Y646991D01*
X421712D01*
Y645791D01*
X422312D01*
X424720Y645391D02*
Y644391D01*
X426720D01*
Y645391D01*
X427720D01*
Y647391D01*
X426720D01*
Y648391D01*
X424720D01*
Y647391D01*
X423720D01*
Y645391D01*
X424720D01*
X425120Y645791D02*
Y645191D01*
X426320D01*
Y645791D01*
X426920D01*
Y646991D01*
X426320D01*
Y647591D01*
X425120D01*
Y646991D01*
X424520D01*
Y645791D01*
X425120D01*
X427528Y645391D02*
Y644391D01*
X429528D01*
Y645391D01*
X430528D01*
Y647391D01*
X429528D01*
Y648391D01*
X427528D01*
Y647391D01*
X426528D01*
Y645391D01*
X427528D01*
X427928Y645791D02*
Y645191D01*
X429128D01*
Y645791D01*
X429728D01*
Y646991D01*
X429128D01*
Y647591D01*
X427928D01*
Y646991D01*
X427328D01*
Y645791D01*
X427928D01*
X492927Y620213D02*
Y619213D01*
X494927D01*
Y620213D01*
X495927D01*
Y622213D01*
X494927D01*
Y623213D01*
X492927D01*
Y622213D01*
X491927D01*
Y620213D01*
X492927D01*
X493327Y620613D02*
Y620013D01*
X494527D01*
Y620613D01*
X495127D01*
Y621813D01*
X494527D01*
Y622413D01*
X493327D01*
Y621813D01*
X492727D01*
Y620613D01*
X493327D01*
X495735Y620213D02*
Y619213D01*
X497735D01*
Y620213D01*
X498735D01*
Y622213D01*
X497735D01*
Y623213D01*
X495735D01*
Y622213D01*
X494735D01*
Y620213D01*
X495735D01*
X496135Y620613D02*
Y620013D01*
X497335D01*
Y620613D01*
X497935D01*
Y621813D01*
X497335D01*
Y622413D01*
X496135D01*
Y621813D01*
X495535D01*
Y620613D01*
X496135D01*
X490119Y620213D02*
Y619213D01*
X492119D01*
Y620213D01*
X493118D01*
Y622213D01*
X492119D01*
Y623213D01*
X490119D01*
Y622213D01*
X489118D01*
Y620213D01*
X490119D01*
X490519Y620613D02*
Y620013D01*
X491718D01*
Y620613D01*
X492318D01*
Y621813D01*
X491718D01*
Y622413D01*
X490519D01*
Y621813D01*
X489919D01*
Y620613D01*
X490519D01*
X498543Y620213D02*
Y619213D01*
X500543D01*
Y620213D01*
X501543D01*
Y622213D01*
X500543D01*
Y623213D01*
X498543D01*
Y622213D01*
X497543D01*
Y620213D01*
X498543D01*
X498943Y620613D02*
Y620013D01*
X500143D01*
Y620613D01*
X500743D01*
Y621813D01*
X500143D01*
Y622413D01*
X498943D01*
Y621813D01*
X498343D01*
Y620613D01*
X498943D01*
X484844Y635472D02*
Y634473D01*
X486844D01*
Y635472D01*
X487844D01*
Y637472D01*
X486844D01*
Y638473D01*
X484844D01*
Y637472D01*
X483844D01*
Y635472D01*
X484844D01*
X485244Y635873D02*
Y635273D01*
X486444D01*
Y635873D01*
X487044D01*
Y637073D01*
X486444D01*
Y637673D01*
X485244D01*
Y637073D01*
X484644D01*
Y635873D01*
X485244D01*
X487652Y635472D02*
Y634473D01*
X489652D01*
Y635472D01*
X490652D01*
Y637472D01*
X489652D01*
Y638473D01*
X487652D01*
Y637472D01*
X486652D01*
Y635472D01*
X487652D01*
X488052Y635873D02*
Y635273D01*
X489252D01*
Y635873D01*
X489852D01*
Y637073D01*
X489252D01*
Y637673D01*
X488052D01*
Y637073D01*
X487452D01*
Y635873D01*
X488052D01*
X482036Y635472D02*
Y634473D01*
X484036D01*
Y635472D01*
X485036D01*
Y637472D01*
X484036D01*
Y638473D01*
X482036D01*
Y637472D01*
X481036D01*
Y635472D01*
X482036D01*
X482436Y635873D02*
Y635273D01*
X483636D01*
Y635873D01*
X484236D01*
Y637073D01*
X483636D01*
Y637673D01*
X482436D01*
Y637073D01*
X481836D01*
Y635873D01*
X482436D01*
X490460Y635472D02*
Y634473D01*
X492460D01*
Y635472D01*
X493460D01*
Y637472D01*
X492460D01*
Y638473D01*
X490460D01*
Y637472D01*
X489460D01*
Y635472D01*
X490460D01*
X490860Y635873D02*
Y635273D01*
X492060D01*
Y635873D01*
X492660D01*
Y637073D01*
X492060D01*
Y637673D01*
X490860D01*
Y637073D01*
X490260D01*
Y635873D01*
X490860D01*
X484295Y606562D02*
Y605562D01*
X486295D01*
Y606562D01*
X487295D01*
Y608562D01*
X486295D01*
Y609562D01*
X484295D01*
Y608562D01*
X483295D01*
Y606562D01*
X484295D01*
X484695Y606962D02*
Y606362D01*
X485895D01*
Y606962D01*
X486495D01*
Y608162D01*
X485895D01*
Y608762D01*
X484695D01*
Y608162D01*
X484095D01*
Y606962D01*
X484695D01*
X487104Y606562D02*
Y605562D01*
X489104D01*
Y606562D01*
X490103D01*
Y608562D01*
X489104D01*
Y609562D01*
X487104D01*
Y608562D01*
X486103D01*
Y606562D01*
X487104D01*
X487503Y606962D02*
Y606362D01*
X488703D01*
Y606962D01*
X489303D01*
Y608162D01*
X488703D01*
Y608762D01*
X487503D01*
Y608162D01*
X486903D01*
Y606962D01*
X487503D01*
X481487Y606562D02*
Y605562D01*
X483487D01*
Y606562D01*
X484487D01*
Y608562D01*
X483487D01*
Y609562D01*
X481487D01*
Y608562D01*
X480487D01*
Y606562D01*
X481487D01*
X481887Y606962D02*
Y606362D01*
X483087D01*
Y606962D01*
X483687D01*
Y608162D01*
X483087D01*
Y608762D01*
X481887D01*
Y608162D01*
X481287D01*
Y606962D01*
X481887D01*
X489912Y606562D02*
Y605562D01*
X491912D01*
Y606562D01*
X492912D01*
Y608562D01*
X491912D01*
Y609562D01*
X489912D01*
Y608562D01*
X488912D01*
Y606562D01*
X489912D01*
X490312Y606962D02*
Y606362D01*
X491512D01*
Y606962D01*
X492112D01*
Y608162D01*
X491512D01*
Y608762D01*
X490312D01*
Y608162D01*
X489712D01*
Y606962D01*
X490312D01*
X484295Y597436D02*
Y596436D01*
X486295D01*
Y597436D01*
X487295D01*
Y599436D01*
X486295D01*
Y600436D01*
X484295D01*
Y599436D01*
X483295D01*
Y597436D01*
X484295D01*
X484695Y597836D02*
Y597236D01*
X485895D01*
Y597836D01*
X486495D01*
Y599036D01*
X485895D01*
Y599636D01*
X484695D01*
Y599036D01*
X484095D01*
Y597836D01*
X484695D01*
X487104Y597436D02*
Y596436D01*
X489104D01*
Y597436D01*
X490103D01*
Y599436D01*
X489104D01*
Y600436D01*
X487104D01*
Y599436D01*
X486103D01*
Y597436D01*
X487104D01*
X487503Y597836D02*
Y597236D01*
X488703D01*
Y597836D01*
X489303D01*
Y599036D01*
X488703D01*
Y599636D01*
X487503D01*
Y599036D01*
X486903D01*
Y597836D01*
X487503D01*
X481487Y597436D02*
Y596436D01*
X483487D01*
Y597436D01*
X484487D01*
Y599436D01*
X483487D01*
Y600436D01*
X481487D01*
Y599436D01*
X480487D01*
Y597436D01*
X481487D01*
X481887Y597836D02*
Y597236D01*
X483087D01*
Y597836D01*
X483687D01*
Y599036D01*
X483087D01*
Y599636D01*
X481887D01*
Y599036D01*
X481287D01*
Y597836D01*
X481887D01*
X489912Y597436D02*
Y596436D01*
X491912D01*
Y597436D01*
X492912D01*
Y599436D01*
X491912D01*
Y600436D01*
X489912D01*
Y599436D01*
X488912D01*
Y597436D01*
X489912D01*
X490312Y597836D02*
Y597236D01*
X491512D01*
Y597836D01*
X492112D01*
Y599036D01*
X491512D01*
Y599636D01*
X490312D01*
Y599036D01*
X489712D01*
Y597836D01*
X490312D01*
X490460Y553271D02*
Y552271D01*
X492460D01*
Y553271D01*
X493460D01*
Y555271D01*
X492460D01*
Y556271D01*
X490460D01*
Y555271D01*
X489460D01*
Y553271D01*
X490460D01*
X490860Y553671D02*
Y553071D01*
X492060D01*
Y553671D01*
X492660D01*
Y554871D01*
X492060D01*
Y555471D01*
X490860D01*
Y554871D01*
X490260D01*
Y553671D01*
X490860D01*
X490460Y550463D02*
Y549463D01*
X492460D01*
Y550463D01*
X493460D01*
Y552463D01*
X492460D01*
Y553463D01*
X490460D01*
Y552463D01*
X489460D01*
Y550463D01*
X490460D01*
X490860Y550863D02*
Y550263D01*
X492060D01*
Y550863D01*
X492660D01*
Y552063D01*
X492060D01*
Y552663D01*
X490860D01*
Y552063D01*
X490260D01*
Y550863D01*
X490860D01*
X490460Y556079D02*
Y555080D01*
X492460D01*
Y556079D01*
X493460D01*
Y558079D01*
X492460D01*
Y559080D01*
X490460D01*
Y558079D01*
X489460D01*
Y556079D01*
X490460D01*
X490860Y556480D02*
Y555879D01*
X492060D01*
Y556480D01*
X492660D01*
Y557680D01*
X492060D01*
Y558280D01*
X490860D01*
Y557680D01*
X490260D01*
Y556480D01*
X490860D01*
X490460Y547655D02*
Y546655D01*
X492460D01*
Y547655D01*
X493460D01*
Y549655D01*
X492460D01*
Y550655D01*
X490460D01*
Y549655D01*
X489460D01*
Y547655D01*
X490460D01*
X490860Y548055D02*
Y547455D01*
X492060D01*
Y548055D01*
X492660D01*
Y549255D01*
X492060D01*
Y549855D01*
X490860D01*
Y549255D01*
X490260D01*
Y548055D01*
X490860D01*
X497186Y537047D02*
Y536047D01*
X499186D01*
Y537047D01*
X500186D01*
Y539047D01*
X499186D01*
Y540047D01*
X497186D01*
Y539047D01*
X496186D01*
Y537047D01*
X497186D01*
X497586Y537447D02*
Y536847D01*
X498786D01*
Y537447D01*
X499386D01*
Y538647D01*
X498786D01*
Y539247D01*
X497586D01*
Y538647D01*
X496986D01*
Y537447D01*
X497586D01*
X482268Y536252D02*
Y535252D01*
X484268D01*
Y536252D01*
X485268D01*
Y538252D01*
X484268D01*
Y539252D01*
X482268D01*
Y538252D01*
X481268D01*
Y536252D01*
X482268D01*
X482668Y536652D02*
Y536052D01*
X483868D01*
Y536652D01*
X484468D01*
Y537852D01*
X483868D01*
Y538452D01*
X482668D01*
Y537852D01*
X482068D01*
Y536652D01*
X482668D01*
X494378Y537047D02*
Y536047D01*
X496378D01*
Y537047D01*
X497378D01*
Y539047D01*
X496378D01*
Y540047D01*
X494378D01*
Y539047D01*
X493378D01*
Y537047D01*
X494378D01*
X494778Y537447D02*
Y536847D01*
X495978D01*
Y537447D01*
X496578D01*
Y538647D01*
X495978D01*
Y539247D01*
X494778D01*
Y538647D01*
X494178D01*
Y537447D01*
X494778D01*
X482268Y533444D02*
Y532444D01*
X484268D01*
Y533444D01*
X485268D01*
Y535444D01*
X484268D01*
Y536444D01*
X482268D01*
Y535444D01*
X481268D01*
Y533444D01*
X482268D01*
X482668Y533844D02*
Y533244D01*
X483868D01*
Y533844D01*
X484468D01*
Y535044D01*
X483868D01*
Y535644D01*
X482668D01*
Y535044D01*
X482068D01*
Y533844D01*
X482668D01*
X464282Y397297D02*
Y396297D01*
X466282D01*
Y397297D01*
X467282D01*
Y399297D01*
X466282D01*
Y400297D01*
X464282D01*
Y399297D01*
X463282D01*
Y397297D01*
X464282D01*
X464682Y397697D02*
Y397097D01*
X465882D01*
Y397697D01*
X466482D01*
Y398897D01*
X465882D01*
Y399497D01*
X464682D01*
Y398897D01*
X464082D01*
Y397697D01*
X464682D01*
X354640Y566870D02*
Y565870D01*
X356640D01*
Y566870D01*
X357640D01*
Y568870D01*
X356640D01*
Y569870D01*
X354640D01*
Y568870D01*
X353640D01*
Y566870D01*
X354640D01*
X355040Y567270D02*
Y566670D01*
X356240D01*
Y567270D01*
X356840D01*
Y568470D01*
X356240D01*
Y569070D01*
X355040D01*
Y568470D01*
X354440D01*
Y567270D01*
X355040D01*
X525218Y532209D02*
Y531209D01*
X527218D01*
Y532209D01*
X528218D01*
Y534209D01*
X527218D01*
Y535209D01*
X525218D01*
Y534209D01*
X524218D01*
Y532209D01*
X525218D01*
X525618Y532609D02*
Y532009D01*
X526818D01*
Y532609D01*
X527418D01*
Y533809D01*
X526818D01*
Y534409D01*
X525618D01*
Y533809D01*
X525018D01*
Y532609D01*
X525618D01*
X338997Y698326D02*
Y697326D01*
X340997D01*
Y698326D01*
X341997D01*
Y700326D01*
X340997D01*
Y701326D01*
X338997D01*
Y700326D01*
X337997D01*
Y698326D01*
X338997D01*
X339397Y698726D02*
Y698126D01*
X340597D01*
Y698726D01*
X341197D01*
Y699926D01*
X340597D01*
Y700526D01*
X339397D01*
Y699926D01*
X338797D01*
Y698726D01*
X339397D01*
X364158Y678730D02*
Y677731D01*
X366158D01*
Y678730D01*
X367158D01*
Y680730D01*
X366158D01*
Y681731D01*
X364158D01*
Y680730D01*
X363158D01*
Y678730D01*
X364158D01*
X364558Y679131D02*
Y678531D01*
X365757D01*
Y679131D01*
X366357D01*
Y680331D01*
X365757D01*
Y680931D01*
X364558D01*
Y680331D01*
X363958D01*
Y679131D01*
X364558D01*
X467407Y601945D02*
Y600945D01*
X469407D01*
Y601945D01*
X470407D01*
Y603945D01*
X469407D01*
Y604945D01*
X467407D01*
Y603945D01*
X466407D01*
Y601945D01*
X467407D01*
X467807Y602345D02*
Y601745D01*
X469007D01*
Y602345D01*
X469607D01*
Y603545D01*
X469007D01*
Y604145D01*
X467807D01*
Y603545D01*
X467207D01*
Y602345D01*
X467807D01*
X469864Y601945D02*
Y600945D01*
X471864D01*
Y601945D01*
X472864D01*
Y603945D01*
X471864D01*
Y604945D01*
X469864D01*
Y603945D01*
X468864D01*
Y601945D01*
X469864D01*
X470264Y602345D02*
Y601745D01*
X471464D01*
Y602345D01*
X472064D01*
Y603545D01*
X471464D01*
Y604145D01*
X470264D01*
Y603545D01*
X469664D01*
Y602345D01*
X470264D01*
X483762Y601945D02*
Y600945D01*
X485762D01*
Y601945D01*
X486762D01*
Y603945D01*
X485762D01*
Y604945D01*
X483762D01*
Y603945D01*
X482762D01*
Y601945D01*
X483762D01*
X484162Y602345D02*
Y601745D01*
X485362D01*
Y602345D01*
X485962D01*
Y603545D01*
X485362D01*
Y604145D01*
X484162D01*
Y603545D01*
X483562D01*
Y602345D01*
X484162D01*
X481306Y601945D02*
Y600945D01*
X483306D01*
Y601945D01*
X484306D01*
Y603945D01*
X483306D01*
Y604945D01*
X481306D01*
Y603945D01*
X480306D01*
Y601945D01*
X481306D01*
X481706Y602345D02*
Y601745D01*
X482906D01*
Y602345D01*
X483506D01*
Y603545D01*
X482906D01*
Y604145D01*
X481706D01*
Y603545D01*
X481106D01*
Y602345D01*
X481706D01*
X525218Y518245D02*
Y517245D01*
X527218D01*
Y518245D01*
X528218D01*
Y520245D01*
X527218D01*
Y521245D01*
X525218D01*
Y520245D01*
X524218D01*
Y518245D01*
X525218D01*
X525618Y518645D02*
Y518045D01*
X526818D01*
Y518645D01*
X527418D01*
Y519845D01*
X526818D01*
Y520445D01*
X525618D01*
Y519845D01*
X525018D01*
Y518645D01*
X525618D01*
X525218Y526670D02*
Y525670D01*
X527218D01*
Y526670D01*
X528218D01*
Y528670D01*
X527218D01*
Y529670D01*
X525218D01*
Y528670D01*
X524218D01*
Y526670D01*
X525218D01*
X525618Y527070D02*
Y526470D01*
X526818D01*
Y527070D01*
X527418D01*
Y528270D01*
X526818D01*
Y528870D01*
X525618D01*
Y528270D01*
X525018D01*
Y527070D01*
X525618D01*
X525218Y521053D02*
Y520053D01*
X527218D01*
Y521053D01*
X528218D01*
Y523053D01*
X527218D01*
Y524053D01*
X525218D01*
Y523053D01*
X524218D01*
Y521053D01*
X525218D01*
X525618Y521453D02*
Y520853D01*
X526818D01*
Y521453D01*
X527418D01*
Y522653D01*
X526818D01*
Y523253D01*
X525618D01*
Y522653D01*
X525018D01*
Y521453D01*
X525618D01*
X525218Y523862D02*
Y522861D01*
X527218D01*
Y523862D01*
X528218D01*
Y525862D01*
X527218D01*
Y526861D01*
X525218D01*
Y525862D01*
X524218D01*
Y523862D01*
X525218D01*
X525618Y524262D02*
Y523662D01*
X526818D01*
Y524262D01*
X527418D01*
Y525461D01*
X526818D01*
Y526061D01*
X525618D01*
Y525461D01*
X525018D01*
Y524262D01*
X525618D01*
X509885Y526461D02*
Y525461D01*
X511885D01*
Y526461D01*
X512885D01*
Y528461D01*
X511885D01*
Y529461D01*
X509885D01*
Y528461D01*
X508885D01*
Y526461D01*
X509885D01*
X510285Y526861D02*
Y526261D01*
X511485D01*
Y526861D01*
X512085D01*
Y528061D01*
X511485D01*
Y528661D01*
X510285D01*
Y528061D01*
X509685D01*
Y526861D01*
X510285D01*
X504269Y526461D02*
Y525461D01*
X506269D01*
Y526461D01*
X507269D01*
Y528461D01*
X506269D01*
Y529461D01*
X504269D01*
Y528461D01*
X503269D01*
Y526461D01*
X504269D01*
X504669Y526861D02*
Y526261D01*
X505869D01*
Y526861D01*
X506469D01*
Y528061D01*
X505869D01*
Y528661D01*
X504669D01*
Y528061D01*
X504069D01*
Y526861D01*
X504669D01*
X507077Y526461D02*
Y525461D01*
X509077D01*
Y526461D01*
X510077D01*
Y528461D01*
X509077D01*
Y529461D01*
X507077D01*
Y528461D01*
X506077D01*
Y526461D01*
X507077D01*
X507477Y526861D02*
Y526261D01*
X508677D01*
Y526861D01*
X509277D01*
Y528061D01*
X508677D01*
Y528661D01*
X507477D01*
Y528061D01*
X506877D01*
Y526861D01*
X507477D01*
X501461Y526461D02*
Y525461D01*
X503461D01*
Y526461D01*
X504461D01*
Y528461D01*
X503461D01*
Y529461D01*
X501461D01*
Y528461D01*
X500461D01*
Y526461D01*
X501461D01*
X501861Y526861D02*
Y526261D01*
X503061D01*
Y526861D01*
X503661D01*
Y528061D01*
X503061D01*
Y528661D01*
X501861D01*
Y528061D01*
X501261D01*
Y526861D01*
X501861D01*
X501461Y523821D02*
Y522821D01*
X503461D01*
Y523821D01*
X504461D01*
Y525821D01*
X503461D01*
Y526821D01*
X501461D01*
Y525821D01*
X500461D01*
Y523821D01*
X501461D01*
X501861Y524221D02*
Y523621D01*
X503061D01*
Y524221D01*
X503661D01*
Y525421D01*
X503061D01*
Y526021D01*
X501861D01*
Y525421D01*
X501261D01*
Y524221D01*
X501861D01*
X507077Y523821D02*
Y522821D01*
X509077D01*
Y523821D01*
X510077D01*
Y525821D01*
X509077D01*
Y526821D01*
X507077D01*
Y525821D01*
X506077D01*
Y523821D01*
X507077D01*
X507477Y524221D02*
Y523621D01*
X508677D01*
Y524221D01*
X509277D01*
Y525421D01*
X508677D01*
Y526021D01*
X507477D01*
Y525421D01*
X506877D01*
Y524221D01*
X507477D01*
X504269Y523821D02*
Y522821D01*
X506269D01*
Y523821D01*
X507269D01*
Y525821D01*
X506269D01*
Y526821D01*
X504269D01*
Y525821D01*
X503269D01*
Y523821D01*
X504269D01*
X504669Y524221D02*
Y523621D01*
X505869D01*
Y524221D01*
X506469D01*
Y525421D01*
X505869D01*
Y526021D01*
X504669D01*
Y525421D01*
X504069D01*
Y524221D01*
X504669D01*
X482268Y526559D02*
Y525559D01*
X484268D01*
Y526559D01*
X485268D01*
Y528559D01*
X484268D01*
Y529559D01*
X482268D01*
Y528559D01*
X481268D01*
Y526559D01*
X482268D01*
X482668Y526959D02*
Y526359D01*
X483868D01*
Y526959D01*
X484468D01*
Y528159D01*
X483868D01*
Y528759D01*
X482668D01*
Y528159D01*
X482068D01*
Y526959D01*
X482668D01*
X482268Y523862D02*
Y522861D01*
X484268D01*
Y523862D01*
X485268D01*
Y525862D01*
X484268D01*
Y526861D01*
X482268D01*
Y525862D01*
X481268D01*
Y523862D01*
X482268D01*
X482668Y524262D02*
Y523662D01*
X483868D01*
Y524262D01*
X484468D01*
Y525461D01*
X483868D01*
Y526061D01*
X482668D01*
Y525461D01*
X482068D01*
Y524262D01*
X482668D01*
X482268Y518245D02*
Y517245D01*
X484268D01*
Y518245D01*
X485268D01*
Y520245D01*
X484268D01*
Y521245D01*
X482268D01*
Y520245D01*
X481268D01*
Y518245D01*
X482268D01*
X482668Y518645D02*
Y518045D01*
X483868D01*
Y518645D01*
X484468D01*
Y519845D01*
X483868D01*
Y520445D01*
X482668D01*
Y519845D01*
X482068D01*
Y518645D01*
X482668D01*
X482268Y521053D02*
Y520053D01*
X484268D01*
Y521053D01*
X485268D01*
Y523053D01*
X484268D01*
Y524053D01*
X482268D01*
Y523053D01*
X481268D01*
Y521053D01*
X482268D01*
X482668Y521453D02*
Y520853D01*
X483868D01*
Y521453D01*
X484468D01*
Y522653D01*
X483868D01*
Y523253D01*
X482668D01*
Y522653D01*
X482068D01*
Y521453D01*
X482668D01*
X506352Y447484D02*
Y446484D01*
X508352D01*
Y447484D01*
X509352D01*
Y449484D01*
X508352D01*
Y450484D01*
X506352D01*
Y449484D01*
X505352D01*
Y447484D01*
X506352D01*
X506752Y447884D02*
Y447284D01*
X507952D01*
Y447884D01*
X508552D01*
Y449084D01*
X507952D01*
Y449684D01*
X506752D01*
Y449084D01*
X506152D01*
Y447884D01*
X506752D01*
X489586Y447484D02*
Y446484D01*
X491586D01*
Y447484D01*
X492586D01*
Y449484D01*
X491586D01*
Y450484D01*
X489586D01*
Y449484D01*
X488586D01*
Y447484D01*
X489586D01*
X489986Y447884D02*
Y447284D01*
X491186D01*
Y447884D01*
X491786D01*
Y449084D01*
X491186D01*
Y449684D01*
X489986D01*
Y449084D01*
X489386D01*
Y447884D01*
X489986D01*
X503544Y447484D02*
Y446484D01*
X505544D01*
Y447484D01*
X506544D01*
Y449484D01*
X505544D01*
Y450484D01*
X503544D01*
Y449484D01*
X502544D01*
Y447484D01*
X503544D01*
X503944Y447884D02*
Y447284D01*
X505144D01*
Y447884D01*
X505744D01*
Y449084D01*
X505144D01*
Y449684D01*
X503944D01*
Y449084D01*
X503344D01*
Y447884D01*
X503944D01*
X492394Y447484D02*
Y446484D01*
X494394D01*
Y447484D01*
X495394D01*
Y449484D01*
X494394D01*
Y450484D01*
X492394D01*
Y449484D01*
X491394D01*
Y447484D01*
X492394D01*
X492794Y447884D02*
Y447284D01*
X493994D01*
Y447884D01*
X494594D01*
Y449084D01*
X493994D01*
Y449684D01*
X492794D01*
Y449084D01*
X492194D01*
Y447884D01*
X492794D01*
X498301Y481248D02*
Y480248D01*
X500301D01*
Y481248D01*
X501301D01*
Y483248D01*
X500301D01*
Y484248D01*
X498301D01*
Y483248D01*
X497301D01*
Y481248D01*
X498301D01*
X498701Y481648D02*
Y481048D01*
X499901D01*
Y481648D01*
X500501D01*
Y482848D01*
X499901D01*
Y483448D01*
X498701D01*
Y482848D01*
X498101D01*
Y481648D01*
X498701D01*
X489877Y481248D02*
Y480248D01*
X491877D01*
Y481248D01*
X492877D01*
Y483248D01*
X491877D01*
Y484248D01*
X489877D01*
Y483248D01*
X488877D01*
Y481248D01*
X489877D01*
X490277Y481648D02*
Y481048D01*
X491477D01*
Y481648D01*
X492077D01*
Y482848D01*
X491477D01*
Y483448D01*
X490277D01*
Y482848D01*
X489677D01*
Y481648D01*
X490277D01*
X495493Y481248D02*
Y480248D01*
X497493D01*
Y481248D01*
X498493D01*
Y483248D01*
X497493D01*
Y484248D01*
X495493D01*
Y483248D01*
X494493D01*
Y481248D01*
X495493D01*
X495893Y481648D02*
Y481048D01*
X497093D01*
Y481648D01*
X497693D01*
Y482848D01*
X497093D01*
Y483448D01*
X495893D01*
Y482848D01*
X495293D01*
Y481648D01*
X495893D01*
X492685Y481248D02*
Y480248D01*
X494685D01*
Y481248D01*
X495685D01*
Y483248D01*
X494685D01*
Y484248D01*
X492685D01*
Y483248D01*
X491685D01*
Y481248D01*
X492685D01*
X493085Y481648D02*
Y481048D01*
X494285D01*
Y481648D01*
X494885D01*
Y482848D01*
X494285D01*
Y483448D01*
X493085D01*
Y482848D01*
X492485D01*
Y481648D01*
X493085D01*
X509621Y481248D02*
Y480248D01*
X511621D01*
Y481248D01*
X512621D01*
Y483248D01*
X511621D01*
Y484248D01*
X509621D01*
Y483248D01*
X508621D01*
Y481248D01*
X509621D01*
X510021Y481648D02*
Y481048D01*
X511221D01*
Y481648D01*
X511821D01*
Y482848D01*
X511221D01*
Y483448D01*
X510021D01*
Y482848D01*
X509421D01*
Y481648D01*
X510021D01*
X501197Y481248D02*
Y480248D01*
X503197D01*
Y481248D01*
X504197D01*
Y483248D01*
X503197D01*
Y484248D01*
X501197D01*
Y483248D01*
X500197D01*
Y481248D01*
X501197D01*
X501597Y481648D02*
Y481048D01*
X502797D01*
Y481648D01*
X503397D01*
Y482848D01*
X502797D01*
Y483448D01*
X501597D01*
Y482848D01*
X500997D01*
Y481648D01*
X501597D01*
X506813Y481248D02*
Y480248D01*
X508813D01*
Y481248D01*
X509813D01*
Y483248D01*
X508813D01*
Y484248D01*
X506813D01*
Y483248D01*
X505813D01*
Y481248D01*
X506813D01*
X507213Y481648D02*
Y481048D01*
X508413D01*
Y481648D01*
X509013D01*
Y482848D01*
X508413D01*
Y483448D01*
X507213D01*
Y482848D01*
X506613D01*
Y481648D01*
X507213D01*
X504005Y481248D02*
Y480248D01*
X506005D01*
Y481248D01*
X507005D01*
Y483248D01*
X506005D01*
Y484248D01*
X504005D01*
Y483248D01*
X503005D01*
Y481248D01*
X504005D01*
X504405Y481648D02*
Y481048D01*
X505605D01*
Y481648D01*
X506205D01*
Y482848D01*
X505605D01*
Y483448D01*
X504405D01*
Y482848D01*
X503805D01*
Y481648D01*
X504405D01*
X509573Y495144D02*
Y494143D01*
X511573D01*
Y495144D01*
X512573D01*
Y497144D01*
X511573D01*
Y498143D01*
X509573D01*
Y497144D01*
X508573D01*
Y495144D01*
X509573D01*
X509973Y495543D02*
Y494944D01*
X511173D01*
Y495543D01*
X511773D01*
Y496743D01*
X511173D01*
Y497343D01*
X509973D01*
Y496743D01*
X509373D01*
Y495543D01*
X509973D01*
X509573Y497952D02*
Y496952D01*
X511573D01*
Y497952D01*
X512573D01*
Y499952D01*
X511573D01*
Y500952D01*
X509573D01*
Y499952D01*
X508573D01*
Y497952D01*
X509573D01*
X509973Y498352D02*
Y497752D01*
X511173D01*
Y498352D01*
X511773D01*
Y499552D01*
X511173D01*
Y500152D01*
X509973D01*
Y499552D01*
X509373D01*
Y498352D01*
X509973D01*
X509573Y492335D02*
Y491335D01*
X511573D01*
Y492335D01*
X512573D01*
Y494335D01*
X511573D01*
Y495335D01*
X509573D01*
Y494335D01*
X508573D01*
Y492335D01*
X509573D01*
X509973Y492735D02*
Y492135D01*
X511173D01*
Y492735D01*
X511773D01*
Y493935D01*
X511173D01*
Y494535D01*
X509973D01*
Y493935D01*
X509373D01*
Y492735D01*
X509973D01*
X509573Y500760D02*
Y499760D01*
X511573D01*
Y500760D01*
X512573D01*
Y502760D01*
X511573D01*
Y503760D01*
X509573D01*
Y502760D01*
X508573D01*
Y500760D01*
X509573D01*
X509973Y501160D02*
Y500560D01*
X511173D01*
Y501160D01*
X511773D01*
Y502360D01*
X511173D01*
Y502960D01*
X509973D01*
Y502360D01*
X509373D01*
Y501160D01*
X509973D01*
X516336Y490589D02*
Y489589D01*
X518336D01*
Y490589D01*
X519337D01*
Y492589D01*
X518336D01*
Y493589D01*
X516336D01*
Y492589D01*
X515337D01*
Y490589D01*
X516336D01*
X516737Y490989D02*
Y490389D01*
X517937D01*
Y490989D01*
X518537D01*
Y492189D01*
X517937D01*
Y492789D01*
X516737D01*
Y492189D01*
X516137D01*
Y490989D01*
X516737D01*
X517110Y482697D02*
Y481697D01*
X519110D01*
Y482697D01*
X520110D01*
Y484697D01*
X519110D01*
Y485697D01*
X517110D01*
Y484697D01*
X516110D01*
Y482697D01*
X517110D01*
X517510Y483097D02*
Y482497D01*
X518710D01*
Y483097D01*
X519310D01*
Y484297D01*
X518710D01*
Y484897D01*
X517510D01*
Y484297D01*
X516910D01*
Y483097D01*
X517510D01*
X525448Y487593D02*
Y486593D01*
X527448D01*
Y487593D01*
X528448D01*
Y489593D01*
X527448D01*
Y490593D01*
X525448D01*
Y489593D01*
X524448D01*
Y487593D01*
X525448D01*
X525848Y487993D02*
Y487393D01*
X527048D01*
Y487993D01*
X527648D01*
Y489193D01*
X527048D01*
Y489793D01*
X525848D01*
Y489193D01*
X525248D01*
Y487993D01*
X525848D01*
X525448Y490401D02*
Y489401D01*
X527448D01*
Y490401D01*
X528448D01*
Y492401D01*
X527448D01*
Y493401D01*
X525448D01*
Y492401D01*
X524448D01*
Y490401D01*
X525448D01*
X525848Y490801D02*
Y490201D01*
X527048D01*
Y490801D01*
X527648D01*
Y492001D01*
X527048D01*
Y492601D01*
X525848D01*
Y492001D01*
X525248D01*
Y490801D01*
X525848D01*
X525448Y484785D02*
Y483785D01*
X527448D01*
Y484785D01*
X528448D01*
Y486785D01*
X527448D01*
Y487785D01*
X525448D01*
Y486785D01*
X524448D01*
Y484785D01*
X525448D01*
X525848Y485185D02*
Y484585D01*
X527048D01*
Y485185D01*
X527648D01*
Y486385D01*
X527048D01*
Y486985D01*
X525848D01*
Y486385D01*
X525248D01*
Y485185D01*
X525848D01*
X525448Y493209D02*
Y492209D01*
X527448D01*
Y493209D01*
X528448D01*
Y495209D01*
X527448D01*
Y496209D01*
X525448D01*
Y495209D01*
X524448D01*
Y493209D01*
X525448D01*
X525848Y493609D02*
Y493009D01*
X527048D01*
Y493609D01*
X527648D01*
Y494809D01*
X527048D01*
Y495409D01*
X525848D01*
Y494809D01*
X525248D01*
Y493609D01*
X525848D01*
X525448Y476268D02*
Y475268D01*
X527448D01*
Y476268D01*
X528448D01*
Y478268D01*
X527448D01*
Y479268D01*
X525448D01*
Y478268D01*
X524448D01*
Y476268D01*
X525448D01*
X525848Y476668D02*
Y476068D01*
X527048D01*
Y476668D01*
X527648D01*
Y477868D01*
X527048D01*
Y478468D01*
X525848D01*
Y477868D01*
X525248D01*
Y476668D01*
X525848D01*
X525448Y479076D02*
Y478076D01*
X527448D01*
Y479076D01*
X528448D01*
Y481076D01*
X527448D01*
Y482076D01*
X525448D01*
Y481076D01*
X524448D01*
Y479076D01*
X525448D01*
X525848Y479476D02*
Y478876D01*
X527048D01*
Y479476D01*
X527648D01*
Y480676D01*
X527048D01*
Y481276D01*
X525848D01*
Y480676D01*
X525248D01*
Y479476D01*
X525848D01*
X525448Y473460D02*
Y472460D01*
X527448D01*
Y473460D01*
X528448D01*
Y475460D01*
X527448D01*
Y476460D01*
X525448D01*
Y475460D01*
X524448D01*
Y473460D01*
X525448D01*
X525848Y473860D02*
Y473260D01*
X527048D01*
Y473860D01*
X527648D01*
Y475060D01*
X527048D01*
Y475660D01*
X525848D01*
Y475060D01*
X525248D01*
Y473860D01*
X525848D01*
X525448Y481884D02*
Y480884D01*
X527448D01*
Y481884D01*
X528448D01*
Y483884D01*
X527448D01*
Y484884D01*
X525448D01*
Y483884D01*
X524448D01*
Y481884D01*
X525448D01*
X525848Y482284D02*
Y481684D01*
X527048D01*
Y482284D01*
X527648D01*
Y483484D01*
X527048D01*
Y484084D01*
X525848D01*
Y483484D01*
X525248D01*
Y482284D01*
X525848D01*
X519602Y459329D02*
Y458329D01*
X521602D01*
Y459329D01*
X522602D01*
Y461329D01*
X521602D01*
Y462329D01*
X519602D01*
Y461329D01*
X518602D01*
Y459329D01*
X519602D01*
X520002Y459729D02*
Y459129D01*
X521202D01*
Y459729D01*
X521802D01*
Y460929D01*
X521202D01*
Y461529D01*
X520002D01*
Y460929D01*
X519402D01*
Y459729D01*
X520002D01*
X522410Y459329D02*
Y458329D01*
X524410D01*
Y459329D01*
X525410D01*
Y461329D01*
X524410D01*
Y462329D01*
X522410D01*
Y461329D01*
X521410D01*
Y459329D01*
X522410D01*
X522810Y459729D02*
Y459129D01*
X524010D01*
Y459729D01*
X524610D01*
Y460929D01*
X524010D01*
Y461529D01*
X522810D01*
Y460929D01*
X522210D01*
Y459729D01*
X522810D01*
X516794Y459329D02*
Y458329D01*
X518794D01*
Y459329D01*
X519794D01*
Y461329D01*
X518794D01*
Y462329D01*
X516794D01*
Y461329D01*
X515794D01*
Y459329D01*
X516794D01*
X517194Y459729D02*
Y459129D01*
X518394D01*
Y459729D01*
X518994D01*
Y460929D01*
X518394D01*
Y461529D01*
X517194D01*
Y460929D01*
X516594D01*
Y459729D01*
X517194D01*
X525218Y459329D02*
Y458329D01*
X527218D01*
Y459329D01*
X528218D01*
Y461329D01*
X527218D01*
Y462329D01*
X525218D01*
Y461329D01*
X524218D01*
Y459329D01*
X525218D01*
X525618Y459729D02*
Y459129D01*
X526818D01*
Y459729D01*
X527418D01*
Y460929D01*
X526818D01*
Y461529D01*
X525618D01*
Y460929D01*
X525018D01*
Y459729D01*
X525618D01*
X525218Y443193D02*
Y442193D01*
X527218D01*
Y443193D01*
X528218D01*
Y445193D01*
X527218D01*
Y446193D01*
X525218D01*
Y445193D01*
X524218D01*
Y443193D01*
X525218D01*
X525618Y443593D02*
Y442993D01*
X526818D01*
Y443593D01*
X527418D01*
Y444793D01*
X526818D01*
Y445393D01*
X525618D01*
Y444793D01*
X525018D01*
Y443593D01*
X525618D01*
X516794Y443193D02*
Y442193D01*
X518794D01*
Y443193D01*
X519794D01*
Y445193D01*
X518794D01*
Y446193D01*
X516794D01*
Y445193D01*
X515794D01*
Y443193D01*
X516794D01*
X517194Y443593D02*
Y442993D01*
X518394D01*
Y443593D01*
X518994D01*
Y444793D01*
X518394D01*
Y445393D01*
X517194D01*
Y444793D01*
X516594D01*
Y443593D01*
X517194D01*
X522410Y443193D02*
Y442193D01*
X524410D01*
Y443193D01*
X525410D01*
Y445193D01*
X524410D01*
Y446193D01*
X522410D01*
Y445193D01*
X521410D01*
Y443193D01*
X522410D01*
X522810Y443593D02*
Y442993D01*
X524010D01*
Y443593D01*
X524610D01*
Y444793D01*
X524010D01*
Y445393D01*
X522810D01*
Y444793D01*
X522210D01*
Y443593D01*
X522810D01*
X519602Y443193D02*
Y442193D01*
X521602D01*
Y443193D01*
X522602D01*
Y445193D01*
X521602D01*
Y446193D01*
X519602D01*
Y445193D01*
X518602D01*
Y443193D01*
X519602D01*
X520002Y443593D02*
Y442993D01*
X521202D01*
Y443593D01*
X521802D01*
Y444793D01*
X521202D01*
Y445393D01*
X520002D01*
Y444793D01*
X519402D01*
Y443593D01*
X520002D01*
X437386Y360783D02*
Y359783D01*
X439386D01*
Y360783D01*
X440386D01*
Y362783D01*
X439386D01*
Y363783D01*
X437386D01*
Y362783D01*
X436386D01*
Y360783D01*
X437386D01*
X437786Y361182D02*
Y360582D01*
X438986D01*
Y361182D01*
X439586D01*
Y362383D01*
X438986D01*
Y362983D01*
X437786D01*
Y362383D01*
X437186D01*
Y361182D01*
X437786D01*
X433941Y360783D02*
Y359783D01*
X435941D01*
Y360783D01*
X436941D01*
Y362783D01*
X435941D01*
Y363783D01*
X433941D01*
Y362783D01*
X432941D01*
Y360783D01*
X433941D01*
X434341Y361182D02*
Y360582D01*
X435541D01*
Y361182D01*
X436141D01*
Y362383D01*
X435541D01*
Y362983D01*
X434341D01*
Y362383D01*
X433741D01*
Y361182D01*
X434341D01*
X482026Y407766D02*
Y406766D01*
X484026D01*
Y407766D01*
X485026D01*
Y409766D01*
X484026D01*
Y410766D01*
X482026D01*
Y409766D01*
X481026D01*
Y407766D01*
X482026D01*
X482426Y408166D02*
Y407566D01*
X483626D01*
Y408166D01*
X484226D01*
Y409366D01*
X483626D01*
Y409966D01*
X482426D01*
Y409366D01*
X481826D01*
Y408166D01*
X482426D01*
X484834Y407766D02*
Y406766D01*
X486834D01*
Y407766D01*
X487834D01*
Y409766D01*
X486834D01*
Y410766D01*
X484834D01*
Y409766D01*
X483834D01*
Y407766D01*
X484834D01*
X485234Y408166D02*
Y407566D01*
X486434D01*
Y408166D01*
X487034D01*
Y409366D01*
X486434D01*
Y409966D01*
X485234D01*
Y409366D01*
X484634D01*
Y408166D01*
X485234D01*
X487583Y407766D02*
Y406766D01*
X489583D01*
Y407766D01*
X490583D01*
Y409766D01*
X489583D01*
Y410766D01*
X487583D01*
Y409766D01*
X486583D01*
Y407766D01*
X487583D01*
X487983Y408166D02*
Y407566D01*
X489183D01*
Y408166D01*
X489783D01*
Y409366D01*
X489183D01*
Y409966D01*
X487983D01*
Y409366D01*
X487383D01*
Y408166D01*
X487983D01*
X489426Y396263D02*
Y395263D01*
X491426D01*
Y396263D01*
X492426D01*
Y398263D01*
X491426D01*
Y399263D01*
X489426D01*
Y398263D01*
X488426D01*
Y396263D01*
X489426D01*
X489826Y396663D02*
Y396063D01*
X491026D01*
Y396663D01*
X491626D01*
Y397863D01*
X491026D01*
Y398463D01*
X489826D01*
Y397863D01*
X489226D01*
Y396663D01*
X489826D01*
X491412Y398248D02*
Y397248D01*
X493412D01*
Y398248D01*
X494412D01*
Y400248D01*
X493412D01*
Y401248D01*
X491412D01*
Y400248D01*
X490412D01*
Y398248D01*
X491412D01*
X491812Y398648D02*
Y398048D01*
X493012D01*
Y398648D01*
X493612D01*
Y399848D01*
X493012D01*
Y400448D01*
X491812D01*
Y399848D01*
X491212D01*
Y398648D01*
X491812D01*
X493355Y400192D02*
Y399192D01*
X495355D01*
Y400192D01*
X496355D01*
Y402192D01*
X495355D01*
Y403192D01*
X493355D01*
Y402192D01*
X492355D01*
Y400192D01*
X493355D01*
X493755Y400592D02*
Y399992D01*
X494955D01*
Y400592D01*
X495555D01*
Y401792D01*
X494955D01*
Y402392D01*
X493755D01*
Y401792D01*
X493155D01*
Y400592D01*
X493755D01*
X489859Y430901D02*
Y429901D01*
X491859D01*
Y430901D01*
X492860D01*
Y432901D01*
X491859D01*
Y433901D01*
X489859D01*
Y432901D01*
X488860D01*
Y430901D01*
X489859D01*
X490260Y431301D02*
Y430701D01*
X491460D01*
Y431301D01*
X492060D01*
Y432501D01*
X491460D01*
Y433101D01*
X490260D01*
Y432501D01*
X489660D01*
Y431301D01*
X490260D01*
X489859Y428152D02*
Y427152D01*
X491859D01*
Y428152D01*
X492860D01*
Y430152D01*
X491859D01*
Y431152D01*
X489859D01*
Y430152D01*
X488860D01*
Y428152D01*
X489859D01*
X490260Y428552D02*
Y427952D01*
X491460D01*
Y428552D01*
X492060D01*
Y429752D01*
X491460D01*
Y430352D01*
X490260D01*
Y429752D01*
X489660D01*
Y428552D01*
X490260D01*
X489859Y425344D02*
Y424344D01*
X491859D01*
Y425344D01*
X492860D01*
Y427344D01*
X491859D01*
Y428344D01*
X489859D01*
Y427344D01*
X488860D01*
Y425344D01*
X489859D01*
X490260Y425744D02*
Y425144D01*
X491460D01*
Y425744D01*
X492060D01*
Y426944D01*
X491460D01*
Y427544D01*
X490260D01*
Y426944D01*
X489660D01*
Y425744D01*
X490260D01*
X484836Y430854D02*
Y429854D01*
X486836D01*
Y430854D01*
X487836D01*
Y432854D01*
X486836D01*
Y433854D01*
X484836D01*
Y432854D01*
X483836D01*
Y430854D01*
X484836D01*
X485236Y431254D02*
Y430654D01*
X486436D01*
Y431254D01*
X487036D01*
Y432454D01*
X486436D01*
Y433054D01*
X485236D01*
Y432454D01*
X484636D01*
Y431254D01*
X485236D01*
X484836Y428105D02*
Y427105D01*
X486836D01*
Y428105D01*
X487836D01*
Y430105D01*
X486836D01*
Y431105D01*
X484836D01*
Y430105D01*
X483836D01*
Y428105D01*
X484836D01*
X485236Y428505D02*
Y427905D01*
X486436D01*
Y428505D01*
X487036D01*
Y429705D01*
X486436D01*
Y430305D01*
X485236D01*
Y429705D01*
X484636D01*
Y428505D01*
X485236D01*
X484836Y425297D02*
Y424297D01*
X486836D01*
Y425297D01*
X487836D01*
Y427297D01*
X486836D01*
Y428297D01*
X484836D01*
Y427297D01*
X483836D01*
Y425297D01*
X484836D01*
X485236Y425697D02*
Y425097D01*
X486436D01*
Y425697D01*
X487036D01*
Y426897D01*
X486436D01*
Y427497D01*
X485236D01*
Y426897D01*
X484636D01*
Y425697D01*
X485236D01*
X423606Y360783D02*
Y359783D01*
X425606D01*
Y360783D01*
X426606D01*
Y362783D01*
X425606D01*
Y363783D01*
X423606D01*
Y362783D01*
X422606D01*
Y360783D01*
X423606D01*
X424006Y361182D02*
Y360582D01*
X425206D01*
Y361182D01*
X425806D01*
Y362383D01*
X425206D01*
Y362983D01*
X424006D01*
Y362383D01*
X423406D01*
Y361182D01*
X424006D01*
X427051Y360783D02*
Y359783D01*
X429051D01*
Y360783D01*
X430051D01*
Y362783D01*
X429051D01*
Y363783D01*
X427051D01*
Y362783D01*
X426051D01*
Y360783D01*
X427051D01*
X427451Y361182D02*
Y360582D01*
X428651D01*
Y361182D01*
X429251D01*
Y362383D01*
X428651D01*
Y362983D01*
X427451D01*
Y362383D01*
X426851D01*
Y361182D01*
X427451D01*
X430496Y360783D02*
Y359783D01*
X432496D01*
Y360783D01*
X433496D01*
Y362783D01*
X432496D01*
Y363783D01*
X430496D01*
Y362783D01*
X429496D01*
Y360783D01*
X430496D01*
X430896Y361182D02*
Y360582D01*
X432096D01*
Y361182D01*
X432696D01*
Y362383D01*
X432096D01*
Y362983D01*
X430896D01*
Y362383D01*
X430296D01*
Y361182D01*
X430896D01*
X522634Y398942D02*
Y397942D01*
X524634D01*
Y398942D01*
X525633D01*
Y400942D01*
X524634D01*
Y401942D01*
X522634D01*
Y400942D01*
X521633D01*
Y398942D01*
X522634D01*
X523034Y399342D02*
Y398742D01*
X524233D01*
Y399342D01*
X524833D01*
Y400542D01*
X524233D01*
Y401142D01*
X523034D01*
Y400542D01*
X522434D01*
Y399342D01*
X523034D01*
X520648Y396956D02*
Y395956D01*
X522648D01*
Y396956D01*
X523648D01*
Y398956D01*
X522648D01*
Y399956D01*
X520648D01*
Y398956D01*
X519648D01*
Y396956D01*
X520648D01*
X521048Y397356D02*
Y396756D01*
X522248D01*
Y397356D01*
X522848D01*
Y398556D01*
X522248D01*
Y399156D01*
X521048D01*
Y398556D01*
X520448D01*
Y397356D01*
X521048D01*
X518662Y394970D02*
Y393970D01*
X520662D01*
Y394970D01*
X521662D01*
Y396970D01*
X520662D01*
Y397970D01*
X518662D01*
Y396970D01*
X517662D01*
Y394970D01*
X518662D01*
X519062Y395370D02*
Y394770D01*
X520262D01*
Y395370D01*
X520862D01*
Y396570D01*
X520262D01*
Y397170D01*
X519062D01*
Y396570D01*
X518462D01*
Y395370D01*
X519062D01*
X524619Y400927D02*
Y399927D01*
X526619D01*
Y400927D01*
X527619D01*
Y402927D01*
X526619D01*
Y403927D01*
X524619D01*
Y402927D01*
X523619D01*
Y400927D01*
X524619D01*
X525019Y401327D02*
Y400727D01*
X526219D01*
Y401327D01*
X526819D01*
Y402527D01*
X526219D01*
Y403127D01*
X525019D01*
Y402527D01*
X524419D01*
Y401327D01*
X525019D01*
X516677Y392985D02*
Y391985D01*
X518677D01*
Y392985D01*
X519676D01*
Y394985D01*
X518677D01*
Y395985D01*
X516677D01*
Y394985D01*
X515676D01*
Y392985D01*
X516677D01*
X517076Y393385D02*
Y392785D01*
X518277D01*
Y393385D01*
X518877D01*
Y394585D01*
X518277D01*
Y395185D01*
X517076D01*
Y394585D01*
X516476D01*
Y393385D01*
X517076D01*
X514691Y390999D02*
Y389999D01*
X516691D01*
Y390999D01*
X517691D01*
Y392999D01*
X516691D01*
Y393999D01*
X514691D01*
Y392999D01*
X513691D01*
Y390999D01*
X514691D01*
X515091Y391399D02*
Y390799D01*
X516291D01*
Y391399D01*
X516891D01*
Y392599D01*
X516291D01*
Y393199D01*
X515091D01*
Y392599D01*
X514491D01*
Y391399D01*
X515091D01*
X512705Y389013D02*
Y388013D01*
X514705D01*
Y389013D01*
X515705D01*
Y391013D01*
X514705D01*
Y392013D01*
X512705D01*
Y391013D01*
X511705D01*
Y389013D01*
X512705D01*
X513105Y389413D02*
Y388813D01*
X514305D01*
Y389413D01*
X514905D01*
Y390613D01*
X514305D01*
Y391213D01*
X513105D01*
Y390613D01*
X512505D01*
Y389413D01*
X513105D01*
X510719Y387028D02*
Y386028D01*
X512719D01*
Y387028D01*
X513720D01*
Y389028D01*
X512719D01*
Y390028D01*
X510719D01*
Y389028D01*
X509720D01*
Y387028D01*
X510719D01*
X511120Y387428D02*
Y386828D01*
X512320D01*
Y387428D01*
X512920D01*
Y388628D01*
X512320D01*
Y389228D01*
X511120D01*
Y388628D01*
X510520D01*
Y387428D01*
X511120D01*
X498278Y377341D02*
Y376341D01*
X500278D01*
Y377341D01*
X501278D01*
Y379341D01*
X500278D01*
Y380341D01*
X498278D01*
Y379341D01*
X497278D01*
Y377341D01*
X498278D01*
X498678Y377741D02*
Y377141D01*
X499878D01*
Y377741D01*
X500478D01*
Y378941D01*
X499878D01*
Y379541D01*
X498678D01*
Y378941D01*
X498078D01*
Y377741D01*
X498678D01*
X498278Y374533D02*
Y373533D01*
X500278D01*
Y374533D01*
X501278D01*
Y376533D01*
X500278D01*
Y377533D01*
X498278D01*
Y376533D01*
X497278D01*
Y374533D01*
X498278D01*
X498678Y374933D02*
Y374333D01*
X499878D01*
Y374933D01*
X500478D01*
Y376133D01*
X499878D01*
Y376733D01*
X498678D01*
Y376133D01*
X498078D01*
Y374933D01*
X498678D01*
X498278Y371725D02*
Y370725D01*
X500278D01*
Y371725D01*
X501278D01*
Y373725D01*
X500278D01*
Y374725D01*
X498278D01*
Y373725D01*
X497278D01*
Y371725D01*
X498278D01*
X498678Y372125D02*
Y371525D01*
X499878D01*
Y372125D01*
X500478D01*
Y373325D01*
X499878D01*
Y373925D01*
X498678D01*
Y373325D01*
X498078D01*
Y372125D01*
X498678D01*
X498278Y380150D02*
Y379150D01*
X500278D01*
Y380150D01*
X501278D01*
Y382150D01*
X500278D01*
Y383150D01*
X498278D01*
Y382150D01*
X497278D01*
Y380150D01*
X498278D01*
X498678Y380550D02*
Y379950D01*
X499878D01*
Y380550D01*
X500478D01*
Y381750D01*
X499878D01*
Y382350D01*
X498678D01*
Y381750D01*
X498078D01*
Y380550D01*
X498678D01*
X498278Y368917D02*
Y367917D01*
X500278D01*
Y368917D01*
X501278D01*
Y370917D01*
X500278D01*
Y371917D01*
X498278D01*
Y370917D01*
X497278D01*
Y368917D01*
X498278D01*
X498678Y369317D02*
Y368717D01*
X499878D01*
Y369317D01*
X500478D01*
Y370517D01*
X499878D01*
Y371117D01*
X498678D01*
Y370517D01*
X498078D01*
Y369317D01*
X498678D01*
X501092Y430901D02*
Y429901D01*
X503092D01*
Y430901D01*
X504092D01*
Y432901D01*
X503092D01*
Y433901D01*
X501092D01*
Y432901D01*
X500092D01*
Y430901D01*
X501092D01*
X501492Y431301D02*
Y430701D01*
X502692D01*
Y431301D01*
X503292D01*
Y432501D01*
X502692D01*
Y433101D01*
X501492D01*
Y432501D01*
X500892D01*
Y431301D01*
X501492D01*
X498284Y430901D02*
Y429901D01*
X500284D01*
Y430901D01*
X501284D01*
Y432901D01*
X500284D01*
Y433901D01*
X498284D01*
Y432901D01*
X497284D01*
Y430901D01*
X498284D01*
X498684Y431301D02*
Y430701D01*
X499884D01*
Y431301D01*
X500484D01*
Y432501D01*
X499884D01*
Y433101D01*
X498684D01*
Y432501D01*
X498084D01*
Y431301D01*
X498684D01*
X495476Y430901D02*
Y429901D01*
X497476D01*
Y430901D01*
X498476D01*
Y432901D01*
X497476D01*
Y433901D01*
X495476D01*
Y432901D01*
X494476D01*
Y430901D01*
X495476D01*
X495876Y431301D02*
Y430701D01*
X497076D01*
Y431301D01*
X497676D01*
Y432501D01*
X497076D01*
Y433101D01*
X495876D01*
Y432501D01*
X495276D01*
Y431301D01*
X495876D01*
X503900Y430901D02*
Y429901D01*
X505900D01*
Y430901D01*
X506900D01*
Y432901D01*
X505900D01*
Y433901D01*
X503900D01*
Y432901D01*
X502900D01*
Y430901D01*
X503900D01*
X504300Y431301D02*
Y430701D01*
X505500D01*
Y431301D01*
X506100D01*
Y432501D01*
X505500D01*
Y433101D01*
X504300D01*
Y432501D01*
X503700D01*
Y431301D01*
X504300D01*
X492668Y430901D02*
Y429901D01*
X494668D01*
Y430901D01*
X495668D01*
Y432901D01*
X494668D01*
Y433901D01*
X492668D01*
Y432901D01*
X491668D01*
Y430901D01*
X492668D01*
X493068Y431301D02*
Y430701D01*
X494268D01*
Y431301D01*
X494868D01*
Y432501D01*
X494268D01*
Y433101D01*
X493068D01*
Y432501D01*
X492468D01*
Y431301D01*
X493068D01*
X489859Y422536D02*
Y421536D01*
X491859D01*
Y422536D01*
X492860D01*
Y424536D01*
X491859D01*
Y425536D01*
X489859D01*
Y424536D01*
X488860D01*
Y422536D01*
X489859D01*
X490260Y422936D02*
Y422336D01*
X491460D01*
Y422936D01*
X492060D01*
Y424136D01*
X491460D01*
Y424736D01*
X490260D01*
Y424136D01*
X489660D01*
Y422936D01*
X490260D01*
X489859Y419728D02*
Y418728D01*
X491859D01*
Y419728D01*
X492860D01*
Y421728D01*
X491859D01*
Y422728D01*
X489859D01*
Y421728D01*
X488860D01*
Y419728D01*
X489859D01*
X490260Y420128D02*
Y419528D01*
X491460D01*
Y420128D01*
X492060D01*
Y421328D01*
X491460D01*
Y421928D01*
X490260D01*
Y421328D01*
X489660D01*
Y420128D01*
X490260D01*
X489859Y416920D02*
Y415919D01*
X491859D01*
Y416920D01*
X492860D01*
Y418920D01*
X491859D01*
Y419919D01*
X489859D01*
Y418920D01*
X488860D01*
Y416920D01*
X489859D01*
X490260Y417319D02*
Y416719D01*
X491460D01*
Y417319D01*
X492060D01*
Y418519D01*
X491460D01*
Y419120D01*
X490260D01*
Y418519D01*
X489660D01*
Y417319D01*
X490260D01*
X525907Y428152D02*
Y427152D01*
X527907D01*
Y428152D01*
X528907D01*
Y430152D01*
X527907D01*
Y431152D01*
X525907D01*
Y430152D01*
X524907D01*
Y428152D01*
X525907D01*
X526307Y428552D02*
Y427952D01*
X527507D01*
Y428552D01*
X528107D01*
Y429752D01*
X527507D01*
Y430352D01*
X526307D01*
Y429752D01*
X525707D01*
Y428552D01*
X526307D01*
X525907Y425344D02*
Y424344D01*
X527907D01*
Y425344D01*
X528907D01*
Y427344D01*
X527907D01*
Y428344D01*
X525907D01*
Y427344D01*
X524907D01*
Y425344D01*
X525907D01*
X526307Y425744D02*
Y425144D01*
X527507D01*
Y425744D01*
X528107D01*
Y426944D01*
X527507D01*
Y427544D01*
X526307D01*
Y426944D01*
X525707D01*
Y425744D01*
X526307D01*
X525907Y422536D02*
Y421536D01*
X527907D01*
Y422536D01*
X528907D01*
Y424536D01*
X527907D01*
Y425536D01*
X525907D01*
Y424536D01*
X524907D01*
Y422536D01*
X525907D01*
X526307Y422936D02*
Y422336D01*
X527507D01*
Y422936D01*
X528107D01*
Y424136D01*
X527507D01*
Y424736D01*
X526307D01*
Y424136D01*
X525707D01*
Y422936D01*
X526307D01*
X525907Y430960D02*
Y429960D01*
X527907D01*
Y430960D01*
X528907D01*
Y432960D01*
X527907D01*
Y433960D01*
X525907D01*
Y432960D01*
X524907D01*
Y430960D01*
X525907D01*
X526307Y431360D02*
Y430760D01*
X527507D01*
Y431360D01*
X528107D01*
Y432560D01*
X527507D01*
Y433160D01*
X526307D01*
Y432560D01*
X525707D01*
Y431360D01*
X526307D01*
X525907Y419728D02*
Y418728D01*
X527907D01*
Y419728D01*
X528907D01*
Y421728D01*
X527907D01*
Y422728D01*
X525907D01*
Y421728D01*
X524907D01*
Y419728D01*
X525907D01*
X526307Y420128D02*
Y419528D01*
X527507D01*
Y420128D01*
X528107D01*
Y421328D01*
X527507D01*
Y421928D01*
X526307D01*
Y421328D01*
X525707D01*
Y420128D01*
X526307D01*
X525907Y416920D02*
Y415919D01*
X527907D01*
Y416920D01*
X528907D01*
Y418920D01*
X527907D01*
Y419919D01*
X525907D01*
Y418920D01*
X524907D01*
Y416920D01*
X525907D01*
X526307Y417319D02*
Y416719D01*
X527507D01*
Y417319D01*
X528107D01*
Y418519D01*
X527507D01*
Y419120D01*
X526307D01*
Y418519D01*
X525707D01*
Y417319D01*
X526307D01*
X525907Y414111D02*
Y413111D01*
X527907D01*
Y414111D01*
X528907D01*
Y416111D01*
X527907D01*
Y417111D01*
X525907D01*
Y416111D01*
X524907D01*
Y414111D01*
X525907D01*
X526307Y414511D02*
Y413911D01*
X527507D01*
Y414511D01*
X528107D01*
Y415711D01*
X527507D01*
Y416311D01*
X526307D01*
Y415711D01*
X525707D01*
Y414511D01*
X526307D01*
X525907Y411303D02*
Y410303D01*
X527907D01*
Y411303D01*
X528907D01*
Y413303D01*
X527907D01*
Y414303D01*
X525907D01*
Y413303D01*
X524907D01*
Y411303D01*
X525907D01*
X526307Y411703D02*
Y411103D01*
X527507D01*
Y411703D01*
X528107D01*
Y412903D01*
X527507D01*
Y413503D01*
X526307D01*
Y412903D01*
X525707D01*
Y411703D01*
X526307D01*
X488407Y404020D02*
Y403020D01*
X490407D01*
Y404020D01*
X491407D01*
Y406020D01*
X490407D01*
Y407020D01*
X488407D01*
Y406020D01*
X487407D01*
Y404020D01*
X488407D01*
X488807Y404420D02*
Y403820D01*
X490007D01*
Y404420D01*
X490607D01*
Y405620D01*
X490007D01*
Y406220D01*
X488807D01*
Y405620D01*
X488207D01*
Y404420D01*
X488807D01*
X349641Y696146D02*
Y695146D01*
X351641D01*
Y696146D01*
X352641D01*
Y698146D01*
X351641D01*
Y699146D01*
X349641D01*
Y698146D01*
X348641D01*
Y696146D01*
X349641D01*
X350041Y696546D02*
Y695946D01*
X351241D01*
Y696546D01*
X351841D01*
Y697746D01*
X351241D01*
Y698346D01*
X350041D01*
Y697746D01*
X349441D01*
Y696546D01*
X350041D01*
X421426Y736853D02*
Y735853D01*
X423426D01*
Y736853D01*
X424426D01*
Y738853D01*
X423426D01*
Y739853D01*
X421426D01*
Y738853D01*
X420426D01*
Y736853D01*
X421426D01*
X421826Y737253D02*
Y736653D01*
X423026D01*
Y737253D01*
X423626D01*
Y738453D01*
X423026D01*
Y739053D01*
X421826D01*
Y738453D01*
X421226D01*
Y737253D01*
X421826D01*
X418373Y737031D02*
Y736031D01*
X420373D01*
Y737031D01*
X421373D01*
Y739031D01*
X420373D01*
Y740031D01*
X418373D01*
Y739031D01*
X417373D01*
Y737031D01*
X418373D01*
X418773Y737431D02*
Y736831D01*
X419973D01*
Y737431D01*
X420573D01*
Y738631D01*
X419973D01*
Y739231D01*
X418773D01*
Y738631D01*
X418173D01*
Y737431D01*
X418773D01*
X447425Y714631D02*
Y713631D01*
X449425D01*
Y714631D01*
X450425D01*
Y716631D01*
X449425D01*
Y717631D01*
X447425D01*
Y716631D01*
X446425D01*
Y714631D01*
X447425D01*
X447825Y715031D02*
Y714431D01*
X449025D01*
Y715031D01*
X449625D01*
Y716231D01*
X449025D01*
Y716831D01*
X447825D01*
Y716231D01*
X447225D01*
Y715031D01*
X447825D01*
X413076Y701923D02*
Y700923D01*
X415076D01*
Y701923D01*
X416076D01*
Y703923D01*
X415076D01*
Y704923D01*
X413076D01*
Y703923D01*
X412076D01*
Y701923D01*
X413076D01*
X413476Y702323D02*
Y701723D01*
X414676D01*
Y702323D01*
X415276D01*
Y703523D01*
X414676D01*
Y704123D01*
X413476D01*
Y703523D01*
X412876D01*
Y702323D01*
X413476D01*
X405594Y680293D02*
Y679293D01*
X407594D01*
Y680293D01*
X408595D01*
Y682293D01*
X407594D01*
Y683293D01*
X405594D01*
Y682293D01*
X404595D01*
Y680293D01*
X405594D01*
X405995Y680693D02*
Y680093D01*
X407195D01*
Y680693D01*
X407795D01*
Y681893D01*
X407195D01*
Y682493D01*
X405995D01*
Y681893D01*
X405395D01*
Y680693D01*
X405995D01*
X443833Y551217D02*
Y550217D01*
X445833D01*
Y551217D01*
X446833D01*
Y553217D01*
X445833D01*
Y554217D01*
X443833D01*
Y553217D01*
X442833D01*
Y551217D01*
X443833D01*
X444233Y551617D02*
Y551017D01*
X445433D01*
Y551617D01*
X446033D01*
Y552817D01*
X445433D01*
Y553417D01*
X444233D01*
Y552817D01*
X443633D01*
Y551617D01*
X444233D01*
X346342Y692504D02*
Y691504D01*
X348342D01*
Y692504D01*
X349342D01*
Y694504D01*
X348342D01*
Y695504D01*
X346342D01*
Y694504D01*
X345342D01*
Y692504D01*
X346342D01*
X346743Y692904D02*
Y692304D01*
X347942D01*
Y692904D01*
X348542D01*
Y694104D01*
X347942D01*
Y694704D01*
X346743D01*
Y694104D01*
X346143D01*
Y692904D01*
X346743D01*
X368074Y647320D02*
Y646320D01*
X370074D01*
Y647320D01*
X371074D01*
Y649320D01*
X370074D01*
Y650320D01*
X368074D01*
Y649320D01*
X367074D01*
Y647320D01*
X368074D01*
X368474Y647720D02*
Y647120D01*
X369674D01*
Y647720D01*
X370274D01*
Y648920D01*
X369674D01*
Y649520D01*
X368474D01*
Y648920D01*
X367874D01*
Y647720D01*
X368474D01*
X368074Y654509D02*
Y653509D01*
X370074D01*
Y654509D01*
X371074D01*
Y656509D01*
X370074D01*
Y657509D01*
X368074D01*
Y656509D01*
X367074D01*
Y654509D01*
X368074D01*
X368474Y654909D02*
Y654309D01*
X369674D01*
Y654909D01*
X370274D01*
Y656109D01*
X369674D01*
Y656709D01*
X368474D01*
Y656109D01*
X367874D01*
Y654909D01*
X368474D01*
X428823Y572425D02*
Y571425D01*
X430823D01*
Y572425D01*
X431823D01*
Y574425D01*
X430823D01*
Y575425D01*
X428823D01*
Y574425D01*
X427823D01*
Y572425D01*
X428823D01*
X429223Y572825D02*
Y572225D01*
X430423D01*
Y572825D01*
X431023D01*
Y574025D01*
X430423D01*
Y574625D01*
X429223D01*
Y574025D01*
X428623D01*
Y572825D01*
X429223D01*
X441353Y575617D02*
Y574617D01*
X443353D01*
Y575617D01*
X444353D01*
Y577617D01*
X443353D01*
Y578617D01*
X441353D01*
Y577617D01*
X440353D01*
Y575617D01*
X441353D01*
X441753Y576017D02*
Y575417D01*
X442953D01*
Y576017D01*
X443553D01*
Y577217D01*
X442953D01*
Y577817D01*
X441753D01*
Y577217D01*
X441153D01*
Y576017D01*
X441753D01*
X387587Y681082D02*
Y680083D01*
X389587D01*
Y681082D01*
X390587D01*
Y683082D01*
X389587D01*
Y684083D01*
X387587D01*
Y683082D01*
X386587D01*
Y681082D01*
X387587D01*
X387987Y681483D02*
Y680883D01*
X389187D01*
Y681483D01*
X389787D01*
Y682683D01*
X389187D01*
Y683283D01*
X387987D01*
Y682683D01*
X387387D01*
Y681483D01*
X387987D01*
X383055Y681082D02*
Y680083D01*
X385055D01*
Y681082D01*
X386055D01*
Y683082D01*
X385055D01*
Y684083D01*
X383055D01*
Y683082D01*
X382055D01*
Y681082D01*
X383055D01*
X383455Y681483D02*
Y680883D01*
X384655D01*
Y681483D01*
X385255D01*
Y682683D01*
X384655D01*
Y683283D01*
X383455D01*
Y682683D01*
X382855D01*
Y681483D01*
X383455D01*
X453964Y563623D02*
Y562623D01*
X455964D01*
Y563623D01*
X456963D01*
Y565623D01*
X455964D01*
Y566623D01*
X453964D01*
Y565623D01*
X452963D01*
Y563623D01*
X453964D01*
X454363Y564023D02*
Y563423D01*
X455563D01*
Y564023D01*
X456164D01*
Y565223D01*
X455563D01*
Y565823D01*
X454363D01*
Y565223D01*
X453763D01*
Y564023D01*
X454363D01*
X441520Y571343D02*
Y570342D01*
X443520D01*
Y571343D01*
X444520D01*
Y573343D01*
X443520D01*
Y574342D01*
X441520D01*
Y573343D01*
X440520D01*
Y571343D01*
X441520D01*
X441920Y571742D02*
Y571142D01*
X443120D01*
Y571742D01*
X443720D01*
Y572942D01*
X443120D01*
Y573542D01*
X441920D01*
Y572942D01*
X441320D01*
Y571742D01*
X441920D01*
X446146Y571205D02*
Y570205D01*
X448146D01*
Y571205D01*
X449146D01*
Y573205D01*
X448146D01*
Y574205D01*
X446146D01*
Y573205D01*
X445146D01*
Y571205D01*
X446146D01*
X446546Y571605D02*
Y571005D01*
X447746D01*
Y571605D01*
X448346D01*
Y572805D01*
X447746D01*
Y573405D01*
X446546D01*
Y572805D01*
X445946D01*
Y571605D01*
X446546D01*
X402248Y542110D02*
Y541110D01*
X404248D01*
Y542110D01*
X405248D01*
Y544110D01*
X404248D01*
Y545110D01*
X402248D01*
Y544110D01*
X401248D01*
Y542110D01*
X402248D01*
X402648Y542510D02*
Y541910D01*
X403848D01*
Y542510D01*
X404448D01*
Y543710D01*
X403848D01*
Y544310D01*
X402648D01*
Y543710D01*
X402048D01*
Y542510D01*
X402648D01*
X397917Y542110D02*
Y541110D01*
X399917D01*
Y542110D01*
X400917D01*
Y544110D01*
X399917D01*
Y545110D01*
X397917D01*
Y544110D01*
X396917D01*
Y542110D01*
X397917D01*
X398317Y542510D02*
Y541910D01*
X399517D01*
Y542510D01*
X400117D01*
Y543710D01*
X399517D01*
Y544310D01*
X398317D01*
Y543710D01*
X397717D01*
Y542510D01*
X398317D01*
X368587Y401413D02*
Y400413D01*
X370587D01*
Y401413D01*
X371587D01*
Y403413D01*
X370587D01*
Y404413D01*
X368587D01*
Y403413D01*
X367587D01*
Y401413D01*
X368587D01*
X368987Y401813D02*
Y401213D01*
X370187D01*
Y401813D01*
X370787D01*
Y403013D01*
X370187D01*
Y403613D01*
X368987D01*
Y403013D01*
X368387D01*
Y401813D01*
X368987D01*
X474787Y398854D02*
Y397854D01*
X476787D01*
Y398854D01*
X477787D01*
Y400854D01*
X476787D01*
Y401854D01*
X474787D01*
Y400854D01*
X473787D01*
Y398854D01*
X474787D01*
X475187Y399254D02*
Y398654D01*
X476387D01*
Y399254D01*
X476987D01*
Y400454D01*
X476387D01*
Y401054D01*
X475187D01*
Y400454D01*
X474587D01*
Y399254D01*
X475187D01*
X447917Y376458D02*
Y375458D01*
X449917D01*
Y376458D01*
X450917D01*
Y378458D01*
X449917D01*
Y379458D01*
X447917D01*
Y378458D01*
X446917D01*
Y376458D01*
X447917D01*
X448317Y376858D02*
Y376258D01*
X449517D01*
Y376858D01*
X450117D01*
Y378058D01*
X449517D01*
Y378658D01*
X448317D01*
Y378058D01*
X447717D01*
Y376858D01*
X448317D01*
X489551Y358449D02*
Y357449D01*
X491551D01*
Y358449D01*
X492551D01*
Y360449D01*
X491551D01*
Y361449D01*
X489551D01*
Y360449D01*
X488551D01*
Y358449D01*
X489551D01*
X489951Y358849D02*
Y358249D01*
X491151D01*
Y358849D01*
X491751D01*
Y360049D01*
X491151D01*
Y360649D01*
X489951D01*
Y360049D01*
X489351D01*
Y358849D01*
X489951D01*
X421246Y380778D02*
Y379778D01*
X423246D01*
Y380778D01*
X424247D01*
Y382778D01*
X423246D01*
Y383778D01*
X421246D01*
Y382778D01*
X420247D01*
Y380778D01*
X421246D01*
X421646Y381178D02*
Y380578D01*
X422847D01*
Y381178D01*
X423447D01*
Y382378D01*
X422847D01*
Y382978D01*
X421646D01*
Y382378D01*
X421046D01*
Y381178D01*
X421646D01*
X423606Y380778D02*
Y379778D01*
X425606D01*
Y380778D01*
X426606D01*
Y382778D01*
X425606D01*
Y383778D01*
X423606D01*
Y382778D01*
X422606D01*
Y380778D01*
X423606D01*
X424006Y381178D02*
Y380578D01*
X425206D01*
Y381178D01*
X425806D01*
Y382378D01*
X425206D01*
Y382978D01*
X424006D01*
Y382378D01*
X423406D01*
Y381178D01*
X424006D01*
X421246Y383494D02*
Y382494D01*
X423246D01*
Y383494D01*
X424247D01*
Y385494D01*
X423246D01*
Y386494D01*
X421246D01*
Y385494D01*
X420247D01*
Y383494D01*
X421246D01*
X421646Y383894D02*
Y383294D01*
X422847D01*
Y383894D01*
X423447D01*
Y385094D01*
X422847D01*
Y385694D01*
X421646D01*
Y385094D01*
X421046D01*
Y383894D01*
X421646D01*
X423606Y383494D02*
Y382494D01*
X425606D01*
Y383494D01*
X426606D01*
Y385494D01*
X425606D01*
Y386494D01*
X423606D01*
Y385494D01*
X422606D01*
Y383494D01*
X423606D01*
X424006Y383894D02*
Y383294D01*
X425206D01*
Y383894D01*
X425806D01*
Y385094D01*
X425206D01*
Y385694D01*
X424006D01*
Y385094D01*
X423406D01*
Y383894D01*
X424006D01*
X423606Y386303D02*
Y385303D01*
X425606D01*
Y386303D01*
X426606D01*
Y388303D01*
X425606D01*
Y389303D01*
X423606D01*
Y388303D01*
X422606D01*
Y386303D01*
X423606D01*
X424006Y386703D02*
Y386103D01*
X425206D01*
Y386703D01*
X425806D01*
Y387903D01*
X425206D01*
Y388503D01*
X424006D01*
Y387903D01*
X423406D01*
Y386703D01*
X424006D01*
X421246Y386303D02*
Y385303D01*
X423246D01*
Y386303D01*
X424247D01*
Y388303D01*
X423246D01*
Y389303D01*
X421246D01*
Y388303D01*
X420247D01*
Y386303D01*
X421246D01*
X421646Y386703D02*
Y386103D01*
X422847D01*
Y386703D01*
X423447D01*
Y387903D01*
X422847D01*
Y388503D01*
X421646D01*
Y387903D01*
X421046D01*
Y386703D01*
X421646D01*
X462386Y370571D02*
Y369571D01*
X464386D01*
Y370571D01*
X465386D01*
Y372571D01*
X464386D01*
Y373571D01*
X462386D01*
Y372571D01*
X461386D01*
Y370571D01*
X462386D01*
X462786Y370971D02*
Y370371D01*
X463986D01*
Y370971D01*
X464586D01*
Y372171D01*
X463986D01*
Y372771D01*
X462786D01*
Y372171D01*
X462186D01*
Y370971D01*
X462786D01*
X462386Y368050D02*
Y367050D01*
X464386D01*
Y368050D01*
X465386D01*
Y370050D01*
X464386D01*
Y371050D01*
X462386D01*
Y370050D01*
X461386D01*
Y368050D01*
X462386D01*
X462786Y368450D02*
Y367850D01*
X463986D01*
Y368450D01*
X464586D01*
Y369650D01*
X463986D01*
Y370250D01*
X462786D01*
Y369650D01*
X462186D01*
Y368450D01*
X462786D01*
X467661Y368050D02*
Y367050D01*
X469661D01*
Y368050D01*
X470661D01*
Y370050D01*
X469661D01*
Y371050D01*
X467661D01*
Y370050D01*
X466661D01*
Y368050D01*
X467661D01*
X468061Y368450D02*
Y367850D01*
X469261D01*
Y368450D01*
X469861D01*
Y369650D01*
X469261D01*
Y370250D01*
X468061D01*
Y369650D01*
X467461D01*
Y368450D01*
X468061D01*
X465024Y368050D02*
Y367050D01*
X467024D01*
Y368050D01*
X468024D01*
Y370050D01*
X467024D01*
Y371050D01*
X465024D01*
Y370050D01*
X464024D01*
Y368050D01*
X465024D01*
X465424Y368450D02*
Y367850D01*
X466624D01*
Y368450D01*
X467224D01*
Y369650D01*
X466624D01*
Y370250D01*
X465424D01*
Y369650D01*
X464824D01*
Y368450D01*
X465424D01*
X467661Y370571D02*
Y369571D01*
X469661D01*
Y370571D01*
X470661D01*
Y372571D01*
X469661D01*
Y373571D01*
X467661D01*
Y372571D01*
X466661D01*
Y370571D01*
X467661D01*
X468061Y370971D02*
Y370371D01*
X469261D01*
Y370971D01*
X469861D01*
Y372171D01*
X469261D01*
Y372771D01*
X468061D01*
Y372171D01*
X467461D01*
Y370971D01*
X468061D01*
X465024Y370571D02*
Y369571D01*
X467024D01*
Y370571D01*
X468024D01*
Y372571D01*
X467024D01*
Y373571D01*
X465024D01*
Y372571D01*
X464024D01*
Y370571D01*
X465024D01*
X465424Y370971D02*
Y370371D01*
X466624D01*
Y370971D01*
X467224D01*
Y372171D01*
X466624D01*
Y372771D01*
X465424D01*
Y372171D01*
X464824D01*
Y370971D01*
X465424D01*
X465024Y375613D02*
Y374613D01*
X467024D01*
Y375613D01*
X468024D01*
Y377613D01*
X467024D01*
Y378613D01*
X465024D01*
Y377613D01*
X464024D01*
Y375613D01*
X465024D01*
X465424Y376013D02*
Y375413D01*
X466624D01*
Y376013D01*
X467224D01*
Y377213D01*
X466624D01*
Y377813D01*
X465424D01*
Y377213D01*
X464824D01*
Y376013D01*
X465424D01*
X462386Y375613D02*
Y374613D01*
X464386D01*
Y375613D01*
X465386D01*
Y377613D01*
X464386D01*
Y378613D01*
X462386D01*
Y377613D01*
X461386D01*
Y375613D01*
X462386D01*
X462786Y376013D02*
Y375413D01*
X463986D01*
Y376013D01*
X464586D01*
Y377213D01*
X463986D01*
Y377813D01*
X462786D01*
Y377213D01*
X462186D01*
Y376013D01*
X462786D01*
X465024Y378134D02*
Y377134D01*
X467024D01*
Y378134D01*
X468024D01*
Y380134D01*
X467024D01*
Y381134D01*
X465024D01*
Y380134D01*
X464024D01*
Y378134D01*
X465024D01*
X465424Y378534D02*
Y377934D01*
X466624D01*
Y378534D01*
X467224D01*
Y379734D01*
X466624D01*
Y380334D01*
X465424D01*
Y379734D01*
X464824D01*
Y378534D01*
X465424D01*
X462386Y378134D02*
Y377134D01*
X464386D01*
Y378134D01*
X465386D01*
Y380134D01*
X464386D01*
Y381134D01*
X462386D01*
Y380134D01*
X461386D01*
Y378134D01*
X462386D01*
X462786Y378534D02*
Y377934D01*
X463986D01*
Y378534D01*
X464586D01*
Y379734D01*
X463986D01*
Y380334D01*
X462786D01*
Y379734D01*
X462186D01*
Y378534D01*
X462786D01*
X467661Y378134D02*
Y377134D01*
X469661D01*
Y378134D01*
X470661D01*
Y380134D01*
X469661D01*
Y381134D01*
X467661D01*
Y380134D01*
X466661D01*
Y378134D01*
X467661D01*
X468061Y378534D02*
Y377934D01*
X469261D01*
Y378534D01*
X469861D01*
Y379734D01*
X469261D01*
Y380334D01*
X468061D01*
Y379734D01*
X467461D01*
Y378534D01*
X468061D01*
X467661Y375613D02*
Y374613D01*
X469661D01*
Y375613D01*
X470661D01*
Y377613D01*
X469661D01*
Y378613D01*
X467661D01*
Y377613D01*
X466661D01*
Y375613D01*
X467661D01*
X468061Y376013D02*
Y375413D01*
X469261D01*
Y376013D01*
X469861D01*
Y377213D01*
X469261D01*
Y377813D01*
X468061D01*
Y377213D01*
X467461D01*
Y376013D01*
X468061D01*
X467661Y373092D02*
Y372092D01*
X469661D01*
Y373092D01*
X470661D01*
Y375092D01*
X469661D01*
Y376092D01*
X467661D01*
Y375092D01*
X466661D01*
Y373092D01*
X467661D01*
X468061Y373492D02*
Y372892D01*
X469261D01*
Y373492D01*
X469861D01*
Y374692D01*
X469261D01*
Y375292D01*
X468061D01*
Y374692D01*
X467461D01*
Y373492D01*
X468061D01*
X462386Y373092D02*
Y372092D01*
X464386D01*
Y373092D01*
X465386D01*
Y375092D01*
X464386D01*
Y376092D01*
X462386D01*
Y375092D01*
X461386D01*
Y373092D01*
X462386D01*
X462786Y373492D02*
Y372892D01*
X463986D01*
Y373492D01*
X464586D01*
Y374692D01*
X463986D01*
Y375292D01*
X462786D01*
Y374692D01*
X462186D01*
Y373492D01*
X462786D01*
X465024Y373092D02*
Y372092D01*
X467024D01*
Y373092D01*
X468024D01*
Y375092D01*
X467024D01*
Y376092D01*
X465024D01*
Y375092D01*
X464024D01*
Y373092D01*
X465024D01*
X465424Y373492D02*
Y372892D01*
X466624D01*
Y373492D01*
X467224D01*
Y374692D01*
X466624D01*
Y375292D01*
X465424D01*
Y374692D01*
X464824D01*
Y373492D01*
X465424D01*
X405299Y395910D02*
Y394910D01*
X407299D01*
Y395910D01*
X408299D01*
Y397909D01*
X407299D01*
Y398909D01*
X405299D01*
Y397909D01*
X404299D01*
Y395910D01*
X405299D01*
X405699Y396309D02*
Y395709D01*
X406899D01*
Y396309D01*
X407499D01*
Y397510D01*
X406899D01*
Y398110D01*
X405699D01*
Y397510D01*
X405099D01*
Y396309D01*
X405699D01*
X405299Y391579D02*
Y390579D01*
X407299D01*
Y391579D01*
X408299D01*
Y393579D01*
X407299D01*
Y394579D01*
X405299D01*
Y393579D01*
X404299D01*
Y391579D01*
X405299D01*
X405699Y391979D02*
Y391379D01*
X406899D01*
Y391979D01*
X407499D01*
Y393179D01*
X406899D01*
Y393779D01*
X405699D01*
Y393179D01*
X405099D01*
Y391979D01*
X405699D01*
X433941Y369965D02*
Y368965D01*
X435941D01*
Y369965D01*
X436941D01*
Y371965D01*
X435941D01*
Y372965D01*
X433941D01*
Y371965D01*
X432941D01*
Y369965D01*
X433941D01*
X434341Y370365D02*
Y369765D01*
X435541D01*
Y370365D01*
X436141D01*
Y371565D01*
X435541D01*
Y372165D01*
X434341D01*
Y371565D01*
X433741D01*
Y370365D01*
X434341D01*
X429610Y369965D02*
Y368965D01*
X431610D01*
Y369965D01*
X432610D01*
Y371965D01*
X431610D01*
Y372965D01*
X429610D01*
Y371965D01*
X428610D01*
Y369965D01*
X429610D01*
X430010Y370365D02*
Y369765D01*
X431210D01*
Y370365D01*
X431810D01*
Y371565D01*
X431210D01*
Y372165D01*
X430010D01*
Y371565D01*
X429410D01*
Y370365D01*
X430010D01*
X403035Y713156D02*
Y712156D01*
X405035D01*
Y713156D01*
X406035D01*
Y715156D01*
X405035D01*
Y716156D01*
X403035D01*
Y715156D01*
X402035D01*
Y713156D01*
X403035D01*
X403435Y713556D02*
Y712956D01*
X404635D01*
Y713556D01*
X405235D01*
Y714756D01*
X404635D01*
Y715356D01*
X403435D01*
Y714756D01*
X402835D01*
Y713556D01*
X403435D01*
X445850Y545063D02*
Y544063D01*
X447850D01*
Y545063D01*
X448850D01*
Y547063D01*
X447850D01*
Y548063D01*
X445850D01*
Y547063D01*
X444850D01*
Y545063D01*
X445850D01*
X446250Y545463D02*
Y544863D01*
X447450D01*
Y545463D01*
X448050D01*
Y546663D01*
X447450D01*
Y547263D01*
X446250D01*
Y546663D01*
X445650D01*
Y545463D01*
X446250D01*
X431185Y546146D02*
Y545146D01*
X433185D01*
Y546146D01*
X434185D01*
Y548146D01*
X433185D01*
Y549146D01*
X431185D01*
Y548146D01*
X430185D01*
Y546146D01*
X431185D01*
X431585Y546546D02*
Y545946D01*
X432785D01*
Y546546D01*
X433385D01*
Y547746D01*
X432785D01*
Y548346D01*
X431585D01*
Y547746D01*
X430985D01*
Y546546D01*
X431585D01*
X438858Y603528D02*
Y602528D01*
X440858D01*
Y603528D01*
X441857D01*
Y605528D01*
X440858D01*
Y606528D01*
X438858D01*
Y605528D01*
X437857D01*
Y603528D01*
X438858D01*
X439257Y603928D02*
Y603328D01*
X440457D01*
Y603928D01*
X441057D01*
Y605128D01*
X440457D01*
Y605728D01*
X439257D01*
Y605128D01*
X438658D01*
Y603928D01*
X439257D01*
X442464Y603528D02*
Y602528D01*
X444464D01*
Y603528D01*
X445464D01*
Y605528D01*
X444464D01*
Y606528D01*
X442464D01*
Y605528D01*
X441464D01*
Y603528D01*
X442464D01*
X442864Y603928D02*
Y603328D01*
X444064D01*
Y603928D01*
X444664D01*
Y605128D01*
X444064D01*
Y605728D01*
X442864D01*
Y605128D01*
X442264D01*
Y603928D01*
X442864D01*
X446070Y603528D02*
Y602528D01*
X448070D01*
Y603528D01*
X449070D01*
Y605528D01*
X448070D01*
Y606528D01*
X446070D01*
Y605528D01*
X445070D01*
Y603528D01*
X446070D01*
X446470Y603928D02*
Y603328D01*
X447670D01*
Y603928D01*
X448270D01*
Y605128D01*
X447670D01*
Y605728D01*
X446470D01*
Y605128D01*
X445870D01*
Y603928D01*
X446470D01*
X449676Y603528D02*
Y602528D01*
X451676D01*
Y603528D01*
X452676D01*
Y605528D01*
X451676D01*
Y606528D01*
X449676D01*
Y605528D01*
X448676D01*
Y603528D01*
X449676D01*
X450076Y603928D02*
Y603328D01*
X451276D01*
Y603928D01*
X451876D01*
Y605128D01*
X451276D01*
Y605728D01*
X450076D01*
Y605128D01*
X449476D01*
Y603928D01*
X450076D01*
X480599Y764518D02*
Y763518D01*
X482599D01*
Y764518D01*
X483599D01*
Y766518D01*
X482599D01*
Y767518D01*
X480599D01*
Y766518D01*
X479599D01*
Y764518D01*
X480599D01*
X480999Y764918D02*
Y764318D01*
X482199D01*
Y764918D01*
X482799D01*
Y766118D01*
X482199D01*
Y766718D01*
X480999D01*
Y766118D01*
X480399D01*
Y764918D01*
X480999D01*
X479849Y760253D02*
Y759253D01*
X481849D01*
Y760253D01*
X482849D01*
Y762253D01*
X481849D01*
Y763253D01*
X479849D01*
Y762253D01*
X478849D01*
Y760253D01*
X479849D01*
X480249Y760653D02*
Y760053D01*
X481449D01*
Y760653D01*
X482049D01*
Y761853D01*
X481449D01*
Y762453D01*
X480249D01*
Y761853D01*
X479649D01*
Y760653D01*
X480249D01*
X482207Y756621D02*
Y755621D01*
X484207D01*
Y756621D01*
X485207D01*
Y758621D01*
X484207D01*
Y759621D01*
X482207D01*
Y758621D01*
X481207D01*
Y756621D01*
X482207D01*
X482607Y757021D02*
Y756421D01*
X483807D01*
Y757021D01*
X484407D01*
Y758221D01*
X483807D01*
Y758821D01*
X482607D01*
Y758221D01*
X482007D01*
Y757021D01*
X482607D01*
X482647Y752313D02*
Y751312D01*
X484647D01*
Y752313D01*
X485647D01*
Y754313D01*
X484647D01*
Y755312D01*
X482647D01*
Y754313D01*
X481647D01*
Y752313D01*
X482647D01*
X483047Y752712D02*
Y752112D01*
X484247D01*
Y752712D01*
X484847D01*
Y753912D01*
X484247D01*
Y754513D01*
X483047D01*
Y753912D01*
X482447D01*
Y752712D01*
X483047D01*
X482647Y747982D02*
Y746982D01*
X484647D01*
Y747982D01*
X485647D01*
Y749982D01*
X484647D01*
Y750982D01*
X482647D01*
Y749982D01*
X481647D01*
Y747982D01*
X482647D01*
X483047Y748382D02*
Y747782D01*
X484247D01*
Y748382D01*
X484847D01*
Y749582D01*
X484247D01*
Y750182D01*
X483047D01*
Y749582D01*
X482447D01*
Y748382D01*
X483047D01*
X482647Y743651D02*
Y742651D01*
X484647D01*
Y743651D01*
X485647D01*
Y745651D01*
X484647D01*
Y746651D01*
X482647D01*
Y745651D01*
X481647D01*
Y743651D01*
X482647D01*
X483047Y744051D02*
Y743451D01*
X484247D01*
Y744051D01*
X484847D01*
Y745251D01*
X484247D01*
Y745851D01*
X483047D01*
Y745251D01*
X482447D01*
Y744051D01*
X483047D01*
X482647Y739320D02*
Y738320D01*
X484647D01*
Y739320D01*
X485647D01*
Y741320D01*
X484647D01*
Y742320D01*
X482647D01*
Y741320D01*
X481647D01*
Y739320D01*
X482647D01*
X483047Y739720D02*
Y739120D01*
X484247D01*
Y739720D01*
X484847D01*
Y740920D01*
X484247D01*
Y741520D01*
X483047D01*
Y740920D01*
X482447D01*
Y739720D01*
X483047D01*
X482647Y734990D02*
Y733990D01*
X484647D01*
Y734990D01*
X485647D01*
Y736990D01*
X484647D01*
Y737990D01*
X482647D01*
Y736990D01*
X481647D01*
Y734990D01*
X482647D01*
X483047Y735390D02*
Y734790D01*
X484247D01*
Y735390D01*
X484847D01*
Y736590D01*
X484247D01*
Y737190D01*
X483047D01*
Y736590D01*
X482447D01*
Y735390D01*
X483047D01*
X482647Y730659D02*
Y729659D01*
X484647D01*
Y730659D01*
X485647D01*
Y732659D01*
X484647D01*
Y733659D01*
X482647D01*
Y732659D01*
X481647D01*
Y730659D01*
X482647D01*
X483047Y731059D02*
Y730459D01*
X484247D01*
Y731059D01*
X484847D01*
Y732259D01*
X484247D01*
Y732859D01*
X483047D01*
Y732259D01*
X482447D01*
Y731059D01*
X483047D01*
X482647Y726328D02*
Y725328D01*
X484647D01*
Y726328D01*
X485647D01*
Y728328D01*
X484647D01*
Y729328D01*
X482647D01*
Y728328D01*
X481647D01*
Y726328D01*
X482647D01*
X483047Y726728D02*
Y726128D01*
X484247D01*
Y726728D01*
X484847D01*
Y727928D01*
X484247D01*
Y728528D01*
X483047D01*
Y727928D01*
X482447D01*
Y726728D01*
X483047D01*
X482647Y721998D02*
Y720998D01*
X484647D01*
Y721998D01*
X485647D01*
Y723998D01*
X484647D01*
Y724998D01*
X482647D01*
Y723998D01*
X481647D01*
Y721998D01*
X482647D01*
X483047Y722398D02*
Y721798D01*
X484247D01*
Y722398D01*
X484847D01*
Y723598D01*
X484247D01*
Y724198D01*
X483047D01*
Y723598D01*
X482447D01*
Y722398D01*
X483047D01*
X482647Y717667D02*
Y716667D01*
X484647D01*
Y717667D01*
X485647D01*
Y719667D01*
X484647D01*
Y720667D01*
X482647D01*
Y719667D01*
X481647D01*
Y717667D01*
X482647D01*
X483047Y718067D02*
Y717467D01*
X484247D01*
Y718067D01*
X484847D01*
Y719267D01*
X484247D01*
Y719867D01*
X483047D01*
Y719267D01*
X482447D01*
Y718067D01*
X483047D01*
X482647Y713336D02*
Y712336D01*
X484647D01*
Y713336D01*
X485647D01*
Y715336D01*
X484647D01*
Y716336D01*
X482647D01*
Y715336D01*
X481647D01*
Y713336D01*
X482647D01*
X483047Y713736D02*
Y713136D01*
X484247D01*
Y713736D01*
X484847D01*
Y714936D01*
X484247D01*
Y715536D01*
X483047D01*
Y714936D01*
X482447D01*
Y713736D01*
X483047D01*
X482647Y709005D02*
Y708006D01*
X484647D01*
Y709005D01*
X485647D01*
Y711005D01*
X484647D01*
Y712006D01*
X482647D01*
Y711005D01*
X481647D01*
Y709005D01*
X482647D01*
X483047Y709406D02*
Y708806D01*
X484247D01*
Y709406D01*
X484847D01*
Y710605D01*
X484247D01*
Y711205D01*
X483047D01*
Y710605D01*
X482447D01*
Y709406D01*
X483047D01*
X482647Y704675D02*
Y703675D01*
X484647D01*
Y704675D01*
X485647D01*
Y706675D01*
X484647D01*
Y707675D01*
X482647D01*
Y706675D01*
X481647D01*
Y704675D01*
X482647D01*
X483047Y705075D02*
Y704475D01*
X484247D01*
Y705075D01*
X484847D01*
Y706275D01*
X484247D01*
Y706875D01*
X483047D01*
Y706275D01*
X482447D01*
Y705075D01*
X483047D01*
X482647Y700344D02*
Y699344D01*
X484647D01*
Y700344D01*
X485647D01*
Y702344D01*
X484647D01*
Y703344D01*
X482647D01*
Y702344D01*
X481647D01*
Y700344D01*
X482647D01*
X483047Y700744D02*
Y700144D01*
X484247D01*
Y700744D01*
X484847D01*
Y701944D01*
X484247D01*
Y702544D01*
X483047D01*
Y701944D01*
X482447D01*
Y700744D01*
X483047D01*
X482647Y696013D02*
Y695013D01*
X484647D01*
Y696013D01*
X485647D01*
Y698013D01*
X484647D01*
Y699013D01*
X482647D01*
Y698013D01*
X481647D01*
Y696013D01*
X482647D01*
X483047Y696413D02*
Y695813D01*
X484247D01*
Y696413D01*
X484847D01*
Y697613D01*
X484247D01*
Y698213D01*
X483047D01*
Y697613D01*
X482447D01*
Y696413D01*
X483047D01*
X482647Y691683D02*
Y690683D01*
X484647D01*
Y691683D01*
X485647D01*
Y693683D01*
X484647D01*
Y694683D01*
X482647D01*
Y693683D01*
X481647D01*
Y691683D01*
X482647D01*
X483047Y692083D02*
Y691483D01*
X484247D01*
Y692083D01*
X484847D01*
Y693283D01*
X484247D01*
Y693883D01*
X483047D01*
Y693283D01*
X482447D01*
Y692083D01*
X483047D01*
X482647Y687352D02*
Y686352D01*
X484647D01*
Y687352D01*
X485647D01*
Y689352D01*
X484647D01*
Y690352D01*
X482647D01*
Y689352D01*
X481647D01*
Y687352D01*
X482647D01*
X483047Y687752D02*
Y687152D01*
X484247D01*
Y687752D01*
X484847D01*
Y688952D01*
X484247D01*
Y689552D01*
X483047D01*
Y688952D01*
X482447D01*
Y687752D01*
X483047D01*
X482647Y683021D02*
Y682021D01*
X484647D01*
Y683021D01*
X485647D01*
Y685021D01*
X484647D01*
Y686021D01*
X482647D01*
Y685021D01*
X481647D01*
Y683021D01*
X482647D01*
X483047Y683421D02*
Y682821D01*
X484247D01*
Y683421D01*
X484847D01*
Y684621D01*
X484247D01*
Y685221D01*
X483047D01*
Y684621D01*
X482447D01*
Y683421D01*
X483047D01*
X482647Y678691D02*
Y677691D01*
X484647D01*
Y678691D01*
X485647D01*
Y680691D01*
X484647D01*
Y681691D01*
X482647D01*
Y680691D01*
X481647D01*
Y678691D01*
X482647D01*
X483047Y679091D02*
Y678491D01*
X484247D01*
Y679091D01*
X484847D01*
Y680291D01*
X484247D01*
Y680891D01*
X483047D01*
Y680291D01*
X482447D01*
Y679091D01*
X483047D01*
X482647Y674360D02*
Y673360D01*
X484647D01*
Y674360D01*
X485647D01*
Y676360D01*
X484647D01*
Y677360D01*
X482647D01*
Y676360D01*
X481647D01*
Y674360D01*
X482647D01*
X483047Y674760D02*
Y674160D01*
X484247D01*
Y674760D01*
X484847D01*
Y675960D01*
X484247D01*
Y676560D01*
X483047D01*
Y675960D01*
X482447D01*
Y674760D01*
X483047D01*
X482647Y670029D02*
Y669029D01*
X484647D01*
Y670029D01*
X485647D01*
Y672029D01*
X484647D01*
Y673029D01*
X482647D01*
Y672029D01*
X481647D01*
Y670029D01*
X482647D01*
X483047Y670429D02*
Y669829D01*
X484247D01*
Y670429D01*
X484847D01*
Y671629D01*
X484247D01*
Y672229D01*
X483047D01*
Y671629D01*
X482447D01*
Y670429D01*
X483047D01*
X482101Y665733D02*
Y664733D01*
X484101D01*
Y665733D01*
X485101D01*
Y667733D01*
X484101D01*
Y668733D01*
X482101D01*
Y667733D01*
X481101D01*
Y665733D01*
X482101D01*
X482501Y666133D02*
Y665533D01*
X483701D01*
Y666133D01*
X484301D01*
Y667333D01*
X483701D01*
Y667933D01*
X482501D01*
Y667333D01*
X481901D01*
Y666133D01*
X482501D01*
X480040Y661925D02*
Y660925D01*
X482040D01*
Y661925D01*
X483040D01*
Y663925D01*
X482040D01*
Y664925D01*
X480040D01*
Y663925D01*
X479040D01*
Y661925D01*
X480040D01*
X480440Y662325D02*
Y661725D01*
X481640D01*
Y662325D01*
X482240D01*
Y663525D01*
X481640D01*
Y664125D01*
X480440D01*
Y663525D01*
X479840D01*
Y662325D01*
X480440D01*
X476779Y659074D02*
Y658074D01*
X478779D01*
Y659074D01*
X479779D01*
Y661074D01*
X478779D01*
Y662074D01*
X476779D01*
Y661074D01*
X475779D01*
Y659074D01*
X476779D01*
X477179Y659474D02*
Y658874D01*
X478379D01*
Y659474D01*
X478979D01*
Y660674D01*
X478379D01*
Y661274D01*
X477179D01*
Y660674D01*
X476579D01*
Y659474D01*
X477179D01*
X472732Y657533D02*
Y656533D01*
X474732D01*
Y657533D01*
X475732D01*
Y659533D01*
X474732D01*
Y660533D01*
X472732D01*
Y659533D01*
X471732D01*
Y657533D01*
X472732D01*
X473132Y657933D02*
Y657333D01*
X474332D01*
Y657933D01*
X474932D01*
Y659133D01*
X474332D01*
Y659733D01*
X473132D01*
Y659133D01*
X472532D01*
Y657933D01*
X473132D01*
X468405Y657356D02*
Y656356D01*
X470405D01*
Y657356D01*
X471405D01*
Y659356D01*
X470405D01*
Y660356D01*
X468405D01*
Y659356D01*
X467405D01*
Y657356D01*
X468405D01*
X468805Y657756D02*
Y657156D01*
X470005D01*
Y657756D01*
X470605D01*
Y658956D01*
X470005D01*
Y659556D01*
X468805D01*
Y658956D01*
X468205D01*
Y657756D01*
X468805D01*
X455938Y655914D02*
Y654914D01*
X457938D01*
Y655914D01*
X458938D01*
Y657914D01*
X457938D01*
Y658914D01*
X455938D01*
Y657914D01*
X454938D01*
Y655914D01*
X455938D01*
X456338Y656314D02*
Y655714D01*
X457538D01*
Y656314D01*
X458138D01*
Y657514D01*
X457538D01*
Y658114D01*
X456338D01*
Y657514D01*
X455738D01*
Y656314D01*
X456338D01*
X469604Y651261D02*
Y650261D01*
X471604D01*
Y651261D01*
X472604D01*
Y653261D01*
X471604D01*
Y654261D01*
X469604D01*
Y653261D01*
X468604D01*
Y651261D01*
X469604D01*
X470004Y651661D02*
Y651061D01*
X471204D01*
Y651661D01*
X471804D01*
Y652861D01*
X471204D01*
Y653461D01*
X470004D01*
Y652861D01*
X469404D01*
Y651661D01*
X470004D01*
X473922Y651598D02*
Y650598D01*
X475922D01*
Y651598D01*
X476922D01*
Y653598D01*
X475922D01*
Y654598D01*
X473922D01*
Y653598D01*
X472922D01*
Y651598D01*
X473922D01*
X474322Y651998D02*
Y651398D01*
X475522D01*
Y651998D01*
X476122D01*
Y653198D01*
X475522D01*
Y653798D01*
X474322D01*
Y653198D01*
X473722D01*
Y651998D01*
X474322D01*
X478048Y652913D02*
Y651913D01*
X480048D01*
Y652913D01*
X481048D01*
Y654913D01*
X480048D01*
Y655913D01*
X478048D01*
Y654913D01*
X477048D01*
Y652913D01*
X478048D01*
X478448Y653313D02*
Y652713D01*
X479648D01*
Y653313D01*
X480248D01*
Y654513D01*
X479648D01*
Y655113D01*
X478448D01*
Y654513D01*
X477848D01*
Y653313D01*
X478448D01*
X481756Y655151D02*
Y654151D01*
X483756D01*
Y655151D01*
X484756D01*
Y657151D01*
X483756D01*
Y658151D01*
X481756D01*
Y657151D01*
X480756D01*
Y655151D01*
X481756D01*
X482156Y655551D02*
Y654951D01*
X483356D01*
Y655551D01*
X483956D01*
Y656751D01*
X483356D01*
Y657351D01*
X482156D01*
Y656751D01*
X481556D01*
Y655551D01*
X482156D01*
X484821Y658210D02*
Y657210D01*
X486821D01*
Y658210D01*
X487821D01*
Y660210D01*
X486821D01*
Y661210D01*
X484821D01*
Y660210D01*
X483821D01*
Y658210D01*
X484821D01*
X485221Y658610D02*
Y658010D01*
X486421D01*
Y658610D01*
X487021D01*
Y659810D01*
X486421D01*
Y660410D01*
X485221D01*
Y659810D01*
X484621D01*
Y658610D01*
X485221D01*
X487072Y661910D02*
Y660910D01*
X489072D01*
Y661910D01*
X490072D01*
Y663910D01*
X489072D01*
Y664910D01*
X487072D01*
Y663910D01*
X486072D01*
Y661910D01*
X487072D01*
X487472Y662310D02*
Y661710D01*
X488672D01*
Y662310D01*
X489272D01*
Y663510D01*
X488672D01*
Y664110D01*
X487472D01*
Y663510D01*
X486872D01*
Y662310D01*
X487472D01*
X488393Y666034D02*
Y665034D01*
X490393D01*
Y666034D01*
X491394D01*
Y668034D01*
X490393D01*
Y669034D01*
X488393D01*
Y668034D01*
X487394D01*
Y666034D01*
X488393D01*
X488794Y666434D02*
Y665834D01*
X489993D01*
Y666434D01*
X490593D01*
Y667634D01*
X489993D01*
Y668234D01*
X488794D01*
Y667634D01*
X488194D01*
Y666434D01*
X488794D01*
X488742Y670351D02*
Y669351D01*
X490742D01*
Y670351D01*
X491742D01*
Y672351D01*
X490742D01*
Y673351D01*
X488742D01*
Y672351D01*
X487742D01*
Y670351D01*
X488742D01*
X489142Y670751D02*
Y670151D01*
X490342D01*
Y670751D01*
X490942D01*
Y671951D01*
X490342D01*
Y672551D01*
X489142D01*
Y671951D01*
X488542D01*
Y670751D01*
X489142D01*
X488742Y674681D02*
Y673681D01*
X490742D01*
Y674681D01*
X491742D01*
Y676681D01*
X490742D01*
Y677681D01*
X488742D01*
Y676681D01*
X487742D01*
Y674681D01*
X488742D01*
X489142Y675081D02*
Y674481D01*
X490342D01*
Y675081D01*
X490942D01*
Y676281D01*
X490342D01*
Y676881D01*
X489142D01*
Y676281D01*
X488542D01*
Y675081D01*
X489142D01*
X488742Y679012D02*
Y678012D01*
X490742D01*
Y679012D01*
X491742D01*
Y681012D01*
X490742D01*
Y682012D01*
X488742D01*
Y681012D01*
X487742D01*
Y679012D01*
X488742D01*
X489142Y679412D02*
Y678812D01*
X490342D01*
Y679412D01*
X490942D01*
Y680612D01*
X490342D01*
Y681212D01*
X489142D01*
Y680612D01*
X488542D01*
Y679412D01*
X489142D01*
X488742Y683343D02*
Y682343D01*
X490742D01*
Y683343D01*
X491742D01*
Y685343D01*
X490742D01*
Y686343D01*
X488742D01*
Y685343D01*
X487742D01*
Y683343D01*
X488742D01*
X489142Y683743D02*
Y683143D01*
X490342D01*
Y683743D01*
X490942D01*
Y684943D01*
X490342D01*
Y685543D01*
X489142D01*
Y684943D01*
X488542D01*
Y683743D01*
X489142D01*
X488742Y687674D02*
Y686673D01*
X490742D01*
Y687674D01*
X491742D01*
Y689674D01*
X490742D01*
Y690673D01*
X488742D01*
Y689674D01*
X487742D01*
Y687674D01*
X488742D01*
X489142Y688073D02*
Y687473D01*
X490342D01*
Y688073D01*
X490942D01*
Y689274D01*
X490342D01*
Y689874D01*
X489142D01*
Y689274D01*
X488542D01*
Y688073D01*
X489142D01*
X488742Y692004D02*
Y691004D01*
X490742D01*
Y692004D01*
X491742D01*
Y694004D01*
X490742D01*
Y695004D01*
X488742D01*
Y694004D01*
X487742D01*
Y692004D01*
X488742D01*
X489142Y692404D02*
Y691804D01*
X490342D01*
Y692404D01*
X490942D01*
Y693604D01*
X490342D01*
Y694204D01*
X489142D01*
Y693604D01*
X488542D01*
Y692404D01*
X489142D01*
X488742Y696335D02*
Y695335D01*
X490742D01*
Y696335D01*
X491742D01*
Y698335D01*
X490742D01*
Y699335D01*
X488742D01*
Y698335D01*
X487742D01*
Y696335D01*
X488742D01*
X489142Y696735D02*
Y696135D01*
X490342D01*
Y696735D01*
X490942D01*
Y697935D01*
X490342D01*
Y698535D01*
X489142D01*
Y697935D01*
X488542D01*
Y696735D01*
X489142D01*
X488742Y700666D02*
Y699666D01*
X490742D01*
Y700666D01*
X491742D01*
Y702666D01*
X490742D01*
Y703666D01*
X488742D01*
Y702666D01*
X487742D01*
Y700666D01*
X488742D01*
X489142Y701066D02*
Y700466D01*
X490342D01*
Y701066D01*
X490942D01*
Y702266D01*
X490342D01*
Y702866D01*
X489142D01*
Y702266D01*
X488542D01*
Y701066D01*
X489142D01*
X488742Y704996D02*
Y703996D01*
X490742D01*
Y704996D01*
X491742D01*
Y706996D01*
X490742D01*
Y707996D01*
X488742D01*
Y706996D01*
X487742D01*
Y704996D01*
X488742D01*
X489142Y705396D02*
Y704796D01*
X490342D01*
Y705396D01*
X490942D01*
Y706596D01*
X490342D01*
Y707196D01*
X489142D01*
Y706596D01*
X488542D01*
Y705396D01*
X489142D01*
X488742Y709327D02*
Y708327D01*
X490742D01*
Y709327D01*
X491742D01*
Y711327D01*
X490742D01*
Y712327D01*
X488742D01*
Y711327D01*
X487742D01*
Y709327D01*
X488742D01*
X489142Y709727D02*
Y709127D01*
X490342D01*
Y709727D01*
X490942D01*
Y710927D01*
X490342D01*
Y711527D01*
X489142D01*
Y710927D01*
X488542D01*
Y709727D01*
X489142D01*
X488742Y713658D02*
Y712658D01*
X490742D01*
Y713658D01*
X491742D01*
Y715658D01*
X490742D01*
Y716658D01*
X488742D01*
Y715658D01*
X487742D01*
Y713658D01*
X488742D01*
X489142Y714058D02*
Y713458D01*
X490342D01*
Y714058D01*
X490942D01*
Y715258D01*
X490342D01*
Y715858D01*
X489142D01*
Y715258D01*
X488542D01*
Y714058D01*
X489142D01*
X488742Y717988D02*
Y716988D01*
X490742D01*
Y717988D01*
X491742D01*
Y719988D01*
X490742D01*
Y720988D01*
X488742D01*
Y719988D01*
X487742D01*
Y717988D01*
X488742D01*
X489142Y718388D02*
Y717788D01*
X490342D01*
Y718388D01*
X490942D01*
Y719588D01*
X490342D01*
Y720188D01*
X489142D01*
Y719588D01*
X488542D01*
Y718388D01*
X489142D01*
X488742Y722319D02*
Y721319D01*
X490742D01*
Y722319D01*
X491742D01*
Y724319D01*
X490742D01*
Y725319D01*
X488742D01*
Y724319D01*
X487742D01*
Y722319D01*
X488742D01*
X489142Y722719D02*
Y722119D01*
X490342D01*
Y722719D01*
X490942D01*
Y723919D01*
X490342D01*
Y724519D01*
X489142D01*
Y723919D01*
X488542D01*
Y722719D01*
X489142D01*
X488742Y726650D02*
Y725650D01*
X490742D01*
Y726650D01*
X491742D01*
Y728650D01*
X490742D01*
Y729650D01*
X488742D01*
Y728650D01*
X487742D01*
Y726650D01*
X488742D01*
X489142Y727050D02*
Y726450D01*
X490342D01*
Y727050D01*
X490942D01*
Y728250D01*
X490342D01*
Y728850D01*
X489142D01*
Y728250D01*
X488542D01*
Y727050D01*
X489142D01*
X488742Y730980D02*
Y729981D01*
X490742D01*
Y730980D01*
X491742D01*
Y732980D01*
X490742D01*
Y733981D01*
X488742D01*
Y732980D01*
X487742D01*
Y730980D01*
X488742D01*
X489142Y731381D02*
Y730781D01*
X490342D01*
Y731381D01*
X490942D01*
Y732581D01*
X490342D01*
Y733181D01*
X489142D01*
Y732581D01*
X488542D01*
Y731381D01*
X489142D01*
X488742Y735311D02*
Y734311D01*
X490742D01*
Y735311D01*
X491742D01*
Y737311D01*
X490742D01*
Y738311D01*
X488742D01*
Y737311D01*
X487742D01*
Y735311D01*
X488742D01*
X489142Y735711D02*
Y735111D01*
X490342D01*
Y735711D01*
X490942D01*
Y736911D01*
X490342D01*
Y737511D01*
X489142D01*
Y736911D01*
X488542D01*
Y735711D01*
X489142D01*
X488742Y739642D02*
Y738642D01*
X490742D01*
Y739642D01*
X491742D01*
Y741642D01*
X490742D01*
Y742642D01*
X488742D01*
Y741642D01*
X487742D01*
Y739642D01*
X488742D01*
X489142Y740042D02*
Y739442D01*
X490342D01*
Y740042D01*
X490942D01*
Y741242D01*
X490342D01*
Y741842D01*
X489142D01*
Y741242D01*
X488542D01*
Y740042D01*
X489142D01*
X488742Y743973D02*
Y742973D01*
X490742D01*
Y743973D01*
X491742D01*
Y745973D01*
X490742D01*
Y746973D01*
X488742D01*
Y745973D01*
X487742D01*
Y743973D01*
X488742D01*
X489142Y744373D02*
Y743773D01*
X490342D01*
Y744373D01*
X490942D01*
Y745573D01*
X490342D01*
Y746173D01*
X489142D01*
Y745573D01*
X488542D01*
Y744373D01*
X489142D01*
X488742Y748303D02*
Y747303D01*
X490742D01*
Y748303D01*
X491742D01*
Y750303D01*
X490742D01*
Y751303D01*
X488742D01*
Y750303D01*
X487742D01*
Y748303D01*
X488742D01*
X489142Y748703D02*
Y748103D01*
X490342D01*
Y748703D01*
X490942D01*
Y749903D01*
X490342D01*
Y750503D01*
X489142D01*
Y749903D01*
X488542D01*
Y748703D01*
X489142D01*
X488742Y752634D02*
Y751634D01*
X490742D01*
Y752634D01*
X491742D01*
Y754634D01*
X490742D01*
Y755634D01*
X488742D01*
Y754634D01*
X487742D01*
Y752634D01*
X488742D01*
X489142Y753034D02*
Y752434D01*
X490342D01*
Y753034D01*
X490942D01*
Y754234D01*
X490342D01*
Y754834D01*
X489142D01*
Y754234D01*
X488542D01*
Y753034D01*
X489142D01*
X489535Y756892D02*
Y755892D01*
X491535D01*
Y756892D01*
X492535D01*
Y758892D01*
X491535D01*
Y759892D01*
X489535D01*
Y758892D01*
X488535D01*
Y756892D01*
X489535D01*
X489935Y757292D02*
Y756692D01*
X491135D01*
Y757292D01*
X491735D01*
Y758492D01*
X491135D01*
Y759092D01*
X489935D01*
Y758492D01*
X489335D01*
Y757292D01*
X489935D01*
X491599Y760699D02*
Y759699D01*
X493599D01*
Y760699D01*
X494599D01*
Y762699D01*
X493599D01*
Y763699D01*
X491599D01*
Y762699D01*
X490599D01*
Y760699D01*
X491599D01*
X491999Y761099D02*
Y760499D01*
X493199D01*
Y761099D01*
X493799D01*
Y762299D01*
X493199D01*
Y762899D01*
X491999D01*
Y762299D01*
X491399D01*
Y761099D01*
X491999D01*
X490547Y764900D02*
Y763900D01*
X492547D01*
Y764900D01*
X493547D01*
Y766900D01*
X492547D01*
Y767900D01*
X490547D01*
Y766900D01*
X489547D01*
Y764900D01*
X490547D01*
X490947Y765300D02*
Y764700D01*
X492147D01*
Y765300D01*
X492747D01*
Y766500D01*
X492147D01*
Y767100D01*
X490947D01*
Y766500D01*
X490347D01*
Y765300D01*
X490947D01*
X358812Y369654D02*
X359812Y370654D01*
X360812D01*
X359812Y371654D01*
X360812Y372654D01*
X359812D01*
X358812Y373654D01*
X357812Y372654D01*
X356812D01*
X357812Y371654D01*
X356812Y370654D01*
X357812D01*
X358812Y369654D01*
Y370454D02*
X359412Y371054D01*
X360012D01*
X359412Y371654D01*
X360012Y372253D01*
X359412D01*
X358812Y372853D01*
X358212Y372253D01*
X357612D01*
X358212Y371654D01*
X357612Y371054D01*
X358212D01*
X358812Y370454D01*
X357526Y374453D02*
X358526Y375453D01*
X359526D01*
X358526Y376453D01*
X359526Y377453D01*
X358526D01*
X357526Y378453D01*
X356526Y377453D01*
X355526D01*
X356526Y376453D01*
X355526Y375453D01*
X356526D01*
X357526Y374453D01*
Y375253D02*
X358126Y375853D01*
X358726D01*
X358126Y376453D01*
X358726Y377053D01*
X358126D01*
X357526Y377653D01*
X356926Y377053D01*
X356326D01*
X356926Y376453D01*
X356326Y375853D01*
X356926D01*
X357526Y375253D01*
X354012Y377967D02*
X355012Y378967D01*
X356012D01*
X355012Y379967D01*
X356012Y380967D01*
X355012D01*
X354012Y381967D01*
X353012Y380967D01*
X352012D01*
X353012Y379967D01*
X352012Y378967D01*
X353012D01*
X354012Y377967D01*
Y378767D02*
X354612Y379367D01*
X355212D01*
X354612Y379967D01*
X355212Y380567D01*
X354612D01*
X354012Y381167D01*
X353412Y380567D01*
X352812D01*
X353412Y379967D01*
X352812Y379367D01*
X353412D01*
X354012Y378767D01*
X349213Y379253D02*
X350213Y380253D01*
X351213D01*
X350213Y381253D01*
X351213Y382253D01*
X350213D01*
X349213Y383253D01*
X348213Y382253D01*
X347213D01*
X348213Y381253D01*
X347213Y380253D01*
X348213D01*
X349213Y379253D01*
Y380053D02*
X349813Y380653D01*
X350413D01*
X349813Y381253D01*
X350413Y381853D01*
X349813D01*
X349213Y382453D01*
X348613Y381853D01*
X348013D01*
X348613Y381253D01*
X348013Y380653D01*
X348613D01*
X349213Y380053D01*
X344413Y377967D02*
X345413Y378967D01*
X346413D01*
X345413Y379967D01*
X346413Y380967D01*
X345413D01*
X344413Y381967D01*
X343413Y380967D01*
X342413D01*
X343413Y379967D01*
X342413Y378967D01*
X343413D01*
X344413Y377967D01*
Y378767D02*
X345013Y379367D01*
X345613D01*
X345013Y379967D01*
X345613Y380567D01*
X345013D01*
X344413Y381167D01*
X343813Y380567D01*
X343213D01*
X343813Y379967D01*
X343213Y379367D01*
X343813D01*
X344413Y378767D01*
X340899Y374453D02*
X341899Y375453D01*
X342899D01*
X341899Y376453D01*
X342899Y377453D01*
X341899D01*
X340899Y378453D01*
X339899Y377453D01*
X338899D01*
X339899Y376453D01*
X338899Y375453D01*
X339899D01*
X340899Y374453D01*
Y375253D02*
X341499Y375853D01*
X342099D01*
X341499Y376453D01*
X342099Y377053D01*
X341499D01*
X340899Y377653D01*
X340299Y377053D01*
X339699D01*
X340299Y376453D01*
X339699Y375853D01*
X340299D01*
X340899Y375253D01*
X339613Y369654D02*
X340613Y370654D01*
X341613D01*
X340613Y371654D01*
X341613Y372654D01*
X340613D01*
X339613Y373654D01*
X338613Y372654D01*
X337613D01*
X338613Y371654D01*
X337613Y370654D01*
X338613D01*
X339613Y369654D01*
Y370454D02*
X340213Y371054D01*
X340813D01*
X340213Y371654D01*
X340813Y372254D01*
X340213D01*
X339613Y372854D01*
X339013Y372254D01*
X338413D01*
X339013Y371654D01*
X338413Y371054D01*
X339013D01*
X339613Y370454D01*
X340899Y364854D02*
X341899Y365854D01*
X342899D01*
X341899Y366854D01*
X342899Y367854D01*
X341899D01*
X340899Y368854D01*
X339899Y367854D01*
X338899D01*
X339899Y366854D01*
X338899Y365854D01*
X339899D01*
X340899Y364854D01*
Y365654D02*
X341499Y366254D01*
X342099D01*
X341499Y366854D01*
X342099Y367454D01*
X341499D01*
X340899Y368054D01*
X340299Y367454D01*
X339699D01*
X340299Y366854D01*
X339699Y366254D01*
X340299D01*
X340899Y365654D01*
X344413Y361340D02*
X345413Y362340D01*
X346413D01*
X345413Y363340D01*
X346413Y364340D01*
X345413D01*
X344413Y365340D01*
X343413Y364340D01*
X342413D01*
X343413Y363340D01*
X342413Y362340D01*
X343413D01*
X344413Y361340D01*
Y362140D02*
X345013Y362740D01*
X345613D01*
X345013Y363340D01*
X345613Y363940D01*
X345013D01*
X344413Y364540D01*
X343813Y363940D01*
X343213D01*
X343813Y363340D01*
X343213Y362740D01*
X343813D01*
X344413Y362140D01*
X349213Y360054D02*
X350213Y361054D01*
X351213D01*
X350213Y362054D01*
X351213Y363054D01*
X350213D01*
X349213Y364054D01*
X348213Y363054D01*
X347213D01*
X348213Y362054D01*
X347213Y361054D01*
X348213D01*
X349213Y360054D01*
Y360854D02*
X349813Y361454D01*
X350413D01*
X349813Y362054D01*
X350413Y362654D01*
X349813D01*
X349213Y363254D01*
X348613Y362654D01*
X348013D01*
X348613Y362054D01*
X348013Y361454D01*
X348613D01*
X349213Y360854D01*
X354012Y361340D02*
X355012Y362340D01*
X356012D01*
X355012Y363340D01*
X356012Y364340D01*
X355012D01*
X354012Y365340D01*
X353012Y364340D01*
X352012D01*
X353012Y363340D01*
X352012Y362340D01*
X353012D01*
X354012Y361340D01*
Y362140D02*
X354612Y362740D01*
X355212D01*
X354612Y363340D01*
X355212Y363940D01*
X354612D01*
X354012Y364540D01*
X353412Y363940D01*
X352812D01*
X353412Y363340D01*
X352812Y362740D01*
X353412D01*
X354012Y362140D01*
X357526Y364854D02*
X358526Y365854D01*
X359526D01*
X358526Y366854D01*
X359526Y367854D01*
X358526D01*
X357526Y368854D01*
X356526Y367854D01*
X355526D01*
X356526Y366854D01*
X355526Y365854D01*
X356526D01*
X357526Y364854D01*
Y365654D02*
X358126Y366254D01*
X358726D01*
X358126Y366854D01*
X358726Y367454D01*
X358126D01*
X357526Y368054D01*
X356926Y367454D01*
X356326D01*
X356926Y366854D01*
X356326Y366254D01*
X356926D01*
X357526Y365654D01*
X524167Y369654D02*
X525167Y370654D01*
X526167D01*
X525167Y371654D01*
X526167Y372654D01*
X525167D01*
X524167Y373654D01*
X523167Y372654D01*
X522167D01*
X523167Y371654D01*
X522167Y370654D01*
X523167D01*
X524167Y369654D01*
Y370454D02*
X524767Y371054D01*
X525367D01*
X524767Y371654D01*
X525367Y372253D01*
X524767D01*
X524167Y372853D01*
X523567Y372253D01*
X522967D01*
X523567Y371654D01*
X522967Y371054D01*
X523567D01*
X524167Y370454D01*
X522881Y374453D02*
X523880Y375453D01*
X524881D01*
X523880Y376453D01*
X524881Y377453D01*
X523880D01*
X522881Y378453D01*
X521880Y377453D01*
X520881D01*
X521880Y376453D01*
X520881Y375453D01*
X521880D01*
X522881Y374453D01*
Y375253D02*
X523481Y375853D01*
X524081D01*
X523481Y376453D01*
X524081Y377053D01*
X523481D01*
X522881Y377653D01*
X522281Y377053D01*
X521680D01*
X522281Y376453D01*
X521680Y375853D01*
X522281D01*
X522881Y375253D01*
X519367Y377967D02*
X520367Y378967D01*
X521367D01*
X520367Y379967D01*
X521367Y380967D01*
X520367D01*
X519367Y381967D01*
X518367Y380967D01*
X517367D01*
X518367Y379967D01*
X517367Y378967D01*
X518367D01*
X519367Y377967D01*
Y378767D02*
X519967Y379367D01*
X520567D01*
X519967Y379967D01*
X520567Y380567D01*
X519967D01*
X519367Y381167D01*
X518767Y380567D01*
X518167D01*
X518767Y379967D01*
X518167Y379367D01*
X518767D01*
X519367Y378767D01*
X514567Y379253D02*
X515567Y380253D01*
X516567D01*
X515567Y381253D01*
X516567Y382253D01*
X515567D01*
X514567Y383253D01*
X513567Y382253D01*
X512567D01*
X513567Y381253D01*
X512567Y380253D01*
X513567D01*
X514567Y379253D01*
Y380053D02*
X515167Y380653D01*
X515767D01*
X515167Y381253D01*
X515767Y381853D01*
X515167D01*
X514567Y382453D01*
X513967Y381853D01*
X513367D01*
X513967Y381253D01*
X513367Y380653D01*
X513967D01*
X514567Y380053D01*
X509767Y377967D02*
X510767Y378967D01*
X511767D01*
X510767Y379967D01*
X511767Y380967D01*
X510767D01*
X509767Y381967D01*
X508767Y380967D01*
X507767D01*
X508767Y379967D01*
X507767Y378967D01*
X508767D01*
X509767Y377967D01*
Y378767D02*
X510367Y379367D01*
X510967D01*
X510367Y379967D01*
X510967Y380567D01*
X510367D01*
X509767Y381167D01*
X509167Y380567D01*
X508567D01*
X509167Y379967D01*
X508567Y379367D01*
X509167D01*
X509767Y378767D01*
X506253Y374453D02*
X507253Y375453D01*
X508253D01*
X507253Y376453D01*
X508253Y377453D01*
X507253D01*
X506253Y378453D01*
X505253Y377453D01*
X504253D01*
X505253Y376453D01*
X504253Y375453D01*
X505253D01*
X506253Y374453D01*
Y375253D02*
X506853Y375853D01*
X507453D01*
X506853Y376453D01*
X507453Y377053D01*
X506853D01*
X506253Y377653D01*
X505653Y377053D01*
X505053D01*
X505653Y376453D01*
X505053Y375853D01*
X505653D01*
X506253Y375253D01*
X504967Y369654D02*
X505967Y370654D01*
X506967D01*
X505967Y371654D01*
X506967Y372654D01*
X505967D01*
X504967Y373654D01*
X503967Y372654D01*
X502967D01*
X503967Y371654D01*
X502967Y370654D01*
X503967D01*
X504967Y369654D01*
Y370454D02*
X505567Y371054D01*
X506167D01*
X505567Y371654D01*
X506167Y372254D01*
X505567D01*
X504967Y372854D01*
X504367Y372254D01*
X503767D01*
X504367Y371654D01*
X503767Y371054D01*
X504367D01*
X504967Y370454D01*
X506253Y364854D02*
X507253Y365854D01*
X508253D01*
X507253Y366854D01*
X508253Y367854D01*
X507253D01*
X506253Y368854D01*
X505253Y367854D01*
X504253D01*
X505253Y366854D01*
X504253Y365854D01*
X505253D01*
X506253Y364854D01*
Y365654D02*
X506853Y366254D01*
X507453D01*
X506853Y366854D01*
X507453Y367454D01*
X506853D01*
X506253Y368054D01*
X505653Y367454D01*
X505053D01*
X505653Y366854D01*
X505053Y366254D01*
X505653D01*
X506253Y365654D01*
X509767Y361340D02*
X510767Y362340D01*
X511767D01*
X510767Y363340D01*
X511767Y364340D01*
X510767D01*
X509767Y365340D01*
X508767Y364340D01*
X507767D01*
X508767Y363340D01*
X507767Y362340D01*
X508767D01*
X509767Y361340D01*
Y362140D02*
X510367Y362740D01*
X510967D01*
X510367Y363340D01*
X510967Y363940D01*
X510367D01*
X509767Y364540D01*
X509167Y363940D01*
X508567D01*
X509167Y363340D01*
X508567Y362740D01*
X509167D01*
X509767Y362140D01*
X514567Y360054D02*
X515567Y361054D01*
X516567D01*
X515567Y362054D01*
X516567Y363054D01*
X515567D01*
X514567Y364054D01*
X513567Y363054D01*
X512567D01*
X513567Y362054D01*
X512567Y361054D01*
X513567D01*
X514567Y360054D01*
Y360854D02*
X515167Y361454D01*
X515767D01*
X515167Y362054D01*
X515767Y362654D01*
X515167D01*
X514567Y363254D01*
X513967Y362654D01*
X513367D01*
X513967Y362054D01*
X513367Y361454D01*
X513967D01*
X514567Y360854D01*
X519367Y361340D02*
X520367Y362340D01*
X521367D01*
X520367Y363340D01*
X521367Y364340D01*
X520367D01*
X519367Y365340D01*
X518367Y364340D01*
X517367D01*
X518367Y363340D01*
X517367Y362340D01*
X518367D01*
X519367Y361340D01*
Y362140D02*
X519967Y362740D01*
X520567D01*
X519967Y363340D01*
X520567Y363940D01*
X519967D01*
X519367Y364540D01*
X518767Y363940D01*
X518167D01*
X518767Y363340D01*
X518167Y362740D01*
X518767D01*
X519367Y362140D01*
X522881Y364854D02*
X523880Y365854D01*
X524881D01*
X523880Y366854D01*
X524881Y367854D01*
X523880D01*
X522881Y368854D01*
X521880Y367854D01*
X520881D01*
X521880Y366854D01*
X520881Y365854D01*
X521880D01*
X522881Y364854D01*
Y365654D02*
X523481Y366254D01*
X524081D01*
X523481Y366854D01*
X524081Y367454D01*
X523481D01*
X522881Y368054D01*
X522281Y367454D01*
X521680D01*
X522281Y366854D01*
X521680Y366254D01*
X522281D01*
X522881Y365654D01*
X358812Y771228D02*
X359812Y772228D01*
X360812D01*
X359812Y773228D01*
X360812Y774228D01*
X359812D01*
X358812Y775228D01*
X357812Y774228D01*
X356812D01*
X357812Y773228D01*
X356812Y772228D01*
X357812D01*
X358812Y771228D01*
Y772028D02*
X359412Y772628D01*
X360012D01*
X359412Y773228D01*
X360012Y773828D01*
X359412D01*
X358812Y774428D01*
X358212Y773828D01*
X357612D01*
X358212Y773228D01*
X357612Y772628D01*
X358212D01*
X358812Y772028D01*
X357526Y776028D02*
X358526Y777028D01*
X359526D01*
X358526Y778028D01*
X359526Y779028D01*
X358526D01*
X357526Y780028D01*
X356526Y779028D01*
X355526D01*
X356526Y778028D01*
X355526Y777028D01*
X356526D01*
X357526Y776028D01*
Y776828D02*
X358126Y777428D01*
X358726D01*
X358126Y778028D01*
X358726Y778628D01*
X358126D01*
X357526Y779228D01*
X356926Y778628D01*
X356326D01*
X356926Y778028D01*
X356326Y777428D01*
X356926D01*
X357526Y776828D01*
X354012Y779542D02*
X355012Y780542D01*
X356012D01*
X355012Y781542D01*
X356012Y782542D01*
X355012D01*
X354012Y783542D01*
X353012Y782542D01*
X352012D01*
X353012Y781542D01*
X352012Y780542D01*
X353012D01*
X354012Y779542D01*
Y780342D02*
X354612Y780942D01*
X355212D01*
X354612Y781542D01*
X355212Y782142D01*
X354612D01*
X354012Y782742D01*
X353412Y782142D01*
X352812D01*
X353412Y781542D01*
X352812Y780942D01*
X353412D01*
X354012Y780342D01*
X349213Y780828D02*
X350213Y781828D01*
X351213D01*
X350213Y782828D01*
X351213Y783828D01*
X350213D01*
X349213Y784828D01*
X348213Y783828D01*
X347213D01*
X348213Y782828D01*
X347213Y781828D01*
X348213D01*
X349213Y780828D01*
Y781628D02*
X349813Y782228D01*
X350413D01*
X349813Y782828D01*
X350413Y783428D01*
X349813D01*
X349213Y784028D01*
X348613Y783428D01*
X348013D01*
X348613Y782828D01*
X348013Y782228D01*
X348613D01*
X349213Y781628D01*
X344413Y779542D02*
X345413Y780542D01*
X346413D01*
X345413Y781542D01*
X346413Y782542D01*
X345413D01*
X344413Y783542D01*
X343413Y782542D01*
X342413D01*
X343413Y781542D01*
X342413Y780542D01*
X343413D01*
X344413Y779542D01*
Y780342D02*
X345013Y780942D01*
X345613D01*
X345013Y781542D01*
X345613Y782142D01*
X345013D01*
X344413Y782742D01*
X343813Y782142D01*
X343213D01*
X343813Y781542D01*
X343213Y780942D01*
X343813D01*
X344413Y780342D01*
X340899Y776028D02*
X341899Y777028D01*
X342899D01*
X341899Y778028D01*
X342899Y779028D01*
X341899D01*
X340899Y780028D01*
X339899Y779028D01*
X338899D01*
X339899Y778028D01*
X338899Y777028D01*
X339899D01*
X340899Y776028D01*
Y776828D02*
X341499Y777428D01*
X342099D01*
X341499Y778028D01*
X342099Y778628D01*
X341499D01*
X340899Y779228D01*
X340299Y778628D01*
X339699D01*
X340299Y778028D01*
X339699Y777428D01*
X340299D01*
X340899Y776828D01*
X339613Y771228D02*
X340613Y772228D01*
X341613D01*
X340613Y773228D01*
X341613Y774228D01*
X340613D01*
X339613Y775228D01*
X338613Y774228D01*
X337613D01*
X338613Y773228D01*
X337613Y772228D01*
X338613D01*
X339613Y771228D01*
Y772028D02*
X340213Y772628D01*
X340813D01*
X340213Y773228D01*
X340813Y773828D01*
X340213D01*
X339613Y774428D01*
X339013Y773828D01*
X338413D01*
X339013Y773228D01*
X338413Y772628D01*
X339013D01*
X339613Y772028D01*
X340899Y766429D02*
X341899Y767428D01*
X342899D01*
X341899Y768429D01*
X342899Y769428D01*
X341899D01*
X340899Y770429D01*
X339899Y769428D01*
X338899D01*
X339899Y768429D01*
X338899Y767428D01*
X339899D01*
X340899Y766429D01*
Y767229D02*
X341499Y767829D01*
X342099D01*
X341499Y768429D01*
X342099Y769029D01*
X341499D01*
X340899Y769628D01*
X340299Y769029D01*
X339699D01*
X340299Y768429D01*
X339699Y767829D01*
X340299D01*
X340899Y767229D01*
X344413Y762915D02*
X345413Y763915D01*
X346413D01*
X345413Y764915D01*
X346413Y765915D01*
X345413D01*
X344413Y766915D01*
X343413Y765915D01*
X342413D01*
X343413Y764915D01*
X342413Y763915D01*
X343413D01*
X344413Y762915D01*
Y763715D02*
X345013Y764315D01*
X345613D01*
X345013Y764915D01*
X345613Y765515D01*
X345013D01*
X344413Y766115D01*
X343813Y765515D01*
X343213D01*
X343813Y764915D01*
X343213Y764315D01*
X343813D01*
X344413Y763715D01*
X349213Y761629D02*
X350213Y762629D01*
X351213D01*
X350213Y763629D01*
X351213Y764629D01*
X350213D01*
X349213Y765629D01*
X348213Y764629D01*
X347213D01*
X348213Y763629D01*
X347213Y762629D01*
X348213D01*
X349213Y761629D01*
Y762429D02*
X349813Y763029D01*
X350413D01*
X349813Y763629D01*
X350413Y764229D01*
X349813D01*
X349213Y764829D01*
X348613Y764229D01*
X348013D01*
X348613Y763629D01*
X348013Y763029D01*
X348613D01*
X349213Y762429D01*
X354012Y762915D02*
X355012Y763915D01*
X356012D01*
X355012Y764915D01*
X356012Y765915D01*
X355012D01*
X354012Y766915D01*
X353012Y765915D01*
X352012D01*
X353012Y764915D01*
X352012Y763915D01*
X353012D01*
X354012Y762915D01*
Y763715D02*
X354612Y764315D01*
X355212D01*
X354612Y764915D01*
X355212Y765515D01*
X354612D01*
X354012Y766115D01*
X353412Y765515D01*
X352812D01*
X353412Y764915D01*
X352812Y764315D01*
X353412D01*
X354012Y763715D01*
X357526Y766429D02*
X358526Y767428D01*
X359526D01*
X358526Y768429D01*
X359526Y769428D01*
X358526D01*
X357526Y770429D01*
X356526Y769428D01*
X355526D01*
X356526Y768429D01*
X355526Y767428D01*
X356526D01*
X357526Y766429D01*
Y767229D02*
X358126Y767829D01*
X358726D01*
X358126Y768429D01*
X358726Y769029D01*
X358126D01*
X357526Y769628D01*
X356926Y769029D01*
X356326D01*
X356926Y768429D01*
X356326Y767829D01*
X356926D01*
X357526Y767229D01*
X524167Y771228D02*
X525167Y772228D01*
X526167D01*
X525167Y773228D01*
X526167Y774228D01*
X525167D01*
X524167Y775228D01*
X523167Y774228D01*
X522167D01*
X523167Y773228D01*
X522167Y772228D01*
X523167D01*
X524167Y771228D01*
Y772028D02*
X524767Y772628D01*
X525367D01*
X524767Y773228D01*
X525367Y773828D01*
X524767D01*
X524167Y774428D01*
X523567Y773828D01*
X522967D01*
X523567Y773228D01*
X522967Y772628D01*
X523567D01*
X524167Y772028D01*
X522881Y776028D02*
X523880Y777028D01*
X524881D01*
X523880Y778028D01*
X524881Y779028D01*
X523880D01*
X522881Y780028D01*
X521880Y779028D01*
X520881D01*
X521880Y778028D01*
X520881Y777028D01*
X521880D01*
X522881Y776028D01*
Y776828D02*
X523481Y777428D01*
X524081D01*
X523481Y778028D01*
X524081Y778628D01*
X523481D01*
X522881Y779228D01*
X522281Y778628D01*
X521680D01*
X522281Y778028D01*
X521680Y777428D01*
X522281D01*
X522881Y776828D01*
X519367Y779542D02*
X520367Y780542D01*
X521367D01*
X520367Y781542D01*
X521367Y782542D01*
X520367D01*
X519367Y783542D01*
X518367Y782542D01*
X517367D01*
X518367Y781542D01*
X517367Y780542D01*
X518367D01*
X519367Y779542D01*
Y780342D02*
X519967Y780942D01*
X520567D01*
X519967Y781542D01*
X520567Y782142D01*
X519967D01*
X519367Y782742D01*
X518767Y782142D01*
X518167D01*
X518767Y781542D01*
X518167Y780942D01*
X518767D01*
X519367Y780342D01*
X514567Y780828D02*
X515567Y781828D01*
X516567D01*
X515567Y782828D01*
X516567Y783828D01*
X515567D01*
X514567Y784828D01*
X513567Y783828D01*
X512567D01*
X513567Y782828D01*
X512567Y781828D01*
X513567D01*
X514567Y780828D01*
Y781628D02*
X515167Y782228D01*
X515767D01*
X515167Y782828D01*
X515767Y783428D01*
X515167D01*
X514567Y784028D01*
X513967Y783428D01*
X513367D01*
X513967Y782828D01*
X513367Y782228D01*
X513967D01*
X514567Y781628D01*
X509767Y779542D02*
X510767Y780542D01*
X511767D01*
X510767Y781542D01*
X511767Y782542D01*
X510767D01*
X509767Y783542D01*
X508767Y782542D01*
X507767D01*
X508767Y781542D01*
X507767Y780542D01*
X508767D01*
X509767Y779542D01*
Y780342D02*
X510367Y780942D01*
X510967D01*
X510367Y781542D01*
X510967Y782142D01*
X510367D01*
X509767Y782742D01*
X509167Y782142D01*
X508567D01*
X509167Y781542D01*
X508567Y780942D01*
X509167D01*
X509767Y780342D01*
X506253Y776028D02*
X507253Y777028D01*
X508253D01*
X507253Y778028D01*
X508253Y779028D01*
X507253D01*
X506253Y780028D01*
X505253Y779028D01*
X504253D01*
X505253Y778028D01*
X504253Y777028D01*
X505253D01*
X506253Y776028D01*
Y776828D02*
X506853Y777428D01*
X507453D01*
X506853Y778028D01*
X507453Y778628D01*
X506853D01*
X506253Y779228D01*
X505653Y778628D01*
X505053D01*
X505653Y778028D01*
X505053Y777428D01*
X505653D01*
X506253Y776828D01*
X504967Y771228D02*
X505967Y772228D01*
X506967D01*
X505967Y773228D01*
X506967Y774228D01*
X505967D01*
X504967Y775228D01*
X503967Y774228D01*
X502967D01*
X503967Y773228D01*
X502967Y772228D01*
X503967D01*
X504967Y771228D01*
Y772028D02*
X505567Y772628D01*
X506167D01*
X505567Y773228D01*
X506167Y773828D01*
X505567D01*
X504967Y774428D01*
X504367Y773828D01*
X503767D01*
X504367Y773228D01*
X503767Y772628D01*
X504367D01*
X504967Y772028D01*
X506253Y766429D02*
X507253Y767428D01*
X508253D01*
X507253Y768429D01*
X508253Y769428D01*
X507253D01*
X506253Y770429D01*
X505253Y769428D01*
X504253D01*
X505253Y768429D01*
X504253Y767428D01*
X505253D01*
X506253Y766429D01*
Y767229D02*
X506853Y767829D01*
X507453D01*
X506853Y768429D01*
X507453Y769029D01*
X506853D01*
X506253Y769628D01*
X505653Y769029D01*
X505053D01*
X505653Y768429D01*
X505053Y767829D01*
X505653D01*
X506253Y767229D01*
X509767Y762915D02*
X510767Y763915D01*
X511767D01*
X510767Y764915D01*
X511767Y765915D01*
X510767D01*
X509767Y766915D01*
X508767Y765915D01*
X507767D01*
X508767Y764915D01*
X507767Y763915D01*
X508767D01*
X509767Y762915D01*
Y763715D02*
X510367Y764315D01*
X510967D01*
X510367Y764915D01*
X510967Y765515D01*
X510367D01*
X509767Y766115D01*
X509167Y765515D01*
X508567D01*
X509167Y764915D01*
X508567Y764315D01*
X509167D01*
X509767Y763715D01*
X514567Y761629D02*
X515567Y762629D01*
X516567D01*
X515567Y763629D01*
X516567Y764629D01*
X515567D01*
X514567Y765629D01*
X513567Y764629D01*
X512567D01*
X513567Y763629D01*
X512567Y762629D01*
X513567D01*
X514567Y761629D01*
Y762429D02*
X515167Y763029D01*
X515767D01*
X515167Y763629D01*
X515767Y764229D01*
X515167D01*
X514567Y764829D01*
X513967Y764229D01*
X513367D01*
X513967Y763629D01*
X513367Y763029D01*
X513967D01*
X514567Y762429D01*
X519367Y762915D02*
X520367Y763915D01*
X521367D01*
X520367Y764915D01*
X521367Y765915D01*
X520367D01*
X519367Y766915D01*
X518367Y765915D01*
X517367D01*
X518367Y764915D01*
X517367Y763915D01*
X518367D01*
X519367Y762915D01*
Y763715D02*
X519967Y764315D01*
X520567D01*
X519967Y764915D01*
X520567Y765515D01*
X519967D01*
X519367Y766115D01*
X518767Y765515D01*
X518167D01*
X518767Y764915D01*
X518167Y764315D01*
X518767D01*
X519367Y763715D01*
X522881Y766429D02*
X523880Y767428D01*
X524881D01*
X523880Y768429D01*
X524881Y769428D01*
X523880D01*
X522881Y770429D01*
X521880Y769428D01*
X520881D01*
X521880Y768429D01*
X520881Y767428D01*
X521880D01*
X522881Y766429D01*
Y767229D02*
X523481Y767829D01*
X524081D01*
X523481Y768429D01*
X524081Y769029D01*
X523481D01*
X522881Y769628D01*
X522281Y769029D01*
X521680D01*
X522281Y768429D01*
X521680Y767829D01*
X522281D01*
X522881Y767229D01*
D129*
X514402Y686221D02*
G03*
X514402Y686221I-2000J0D01*
G01*
Y705905D02*
G03*
X514402Y705905I-2000J0D01*
G01*
X368535Y714764D02*
G03*
X368535Y714764I-2000J0D01*
G01*
X502394Y610433D02*
G03*
X502394Y610433I-2000J0D01*
G01*
D130*
X367735Y714764D02*
G03*
X367735Y714764I-1200J0D01*
G01*
X501594Y610433D02*
G03*
X501594Y610433I-1200J0D01*
G01*
M02*
