G04*
G04 #@! TF.GenerationSoftware,Altium Limited,Altium Designer,23.0.1 (38)*
G04*
G04 Layer_Color=8388736*
%FSLAX25Y25*%
%MOIN*%
G70*
G04*
G04 #@! TF.SameCoordinates,D75D10E2-2566-4FA1-905F-50A539E45678*
G04*
G04*
G04 #@! TF.FilePolarity,Negative*
G04*
G01*
G75*
G04:AMPARAMS|DCode=22|XSize=69.02mil|YSize=59.18mil|CornerRadius=9.12mil|HoleSize=0mil|Usage=FLASHONLY|Rotation=0.000|XOffset=0mil|YOffset=0mil|HoleType=Round|Shape=RoundedRectangle|*
%AMROUNDEDRECTD22*
21,1,0.06902,0.04095,0,0,0.0*
21,1,0.05079,0.05918,0,0,0.0*
1,1,0.01824,0.02539,-0.02047*
1,1,0.01824,-0.02539,-0.02047*
1,1,0.01824,-0.02539,0.02047*
1,1,0.01824,0.02539,0.02047*
%
%ADD22ROUNDEDRECTD22*%
G04:AMPARAMS|DCode=23|XSize=49.34mil|YSize=39.5mil|CornerRadius=7.15mil|HoleSize=0mil|Usage=FLASHONLY|Rotation=0.000|XOffset=0mil|YOffset=0mil|HoleType=Round|Shape=RoundedRectangle|*
%AMROUNDEDRECTD23*
21,1,0.04934,0.02520,0,0,0.0*
21,1,0.03504,0.03950,0,0,0.0*
1,1,0.01430,0.01752,-0.01260*
1,1,0.01430,-0.01752,-0.01260*
1,1,0.01430,-0.01752,0.01260*
1,1,0.01430,0.01752,0.01260*
%
%ADD23ROUNDEDRECTD23*%
G04:AMPARAMS|DCode=24|XSize=165.48mil|YSize=39.5mil|CornerRadius=7.15mil|HoleSize=0mil|Usage=FLASHONLY|Rotation=90.000|XOffset=0mil|YOffset=0mil|HoleType=Round|Shape=RoundedRectangle|*
%AMROUNDEDRECTD24*
21,1,0.16548,0.02520,0,0,90.0*
21,1,0.15118,0.03950,0,0,90.0*
1,1,0.01430,0.01260,0.07559*
1,1,0.01430,0.01260,-0.07559*
1,1,0.01430,-0.01260,-0.07559*
1,1,0.01430,-0.01260,0.07559*
%
%ADD24ROUNDEDRECTD24*%
G04:AMPARAMS|DCode=25|XSize=61.15mil|YSize=173.35mil|CornerRadius=9.32mil|HoleSize=0mil|Usage=FLASHONLY|Rotation=180.000|XOffset=0mil|YOffset=0mil|HoleType=Round|Shape=RoundedRectangle|*
%AMROUNDEDRECTD25*
21,1,0.06115,0.15472,0,0,180.0*
21,1,0.04252,0.17335,0,0,180.0*
1,1,0.01863,-0.02126,0.07736*
1,1,0.01863,0.02126,0.07736*
1,1,0.01863,0.02126,-0.07736*
1,1,0.01863,-0.02126,-0.07736*
%
%ADD25ROUNDEDRECTD25*%
G04:AMPARAMS|DCode=26|XSize=58mil|YSize=149.73mil|CornerRadius=9mil|HoleSize=0mil|Usage=FLASHONLY|Rotation=180.000|XOffset=0mil|YOffset=0mil|HoleType=Round|Shape=RoundedRectangle|*
%AMROUNDEDRECTD26*
21,1,0.05800,0.13173,0,0,180.0*
21,1,0.04000,0.14973,0,0,180.0*
1,1,0.01800,-0.02000,0.06587*
1,1,0.01800,0.02000,0.06587*
1,1,0.01800,0.02000,-0.06587*
1,1,0.01800,-0.02000,-0.06587*
%
%ADD26ROUNDEDRECTD26*%
G04:AMPARAMS|DCode=27|XSize=94.61mil|YSize=67.06mil|CornerRadius=21.72mil|HoleSize=0mil|Usage=FLASHONLY|Rotation=0.000|XOffset=0mil|YOffset=0mil|HoleType=Round|Shape=RoundedRectangle|*
%AMROUNDEDRECTD27*
21,1,0.09461,0.02362,0,0,0.0*
21,1,0.05118,0.06706,0,0,0.0*
1,1,0.04343,0.02559,-0.01181*
1,1,0.04343,-0.02559,-0.01181*
1,1,0.04343,-0.02559,0.01181*
1,1,0.04343,0.02559,0.01181*
%
%ADD27ROUNDEDRECTD27*%
%ADD28C,0.05524*%
G04:AMPARAMS|DCode=29|XSize=67.06mil|YSize=47.37mil|CornerRadius=13.84mil|HoleSize=0mil|Usage=FLASHONLY|Rotation=90.000|XOffset=0mil|YOffset=0mil|HoleType=Round|Shape=RoundedRectangle|*
%AMROUNDEDRECTD29*
21,1,0.06706,0.01968,0,0,90.0*
21,1,0.03937,0.04737,0,0,90.0*
1,1,0.02769,0.00984,0.01968*
1,1,0.02769,0.00984,-0.01968*
1,1,0.02769,-0.00984,-0.01968*
1,1,0.02769,-0.00984,0.01968*
%
%ADD29ROUNDEDRECTD29*%
%ADD30O,0.04737X0.06706*%
%ADD31O,0.03740X0.07480*%
%ADD32O,0.05524X0.03556*%
%ADD33C,0.08674*%
%ADD34O,0.05524X0.20485*%
G04:AMPARAMS|DCode=35|XSize=55.24mil|YSize=55.24mil|CornerRadius=15.81mil|HoleSize=0mil|Usage=FLASHONLY|Rotation=270.000|XOffset=0mil|YOffset=0mil|HoleType=Round|Shape=RoundedRectangle|*
%AMROUNDEDRECTD35*
21,1,0.05524,0.02362,0,0,270.0*
21,1,0.02362,0.05524,0,0,270.0*
1,1,0.03162,-0.01181,-0.01181*
1,1,0.03162,-0.01181,0.01181*
1,1,0.03162,0.01181,0.01181*
1,1,0.03162,0.01181,-0.01181*
%
%ADD35ROUNDEDRECTD35*%
%ADD36C,0.07887*%
G04:AMPARAMS|DCode=37|XSize=78.87mil|YSize=78.87mil|CornerRadius=11.09mil|HoleSize=0mil|Usage=FLASHONLY|Rotation=90.000|XOffset=0mil|YOffset=0mil|HoleType=Round|Shape=RoundedRectangle|*
%AMROUNDEDRECTD37*
21,1,0.07887,0.05669,0,0,90.0*
21,1,0.05669,0.07887,0,0,90.0*
1,1,0.02217,0.02835,0.02835*
1,1,0.02217,0.02835,-0.02835*
1,1,0.02217,-0.02835,-0.02835*
1,1,0.02217,-0.02835,0.02835*
%
%ADD37ROUNDEDRECTD37*%
%ADD38C,0.07300*%
G04:AMPARAMS|DCode=39|XSize=73mil|YSize=73mil|CornerRadius=10.5mil|HoleSize=0mil|Usage=FLASHONLY|Rotation=0.000|XOffset=0mil|YOffset=0mil|HoleType=Round|Shape=RoundedRectangle|*
%AMROUNDEDRECTD39*
21,1,0.07300,0.05200,0,0,0.0*
21,1,0.05200,0.07300,0,0,0.0*
1,1,0.02100,0.02600,-0.02600*
1,1,0.02100,-0.02600,-0.02600*
1,1,0.02100,-0.02600,0.02600*
1,1,0.02100,0.02600,0.02600*
%
%ADD39ROUNDEDRECTD39*%
G04:AMPARAMS|DCode=40|XSize=78.87mil|YSize=78.87mil|CornerRadius=21.72mil|HoleSize=0mil|Usage=FLASHONLY|Rotation=0.000|XOffset=0mil|YOffset=0mil|HoleType=Round|Shape=RoundedRectangle|*
%AMROUNDEDRECTD40*
21,1,0.07887,0.03543,0,0,0.0*
21,1,0.03543,0.07887,0,0,0.0*
1,1,0.04343,0.01772,-0.01772*
1,1,0.04343,-0.01772,-0.01772*
1,1,0.04343,-0.01772,0.01772*
1,1,0.04343,0.01772,0.01772*
%
%ADD40ROUNDEDRECTD40*%
%ADD41C,0.24422*%
G36*
X486059Y378452D02*
X486077Y378433D01*
X486065Y378307D01*
Y373673D01*
Y373660D01*
X486071Y369371D01*
X486065Y369327D01*
X486077Y369290D01*
X486065Y369265D01*
X486046Y369246D01*
X485732Y369233D01*
X484740Y369246D01*
X470943Y369239D01*
X470912Y369246D01*
X470887Y369233D01*
X470849Y369246D01*
X470824Y369258D01*
X470818Y369327D01*
X470830Y369353D01*
X470818Y369390D01*
X470830Y378446D01*
X470887Y378464D01*
X486059Y378452D01*
D02*
G37*
G36*
X483318Y365967D02*
X482592D01*
Y366638D01*
X483318D01*
Y365967D01*
D02*
G37*
G36*
X473632D02*
X472906D01*
Y366638D01*
X473632D01*
Y365967D01*
D02*
G37*
G36*
X467790Y362860D02*
X467118D01*
Y363259D01*
X467113Y363248D01*
X467091Y363220D01*
X467053Y363177D01*
X467004Y363127D01*
X466949Y363073D01*
X466878Y363013D01*
X466802Y362958D01*
X466720Y362909D01*
X466709Y362904D01*
X466681Y362893D01*
X466632Y362876D01*
X466578Y362855D01*
X466507Y362833D01*
X466425Y362816D01*
X466343Y362805D01*
X466256Y362800D01*
X466212D01*
X466179Y362805D01*
X466136Y362811D01*
X466092Y362822D01*
X466037Y362833D01*
X465977Y362849D01*
X465917Y362865D01*
X465852Y362893D01*
X465786Y362920D01*
X465715Y362958D01*
X465650Y363002D01*
X465579Y363051D01*
X465513Y363111D01*
X465448Y363177D01*
X465442Y363182D01*
X465431Y363193D01*
X465415Y363215D01*
X465398Y363248D01*
X465371Y363286D01*
X465344Y363335D01*
X465311Y363390D01*
X465284Y363455D01*
X465251Y363526D01*
X465218Y363602D01*
X465191Y363690D01*
X465169Y363783D01*
X465147Y363886D01*
X465131Y363996D01*
X465120Y364110D01*
X465114Y364236D01*
Y364241D01*
Y364269D01*
Y364301D01*
X465120Y364351D01*
X465125Y364411D01*
X465131Y364476D01*
X465142Y364553D01*
X465153Y364629D01*
X465191Y364804D01*
X465218Y364891D01*
X465251Y364978D01*
X465289Y365066D01*
X465333Y365148D01*
X465382Y365224D01*
X465437Y365295D01*
X465442Y365301D01*
X465453Y365312D01*
X465469Y365328D01*
X465497Y365355D01*
X465529Y365383D01*
X465568Y365410D01*
X465611Y365442D01*
X465666Y365481D01*
X465721Y365513D01*
X465786Y365546D01*
X465923Y365606D01*
X466005Y365628D01*
X466086Y365645D01*
X466174Y365655D01*
X466267Y365661D01*
X466310D01*
X466343Y365655D01*
X466381Y365650D01*
X466430Y365639D01*
X466479Y365628D01*
X466539Y365612D01*
X466600Y365595D01*
X466665Y365568D01*
X466731Y365535D01*
X466796Y365503D01*
X466867Y365454D01*
X466933Y365404D01*
X466998Y365344D01*
X467064Y365279D01*
Y366638D01*
X467790D01*
Y362860D01*
D02*
G37*
G36*
X498104Y365655D02*
X498175Y365645D01*
X498257Y365628D01*
X498339Y365606D01*
X498426Y365579D01*
X498508Y365535D01*
X498519Y365530D01*
X498541Y365513D01*
X498579Y365486D01*
X498628Y365448D01*
X498677Y365393D01*
X498732Y365333D01*
X498781Y365262D01*
X498825Y365175D01*
X498830Y365170D01*
X498836Y365142D01*
X498846Y365099D01*
X498863Y365038D01*
X498879Y364962D01*
X498890Y364864D01*
X498896Y364744D01*
X498901Y364607D01*
Y362860D01*
X498175D01*
Y364422D01*
Y364427D01*
Y364438D01*
Y364460D01*
Y364487D01*
X498169Y364558D01*
X498164Y364640D01*
X498158Y364727D01*
X498142Y364815D01*
X498126Y364891D01*
X498109Y364918D01*
X498098Y364946D01*
X498093Y364951D01*
X498076Y364973D01*
X498055Y364995D01*
X498022Y365028D01*
X497978Y365055D01*
X497924Y365082D01*
X497858Y365099D01*
X497787Y365104D01*
X497760D01*
X497732Y365099D01*
X497694Y365093D01*
X497651Y365082D01*
X497602Y365066D01*
X497547Y365044D01*
X497498Y365011D01*
X497492Y365006D01*
X497476Y364995D01*
X497454Y364973D01*
X497427Y364940D01*
X497394Y364902D01*
X497361Y364858D01*
X497334Y364804D01*
X497307Y364738D01*
Y364727D01*
X497296Y364705D01*
X497290Y364662D01*
X497279Y364602D01*
X497268Y364520D01*
X497263Y364422D01*
X497252Y364307D01*
Y364170D01*
Y362860D01*
X496526D01*
Y364356D01*
Y364362D01*
Y364372D01*
Y364394D01*
Y364422D01*
Y364487D01*
X496520Y364569D01*
X496515Y364656D01*
X496510Y364738D01*
X496499Y364815D01*
X496488Y364847D01*
X496482Y364869D01*
Y364875D01*
X496477Y364891D01*
X496466Y364913D01*
X496455Y364935D01*
X496417Y364995D01*
X496389Y365022D01*
X496362Y365044D01*
X496357Y365049D01*
X496346Y365055D01*
X496329Y365066D01*
X496308Y365077D01*
X496275Y365088D01*
X496237Y365093D01*
X496193Y365104D01*
X496116D01*
X496084Y365099D01*
X496045Y365093D01*
X495996Y365082D01*
X495947Y365066D01*
X495898Y365044D01*
X495843Y365011D01*
X495838Y365006D01*
X495822Y364995D01*
X495800Y364973D01*
X495772Y364946D01*
X495740Y364908D01*
X495707Y364864D01*
X495680Y364809D01*
X495652Y364749D01*
Y364744D01*
X495641Y364716D01*
X495636Y364673D01*
X495625Y364618D01*
X495614Y364536D01*
X495609Y364443D01*
X495598Y364323D01*
Y364187D01*
Y362860D01*
X494872D01*
Y365601D01*
X495538D01*
Y365224D01*
X495543Y365230D01*
X495554Y365241D01*
X495576Y365262D01*
X495603Y365295D01*
X495636Y365328D01*
X495674Y365361D01*
X495723Y365404D01*
X495778Y365442D01*
X495838Y365481D01*
X495903Y365524D01*
X496045Y365595D01*
X496127Y365623D01*
X496209Y365645D01*
X496297Y365655D01*
X496389Y365661D01*
X496433D01*
X496482Y365655D01*
X496542Y365650D01*
X496613Y365634D01*
X496690Y365617D01*
X496766Y365590D01*
X496843Y365552D01*
X496853Y365546D01*
X496875Y365530D01*
X496913Y365508D01*
X496957Y365470D01*
X497006Y365421D01*
X497061Y365366D01*
X497116Y365295D01*
X497165Y365219D01*
X497176Y365230D01*
X497197Y365257D01*
X497230Y365295D01*
X497279Y365344D01*
X497339Y365399D01*
X497405Y365454D01*
X497476Y365508D01*
X497552Y365552D01*
X497563Y365557D01*
X497591Y365568D01*
X497634Y365584D01*
X497689Y365606D01*
X497754Y365628D01*
X497831Y365645D01*
X497913Y365655D01*
X498000Y365661D01*
X498049D01*
X498104Y365655D01*
D02*
G37*
G36*
X490411D02*
X490471Y365650D01*
X490536Y365639D01*
X490607Y365623D01*
X490684Y365601D01*
X490760Y365574D01*
X490771Y365568D01*
X490793Y365557D01*
X490831Y365541D01*
X490875Y365513D01*
X490924Y365481D01*
X490973Y365442D01*
X491022Y365399D01*
X491066Y365350D01*
X491071Y365344D01*
X491082Y365328D01*
X491099Y365301D01*
X491120Y365262D01*
X491148Y365219D01*
X491170Y365164D01*
X491191Y365109D01*
X491208Y365044D01*
Y365038D01*
X491213Y365011D01*
X491224Y364973D01*
X491230Y364918D01*
X491241Y364853D01*
X491246Y364766D01*
X491252Y364673D01*
Y364558D01*
Y362860D01*
X490525D01*
Y364252D01*
Y364258D01*
Y364274D01*
Y364296D01*
Y364323D01*
Y364362D01*
Y364400D01*
X490520Y364493D01*
X490514Y364585D01*
X490504Y364684D01*
X490493Y364766D01*
X490487Y364798D01*
X490476Y364826D01*
Y364831D01*
X490465Y364847D01*
X490454Y364869D01*
X490438Y364902D01*
X490389Y364967D01*
X490361Y365000D01*
X490323Y365028D01*
X490318Y365033D01*
X490307Y365038D01*
X490285Y365049D01*
X490252Y365066D01*
X490214Y365082D01*
X490176Y365093D01*
X490127Y365099D01*
X490072Y365104D01*
X490039D01*
X490007Y365099D01*
X489963Y365093D01*
X489908Y365077D01*
X489854Y365060D01*
X489794Y365033D01*
X489734Y365000D01*
X489728Y364995D01*
X489712Y364984D01*
X489684Y364957D01*
X489652Y364929D01*
X489619Y364886D01*
X489586Y364842D01*
X489553Y364782D01*
X489532Y364722D01*
Y364716D01*
X489521Y364689D01*
X489515Y364645D01*
X489504Y364580D01*
X489499Y364542D01*
X489493Y364493D01*
X489488Y364443D01*
Y364383D01*
X489482Y364323D01*
X489477Y364252D01*
Y364176D01*
Y364094D01*
Y362860D01*
X488751D01*
Y365601D01*
X489422D01*
Y365197D01*
X489428Y365202D01*
X489439Y365219D01*
X489461Y365241D01*
X489488Y365268D01*
X489521Y365306D01*
X489564Y365344D01*
X489613Y365388D01*
X489668Y365432D01*
X489728Y365470D01*
X489799Y365513D01*
X489870Y365552D01*
X489952Y365590D01*
X490039Y365617D01*
X490127Y365639D01*
X490225Y365655D01*
X490323Y365661D01*
X490361D01*
X490411Y365655D01*
D02*
G37*
G36*
X476029Y365655D02*
X476089Y365650D01*
X476155Y365639D01*
X476226Y365623D01*
X476302Y365601D01*
X476378Y365574D01*
X476389Y365568D01*
X476411Y365557D01*
X476449Y365541D01*
X476493Y365513D01*
X476542Y365481D01*
X476591Y365442D01*
X476641Y365399D01*
X476684Y365350D01*
X476690Y365344D01*
X476701Y365328D01*
X476717Y365301D01*
X476739Y365262D01*
X476766Y365219D01*
X476788Y365164D01*
X476810Y365109D01*
X476826Y365044D01*
Y365038D01*
X476832Y365011D01*
X476843Y364973D01*
X476848Y364918D01*
X476859Y364853D01*
X476864Y364766D01*
X476870Y364673D01*
Y364558D01*
Y362860D01*
X476144D01*
Y364252D01*
Y364258D01*
Y364274D01*
Y364296D01*
Y364323D01*
Y364362D01*
Y364400D01*
X476138Y364493D01*
X476133Y364585D01*
X476122Y364684D01*
X476111Y364766D01*
X476105Y364798D01*
X476094Y364826D01*
Y364831D01*
X476084Y364847D01*
X476073Y364869D01*
X476056Y364902D01*
X476007Y364967D01*
X475980Y365000D01*
X475942Y365028D01*
X475936Y365033D01*
X475925Y365038D01*
X475903Y365049D01*
X475871Y365066D01*
X475833Y365082D01*
X475794Y365093D01*
X475745Y365099D01*
X475691Y365104D01*
X475658D01*
X475625Y365099D01*
X475581Y365093D01*
X475527Y365077D01*
X475472Y365060D01*
X475412Y365033D01*
X475352Y365000D01*
X475347Y364995D01*
X475330Y364984D01*
X475303Y364957D01*
X475270Y364929D01*
X475237Y364886D01*
X475205Y364842D01*
X475172Y364782D01*
X475150Y364722D01*
Y364716D01*
X475139Y364689D01*
X475134Y364645D01*
X475123Y364580D01*
X475117Y364542D01*
X475112Y364493D01*
X475106Y364443D01*
Y364383D01*
X475101Y364323D01*
X475095Y364252D01*
Y364176D01*
Y364094D01*
Y362860D01*
X474369D01*
Y365601D01*
X475041D01*
Y365197D01*
X475046Y365202D01*
X475057Y365219D01*
X475079Y365241D01*
X475106Y365268D01*
X475139Y365306D01*
X475183Y365344D01*
X475232Y365388D01*
X475286Y365432D01*
X475347Y365470D01*
X475418Y365513D01*
X475489Y365552D01*
X475570Y365590D01*
X475658Y365617D01*
X475745Y365639D01*
X475843Y365655D01*
X475942Y365661D01*
X475980D01*
X476029Y365655D01*
D02*
G37*
G36*
X461571Y362860D02*
X460867D01*
X460861Y365830D01*
X460119Y362860D01*
X459381D01*
X458639Y365830D01*
Y362860D01*
X457935D01*
Y366638D01*
X459076D01*
X459753Y364056D01*
X460424Y366638D01*
X461571D01*
Y362860D01*
D02*
G37*
G36*
X480872D02*
X480048D01*
X478693Y366638D01*
X479518D01*
X480479Y363843D01*
X481402Y366638D01*
X482215D01*
X480872Y362860D01*
D02*
G37*
G36*
X493173Y365655D02*
X493217D01*
X493326Y365645D01*
X493441Y365634D01*
X493561Y365612D01*
X493676Y365579D01*
X493725Y365563D01*
X493774Y365541D01*
X493780D01*
X493785Y365535D01*
X493812Y365519D01*
X493856Y365497D01*
X493905Y365464D01*
X493965Y365421D01*
X494020Y365372D01*
X494069Y365312D01*
X494113Y365251D01*
X494118Y365241D01*
X494129Y365219D01*
X494145Y365170D01*
X494151Y365142D01*
X494162Y365104D01*
X494173Y365066D01*
X494178Y365017D01*
X494189Y364962D01*
X494194Y364902D01*
X494200Y364837D01*
X494205Y364766D01*
X494211Y364689D01*
Y364602D01*
X494200Y363755D01*
Y363750D01*
Y363739D01*
Y363723D01*
Y363695D01*
Y363630D01*
X494205Y363553D01*
Y363466D01*
X494216Y363379D01*
X494222Y363291D01*
X494233Y363220D01*
Y363215D01*
X494238Y363193D01*
X494249Y363155D01*
X494260Y363111D01*
X494282Y363056D01*
X494304Y362997D01*
X494331Y362931D01*
X494364Y362860D01*
X493648D01*
Y362865D01*
X493643Y362871D01*
X493638Y362893D01*
X493627Y362915D01*
X493616Y362942D01*
X493605Y362980D01*
X493594Y363024D01*
X493577Y363073D01*
Y363078D01*
X493572Y363084D01*
X493567Y363106D01*
X493556Y363133D01*
X493550Y363155D01*
X493539Y363149D01*
X493517Y363127D01*
X493479Y363095D01*
X493430Y363056D01*
X493370Y363013D01*
X493304Y362964D01*
X493228Y362926D01*
X493152Y362887D01*
X493141Y362882D01*
X493113Y362876D01*
X493070Y362860D01*
X493015Y362844D01*
X492950Y362827D01*
X492873Y362816D01*
X492786Y362805D01*
X492698Y362800D01*
X492660D01*
X492627Y362805D01*
X492595D01*
X492551Y362811D01*
X492458Y362827D01*
X492349Y362855D01*
X492240Y362893D01*
X492131Y362947D01*
X492032Y363024D01*
Y363029D01*
X492021Y363035D01*
X491994Y363067D01*
X491956Y363117D01*
X491912Y363182D01*
X491868Y363264D01*
X491830Y363362D01*
X491803Y363477D01*
X491797Y363537D01*
X491792Y363602D01*
Y363613D01*
Y363641D01*
X491797Y363684D01*
X491808Y363739D01*
X491819Y363805D01*
X491836Y363870D01*
X491863Y363941D01*
X491901Y364012D01*
X491907Y364023D01*
X491923Y364045D01*
X491945Y364077D01*
X491983Y364116D01*
X492021Y364159D01*
X492076Y364209D01*
X492136Y364252D01*
X492207Y364290D01*
X492218Y364296D01*
X492245Y364307D01*
X492289Y364323D01*
X492354Y364351D01*
X492436Y364378D01*
X492535Y364405D01*
X492655Y364432D01*
X492786Y364460D01*
X492791D01*
X492808Y364465D01*
X492835Y364471D01*
X492868Y364476D01*
X492911Y364482D01*
X492961Y364493D01*
X493070Y364520D01*
X493184Y364547D01*
X493304Y364574D01*
X493408Y364607D01*
X493457Y364623D01*
X493496Y364640D01*
Y364711D01*
Y364722D01*
Y364744D01*
X493490Y364782D01*
X493485Y364831D01*
X493468Y364880D01*
X493452Y364929D01*
X493425Y364973D01*
X493386Y365011D01*
X493381Y365017D01*
X493364Y365028D01*
X493337Y365038D01*
X493299Y365060D01*
X493244Y365077D01*
X493179Y365088D01*
X493097Y365099D01*
X492999Y365104D01*
X492966D01*
X492933Y365099D01*
X492889Y365093D01*
X492840Y365082D01*
X492786Y365071D01*
X492737Y365049D01*
X492693Y365022D01*
X492688Y365017D01*
X492677Y365006D01*
X492655Y364989D01*
X492633Y364962D01*
X492600Y364924D01*
X492573Y364875D01*
X492546Y364820D01*
X492518Y364755D01*
X491868Y364875D01*
Y364880D01*
X491874Y364891D01*
X491879Y364913D01*
X491890Y364940D01*
X491901Y364973D01*
X491918Y365011D01*
X491956Y365099D01*
X492010Y365191D01*
X492076Y365290D01*
X492152Y365383D01*
X492245Y365464D01*
X492251D01*
X492256Y365475D01*
X492273Y365481D01*
X492294Y365497D01*
X492327Y365508D01*
X492360Y365524D01*
X492404Y365546D01*
X492447Y365563D01*
X492502Y365579D01*
X492562Y365601D01*
X492627Y365617D01*
X492704Y365628D01*
X492780Y365645D01*
X492868Y365650D01*
X492955Y365661D01*
X493135D01*
X493173Y365655D01*
D02*
G37*
G36*
X483318Y362860D02*
X482592D01*
Y365601D01*
X483318D01*
Y362860D01*
D02*
G37*
G36*
X473632D02*
X472906D01*
Y365601D01*
X473632D01*
Y362860D01*
D02*
G37*
G36*
X463526Y365655D02*
X463569D01*
X463679Y365645D01*
X463793Y365634D01*
X463913Y365612D01*
X464028Y365579D01*
X464077Y365563D01*
X464126Y365541D01*
X464132D01*
X464137Y365535D01*
X464164Y365519D01*
X464208Y365497D01*
X464257Y365464D01*
X464317Y365421D01*
X464372Y365371D01*
X464421Y365312D01*
X464465Y365251D01*
X464470Y365241D01*
X464481Y365219D01*
X464498Y365170D01*
X464503Y365142D01*
X464514Y365104D01*
X464525Y365066D01*
X464530Y365017D01*
X464541Y364962D01*
X464547Y364902D01*
X464552Y364837D01*
X464558Y364766D01*
X464563Y364689D01*
Y364602D01*
X464552Y363755D01*
Y363750D01*
Y363739D01*
Y363723D01*
Y363695D01*
Y363630D01*
X464558Y363553D01*
Y363466D01*
X464569Y363379D01*
X464574Y363291D01*
X464585Y363220D01*
Y363215D01*
X464590Y363193D01*
X464601Y363155D01*
X464612Y363111D01*
X464634Y363056D01*
X464656Y362997D01*
X464683Y362931D01*
X464716Y362860D01*
X464001D01*
Y362865D01*
X463995Y362871D01*
X463990Y362893D01*
X463979Y362915D01*
X463968Y362942D01*
X463957Y362980D01*
X463946Y363024D01*
X463930Y363073D01*
Y363078D01*
X463924Y363084D01*
X463919Y363106D01*
X463908Y363133D01*
X463902Y363155D01*
X463891Y363149D01*
X463870Y363127D01*
X463831Y363095D01*
X463782Y363056D01*
X463722Y363013D01*
X463657Y362964D01*
X463580Y362926D01*
X463504Y362887D01*
X463493Y362882D01*
X463466Y362876D01*
X463422Y362860D01*
X463367Y362844D01*
X463302Y362827D01*
X463225Y362816D01*
X463138Y362805D01*
X463051Y362800D01*
X463012D01*
X462980Y362805D01*
X462947D01*
X462903Y362811D01*
X462810Y362827D01*
X462701Y362855D01*
X462592Y362893D01*
X462483Y362947D01*
X462385Y363024D01*
Y363029D01*
X462374Y363035D01*
X462346Y363067D01*
X462308Y363117D01*
X462264Y363182D01*
X462221Y363264D01*
X462183Y363362D01*
X462155Y363477D01*
X462150Y363537D01*
X462144Y363602D01*
Y363613D01*
Y363641D01*
X462150Y363684D01*
X462161Y363739D01*
X462172Y363805D01*
X462188Y363870D01*
X462215Y363941D01*
X462253Y364012D01*
X462259Y364023D01*
X462275Y364045D01*
X462297Y364077D01*
X462335Y364116D01*
X462374Y364159D01*
X462428Y364209D01*
X462488Y364252D01*
X462559Y364290D01*
X462570Y364296D01*
X462597Y364307D01*
X462641Y364323D01*
X462707Y364351D01*
X462788Y364378D01*
X462887Y364405D01*
X463007Y364432D01*
X463138Y364460D01*
X463143D01*
X463160Y364465D01*
X463187Y364471D01*
X463220Y364476D01*
X463264Y364482D01*
X463313Y364493D01*
X463422Y364520D01*
X463537Y364547D01*
X463657Y364574D01*
X463760Y364607D01*
X463810Y364623D01*
X463848Y364640D01*
Y364711D01*
Y364722D01*
Y364744D01*
X463842Y364782D01*
X463837Y364831D01*
X463821Y364880D01*
X463804Y364929D01*
X463777Y364973D01*
X463739Y365011D01*
X463733Y365017D01*
X463717Y365028D01*
X463689Y365038D01*
X463651Y365060D01*
X463597Y365077D01*
X463531Y365088D01*
X463449Y365099D01*
X463351Y365104D01*
X463318D01*
X463285Y365099D01*
X463242Y365093D01*
X463193Y365082D01*
X463138Y365071D01*
X463089Y365049D01*
X463045Y365022D01*
X463040Y365017D01*
X463029Y365006D01*
X463007Y364989D01*
X462985Y364962D01*
X462952Y364924D01*
X462925Y364875D01*
X462898Y364820D01*
X462870Y364755D01*
X462221Y364875D01*
Y364880D01*
X462226Y364891D01*
X462232Y364913D01*
X462243Y364940D01*
X462253Y364973D01*
X462270Y365011D01*
X462308Y365099D01*
X462363Y365191D01*
X462428Y365290D01*
X462505Y365383D01*
X462597Y365464D01*
X462603D01*
X462608Y365475D01*
X462625Y365481D01*
X462647Y365497D01*
X462679Y365508D01*
X462712Y365524D01*
X462756Y365546D01*
X462799Y365563D01*
X462854Y365579D01*
X462914Y365601D01*
X462980Y365617D01*
X463056Y365628D01*
X463132Y365645D01*
X463220Y365650D01*
X463307Y365661D01*
X463487D01*
X463526Y365655D01*
D02*
G37*
G36*
X487763Y365601D02*
X488259D01*
Y365022D01*
X487763D01*
Y363914D01*
Y363908D01*
Y363897D01*
Y363881D01*
Y363859D01*
Y363805D01*
Y363739D01*
X487768Y363673D01*
Y363608D01*
Y363559D01*
X487774Y363537D01*
Y363526D01*
X487779Y363515D01*
X487790Y363493D01*
X487806Y363466D01*
X487839Y363433D01*
X487850Y363428D01*
X487872Y363417D01*
X487910Y363406D01*
X487959Y363401D01*
X487981D01*
X488003Y363406D01*
X488036Y363411D01*
X488079Y363417D01*
X488128Y363428D01*
X488189Y363444D01*
X488254Y363466D01*
X488319Y362904D01*
X488314D01*
X488309Y362898D01*
X488276Y362887D01*
X488221Y362871D01*
X488150Y362855D01*
X488068Y362833D01*
X487970Y362816D01*
X487861Y362805D01*
X487746Y362800D01*
X487713D01*
X487675Y362805D01*
X487626Y362811D01*
X487571Y362816D01*
X487511Y362827D01*
X487451Y362844D01*
X487391Y362865D01*
X487386Y362871D01*
X487364Y362876D01*
X487337Y362893D01*
X487304Y362909D01*
X487227Y362964D01*
X487189Y362997D01*
X487156Y363035D01*
X487151Y363040D01*
X487146Y363056D01*
X487135Y363078D01*
X487118Y363111D01*
X487102Y363149D01*
X487085Y363198D01*
X487069Y363253D01*
X487058Y363313D01*
Y363319D01*
X487053Y363340D01*
Y363373D01*
X487047Y363428D01*
X487042Y363499D01*
Y363586D01*
X487036Y363635D01*
Y363695D01*
Y363755D01*
Y363826D01*
Y365022D01*
X486703D01*
Y365601D01*
X487036D01*
Y366147D01*
X487763Y366573D01*
Y365601D01*
D02*
G37*
G36*
X485207Y365655D02*
X485256Y365650D01*
X485317Y365639D01*
X485382Y365628D01*
X485453Y365612D01*
X485529Y365590D01*
X485606Y365563D01*
X485688Y365530D01*
X485770Y365486D01*
X485846Y365442D01*
X485922Y365388D01*
X485999Y365322D01*
X486064Y365251D01*
X486070Y365246D01*
X486081Y365235D01*
X486097Y365208D01*
X486119Y365175D01*
X486146Y365131D01*
X486174Y365082D01*
X486206Y365017D01*
X486239Y364946D01*
X486272Y364864D01*
X486305Y364771D01*
X486332Y364673D01*
X486359Y364558D01*
X486381Y364438D01*
X486398Y364307D01*
X486409Y364170D01*
Y364018D01*
X484596D01*
Y364012D01*
Y364001D01*
Y363985D01*
X484601Y363963D01*
X484607Y363908D01*
X484618Y363832D01*
X484640Y363755D01*
X484672Y363668D01*
X484710Y363586D01*
X484765Y363515D01*
X484770Y363510D01*
X484798Y363488D01*
X484831Y363461D01*
X484880Y363428D01*
X484940Y363395D01*
X485016Y363368D01*
X485098Y363346D01*
X485185Y363340D01*
X485213D01*
X485246Y363346D01*
X485284Y363351D01*
X485327Y363362D01*
X485377Y363379D01*
X485426Y363401D01*
X485469Y363433D01*
X485475Y363439D01*
X485491Y363450D01*
X485513Y363472D01*
X485535Y363504D01*
X485568Y363548D01*
X485595Y363597D01*
X485622Y363663D01*
X485649Y363734D01*
X486370Y363613D01*
Y363608D01*
X486365Y363597D01*
X486354Y363575D01*
X486343Y363548D01*
X486327Y363515D01*
X486310Y363477D01*
X486261Y363390D01*
X486201Y363291D01*
X486125Y363188D01*
X486032Y363095D01*
X485928Y363007D01*
X485922D01*
X485917Y362997D01*
X485895Y362991D01*
X485873Y362975D01*
X485846Y362958D01*
X485808Y362942D01*
X485770Y362926D01*
X485720Y362904D01*
X485611Y362865D01*
X485486Y362833D01*
X485338Y362811D01*
X485180Y362800D01*
X485147D01*
X485114Y362805D01*
X485065D01*
X485005Y362816D01*
X484934Y362827D01*
X484858Y362838D01*
X484781Y362860D01*
X484694Y362882D01*
X484607Y362915D01*
X484519Y362953D01*
X484432Y362997D01*
X484345Y363051D01*
X484263Y363111D01*
X484192Y363182D01*
X484121Y363264D01*
X484115Y363269D01*
X484110Y363280D01*
X484099Y363302D01*
X484077Y363330D01*
X484061Y363368D01*
X484039Y363411D01*
X484012Y363461D01*
X483990Y363521D01*
X483962Y363586D01*
X483941Y363657D01*
X483913Y363734D01*
X483897Y363821D01*
X483881Y363908D01*
X483864Y364001D01*
X483859Y364105D01*
X483853Y364209D01*
Y364214D01*
Y364236D01*
Y364274D01*
X483859Y364323D01*
X483864Y364378D01*
X483870Y364443D01*
X483881Y364514D01*
X483897Y364596D01*
X483941Y364766D01*
X483968Y364853D01*
X484001Y364946D01*
X484044Y365033D01*
X484094Y365115D01*
X484148Y365197D01*
X484208Y365273D01*
X484214Y365279D01*
X484225Y365290D01*
X484246Y365312D01*
X484274Y365333D01*
X484306Y365361D01*
X484350Y365393D01*
X484399Y365432D01*
X484454Y365470D01*
X484514Y365503D01*
X484585Y365541D01*
X484656Y365574D01*
X484738Y365601D01*
X484820Y365623D01*
X484912Y365645D01*
X485005Y365655D01*
X485104Y365661D01*
X485164D01*
X485207Y365655D01*
D02*
G37*
G36*
X469646D02*
X469695Y365650D01*
X469756Y365639D01*
X469821Y365628D01*
X469892Y365612D01*
X469968Y365590D01*
X470045Y365563D01*
X470127Y365530D01*
X470209Y365486D01*
X470285Y365442D01*
X470362Y365388D01*
X470438Y365322D01*
X470504Y365251D01*
X470509Y365246D01*
X470520Y365235D01*
X470536Y365208D01*
X470558Y365175D01*
X470585Y365131D01*
X470613Y365082D01*
X470646Y365017D01*
X470678Y364946D01*
X470711Y364864D01*
X470744Y364771D01*
X470771Y364673D01*
X470798Y364558D01*
X470820Y364438D01*
X470837Y364307D01*
X470848Y364170D01*
Y364018D01*
X469035D01*
Y364012D01*
Y364001D01*
Y363985D01*
X469040Y363963D01*
X469046Y363908D01*
X469057Y363832D01*
X469078Y363755D01*
X469111Y363668D01*
X469149Y363586D01*
X469204Y363515D01*
X469209Y363510D01*
X469237Y363488D01*
X469270Y363461D01*
X469319Y363428D01*
X469379Y363395D01*
X469455Y363368D01*
X469537Y363346D01*
X469624Y363340D01*
X469652D01*
X469685Y363346D01*
X469723Y363351D01*
X469766Y363362D01*
X469815Y363379D01*
X469865Y363401D01*
X469908Y363433D01*
X469914Y363439D01*
X469930Y363450D01*
X469952Y363472D01*
X469974Y363504D01*
X470007Y363548D01*
X470034Y363597D01*
X470061Y363663D01*
X470089Y363734D01*
X470809Y363613D01*
Y363608D01*
X470804Y363597D01*
X470793Y363575D01*
X470782Y363548D01*
X470766Y363515D01*
X470749Y363477D01*
X470700Y363390D01*
X470640Y363291D01*
X470564Y363188D01*
X470471Y363095D01*
X470367Y363007D01*
X470362D01*
X470356Y362997D01*
X470334Y362991D01*
X470312Y362975D01*
X470285Y362958D01*
X470247Y362942D01*
X470209Y362926D01*
X470159Y362904D01*
X470050Y362865D01*
X469925Y362833D01*
X469777Y362811D01*
X469619Y362800D01*
X469586D01*
X469554Y362805D01*
X469504D01*
X469444Y362816D01*
X469373Y362827D01*
X469297Y362838D01*
X469220Y362860D01*
X469133Y362882D01*
X469046Y362915D01*
X468958Y362953D01*
X468871Y362997D01*
X468784Y363051D01*
X468702Y363111D01*
X468631Y363182D01*
X468560Y363264D01*
X468554Y363269D01*
X468549Y363280D01*
X468538Y363302D01*
X468516Y363330D01*
X468500Y363368D01*
X468478Y363411D01*
X468451Y363461D01*
X468429Y363521D01*
X468401Y363586D01*
X468380Y363657D01*
X468352Y363734D01*
X468336Y363821D01*
X468320Y363908D01*
X468303Y364001D01*
X468298Y364105D01*
X468292Y364209D01*
Y364214D01*
Y364236D01*
Y364274D01*
X468298Y364323D01*
X468303Y364378D01*
X468309Y364443D01*
X468320Y364514D01*
X468336Y364596D01*
X468380Y364766D01*
X468407Y364853D01*
X468440Y364946D01*
X468483Y365033D01*
X468532Y365115D01*
X468587Y365197D01*
X468647Y365273D01*
X468653Y365279D01*
X468664Y365290D01*
X468685Y365312D01*
X468713Y365333D01*
X468745Y365361D01*
X468789Y365393D01*
X468838Y365432D01*
X468893Y365470D01*
X468953Y365503D01*
X469024Y365541D01*
X469095Y365574D01*
X469177Y365601D01*
X469259Y365623D01*
X469351Y365645D01*
X469444Y365655D01*
X469543Y365661D01*
X469603D01*
X469646Y365655D01*
D02*
G37*
%LPC*%
G36*
X485757Y378226D02*
X471075Y378213D01*
X471056Y378157D01*
X471069Y369503D01*
X471088Y369484D01*
X471138Y369472D01*
X471176Y369484D01*
X471213Y369472D01*
X471351Y369484D01*
X471389Y369472D01*
X484376D01*
X485600Y369478D01*
X485694Y369472D01*
X485732Y369484D01*
X485788Y369478D01*
X485833Y369510D01*
X485839Y369541D01*
X485826Y369579D01*
X485833Y369673D01*
X485826Y369805D01*
X485839Y369830D01*
X485826Y369867D01*
X485833Y378188D01*
X485807Y378213D01*
X485757Y378226D01*
D02*
G37*
%LPD*%
G36*
X478517Y375971D02*
X478529Y375921D01*
X478554Y375858D01*
X478592Y375770D01*
X478611Y375701D01*
X478642Y375594D01*
X478655Y375544D01*
X478680Y375482D01*
X478730Y375306D01*
X478761Y375224D01*
X478780Y375155D01*
X478805Y375092D01*
X478843Y375004D01*
X478856Y374929D01*
X478881Y374866D01*
X478906Y374778D01*
X478925Y374709D01*
X478963Y374671D01*
X479013Y374659D01*
X479057Y374653D01*
X480218Y374659D01*
X480256Y374646D01*
X480375Y374653D01*
X480413Y374615D01*
X480426Y374565D01*
X480369Y374496D01*
X480344Y374470D01*
X480319Y374458D01*
X480281Y374420D01*
X480256Y374408D01*
X480218Y374370D01*
X480156Y374332D01*
X480130Y374307D01*
X480105Y374295D01*
X480080Y374270D01*
X479992Y374219D01*
X479967Y374194D01*
X479942Y374182D01*
X479904Y374144D01*
X479879Y374131D01*
X479704Y374006D01*
X479678Y373993D01*
X479628Y373943D01*
X479603Y373930D01*
X479515Y373868D01*
X479490Y373843D01*
X479427Y373805D01*
X479402Y373780D01*
X479377Y373767D01*
X479320Y373723D01*
X479308Y373698D01*
X479283Y373635D01*
X479295Y373598D01*
X479333Y373510D01*
X479352Y373428D01*
X479383Y373321D01*
X479415Y373240D01*
X479427Y373177D01*
X479446Y373108D01*
X479484Y373020D01*
X479496Y372970D01*
X479528Y372888D01*
X479565Y372787D01*
X479578Y372725D01*
X479609Y372643D01*
X479634Y372543D01*
X479647Y372505D01*
Y372492D01*
X479685Y372404D01*
X479691Y372298D01*
X479666Y372260D01*
X479565Y372273D01*
X479515Y372323D01*
X479490Y372335D01*
X479421Y372392D01*
X479352Y372436D01*
X479277Y372486D01*
X479251Y372499D01*
X479201Y372549D01*
X479176Y372561D01*
X479138Y372599D01*
X479113Y372612D01*
X479025Y372674D01*
X479000Y372687D01*
X478887Y372775D01*
X478818Y372832D01*
X478718Y372894D01*
X478699Y372913D01*
X478674Y372926D01*
X478649Y372951D01*
X478561Y373001D01*
X478548Y373026D01*
X478460Y373064D01*
X478385Y373051D01*
X478322Y372989D01*
X478234Y372938D01*
X477989Y372756D01*
X477914Y372706D01*
X477882Y372674D01*
X477857Y372662D01*
X477769Y372599D01*
X477744Y372586D01*
X477694Y372536D01*
X477669Y372524D01*
X477644Y372499D01*
X477581Y372461D01*
X477506Y372411D01*
X477481Y372398D01*
X477411Y372342D01*
X477393Y372323D01*
X477330Y372285D01*
X477267Y372260D01*
X477217Y372273D01*
X477198Y372342D01*
X477229Y372486D01*
X477248Y372505D01*
X477267Y372586D01*
X477280Y372637D01*
X477298Y372693D01*
X477311Y372744D01*
X477367Y372901D01*
X477386Y372970D01*
X477449Y373133D01*
X477474Y373233D01*
X477499Y373296D01*
X477512Y373346D01*
X477537Y373434D01*
X477550Y373484D01*
X477575Y373547D01*
X477600Y373635D01*
X477581Y373704D01*
X477481Y373805D01*
X477393Y373855D01*
X477367Y373880D01*
X477305Y373918D01*
X477192Y374006D01*
X477167Y374031D01*
X477141Y374043D01*
X476721Y374351D01*
X476652Y374395D01*
X476626Y374420D01*
X476564Y374458D01*
X476539Y374483D01*
X476513Y374496D01*
X476482Y374527D01*
X476469Y374577D01*
X476507Y374640D01*
X476526Y374659D01*
X476733Y374653D01*
X477845Y374659D01*
X477857Y374646D01*
X477895Y374659D01*
X477920Y374671D01*
X477964Y374715D01*
X477989Y374803D01*
X478002Y374853D01*
X478033Y374935D01*
X478052Y375004D01*
X478064Y375055D01*
X478115Y375167D01*
X478134Y375237D01*
X478152Y375293D01*
X478177Y375356D01*
X478190Y375431D01*
X478228Y375519D01*
X478265Y375670D01*
X478291Y375733D01*
X478309Y375814D01*
X478353Y375896D01*
X478385Y375978D01*
X478410Y376003D01*
X478460Y376015D01*
X478517Y375971D01*
D02*
G37*
%LPC*%
G36*
X466458Y365104D02*
X466447D01*
X466414Y365099D01*
X466365Y365093D01*
X466310Y365077D01*
X466239Y365055D01*
X466168Y365017D01*
X466097Y364967D01*
X466026Y364896D01*
X466021Y364886D01*
X465999Y364858D01*
X465972Y364809D01*
X465944Y364744D01*
X465912Y364656D01*
X465884Y364553D01*
X465863Y364427D01*
X465857Y364285D01*
Y364280D01*
Y364269D01*
Y364241D01*
Y364214D01*
X465863Y364176D01*
Y364138D01*
X465873Y364045D01*
X465884Y363941D01*
X465906Y363832D01*
X465939Y363734D01*
X465955Y363690D01*
X465977Y363652D01*
Y363646D01*
X465988Y363641D01*
X466010Y363608D01*
X466048Y363564D01*
X466103Y363515D01*
X466174Y363461D01*
X466256Y363417D01*
X466354Y363384D01*
X466408Y363379D01*
X466463Y363373D01*
X466474D01*
X466507Y363379D01*
X466550Y363384D01*
X466610Y363401D01*
X466676Y363422D01*
X466747Y363461D01*
X466818Y363510D01*
X466889Y363581D01*
X466894Y363592D01*
X466916Y363619D01*
X466944Y363668D01*
X466976Y363739D01*
X467009Y363826D01*
X467036Y363936D01*
X467058Y364067D01*
X467064Y364214D01*
Y364219D01*
Y364236D01*
Y364258D01*
Y364290D01*
X467058Y364329D01*
X467053Y364378D01*
X467042Y364476D01*
X467020Y364591D01*
X466993Y364700D01*
X466949Y364809D01*
X466922Y364853D01*
X466889Y364896D01*
X466884Y364908D01*
X466856Y364929D01*
X466823Y364962D01*
X466774Y365000D01*
X466709Y365038D01*
X466638Y365071D01*
X466550Y365093D01*
X466458Y365104D01*
D02*
G37*
G36*
X493496Y364170D02*
X493490D01*
X493468Y364159D01*
X493435Y364154D01*
X493386Y364138D01*
X493326Y364121D01*
X493244Y364099D01*
X493157Y364077D01*
X493048Y364056D01*
X493037D01*
X493021Y364050D01*
X492999Y364045D01*
X492950Y364034D01*
X492884Y364018D01*
X492818Y364001D01*
X492753Y363979D01*
X492698Y363952D01*
X492655Y363930D01*
X492649Y363925D01*
X492633Y363914D01*
X492611Y363892D01*
X492589Y363865D01*
X492562Y363826D01*
X492540Y363783D01*
X492524Y363734D01*
X492518Y363679D01*
Y363673D01*
Y363652D01*
X492524Y363624D01*
X492535Y363592D01*
X492546Y363548D01*
X492562Y363504D01*
X492589Y363461D01*
X492627Y363417D01*
X492633Y363411D01*
X492649Y363401D01*
X492671Y363384D01*
X492709Y363362D01*
X492747Y363340D01*
X492797Y363324D01*
X492857Y363313D01*
X492917Y363308D01*
X492950D01*
X492988Y363313D01*
X493037Y363324D01*
X493097Y363340D01*
X493157Y363362D01*
X493228Y363390D01*
X493294Y363433D01*
X493299Y363439D01*
X493315Y363450D01*
X493337Y363472D01*
X493364Y363499D01*
X493392Y363537D01*
X493419Y363575D01*
X493446Y363624D01*
X493463Y363673D01*
Y363679D01*
X493468Y363690D01*
X493474Y363717D01*
X493479Y363750D01*
X493485Y363799D01*
X493490Y363859D01*
X493496Y363936D01*
Y364023D01*
Y364170D01*
D02*
G37*
G36*
X463848Y364170D02*
X463842D01*
X463821Y364159D01*
X463788Y364154D01*
X463739Y364138D01*
X463679Y364121D01*
X463597Y364099D01*
X463509Y364077D01*
X463400Y364056D01*
X463389D01*
X463373Y364050D01*
X463351Y364045D01*
X463302Y364034D01*
X463236Y364018D01*
X463171Y364001D01*
X463105Y363979D01*
X463051Y363952D01*
X463007Y363930D01*
X463001Y363925D01*
X462985Y363914D01*
X462963Y363892D01*
X462941Y363865D01*
X462914Y363826D01*
X462892Y363783D01*
X462876Y363734D01*
X462870Y363679D01*
Y363673D01*
Y363652D01*
X462876Y363624D01*
X462887Y363592D01*
X462898Y363548D01*
X462914Y363504D01*
X462941Y363461D01*
X462980Y363417D01*
X462985Y363411D01*
X463001Y363401D01*
X463023Y363384D01*
X463062Y363362D01*
X463100Y363340D01*
X463149Y363324D01*
X463209Y363313D01*
X463269Y363308D01*
X463302D01*
X463340Y363313D01*
X463389Y363324D01*
X463449Y363340D01*
X463509Y363362D01*
X463580Y363390D01*
X463646Y363433D01*
X463651Y363439D01*
X463668Y363450D01*
X463689Y363472D01*
X463717Y363499D01*
X463744Y363537D01*
X463771Y363575D01*
X463799Y363624D01*
X463815Y363673D01*
Y363679D01*
X463821Y363690D01*
X463826Y363717D01*
X463831Y363750D01*
X463837Y363799D01*
X463842Y363859D01*
X463848Y363936D01*
Y364023D01*
Y364170D01*
D02*
G37*
G36*
X485147Y365104D02*
X485109D01*
X485065Y365093D01*
X485011Y365082D01*
X484951Y365060D01*
X484885Y365033D01*
X484820Y364989D01*
X484760Y364929D01*
X484754Y364924D01*
X484738Y364896D01*
X484710Y364858D01*
X484683Y364804D01*
X484650Y364738D01*
X484628Y364656D01*
X484612Y364563D01*
X484607Y364460D01*
X485688D01*
Y364465D01*
Y364476D01*
Y364487D01*
X485682Y364509D01*
X485677Y364569D01*
X485666Y364634D01*
X485644Y364711D01*
X485617Y364793D01*
X485573Y364869D01*
X485524Y364935D01*
X485519Y364940D01*
X485497Y364962D01*
X485464Y364989D01*
X485420Y365022D01*
X485366Y365049D01*
X485300Y365077D01*
X485229Y365099D01*
X485147Y365104D01*
D02*
G37*
G36*
X469586D02*
X469548D01*
X469504Y365093D01*
X469450Y365082D01*
X469390Y365060D01*
X469324Y365033D01*
X469259Y364989D01*
X469199Y364929D01*
X469193Y364924D01*
X469177Y364896D01*
X469149Y364858D01*
X469122Y364804D01*
X469089Y364738D01*
X469067Y364656D01*
X469051Y364563D01*
X469046Y364460D01*
X470127D01*
Y364465D01*
Y364476D01*
Y364487D01*
X470121Y364509D01*
X470116Y364569D01*
X470105Y364634D01*
X470083Y364711D01*
X470056Y364793D01*
X470012Y364869D01*
X469963Y364935D01*
X469957Y364940D01*
X469936Y364962D01*
X469903Y364989D01*
X469859Y365022D01*
X469805Y365049D01*
X469739Y365077D01*
X469668Y365099D01*
X469586Y365104D01*
D02*
G37*
%LPD*%
D22*
X474902Y561614D02*
D03*
Y543898D02*
D03*
X506201Y561614D02*
D03*
Y543898D02*
D03*
X415846Y563583D02*
D03*
X447146Y581299D02*
D03*
Y563583D02*
D03*
X415846Y581299D02*
D03*
X356791Y561614D02*
D03*
Y543898D02*
D03*
X388090Y561614D02*
D03*
Y543898D02*
D03*
X447146Y524213D02*
D03*
X447146Y541929D02*
D03*
X415846Y524213D02*
D03*
Y541929D02*
D03*
X356791Y506496D02*
D03*
Y488780D02*
D03*
X388091Y506496D02*
D03*
Y488780D02*
D03*
X474902Y506496D02*
D03*
X474902Y488780D02*
D03*
X506201Y506496D02*
D03*
Y488780D02*
D03*
X415846Y506496D02*
D03*
Y488779D02*
D03*
X447146Y506496D02*
D03*
Y488779D02*
D03*
X415846Y475000D02*
D03*
Y457283D02*
D03*
X447146Y475000D02*
D03*
Y457283D02*
D03*
X356791Y475000D02*
D03*
Y457283D02*
D03*
X388090Y475000D02*
D03*
Y457283D02*
D03*
X356791Y443504D02*
D03*
Y425787D02*
D03*
X388090Y443504D02*
D03*
Y425787D02*
D03*
X415846Y443504D02*
D03*
Y425787D02*
D03*
X447146Y443504D02*
D03*
Y425787D02*
D03*
X474902Y457283D02*
D03*
X506201D02*
D03*
Y475000D02*
D03*
X474902D02*
D03*
X474902Y443504D02*
D03*
Y425787D02*
D03*
X506201Y443504D02*
D03*
Y425787D02*
D03*
X474902Y412008D02*
D03*
Y394291D02*
D03*
X506201Y412008D02*
D03*
Y394291D02*
D03*
X415846Y412008D02*
D03*
Y394291D02*
D03*
X447146Y412008D02*
D03*
Y394291D02*
D03*
X388091D02*
D03*
Y412008D02*
D03*
X356791Y394291D02*
D03*
Y412008D02*
D03*
D23*
X505905Y628642D02*
D03*
Y634547D02*
D03*
X505904Y697146D02*
D03*
Y691240D02*
D03*
X357087Y628642D02*
D03*
Y634547D02*
D03*
X357085Y697146D02*
D03*
Y691240D02*
D03*
D24*
X415335Y726975D02*
D03*
X419373D02*
D03*
X423411D02*
D03*
X427448D02*
D03*
X443598Y727032D02*
D03*
X439561D02*
D03*
X435523D02*
D03*
X431485D02*
D03*
X447635D02*
D03*
D25*
X475492Y770472D02*
D03*
X497736D02*
D03*
D26*
X486614Y771654D02*
D03*
D27*
X520079Y406299D02*
D03*
Y439370D02*
D03*
D28*
Y430709D02*
D03*
Y422835D02*
D03*
Y414961D02*
D03*
X381102Y364705D02*
D03*
X388976D02*
D03*
X396752Y743701D02*
D03*
D29*
X512402Y686221D02*
D03*
D30*
Y705905D02*
D03*
D31*
X445276Y366576D02*
D03*
X417717D02*
D03*
D32*
X421654Y377205D02*
D03*
X441339D02*
D03*
D33*
X366535Y714764D02*
D03*
X500394Y610433D02*
D03*
D34*
X353149Y731299D02*
D03*
X509843D02*
D03*
X353149Y650984D02*
D03*
X509843D02*
D03*
D35*
X388878Y743701D02*
D03*
D36*
X524606Y615925D02*
D03*
Y605925D02*
D03*
Y595925D02*
D03*
X456024Y389370D02*
D03*
X339075Y595925D02*
D03*
Y605925D02*
D03*
Y615925D02*
D03*
X486695Y762447D02*
D03*
D37*
X524606Y585925D02*
D03*
X339075D02*
D03*
D38*
X380197Y752658D02*
D03*
D39*
X370197D02*
D03*
D40*
X466024Y389370D02*
D03*
D41*
X349213Y371654D02*
D03*
X514567D02*
D03*
X349213Y773228D02*
D03*
X514567D02*
D03*
M02*
