G04*
G04 #@! TF.GenerationSoftware,Altium Limited,Altium Designer,23.0.1 (38)*
G04*
G04 Layer_Color=32768*
%FSLAX25Y25*%
%MOIN*%
G70*
G04*
G04 #@! TF.SameCoordinates,D75D10E2-2566-4FA1-905F-50A539E45678*
G04*
G04*
G04 #@! TF.FilePolarity,Positive*
G04*
G01*
G75*
%ADD10C,0.00394*%
%ADD12C,0.00787*%
%ADD128C,0.00394*%
G36*
X498845Y508124D02*
X498914Y508117D01*
X498980Y508103D01*
X499035Y508088D01*
X499078Y508073D01*
X499115Y508059D01*
X499136Y508051D01*
X499140Y508048D01*
X499144D01*
X499202Y508015D01*
X499257Y507979D01*
X499300Y507942D01*
X499337Y507909D01*
X499366Y507877D01*
X499388Y507851D01*
X499402Y507837D01*
X499406Y507830D01*
X499439Y507775D01*
X499468Y507717D01*
X499490Y507655D01*
X499511Y507596D01*
X499526Y507542D01*
X499537Y507502D01*
X499541Y507484D01*
Y507473D01*
X499544Y507466D01*
Y507462D01*
X499100Y507389D01*
X499089Y507447D01*
X499075Y507498D01*
X499060Y507542D01*
X499042Y507575D01*
X499024Y507604D01*
X499009Y507626D01*
X498998Y507636D01*
X498994Y507640D01*
X498962Y507669D01*
X498925Y507691D01*
X498889Y507706D01*
X498856Y507717D01*
X498827Y507724D01*
X498805Y507727D01*
X498783D01*
X498740Y507724D01*
X498696Y507717D01*
X498663Y507702D01*
X498634Y507691D01*
X498609Y507677D01*
X498594Y507662D01*
X498583Y507655D01*
X498580Y507651D01*
X498554Y507622D01*
X498536Y507586D01*
X498521Y507553D01*
X498514Y507520D01*
X498507Y507491D01*
X498503Y507469D01*
Y507454D01*
Y507447D01*
X498507Y507393D01*
X498518Y507345D01*
X498536Y507305D01*
X498554Y507272D01*
X498576Y507243D01*
X498591Y507225D01*
X498605Y507211D01*
X498609Y507207D01*
X498652Y507178D01*
X498700Y507156D01*
X498751Y507141D01*
X498798Y507131D01*
X498842Y507127D01*
X498878Y507123D01*
X498911D01*
X498962Y506734D01*
X498914Y506745D01*
X498874Y506756D01*
X498834Y506763D01*
X498802Y506767D01*
X498776Y506770D01*
X498740D01*
X498689Y506767D01*
X498645Y506752D01*
X498605Y506738D01*
X498569Y506716D01*
X498543Y506697D01*
X498521Y506679D01*
X498507Y506665D01*
X498503Y506661D01*
X498470Y506617D01*
X498445Y506570D01*
X498427Y506523D01*
X498412Y506475D01*
X498405Y506432D01*
X498401Y506399D01*
Y506377D01*
Y506374D01*
Y506370D01*
X498405Y506301D01*
X498416Y506239D01*
X498434Y506184D01*
X498452Y506141D01*
X498474Y506108D01*
X498489Y506082D01*
X498503Y506064D01*
X498507Y506060D01*
X498547Y506024D01*
X498591Y505995D01*
X498631Y505977D01*
X498671Y505962D01*
X498707Y505955D01*
X498733Y505951D01*
X498751Y505948D01*
X498758D01*
X498809Y505951D01*
X498853Y505962D01*
X498893Y505977D01*
X498929Y505995D01*
X498954Y506009D01*
X498976Y506024D01*
X498991Y506035D01*
X498994Y506039D01*
X499027Y506079D01*
X499056Y506122D01*
X499075Y506170D01*
X499093Y506213D01*
X499104Y506253D01*
X499111Y506286D01*
X499115Y506308D01*
Y506312D01*
Y506315D01*
X499581Y506257D01*
X499573Y506199D01*
X499559Y506144D01*
X499526Y506042D01*
X499486Y505955D01*
X499461Y505919D01*
X499439Y505882D01*
X499417Y505849D01*
X499395Y505824D01*
X499377Y505798D01*
X499359Y505780D01*
X499344Y505766D01*
X499333Y505755D01*
X499326Y505747D01*
X499322Y505744D01*
X499278Y505711D01*
X499231Y505678D01*
X499188Y505653D01*
X499136Y505631D01*
X499042Y505594D01*
X498954Y505573D01*
X498911Y505565D01*
X498874Y505558D01*
X498842Y505554D01*
X498813Y505551D01*
X498787Y505547D01*
X498754D01*
X498689Y505551D01*
X498623Y505558D01*
X498565Y505569D01*
X498507Y505584D01*
X498456Y505602D01*
X498405Y505620D01*
X498357Y505642D01*
X498317Y505664D01*
X498281Y505686D01*
X498245Y505707D01*
X498219Y505725D01*
X498194Y505744D01*
X498176Y505758D01*
X498161Y505769D01*
X498154Y505777D01*
X498150Y505780D01*
X498106Y505824D01*
X498070Y505871D01*
X498037Y505919D01*
X498008Y505966D01*
X497986Y506017D01*
X497964Y506064D01*
X497935Y506151D01*
X497928Y506191D01*
X497921Y506231D01*
X497914Y506264D01*
X497910Y506293D01*
X497906Y506315D01*
Y506333D01*
Y506344D01*
Y506348D01*
X497914Y506432D01*
X497928Y506504D01*
X497946Y506574D01*
X497972Y506628D01*
X497997Y506676D01*
X498015Y506708D01*
X498030Y506730D01*
X498037Y506738D01*
X498088Y506792D01*
X498146Y506839D01*
X498205Y506876D01*
X498259Y506905D01*
X498307Y506927D01*
X498347Y506938D01*
X498361Y506945D01*
X498372D01*
X498379Y506949D01*
X498383D01*
X498317Y506989D01*
X498263Y507029D01*
X498216Y507072D01*
X498172Y507116D01*
X498136Y507160D01*
X498106Y507203D01*
X498085Y507247D01*
X498063Y507287D01*
X498048Y507327D01*
X498037Y507364D01*
X498030Y507396D01*
X498026Y507425D01*
X498023Y507447D01*
X498019Y507466D01*
Y507476D01*
Y507480D01*
X498023Y507524D01*
X498026Y507564D01*
X498048Y507644D01*
X498074Y507717D01*
X498106Y507779D01*
X498139Y507830D01*
X498168Y507866D01*
X498179Y507880D01*
X498190Y507891D01*
X498194Y507895D01*
X498197Y507899D01*
X498237Y507939D01*
X498285Y507975D01*
X498328Y508004D01*
X498376Y508030D01*
X498427Y508055D01*
X498474Y508073D01*
X498565Y508099D01*
X498605Y508110D01*
X498645Y508117D01*
X498678Y508121D01*
X498711Y508124D01*
X498736Y508128D01*
X498769D01*
X498845Y508124D01*
D02*
G37*
G36*
X497688Y506519D02*
Y506101D01*
X496654D01*
Y505594D01*
X496188D01*
Y506101D01*
X495875D01*
Y506523D01*
X496188D01*
Y508124D01*
X496596D01*
X497688Y506519D01*
D02*
G37*
G36*
X503377Y508157D02*
X503472Y508146D01*
X503555Y508132D01*
X503628Y508117D01*
X503661Y508106D01*
X503690Y508099D01*
X503712Y508091D01*
X503734Y508084D01*
X503748Y508077D01*
X503759Y508073D01*
X503767Y508070D01*
X503770D01*
X503843Y508033D01*
X503905Y507993D01*
X503960Y507950D01*
X504003Y507909D01*
X504040Y507873D01*
X504061Y507844D01*
X504080Y507822D01*
X504083Y507819D01*
Y507815D01*
X504120Y507753D01*
X504145Y507688D01*
X504163Y507626D01*
X504174Y507571D01*
X504181Y507524D01*
X504189Y507487D01*
Y507473D01*
Y507462D01*
Y507458D01*
Y507454D01*
X504185Y507400D01*
X504178Y507345D01*
X504167Y507298D01*
X504152Y507251D01*
X504116Y507163D01*
X504072Y507087D01*
X504054Y507054D01*
X504032Y507029D01*
X504014Y507003D01*
X503996Y506981D01*
X503981Y506967D01*
X503970Y506956D01*
X503963Y506949D01*
X503960Y506945D01*
X503927Y506919D01*
X503887Y506894D01*
X503847Y506869D01*
X503799Y506847D01*
X503708Y506803D01*
X503614Y506767D01*
X503566Y506752D01*
X503526Y506738D01*
X503486Y506727D01*
X503453Y506716D01*
X503428Y506708D01*
X503406Y506701D01*
X503392Y506697D01*
X503388D01*
X503330Y506683D01*
X503279Y506668D01*
X503231Y506657D01*
X503188Y506646D01*
X503151Y506636D01*
X503119Y506628D01*
X503090Y506617D01*
X503064Y506610D01*
X503042Y506606D01*
X503024Y506599D01*
X502998Y506592D01*
X502984Y506585D01*
X502980D01*
X502933Y506566D01*
X502897Y506548D01*
X502864Y506530D01*
X502838Y506512D01*
X502820Y506497D01*
X502809Y506486D01*
X502802Y506479D01*
X502798Y506475D01*
X502780Y506450D01*
X502766Y506424D01*
X502758Y506399D01*
X502751Y506377D01*
X502747Y506355D01*
X502744Y506337D01*
Y506326D01*
Y506322D01*
X502747Y506272D01*
X502762Y506228D01*
X502784Y506184D01*
X502806Y506148D01*
X502831Y506119D01*
X502849Y506097D01*
X502864Y506082D01*
X502871Y506079D01*
X502922Y506046D01*
X502980Y506020D01*
X503042Y506002D01*
X503100Y505991D01*
X503155Y505984D01*
X503199Y505977D01*
X503239D01*
X503323Y505980D01*
X503395Y505995D01*
X503457Y506013D01*
X503512Y506035D01*
X503555Y506057D01*
X503585Y506075D01*
X503603Y506089D01*
X503610Y506093D01*
X503657Y506144D01*
X503694Y506199D01*
X503727Y506261D01*
X503748Y506322D01*
X503767Y506377D01*
X503781Y506421D01*
X503785Y506435D01*
Y506450D01*
X503788Y506457D01*
Y506461D01*
X504284Y506414D01*
X504273Y506337D01*
X504258Y506264D01*
X504236Y506195D01*
X504218Y506133D01*
X504192Y506075D01*
X504167Y506020D01*
X504142Y505973D01*
X504116Y505929D01*
X504090Y505893D01*
X504065Y505860D01*
X504043Y505831D01*
X504021Y505806D01*
X504007Y505787D01*
X503992Y505777D01*
X503985Y505769D01*
X503981Y505766D01*
X503930Y505725D01*
X503876Y505693D01*
X503818Y505664D01*
X503756Y505638D01*
X503697Y505620D01*
X503636Y505602D01*
X503515Y505576D01*
X503461Y505565D01*
X503410Y505558D01*
X503366Y505554D01*
X503326Y505551D01*
X503293Y505547D01*
X503246D01*
X503130Y505551D01*
X503024Y505562D01*
X502929Y505576D01*
X502889Y505584D01*
X502849Y505594D01*
X502817Y505602D01*
X502787Y505609D01*
X502762Y505616D01*
X502740Y505624D01*
X502722Y505631D01*
X502711Y505634D01*
X502704Y505638D01*
X502700D01*
X502620Y505678D01*
X502555Y505722D01*
X502493Y505766D01*
X502445Y505813D01*
X502409Y505853D01*
X502380Y505889D01*
X502365Y505911D01*
X502358Y505915D01*
Y505919D01*
X502318Y505991D01*
X502285Y506060D01*
X502263Y506130D01*
X502249Y506195D01*
X502241Y506246D01*
X502238Y506272D01*
X502234Y506290D01*
Y506304D01*
Y506315D01*
Y506322D01*
Y506326D01*
X502238Y506414D01*
X502249Y506490D01*
X502267Y506559D01*
X502285Y506617D01*
X502303Y506665D01*
X502321Y506697D01*
X502332Y506719D01*
X502336Y506727D01*
X502376Y506785D01*
X502423Y506836D01*
X502471Y506879D01*
X502514Y506916D01*
X502555Y506945D01*
X502587Y506967D01*
X502609Y506981D01*
X502613Y506985D01*
X502616D01*
X502653Y507003D01*
X502689Y507021D01*
X502776Y507054D01*
X502868Y507083D01*
X502955Y507112D01*
X502995Y507123D01*
X503035Y507134D01*
X503071Y507145D01*
X503100Y507152D01*
X503126Y507160D01*
X503144Y507163D01*
X503159Y507167D01*
X503162D01*
X503228Y507185D01*
X503286Y507200D01*
X503341Y507214D01*
X503392Y507229D01*
X503432Y507243D01*
X503472Y507258D01*
X503505Y507272D01*
X503534Y507283D01*
X503559Y507294D01*
X503577Y507305D01*
X503595Y507313D01*
X503606Y507320D01*
X503625Y507331D01*
X503628Y507334D01*
X503654Y507360D01*
X503672Y507385D01*
X503683Y507411D01*
X503690Y507436D01*
X503697Y507454D01*
X503701Y507473D01*
Y507484D01*
Y507487D01*
X503697Y507524D01*
X503690Y507553D01*
X503676Y507582D01*
X503661Y507604D01*
X503647Y507622D01*
X503632Y507633D01*
X503625Y507640D01*
X503621Y507644D01*
X503570Y507677D01*
X503515Y507698D01*
X503457Y507717D01*
X503403Y507727D01*
X503355Y507735D01*
X503315Y507738D01*
X503279D01*
X503202Y507735D01*
X503137Y507724D01*
X503082Y507709D01*
X503039Y507695D01*
X503002Y507680D01*
X502977Y507666D01*
X502962Y507655D01*
X502958Y507651D01*
X502922Y507615D01*
X502889Y507571D01*
X502864Y507527D01*
X502846Y507480D01*
X502831Y507440D01*
X502824Y507407D01*
X502817Y507382D01*
Y507378D01*
Y507374D01*
X502307Y507393D01*
X502311Y507458D01*
X502321Y507516D01*
X502336Y507575D01*
X502354Y507626D01*
X502373Y507677D01*
X502394Y507724D01*
X502416Y507764D01*
X502438Y507804D01*
X502463Y507837D01*
X502485Y507866D01*
X502507Y507891D01*
X502525Y507913D01*
X502540Y507928D01*
X502551Y507939D01*
X502558Y507946D01*
X502562Y507950D01*
X502609Y507986D01*
X502660Y508019D01*
X502715Y508048D01*
X502773Y508073D01*
X502831Y508091D01*
X502889Y508110D01*
X503006Y508135D01*
X503060Y508143D01*
X503108Y508150D01*
X503155Y508153D01*
X503195Y508157D01*
X503228Y508161D01*
X503272D01*
X503377Y508157D01*
D02*
G37*
G36*
X501029D02*
X501124Y508146D01*
X501208Y508132D01*
X501280Y508117D01*
X501313Y508106D01*
X501342Y508099D01*
X501364Y508091D01*
X501386Y508084D01*
X501401Y508077D01*
X501411Y508073D01*
X501419Y508070D01*
X501422D01*
X501495Y508033D01*
X501557Y507993D01*
X501612Y507950D01*
X501655Y507909D01*
X501692Y507873D01*
X501714Y507844D01*
X501732Y507822D01*
X501735Y507819D01*
Y507815D01*
X501772Y507753D01*
X501797Y507688D01*
X501816Y507626D01*
X501826Y507571D01*
X501834Y507524D01*
X501841Y507487D01*
Y507473D01*
Y507462D01*
Y507458D01*
Y507454D01*
X501837Y507400D01*
X501830Y507345D01*
X501819Y507298D01*
X501805Y507251D01*
X501768Y507163D01*
X501724Y507087D01*
X501706Y507054D01*
X501685Y507029D01*
X501666Y507003D01*
X501648Y506981D01*
X501634Y506967D01*
X501623Y506956D01*
X501615Y506949D01*
X501612Y506945D01*
X501579Y506919D01*
X501539Y506894D01*
X501499Y506869D01*
X501452Y506847D01*
X501361Y506803D01*
X501266Y506767D01*
X501219Y506752D01*
X501179Y506738D01*
X501138Y506727D01*
X501106Y506716D01*
X501080Y506708D01*
X501058Y506701D01*
X501044Y506697D01*
X501040D01*
X500982Y506683D01*
X500931Y506668D01*
X500884Y506657D01*
X500840Y506646D01*
X500804Y506636D01*
X500771Y506628D01*
X500742Y506617D01*
X500716Y506610D01*
X500694Y506606D01*
X500676Y506599D01*
X500651Y506592D01*
X500636Y506585D01*
X500632D01*
X500585Y506566D01*
X500549Y506548D01*
X500516Y506530D01*
X500491Y506512D01*
X500472Y506497D01*
X500461Y506486D01*
X500454Y506479D01*
X500451Y506475D01*
X500432Y506450D01*
X500418Y506424D01*
X500411Y506399D01*
X500403Y506377D01*
X500400Y506355D01*
X500396Y506337D01*
Y506326D01*
Y506322D01*
X500400Y506272D01*
X500414Y506228D01*
X500436Y506184D01*
X500458Y506148D01*
X500483Y506119D01*
X500501Y506097D01*
X500516Y506082D01*
X500523Y506079D01*
X500574Y506046D01*
X500632Y506020D01*
X500694Y506002D01*
X500753Y505991D01*
X500807Y505984D01*
X500851Y505977D01*
X500891D01*
X500975Y505980D01*
X501048Y505995D01*
X501109Y506013D01*
X501164Y506035D01*
X501208Y506057D01*
X501237Y506075D01*
X501255Y506089D01*
X501262Y506093D01*
X501310Y506144D01*
X501346Y506199D01*
X501379Y506261D01*
X501401Y506322D01*
X501419Y506377D01*
X501433Y506421D01*
X501437Y506435D01*
Y506450D01*
X501441Y506457D01*
Y506461D01*
X501936Y506414D01*
X501925Y506337D01*
X501910Y506264D01*
X501888Y506195D01*
X501870Y506133D01*
X501845Y506075D01*
X501819Y506020D01*
X501794Y505973D01*
X501768Y505929D01*
X501743Y505893D01*
X501717Y505860D01*
X501695Y505831D01*
X501674Y505806D01*
X501659Y505787D01*
X501645Y505777D01*
X501637Y505769D01*
X501634Y505766D01*
X501583Y505725D01*
X501528Y505693D01*
X501470Y505664D01*
X501408Y505638D01*
X501350Y505620D01*
X501288Y505602D01*
X501168Y505576D01*
X501113Y505565D01*
X501062Y505558D01*
X501018Y505554D01*
X500978Y505551D01*
X500946Y505547D01*
X500898D01*
X500782Y505551D01*
X500676Y505562D01*
X500582Y505576D01*
X500542Y505584D01*
X500501Y505594D01*
X500469Y505602D01*
X500440Y505609D01*
X500414Y505616D01*
X500392Y505624D01*
X500374Y505631D01*
X500363Y505634D01*
X500356Y505638D01*
X500352D01*
X500272Y505678D01*
X500207Y505722D01*
X500145Y505766D01*
X500098Y505813D01*
X500061Y505853D01*
X500032Y505889D01*
X500017Y505911D01*
X500010Y505915D01*
Y505919D01*
X499970Y505991D01*
X499937Y506060D01*
X499916Y506130D01*
X499901Y506195D01*
X499894Y506246D01*
X499890Y506272D01*
X499886Y506290D01*
Y506304D01*
Y506315D01*
Y506322D01*
Y506326D01*
X499890Y506414D01*
X499901Y506490D01*
X499919Y506559D01*
X499937Y506617D01*
X499956Y506665D01*
X499974Y506697D01*
X499985Y506719D01*
X499988Y506727D01*
X500028Y506785D01*
X500076Y506836D01*
X500123Y506879D01*
X500167Y506916D01*
X500207Y506945D01*
X500239Y506967D01*
X500261Y506981D01*
X500265Y506985D01*
X500269D01*
X500305Y507003D01*
X500341Y507021D01*
X500429Y507054D01*
X500520Y507083D01*
X500607Y507112D01*
X500647Y507123D01*
X500687Y507134D01*
X500724Y507145D01*
X500753Y507152D01*
X500778Y507160D01*
X500796Y507163D01*
X500811Y507167D01*
X500814D01*
X500880Y507185D01*
X500938Y507200D01*
X500993Y507214D01*
X501044Y507229D01*
X501084Y507243D01*
X501124Y507258D01*
X501157Y507272D01*
X501186Y507283D01*
X501211Y507294D01*
X501229Y507305D01*
X501248Y507313D01*
X501259Y507320D01*
X501277Y507331D01*
X501280Y507334D01*
X501306Y507360D01*
X501324Y507385D01*
X501335Y507411D01*
X501342Y507436D01*
X501350Y507454D01*
X501353Y507473D01*
Y507484D01*
Y507487D01*
X501350Y507524D01*
X501342Y507553D01*
X501328Y507582D01*
X501313Y507604D01*
X501299Y507622D01*
X501284Y507633D01*
X501277Y507640D01*
X501273Y507644D01*
X501222Y507677D01*
X501168Y507698D01*
X501109Y507717D01*
X501055Y507727D01*
X501008Y507735D01*
X500967Y507738D01*
X500931D01*
X500855Y507735D01*
X500789Y507724D01*
X500735Y507709D01*
X500691Y507695D01*
X500654Y507680D01*
X500629Y507666D01*
X500614Y507655D01*
X500611Y507651D01*
X500574Y507615D01*
X500542Y507571D01*
X500516Y507527D01*
X500498Y507480D01*
X500483Y507440D01*
X500476Y507407D01*
X500469Y507382D01*
Y507378D01*
Y507374D01*
X499959Y507393D01*
X499963Y507458D01*
X499974Y507516D01*
X499988Y507575D01*
X500006Y507626D01*
X500025Y507677D01*
X500046Y507724D01*
X500068Y507764D01*
X500090Y507804D01*
X500116Y507837D01*
X500138Y507866D01*
X500159Y507891D01*
X500177Y507913D01*
X500192Y507928D01*
X500203Y507939D01*
X500210Y507946D01*
X500214Y507950D01*
X500261Y507986D01*
X500312Y508019D01*
X500367Y508048D01*
X500425Y508073D01*
X500483Y508091D01*
X500542Y508110D01*
X500658Y508135D01*
X500713Y508143D01*
X500760Y508150D01*
X500807Y508153D01*
X500847Y508157D01*
X500880Y508161D01*
X500924D01*
X501029Y508157D01*
D02*
G37*
%LPC*%
G36*
X496654Y507389D02*
Y506523D01*
X497240D01*
X496654Y507389D01*
D02*
G37*
%LPD*%
D10*
X431496Y788745D02*
G03*
X431265Y788976I-231J0D01*
G01*
X333465Y355906D02*
X530315D01*
X333465Y788976D02*
X530315D01*
Y355906D02*
Y788976D01*
X333465Y355906D02*
Y788976D01*
X345276Y371654D02*
Y371654D01*
X345276Y371654D02*
X353150D01*
X349213Y367717D02*
Y375591D01*
X510630Y371654D02*
Y371654D01*
X510630Y371654D02*
X518504D01*
X514567Y367717D02*
Y375591D01*
X510630Y773228D02*
Y773228D01*
X510630Y773228D02*
X518504D01*
X514567Y769291D02*
Y777165D01*
X345276Y773228D02*
Y773228D01*
X345276Y773228D02*
X353150D01*
X349213Y769291D02*
Y777165D01*
X486614Y552756D02*
Y552756D01*
X486614Y552756D02*
X494488D01*
X490551Y548819D02*
Y556693D01*
X427559Y572441D02*
Y572441D01*
X427559Y572441D02*
X435433D01*
X431496Y568504D02*
Y576378D01*
X427559Y533071D02*
Y533071D01*
X427559Y533071D02*
X435433D01*
X431496Y529134D02*
Y537008D01*
X368504Y552756D02*
Y552756D01*
X368504Y552756D02*
X376378D01*
X372441Y548819D02*
Y556693D01*
X431496Y572441D02*
Y788745D01*
X431496Y497638D02*
Y497638D01*
X372441Y493701D02*
Y501575D01*
X368504Y497638D02*
X376378D01*
X368504Y497638D02*
Y497638D01*
X427559Y497638D02*
X435433D01*
X431496Y493701D02*
Y501575D01*
X486614Y497638D02*
X494488D01*
X490551Y493701D02*
Y501575D01*
X431496Y466142D02*
Y466142D01*
X372441Y462205D02*
Y470079D01*
X368504Y466142D02*
X376378D01*
X368504Y466142D02*
Y466142D01*
X427559Y466142D02*
X435433D01*
X431496Y462205D02*
Y470079D01*
X486614Y466142D02*
X494488D01*
X490551Y462205D02*
Y470079D01*
X431496Y434646D02*
Y434646D01*
X372441Y430709D02*
Y438583D01*
X368504Y434646D02*
X376378D01*
X368504Y434646D02*
Y434646D01*
X427559Y434646D02*
X435433D01*
X431496Y430709D02*
Y438583D01*
X486614Y434646D02*
X494488D01*
X490551Y430709D02*
Y438583D01*
Y399213D02*
Y407087D01*
X486614Y403150D02*
X494488D01*
X431496Y399213D02*
Y407087D01*
X427559Y403150D02*
X435433D01*
X368504D02*
Y403150D01*
X368504Y403150D02*
X376378D01*
X372441Y399213D02*
Y407087D01*
X431496Y403150D02*
Y403150D01*
D12*
X519607Y580925D02*
X529606D01*
X519607D02*
Y620926D01*
X529606D01*
Y580925D02*
Y620926D01*
X344075Y580925D02*
Y620926D01*
X334075D02*
X344075D01*
X334075Y580925D02*
Y620926D01*
Y580925D02*
X344075D01*
D128*
X368504Y403150D02*
D03*
X431496Y403150D02*
D03*
M02*
