G04*
G04 #@! TF.GenerationSoftware,Altium Limited,Altium Designer,23.0.1 (38)*
G04*
G04 Layer_Physical_Order=1*
G04 Layer_Color=255*
%FSLAX25Y25*%
%MOIN*%
G70*
G04*
G04 #@! TF.SameCoordinates,D75D10E2-2566-4FA1-905F-50A539E45678*
G04*
G04*
G04 #@! TF.FilePolarity,Positive*
G04*
G01*
G75*
%ADD15C,0.01181*%
G04:AMPARAMS|DCode=17|XSize=61.02mil|YSize=51.18mil|CornerRadius=5.12mil|HoleSize=0mil|Usage=FLASHONLY|Rotation=0.000|XOffset=0mil|YOffset=0mil|HoleType=Round|Shape=RoundedRectangle|*
%AMROUNDEDRECTD17*
21,1,0.06102,0.04095,0,0,0.0*
21,1,0.05079,0.05118,0,0,0.0*
1,1,0.01024,0.02539,-0.02047*
1,1,0.01024,-0.02539,-0.02047*
1,1,0.01024,-0.02539,0.02047*
1,1,0.01024,0.02539,0.02047*
%
%ADD17ROUNDEDRECTD17*%
G04:AMPARAMS|DCode=18|XSize=41.34mil|YSize=31.5mil|CornerRadius=3.15mil|HoleSize=0mil|Usage=FLASHONLY|Rotation=0.000|XOffset=0mil|YOffset=0mil|HoleType=Round|Shape=RoundedRectangle|*
%AMROUNDEDRECTD18*
21,1,0.04134,0.02520,0,0,0.0*
21,1,0.03504,0.03150,0,0,0.0*
1,1,0.00630,0.01752,-0.01260*
1,1,0.00630,-0.01752,-0.01260*
1,1,0.00630,-0.01752,0.01260*
1,1,0.00630,0.01752,0.01260*
%
%ADD18ROUNDEDRECTD18*%
G04:AMPARAMS|DCode=19|XSize=157.48mil|YSize=31.5mil|CornerRadius=3.15mil|HoleSize=0mil|Usage=FLASHONLY|Rotation=90.000|XOffset=0mil|YOffset=0mil|HoleType=Round|Shape=RoundedRectangle|*
%AMROUNDEDRECTD19*
21,1,0.15748,0.02520,0,0,90.0*
21,1,0.15118,0.03150,0,0,90.0*
1,1,0.00630,0.01260,0.07559*
1,1,0.00630,0.01260,-0.07559*
1,1,0.00630,-0.01260,-0.07559*
1,1,0.00630,-0.01260,0.07559*
%
%ADD19ROUNDEDRECTD19*%
G04:AMPARAMS|DCode=20|XSize=53.15mil|YSize=165.35mil|CornerRadius=5.32mil|HoleSize=0mil|Usage=FLASHONLY|Rotation=180.000|XOffset=0mil|YOffset=0mil|HoleType=Round|Shape=RoundedRectangle|*
%AMROUNDEDRECTD20*
21,1,0.05315,0.15472,0,0,180.0*
21,1,0.04252,0.16535,0,0,180.0*
1,1,0.01063,-0.02126,0.07736*
1,1,0.01063,0.02126,0.07736*
1,1,0.01063,0.02126,-0.07736*
1,1,0.01063,-0.02126,-0.07736*
%
%ADD20ROUNDEDRECTD20*%
G04:AMPARAMS|DCode=21|XSize=50mil|YSize=141.73mil|CornerRadius=5mil|HoleSize=0mil|Usage=FLASHONLY|Rotation=180.000|XOffset=0mil|YOffset=0mil|HoleType=Round|Shape=RoundedRectangle|*
%AMROUNDEDRECTD21*
21,1,0.05000,0.13173,0,0,180.0*
21,1,0.04000,0.14173,0,0,180.0*
1,1,0.01000,-0.02000,0.06587*
1,1,0.01000,0.02000,0.06587*
1,1,0.01000,0.02000,-0.06587*
1,1,0.01000,-0.02000,-0.06587*
%
%ADD21ROUNDEDRECTD21*%
%ADD31O,0.03740X0.07480*%
%ADD42C,0.00984*%
%ADD43C,0.01968*%
%ADD44C,0.02362*%
G04:AMPARAMS|DCode=45|XSize=86.61mil|YSize=59.06mil|CornerRadius=17.72mil|HoleSize=0mil|Usage=FLASHONLY|Rotation=0.000|XOffset=0mil|YOffset=0mil|HoleType=Round|Shape=RoundedRectangle|*
%AMROUNDEDRECTD45*
21,1,0.08661,0.02362,0,0,0.0*
21,1,0.05118,0.05906,0,0,0.0*
1,1,0.03543,0.02559,-0.01181*
1,1,0.03543,-0.02559,-0.01181*
1,1,0.03543,-0.02559,0.01181*
1,1,0.03543,0.02559,0.01181*
%
%ADD45ROUNDEDRECTD45*%
%ADD46C,0.04724*%
G04:AMPARAMS|DCode=47|XSize=59.06mil|YSize=39.37mil|CornerRadius=9.84mil|HoleSize=0mil|Usage=FLASHONLY|Rotation=90.000|XOffset=0mil|YOffset=0mil|HoleType=Round|Shape=RoundedRectangle|*
%AMROUNDEDRECTD47*
21,1,0.05906,0.01968,0,0,90.0*
21,1,0.03937,0.03937,0,0,90.0*
1,1,0.01968,0.00984,0.01968*
1,1,0.01968,0.00984,-0.01968*
1,1,0.01968,-0.00984,-0.01968*
1,1,0.01968,-0.00984,0.01968*
%
%ADD47ROUNDEDRECTD47*%
%ADD48O,0.03937X0.05906*%
%ADD49O,0.04724X0.02756*%
%ADD50C,0.07874*%
%ADD51O,0.04724X0.19685*%
G04:AMPARAMS|DCode=52|XSize=47.24mil|YSize=47.24mil|CornerRadius=11.81mil|HoleSize=0mil|Usage=FLASHONLY|Rotation=270.000|XOffset=0mil|YOffset=0mil|HoleType=Round|Shape=RoundedRectangle|*
%AMROUNDEDRECTD52*
21,1,0.04724,0.02362,0,0,270.0*
21,1,0.02362,0.04724,0,0,270.0*
1,1,0.02362,-0.01181,-0.01181*
1,1,0.02362,-0.01181,0.01181*
1,1,0.02362,0.01181,0.01181*
1,1,0.02362,0.01181,-0.01181*
%
%ADD52ROUNDEDRECTD52*%
%ADD53C,0.07087*%
G04:AMPARAMS|DCode=54|XSize=70.87mil|YSize=70.87mil|CornerRadius=7.09mil|HoleSize=0mil|Usage=FLASHONLY|Rotation=90.000|XOffset=0mil|YOffset=0mil|HoleType=Round|Shape=RoundedRectangle|*
%AMROUNDEDRECTD54*
21,1,0.07087,0.05669,0,0,90.0*
21,1,0.05669,0.07087,0,0,90.0*
1,1,0.01417,0.02835,0.02835*
1,1,0.01417,0.02835,-0.02835*
1,1,0.01417,-0.02835,-0.02835*
1,1,0.01417,-0.02835,0.02835*
%
%ADD54ROUNDEDRECTD54*%
%ADD55C,0.06500*%
G04:AMPARAMS|DCode=56|XSize=65mil|YSize=65mil|CornerRadius=6.5mil|HoleSize=0mil|Usage=FLASHONLY|Rotation=0.000|XOffset=0mil|YOffset=0mil|HoleType=Round|Shape=RoundedRectangle|*
%AMROUNDEDRECTD56*
21,1,0.06500,0.05200,0,0,0.0*
21,1,0.05200,0.06500,0,0,0.0*
1,1,0.01300,0.02600,-0.02600*
1,1,0.01300,-0.02600,-0.02600*
1,1,0.01300,-0.02600,0.02600*
1,1,0.01300,0.02600,0.02600*
%
%ADD56ROUNDEDRECTD56*%
G04:AMPARAMS|DCode=57|XSize=70.87mil|YSize=70.87mil|CornerRadius=17.72mil|HoleSize=0mil|Usage=FLASHONLY|Rotation=0.000|XOffset=0mil|YOffset=0mil|HoleType=Round|Shape=RoundedRectangle|*
%AMROUNDEDRECTD57*
21,1,0.07087,0.03543,0,0,0.0*
21,1,0.03543,0.07087,0,0,0.0*
1,1,0.03543,0.01772,-0.01772*
1,1,0.03543,-0.01772,-0.01772*
1,1,0.03543,-0.01772,0.01772*
1,1,0.03543,0.01772,0.01772*
%
%ADD57ROUNDEDRECTD57*%
%ADD58C,0.23622*%
%ADD59C,0.02362*%
%ADD60C,0.03150*%
%ADD61C,0.03937*%
G36*
X515231Y787583D02*
X515893Y787537D01*
X516552Y787461D01*
X517207Y787354D01*
X517857Y787217D01*
X518500Y787050D01*
X519134Y786853D01*
X519758Y786628D01*
X520371Y786374D01*
X520972Y786092D01*
X521559Y785782D01*
X522132Y785446D01*
X522688Y785083D01*
X523227Y784696D01*
X523747Y784284D01*
X524248Y783848D01*
X524728Y783390D01*
X525186Y782909D01*
X525622Y782409D01*
X526034Y781888D01*
X526422Y781349D01*
X526785Y780793D01*
X527121Y780221D01*
X527430Y779634D01*
X527712Y779033D01*
X527966Y778419D01*
X528192Y777795D01*
X528388Y777161D01*
X528555Y776518D01*
X528692Y775869D01*
X528799Y775214D01*
X528876Y774554D01*
X528922Y773892D01*
X528936Y773260D01*
X528934Y773228D01*
Y618857D01*
X528434Y618694D01*
X528319Y618852D01*
X528078Y619135D01*
X527816Y619397D01*
X527533Y619638D01*
X527233Y619856D01*
X526917Y620050D01*
X526586Y620219D01*
X526243Y620361D01*
X525890Y620476D01*
X525529Y620562D01*
X525162Y620620D01*
X524792Y620650D01*
X524421D01*
X524051Y620620D01*
X523684Y620562D01*
X523323Y620476D01*
X522970Y620361D01*
X522627Y620219D01*
X522296Y620050D01*
X521980Y619856D01*
X521679Y619638D01*
X521397Y619397D01*
X521134Y619135D01*
X520893Y618852D01*
X520675Y618552D01*
X520481Y618235D01*
X520313Y617905D01*
X520170Y617562D01*
X520056Y617209D01*
X519969Y616848D01*
X519911Y616481D01*
X519882Y616111D01*
Y615740D01*
X519911Y615370D01*
X519969Y615003D01*
X520056Y614642D01*
X520170Y614289D01*
X520255Y614085D01*
X518036Y611866D01*
X517883Y611691D01*
X517754Y611498D01*
X517651Y611290D01*
X517576Y611070D01*
X517531Y610842D01*
X517516Y610610D01*
Y604686D01*
X515280Y602450D01*
X515127Y602276D01*
X514998Y602083D01*
X514895Y601874D01*
X514820Y601654D01*
X514775Y601427D01*
X514760Y601195D01*
Y595271D01*
X514276Y594787D01*
X511493D01*
X511301Y595249D01*
X513066Y597014D01*
X513220Y597189D01*
X513349Y597382D01*
X513451Y597590D01*
X513526Y597810D01*
X513571Y598038D01*
X513587Y598270D01*
Y632972D01*
X513571Y633204D01*
X513526Y633432D01*
X513451Y633652D01*
X513349Y633860D01*
X513220Y634053D01*
X513066Y634228D01*
X511492Y635803D01*
X511317Y635956D01*
X511124Y636085D01*
X510916Y636188D01*
X510696Y636262D01*
X510468Y636307D01*
X510236Y636323D01*
X508852D01*
X508785Y636458D01*
X508690Y636600D01*
X508578Y636728D01*
X508450Y636840D01*
X508309Y636935D01*
X508156Y637010D01*
X507995Y637065D01*
X507827Y637098D01*
X507657Y637109D01*
X507485D01*
Y640217D01*
X507539Y640281D01*
X507985Y640487D01*
X508070Y640432D01*
X508344Y640290D01*
X508630Y640171D01*
X508925Y640078D01*
X509227Y640011D01*
X509534Y639971D01*
X509843Y639957D01*
X510152Y639971D01*
X510459Y640011D01*
X510761Y640078D01*
X511056Y640171D01*
X511342Y640290D01*
X511616Y640432D01*
X511877Y640599D01*
X512123Y640787D01*
X512351Y640996D01*
X512560Y641224D01*
X512748Y641470D01*
X512915Y641731D01*
X513057Y642005D01*
X513176Y642291D01*
X513269Y642586D01*
X513336Y642888D01*
X513376Y643195D01*
X513390Y643504D01*
Y658465D01*
X513376Y658774D01*
X513336Y659081D01*
X513269Y659382D01*
X513176Y659678D01*
X513057Y659964D01*
X512915Y660238D01*
X512748Y660499D01*
X512560Y660744D01*
X512351Y660972D01*
X512123Y661181D01*
X511877Y661370D01*
X511616Y661536D01*
X511342Y661679D01*
X511056Y661797D01*
X510761Y661890D01*
X510459Y661957D01*
X510152Y661998D01*
X509843Y662011D01*
X509534Y661998D01*
X509227Y661957D01*
X508925Y661890D01*
X508630Y661797D01*
X508344Y661679D01*
X508070Y661536D01*
X507985Y661482D01*
X507539Y661687D01*
X507485Y661751D01*
Y688678D01*
X507656D01*
X507826Y688690D01*
X507993Y688723D01*
X508154Y688777D01*
X508307Y688853D01*
X508449Y688947D01*
X508577Y689060D01*
X508689Y689188D01*
X508784Y689329D01*
X508859Y689482D01*
X508914Y689643D01*
X508947Y689810D01*
X508958Y689980D01*
Y692500D01*
X508947Y692670D01*
X508914Y692837D01*
X508859Y692998D01*
X508784Y693151D01*
X508689Y693293D01*
X508577Y693421D01*
X508449Y693533D01*
X508307Y693628D01*
X508154Y693703D01*
X507993Y693758D01*
X507971Y693762D01*
Y694624D01*
X507993Y694628D01*
X508154Y694683D01*
X508307Y694758D01*
X508449Y694853D01*
X508577Y694965D01*
X508587Y694977D01*
X509885D01*
X510233Y694629D01*
Y690004D01*
X510065Y689885D01*
X509884Y689722D01*
X509722Y689541D01*
X509581Y689343D01*
X509463Y689130D01*
X509370Y688905D01*
X509303Y688672D01*
X509262Y688432D01*
X509249Y688189D01*
Y684252D01*
X509262Y684009D01*
X509303Y683769D01*
X509370Y683536D01*
X509463Y683311D01*
X509581Y683098D01*
X509722Y682900D01*
X509884Y682719D01*
X510065Y682556D01*
X510263Y682416D01*
X510476Y682298D01*
X510701Y682205D01*
X510935Y682138D01*
X511174Y682097D01*
X511417Y682083D01*
X513386D01*
X513629Y682097D01*
X513868Y682138D01*
X514102Y682205D01*
X514327Y682298D01*
X514540Y682416D01*
X514738Y682556D01*
X514919Y682719D01*
X515081Y682900D01*
X515222Y683098D01*
X515340Y683311D01*
X515433Y683536D01*
X515500Y683769D01*
X515541Y684009D01*
X515555Y684252D01*
Y688189D01*
X515541Y688432D01*
X515500Y688672D01*
X515433Y688905D01*
X515340Y689130D01*
X515222Y689343D01*
X515081Y689541D01*
X514919Y689722D01*
X514738Y689885D01*
X514570Y690004D01*
Y695528D01*
X514557Y695770D01*
X514516Y696010D01*
X514449Y696244D01*
X514356Y696469D01*
X514238Y696681D01*
X514097Y696880D01*
X513935Y697061D01*
X512317Y698679D01*
X512136Y698841D01*
X511937Y698982D01*
X511725Y699100D01*
X511500Y699193D01*
X511266Y699260D01*
X511026Y699301D01*
X510783Y699314D01*
X508587D01*
X508577Y699326D01*
X508449Y699438D01*
X508307Y699533D01*
X508154Y699608D01*
X507993Y699663D01*
X507826Y699696D01*
X507656Y699708D01*
X504152D01*
X503982Y699696D01*
X503815Y699663D01*
X503654Y699608D01*
X503501Y699533D01*
X503360Y699438D01*
X503232Y699326D01*
X503221Y699314D01*
X502952D01*
X502709Y699301D01*
X502469Y699260D01*
X502236Y699193D01*
X502011Y699100D01*
X501798Y698982D01*
X501600Y698841D01*
X501418Y698679D01*
X499746Y697007D01*
X499584Y696825D01*
X499443Y696627D01*
X499326Y696414D01*
X499232Y696189D01*
X499165Y695956D01*
X499124Y695716D01*
X499111Y695473D01*
Y630810D01*
X452315D01*
X446362Y636764D01*
Y694909D01*
X457341Y705888D01*
X457503Y706069D01*
X457643Y706268D01*
X457761Y706481D01*
X457854Y706705D01*
X457922Y706939D01*
X457962Y707179D01*
X457976Y707421D01*
Y739330D01*
X457962Y739573D01*
X457922Y739813D01*
X457854Y740047D01*
X457761Y740272D01*
X457643Y740484D01*
X457503Y740683D01*
X457341Y740864D01*
X452478Y745726D01*
X452297Y745889D01*
X452099Y746029D01*
X451886Y746147D01*
X451661Y746240D01*
X451427Y746307D01*
X451188Y746348D01*
X450945Y746362D01*
X417067D01*
X416824Y746348D01*
X416584Y746307D01*
X416351Y746240D01*
X416126Y746147D01*
X415913Y746029D01*
X415715Y745889D01*
X415534Y745726D01*
X409066Y739258D01*
X386663D01*
X377126Y748796D01*
X377451Y749175D01*
X377733Y748970D01*
X378030Y748788D01*
X378340Y748630D01*
X378662Y748497D01*
X378993Y748389D01*
X379332Y748308D01*
X379676Y748254D01*
X380023Y748226D01*
X380371D01*
X380718Y748254D01*
X381062Y748308D01*
X381401Y748389D01*
X381732Y748497D01*
X382053Y748630D01*
X382364Y748788D01*
X382661Y748970D01*
X382942Y749175D01*
X383207Y749401D01*
X383453Y749647D01*
X383679Y749912D01*
X383884Y750194D01*
X384066Y750491D01*
X384224Y750801D01*
X384357Y751123D01*
X384465Y751454D01*
X384546Y751792D01*
X384601Y752136D01*
X384628Y752483D01*
Y752832D01*
X384601Y753179D01*
X384546Y753523D01*
X384465Y753861D01*
X384357Y754192D01*
X384224Y754514D01*
X384066Y754824D01*
X383884Y755121D01*
X383679Y755403D01*
X383453Y755668D01*
X383207Y755914D01*
X382942Y756140D01*
X382661Y756345D01*
X382364Y756527D01*
X382053Y756685D01*
X381732Y756818D01*
X381401Y756925D01*
X381062Y757007D01*
X380718Y757061D01*
X380371Y757089D01*
X380023D01*
X379676Y757061D01*
X379332Y757007D01*
X378993Y756925D01*
X378662Y756818D01*
X378340Y756685D01*
X378030Y756527D01*
X377733Y756345D01*
X377451Y756140D01*
X377187Y755914D01*
X376940Y755668D01*
X376714Y755403D01*
X376510Y755121D01*
X376328Y754824D01*
X376170Y754514D01*
X376036Y754192D01*
X375929Y753861D01*
X375848Y753523D01*
X375793Y753179D01*
X375766Y752832D01*
Y752483D01*
X375793Y752136D01*
X375848Y751792D01*
X375929Y751454D01*
X376036Y751123D01*
X376170Y750801D01*
X376328Y750491D01*
X376510Y750194D01*
X376714Y749912D01*
X376335Y749587D01*
X374632Y751290D01*
Y755258D01*
X374616Y755497D01*
X374569Y755732D01*
X374492Y755960D01*
X374386Y756175D01*
X374253Y756375D01*
X374094Y756555D01*
X373914Y756713D01*
X373714Y756847D01*
X373499Y756953D01*
X373272Y757030D01*
X373036Y757077D01*
X372797Y757093D01*
X367597D01*
X367357Y757077D01*
X367122Y757030D01*
X366895Y756953D01*
X366679Y756847D01*
X366480Y756713D01*
X366299Y756555D01*
X366141Y756375D01*
X366008Y756175D01*
X365901Y755960D01*
X365824Y755732D01*
X365777Y755497D01*
X365762Y755258D01*
Y754826D01*
X348917D01*
X348675Y754813D01*
X348435Y754772D01*
X348201Y754705D01*
X347976Y754611D01*
X347763Y754494D01*
X347565Y754353D01*
X347384Y754191D01*
X335307Y742115D01*
X334845Y742306D01*
Y773228D01*
X334843Y773260D01*
X334858Y773892D01*
X334904Y774554D01*
X334980Y775214D01*
X335087Y775869D01*
X335224Y776518D01*
X335391Y777161D01*
X335588Y777795D01*
X335813Y778419D01*
X336067Y779033D01*
X336349Y779634D01*
X336659Y780221D01*
X336995Y780793D01*
X337357Y781349D01*
X337745Y781888D01*
X338157Y782409D01*
X338593Y782909D01*
X339052Y783390D01*
X339532Y783848D01*
X340032Y784284D01*
X340553Y784696D01*
X341092Y785083D01*
X341648Y785446D01*
X342220Y785782D01*
X342807Y786092D01*
X343408Y786374D01*
X344022Y786628D01*
X344646Y786853D01*
X345280Y787050D01*
X345923Y787217D01*
X346572Y787354D01*
X347227Y787461D01*
X347887Y787537D01*
X348549Y787583D01*
X349180Y787598D01*
X349213Y787596D01*
X362116D01*
Y777171D01*
X361616Y777097D01*
X361553Y777305D01*
X361338Y777906D01*
X361094Y778495D01*
X360821Y779072D01*
X360520Y779634D01*
X360192Y780181D01*
X359838Y780712D01*
X359458Y781224D01*
X359053Y781717D01*
X358625Y782190D01*
X358174Y782641D01*
X357701Y783069D01*
X357208Y783474D01*
X356696Y783854D01*
X356166Y784208D01*
X355618Y784536D01*
X355056Y784837D01*
X354479Y785110D01*
X353890Y785354D01*
X353289Y785569D01*
X352679Y785754D01*
X352060Y785909D01*
X351434Y786033D01*
X350803Y786127D01*
X350169Y786189D01*
X349532Y786221D01*
X348894D01*
X348257Y786189D01*
X347622Y786127D01*
X346991Y786033D01*
X346365Y785909D01*
X345746Y785754D01*
X345136Y785569D01*
X344535Y785354D01*
X343946Y785110D01*
X343369Y784837D01*
X342807Y784536D01*
X342260Y784208D01*
X341729Y783854D01*
X341217Y783474D01*
X340724Y783069D01*
X340251Y782641D01*
X339800Y782190D01*
X339372Y781717D01*
X338967Y781224D01*
X338587Y780712D01*
X338233Y780181D01*
X337905Y779634D01*
X337604Y779072D01*
X337332Y778495D01*
X337087Y777906D01*
X336873Y777305D01*
X336687Y776695D01*
X336532Y776076D01*
X336408Y775450D01*
X336314Y774819D01*
X336252Y774184D01*
X336221Y773547D01*
Y772909D01*
X336252Y772272D01*
X336314Y771637D01*
X336408Y771006D01*
X336532Y770381D01*
X336687Y769762D01*
X336873Y769152D01*
X337087Y768551D01*
X337332Y767962D01*
X337604Y767385D01*
X337905Y766823D01*
X338233Y766276D01*
X338587Y765745D01*
X338967Y765233D01*
X339372Y764740D01*
X339800Y764267D01*
X340251Y763816D01*
X340724Y763388D01*
X341217Y762983D01*
X341729Y762603D01*
X342260Y762249D01*
X342807Y761921D01*
X343369Y761620D01*
X343946Y761347D01*
X344535Y761103D01*
X345136Y760888D01*
X345746Y760703D01*
X346365Y760548D01*
X346991Y760424D01*
X347622Y760330D01*
X348257Y760267D01*
X348894Y760236D01*
X349532D01*
X350169Y760267D01*
X350803Y760330D01*
X351434Y760424D01*
X352060Y760548D01*
X352679Y760703D01*
X353289Y760888D01*
X353890Y761103D01*
X354479Y761347D01*
X355056Y761620D01*
X355618Y761921D01*
X356166Y762249D01*
X356696Y762603D01*
X357208Y762983D01*
X357701Y763388D01*
X358174Y763816D01*
X358625Y764267D01*
X359053Y764740D01*
X359458Y765233D01*
X359838Y765745D01*
X360192Y766276D01*
X360520Y766823D01*
X360821Y767385D01*
X361094Y767962D01*
X361338Y768551D01*
X361553Y769152D01*
X361616Y769360D01*
X362116Y769286D01*
Y760556D01*
X362128Y760376D01*
X362163Y760198D01*
X362221Y760028D01*
X362301Y759866D01*
X362401Y759715D01*
X362520Y759580D01*
X362656Y759460D01*
X362806Y759360D01*
X362968Y759280D01*
X363139Y759222D01*
X363317Y759187D01*
X363497Y759175D01*
X386897D01*
X387077Y759187D01*
X387254Y759222D01*
X387425Y759280D01*
X387587Y759360D01*
X387737Y759460D01*
X387873Y759580D01*
X387992Y759715D01*
X388093Y759866D01*
X388173Y760028D01*
X388231Y760198D01*
X388266Y760376D01*
X388278Y760556D01*
Y787596D01*
X471847D01*
Y780315D01*
X471859Y780135D01*
X471895Y779958D01*
X471953Y779786D01*
X472032Y779625D01*
X472133Y779474D01*
X472252Y779339D01*
X472388Y779219D01*
X472538Y779119D01*
X472700Y779039D01*
X472871Y778981D01*
X473048Y778946D01*
X473228Y778934D01*
X482754D01*
X482890Y778835D01*
X483140Y778434D01*
X483127Y778240D01*
Y765544D01*
X482982Y765374D01*
X482763Y765074D01*
X482570Y764757D01*
X482401Y764426D01*
X482259Y764083D01*
X482144Y763730D01*
X482058Y763369D01*
X481999Y763003D01*
X481970Y762633D01*
Y762261D01*
X481999Y761891D01*
X482058Y761524D01*
X482144Y761164D01*
X482259Y760810D01*
X482401Y760467D01*
X482570Y760137D01*
X482763Y759820D01*
X482982Y759520D01*
X483223Y759237D01*
X483485Y758975D01*
X483768Y758734D01*
X484068Y758516D01*
X484384Y758322D01*
X484715Y758153D01*
X485058Y758011D01*
X485411Y757896D01*
X485772Y757810D01*
X486139Y757752D01*
X486509Y757723D01*
X486880D01*
X487251Y757752D01*
X487617Y757810D01*
X487978Y757896D01*
X488331Y758011D01*
X488674Y758153D01*
X489005Y758322D01*
X489322Y758516D01*
X489622Y758734D01*
X489904Y758975D01*
X490167Y759237D01*
X490408Y759520D01*
X490626Y759820D01*
X490820Y760137D01*
X490988Y760467D01*
X491131Y760810D01*
X491245Y761164D01*
X491332Y761524D01*
X491390Y761891D01*
X491419Y762261D01*
Y762633D01*
X491390Y763003D01*
X491332Y763369D01*
X491245Y763730D01*
X491131Y764083D01*
X490988Y764426D01*
X490820Y764757D01*
X490626Y765074D01*
X490408Y765374D01*
X490167Y765656D01*
X490102Y765721D01*
Y778240D01*
X490089Y778434D01*
X490338Y778835D01*
X490474Y778934D01*
X500000D01*
X500180Y778946D01*
X500357Y778981D01*
X500528Y779039D01*
X500691Y779119D01*
X500841Y779219D01*
X500977Y779339D01*
X501096Y779474D01*
X501196Y779625D01*
X501276Y779786D01*
X501334Y779958D01*
X501369Y780135D01*
X501381Y780315D01*
Y787596D01*
X514567D01*
X514599Y787598D01*
X515231Y787583D01*
D02*
G37*
G36*
X451276Y737454D02*
Y709298D01*
X445835Y703858D01*
X445373Y704049D01*
Y717979D01*
X445486Y718097D01*
X445873Y718272D01*
X445877Y718270D01*
X446039Y718216D01*
X446206Y718182D01*
X446376Y718171D01*
X448895D01*
X449065Y718182D01*
X449232Y718216D01*
X449394Y718270D01*
X449546Y718346D01*
X449688Y718440D01*
X449816Y718553D01*
X449928Y718681D01*
X450023Y718822D01*
X450098Y718975D01*
X450153Y719136D01*
X450186Y719303D01*
X450197Y719473D01*
Y734591D01*
X450186Y734761D01*
X450153Y734928D01*
X450098Y735090D01*
X450023Y735242D01*
X449928Y735384D01*
X449816Y735512D01*
X449804Y735522D01*
Y736912D01*
X449791Y737155D01*
X449750Y737394D01*
X449683Y737628D01*
X449589Y737853D01*
X449472Y738066D01*
X449331Y738264D01*
X449169Y738445D01*
X448436Y739178D01*
X448612Y739618D01*
X449068Y739661D01*
X451276Y737454D01*
D02*
G37*
G36*
X426491Y739200D02*
X425914Y738623D01*
X425752Y738442D01*
X425612Y738243D01*
X425494Y738031D01*
X425401Y737806D01*
X425334Y737572D01*
X425293Y737332D01*
X425279Y737090D01*
Y735465D01*
X425268Y735455D01*
X425155Y735326D01*
X425061Y735185D01*
X424985Y735032D01*
X424930Y734871D01*
X424897Y734704D01*
X424886Y734534D01*
Y719416D01*
X424897Y719246D01*
X424930Y719079D01*
X424985Y718918D01*
X425061Y718765D01*
X425155Y718623D01*
X425268Y718495D01*
X425279Y718485D01*
Y715263D01*
X421142Y711126D01*
X398921D01*
Y734921D01*
X409964D01*
X410207Y734935D01*
X410447Y734975D01*
X410680Y735043D01*
X410905Y735136D01*
X411118Y735253D01*
X411316Y735394D01*
X411497Y735556D01*
X413098Y737157D01*
X413560Y736965D01*
Y735728D01*
X413425Y735661D01*
X413283Y735567D01*
X413155Y735455D01*
X413043Y735326D01*
X412948Y735185D01*
X412873Y735032D01*
X412818Y734871D01*
X412785Y734704D01*
X412774Y734534D01*
Y719416D01*
X412785Y719246D01*
X412818Y719079D01*
X412873Y718918D01*
X412948Y718765D01*
X413043Y718623D01*
X413155Y718495D01*
X413283Y718383D01*
X413425Y718288D01*
X413577Y718213D01*
X413739Y718158D01*
X413906Y718125D01*
X414076Y718114D01*
X416595D01*
X416765Y718125D01*
X416932Y718158D01*
X417094Y718213D01*
X417098Y718215D01*
X417485Y718039D01*
X417597Y717921D01*
Y717254D01*
X416095Y715752D01*
X405781D01*
X405612Y715920D01*
X405405Y716086D01*
X405180Y716227D01*
X404941Y716342D01*
X404690Y716430D01*
X404432Y716489D01*
X404168Y716518D01*
X403903D01*
X403639Y716489D01*
X403380Y716430D01*
X403130Y716342D01*
X402891Y716227D01*
X402666Y716086D01*
X402459Y715920D01*
X402271Y715733D01*
X402106Y715525D01*
X401965Y715301D01*
X401850Y715062D01*
X401762Y714811D01*
X401703Y714553D01*
X401673Y714289D01*
Y714024D01*
X401703Y713760D01*
X401762Y713501D01*
X401850Y713251D01*
X401965Y713012D01*
X402106Y712787D01*
X402271Y712580D01*
X402459Y712392D01*
X402666Y712227D01*
X402891Y712085D01*
X403130Y711970D01*
X403380Y711883D01*
X403639Y711824D01*
X403903Y711794D01*
X404168D01*
X404432Y711824D01*
X404690Y711883D01*
X404941Y711970D01*
X405180Y712085D01*
X405364Y712201D01*
X416831D01*
X417063Y712216D01*
X417290Y712261D01*
X417510Y712336D01*
X417719Y712439D01*
X417911Y712568D01*
X418086Y712721D01*
X420628Y715263D01*
X420782Y715438D01*
X420911Y715631D01*
X421013Y715839D01*
X421088Y716059D01*
X421133Y716287D01*
X421148Y716519D01*
Y718221D01*
X421284Y718288D01*
X421425Y718383D01*
X421553Y718495D01*
X421666Y718623D01*
X421760Y718765D01*
X421836Y718918D01*
X421890Y719079D01*
X421924Y719246D01*
X421935Y719416D01*
Y734534D01*
X421924Y734704D01*
X421890Y734871D01*
X421836Y735032D01*
X421760Y735185D01*
X421666Y735326D01*
X421553Y735455D01*
X421425Y735567D01*
X421284Y735661D01*
X421131Y735737D01*
X420970Y735791D01*
X420803Y735825D01*
X420633Y735836D01*
X418113D01*
X417943Y735825D01*
X417776Y735791D01*
X417615Y735737D01*
X417611Y735735D01*
X417224Y735911D01*
X417111Y736028D01*
Y737828D01*
X418944Y739662D01*
X426299D01*
X426491Y739200D01*
D02*
G37*
G36*
X365762Y750058D02*
X365777Y749818D01*
X365824Y749583D01*
X365901Y749355D01*
X366008Y749140D01*
X366141Y748940D01*
X366299Y748760D01*
X366480Y748602D01*
X366679Y748468D01*
X366895Y748362D01*
X367122Y748285D01*
X367357Y748238D01*
X367597Y748222D01*
X371565D01*
X384231Y735556D01*
X384412Y735394D01*
X384611Y735253D01*
X384824Y735136D01*
X385048Y735043D01*
X385282Y734975D01*
X385522Y734935D01*
X385765Y734921D01*
X394583D01*
Y708957D01*
Y680097D01*
X392548Y678061D01*
X363881D01*
Y696063D01*
X363868Y696306D01*
X363827Y696546D01*
X363760Y696779D01*
X363667Y697004D01*
X363549Y697217D01*
X363408Y697415D01*
X363246Y697597D01*
X362163Y698679D01*
X361982Y698841D01*
X361784Y698982D01*
X361571Y699100D01*
X361346Y699193D01*
X361112Y699260D01*
X360873Y699301D01*
X360630Y699314D01*
X360007D01*
X359850Y699478D01*
X360063Y699978D01*
X376949D01*
X382280Y694648D01*
Y683645D01*
X382126Y683452D01*
X381984Y683227D01*
X381869Y682988D01*
X381782Y682737D01*
X381723Y682479D01*
X381693Y682215D01*
Y681950D01*
X381723Y681686D01*
X381782Y681428D01*
X381869Y681177D01*
X381984Y680938D01*
X382126Y680714D01*
X382291Y680506D01*
X382479Y680318D01*
X382686Y680153D01*
X382911Y680012D01*
X383150Y679897D01*
X383400Y679809D01*
X383659Y679750D01*
X383922Y679720D01*
X384188D01*
X384451Y679750D01*
X384710Y679809D01*
X384961Y679897D01*
X385199Y680012D01*
X385424Y680153D01*
X385632Y680318D01*
X385819Y680506D01*
X385985Y680714D01*
X386033Y680790D01*
X386196Y680840D01*
X386445D01*
X386609Y680790D01*
X386657Y680714D01*
X386823Y680506D01*
X387010Y680318D01*
X387218Y680153D01*
X387442Y680012D01*
X387681Y679897D01*
X387932Y679809D01*
X388191Y679750D01*
X388454Y679720D01*
X388719D01*
X388983Y679750D01*
X389242Y679809D01*
X389492Y679897D01*
X389731Y680012D01*
X389956Y680153D01*
X390163Y680318D01*
X390351Y680506D01*
X390516Y680714D01*
X390657Y680938D01*
X390773Y681177D01*
X390860Y681428D01*
X390919Y681686D01*
X390949Y681950D01*
Y682215D01*
X390919Y682479D01*
X390860Y682737D01*
X390773Y682988D01*
X390657Y683227D01*
X390516Y683452D01*
X390362Y683645D01*
Y694192D01*
X390347Y694424D01*
X390302Y694652D01*
X390227Y694871D01*
X390124Y695080D01*
X389995Y695273D01*
X389842Y695447D01*
X379918Y705371D01*
X379744Y705524D01*
X379551Y705653D01*
X379342Y705756D01*
X379122Y705831D01*
X378895Y705876D01*
X378663Y705891D01*
X349785D01*
X349553Y705876D01*
X349325Y705831D01*
X349106Y705756D01*
X348897Y705653D01*
X348704Y705524D01*
X348530Y705371D01*
X338457Y695299D01*
X337996Y695490D01*
Y738669D01*
X349816Y750489D01*
X365762D01*
Y750058D01*
D02*
G37*
G36*
X354574Y699748D02*
X354600Y699478D01*
X354541Y699438D01*
X354413Y699326D01*
X354300Y699198D01*
X354206Y699056D01*
X354131Y698904D01*
X354076Y698742D01*
X354043Y698575D01*
X354031Y698406D01*
Y695886D01*
X354043Y695716D01*
X354076Y695549D01*
X354131Y695388D01*
X354206Y695235D01*
X354300Y695093D01*
X354413Y694965D01*
X354541Y694853D01*
X354682Y694758D01*
X354835Y694683D01*
X354996Y694628D01*
X355018Y694624D01*
Y693762D01*
X354996Y693758D01*
X354835Y693703D01*
X354682Y693628D01*
X354541Y693533D01*
X354413Y693421D01*
X354300Y693293D01*
X354206Y693151D01*
X354131Y692998D01*
X354076Y692837D01*
X354043Y692670D01*
X354031Y692500D01*
Y689980D01*
X354043Y689810D01*
X354076Y689643D01*
X354131Y689482D01*
X354206Y689329D01*
X354300Y689188D01*
X354413Y689060D01*
X354541Y688947D01*
X354682Y688853D01*
X354835Y688777D01*
X354996Y688723D01*
X355163Y688690D01*
X355333Y688678D01*
X355902D01*
Y661426D01*
X355502Y661219D01*
X355402Y661202D01*
X355183Y661370D01*
X354922Y661536D01*
X354648Y661679D01*
X354362Y661797D01*
X354067Y661890D01*
X353765Y661957D01*
X353458Y661998D01*
X353149Y662011D01*
X352840Y661998D01*
X352533Y661957D01*
X352231Y661890D01*
X351936Y661797D01*
X351650Y661679D01*
X351376Y661536D01*
X351115Y661370D01*
X350869Y661181D01*
X350641Y660972D01*
X350432Y660744D01*
X350244Y660499D01*
X350078Y660238D01*
X349935Y659964D01*
X349816Y659678D01*
X349723Y659382D01*
X349656Y659081D01*
X349616Y658774D01*
X349602Y658465D01*
Y643504D01*
X349616Y643195D01*
X349656Y642888D01*
X349723Y642586D01*
X349816Y642291D01*
X349935Y642005D01*
X350078Y641731D01*
X350244Y641470D01*
X350432Y641224D01*
X350641Y640996D01*
X350869Y640787D01*
X351115Y640599D01*
X351376Y640432D01*
X351650Y640290D01*
X351936Y640171D01*
X352231Y640078D01*
X352533Y640011D01*
X352840Y639971D01*
X353149Y639957D01*
X353458Y639971D01*
X353765Y640011D01*
X354067Y640078D01*
X354362Y640171D01*
X354648Y640290D01*
X354922Y640432D01*
X355183Y640599D01*
X355402Y640766D01*
X355502Y640749D01*
X355902Y640542D01*
Y639555D01*
X355748Y639361D01*
X355607Y639137D01*
X355491Y638898D01*
X355404Y638647D01*
X355345Y638388D01*
X355315Y638125D01*
Y637859D01*
X355343Y637609D01*
X355344Y637590D01*
X355284Y637426D01*
X355046Y637097D01*
X355020Y637080D01*
X354972Y637056D01*
X354836Y637010D01*
X354684Y636935D01*
X354542Y636840D01*
X354414Y636728D01*
X354302Y636600D01*
X354207Y636458D01*
X354140Y636323D01*
X353051D01*
X352819Y636307D01*
X352592Y636262D01*
X352372Y636188D01*
X352164Y636085D01*
X351970Y635956D01*
X351796Y635803D01*
X350812Y634818D01*
X350658Y634644D01*
X350529Y634451D01*
X350427Y634242D01*
X350352Y634023D01*
X350307Y633795D01*
X350291Y633563D01*
Y628857D01*
X349830Y628666D01*
X345082Y633413D01*
Y688733D01*
X347493Y691144D01*
X347739Y691172D01*
X347997Y691230D01*
X348248Y691318D01*
X348487Y691433D01*
X348712Y691574D01*
X348919Y691740D01*
X349107Y691927D01*
X349272Y692135D01*
X349413Y692359D01*
X349528Y692598D01*
X349616Y692849D01*
X349675Y693108D01*
X349705Y693371D01*
Y693637D01*
X349675Y693900D01*
X349616Y694159D01*
X349528Y694409D01*
X349413Y694648D01*
X349272Y694873D01*
X349107Y695081D01*
X348919Y695268D01*
X348712Y695434D01*
X348487Y695575D01*
X348248Y695690D01*
X347997Y695777D01*
X347844Y696323D01*
X351499Y699978D01*
X354458D01*
X354574Y699748D01*
D02*
G37*
G36*
X346650Y620142D02*
Y612071D01*
X346188Y611879D01*
X343576Y614491D01*
X343625Y614642D01*
X343712Y615003D01*
X343770Y615370D01*
X343799Y615740D01*
Y616111D01*
X343770Y616481D01*
X343712Y616848D01*
X343625Y617209D01*
X343511Y617562D01*
X343369Y617905D01*
X343200Y618235D01*
X343006Y618552D01*
X342788Y618852D01*
X342547Y619135D01*
X342284Y619397D01*
X342002Y619638D01*
X341702Y619856D01*
X341385Y620050D01*
X341244Y620122D01*
Y624895D01*
X341705Y625087D01*
X346650Y620142D01*
D02*
G37*
G36*
X335362Y612998D02*
X335603Y612716D01*
X335865Y612453D01*
X336148Y612212D01*
X336448Y611994D01*
X336765Y611800D01*
X337095Y611631D01*
X337438Y611489D01*
X337791Y611375D01*
X338152Y611288D01*
X338519Y611230D01*
X338889Y611201D01*
X339260D01*
X339631Y611230D01*
X339997Y611288D01*
X340358Y611375D01*
X340509Y611424D01*
X343500Y608432D01*
Y598702D01*
X343006Y598552D01*
X342788Y598852D01*
X342547Y599135D01*
X342284Y599397D01*
X342002Y599638D01*
X341702Y599856D01*
X341385Y600050D01*
X341054Y600219D01*
X340711Y600361D01*
X340358Y600476D01*
X339997Y600562D01*
X339631Y600621D01*
X339260Y600650D01*
X338889D01*
X338519Y600621D01*
X338152Y600562D01*
X337791Y600476D01*
X337438Y600361D01*
X337095Y600219D01*
X336765Y600050D01*
X336448Y599856D01*
X336148Y599638D01*
X335865Y599397D01*
X335603Y599135D01*
X335362Y598852D01*
X335346Y598830D01*
X334845Y598992D01*
Y612858D01*
X335346Y613021D01*
X335362Y612998D01*
D02*
G37*
G36*
X472533Y586247D02*
X463947Y577661D01*
X450885D01*
X450831Y577736D01*
X450710Y578161D01*
X450745Y578192D01*
X450875Y578339D01*
X450983Y578502D01*
X451070Y578678D01*
X451133Y578864D01*
X451171Y579056D01*
X451184Y579252D01*
Y583347D01*
X451171Y583542D01*
X451133Y583735D01*
X451070Y583920D01*
X450983Y584096D01*
X450875Y584259D01*
X450745Y584407D01*
X450598Y584536D01*
X450435Y584645D01*
X450259Y584732D01*
X450073Y584795D01*
X449881Y584833D01*
X449685Y584846D01*
X444606D01*
X444411Y584833D01*
X444218Y584795D01*
X444032Y584732D01*
X443857Y584645D01*
X443694Y584536D01*
X443546Y584407D01*
X443417Y584259D01*
X443308Y584096D01*
X443221Y583920D01*
X443158Y583735D01*
X443120Y583542D01*
X443107Y583347D01*
Y579381D01*
X442879Y579106D01*
X442667Y578970D01*
X442630Y578963D01*
X442486Y578979D01*
X442221D01*
X441957Y578949D01*
X441698Y578890D01*
X441448Y578803D01*
X441209Y578687D01*
X440984Y578546D01*
X440777Y578381D01*
X440589Y578193D01*
X440522Y578110D01*
X440338Y578065D01*
X440151Y578071D01*
X439930Y578140D01*
X439885Y578213D01*
X439719Y578421D01*
X439532Y578608D01*
X439324Y578774D01*
X439099Y578915D01*
X438860Y579030D01*
X438610Y579118D01*
X438351Y579177D01*
X438088Y579206D01*
X437822D01*
X437559Y579177D01*
X437300Y579118D01*
X437050Y579030D01*
X436810Y578915D01*
X436586Y578774D01*
X436378Y578608D01*
X436191Y578421D01*
X436025Y578213D01*
X435884Y577989D01*
X435769Y577749D01*
X435681Y577499D01*
X435623Y577240D01*
X435593Y576977D01*
Y576821D01*
X432651Y573880D01*
X432591Y573873D01*
X432105Y574041D01*
X432096Y574080D01*
X432009Y574331D01*
X431894Y574570D01*
X431752Y574794D01*
X431587Y575002D01*
X431399Y575189D01*
X431192Y575355D01*
X430967Y575496D01*
X430841Y575557D01*
X430725Y575884D01*
X430721Y576143D01*
X441287Y586709D01*
X472342D01*
X472533Y586247D01*
D02*
G37*
G36*
X430031Y713701D02*
Y615273D01*
X408736Y593978D01*
X408583Y593804D01*
X408454Y593610D01*
X408351Y593402D01*
X408276Y593182D01*
X408231Y592954D01*
X408216Y592723D01*
Y584627D01*
X408062Y584434D01*
X407921Y584210D01*
X407805Y583970D01*
X407718Y583720D01*
X407659Y583461D01*
X407629Y583198D01*
Y582932D01*
X407659Y582669D01*
X407718Y582410D01*
X407805Y582160D01*
X407921Y581921D01*
X408062Y581696D01*
X408227Y581489D01*
X408415Y581301D01*
X408622Y581136D01*
X408847Y580994D01*
X409086Y580879D01*
X409336Y580792D01*
X409595Y580733D01*
X409859Y580703D01*
X410124D01*
X410388Y580733D01*
X410646Y580792D01*
X410897Y580879D01*
X411136Y580994D01*
X411308Y581103D01*
X411490Y581053D01*
X411808Y580853D01*
Y579252D01*
X411821Y579056D01*
X411859Y578864D01*
X411922Y578678D01*
X412009Y578502D01*
X412118Y578339D01*
X412247Y578192D01*
X412394Y578062D01*
X412557Y577954D01*
X412733Y577867D01*
X412919Y577804D01*
X413111Y577766D01*
X413307Y577753D01*
X418386D01*
X418581Y577766D01*
X418774Y577804D01*
X418960Y577867D01*
X419136Y577954D01*
X419299Y578062D01*
X419446Y578192D01*
X419575Y578339D01*
X419684Y578502D01*
X419771Y578678D01*
X419834Y578864D01*
X419872Y579056D01*
X419885Y579252D01*
Y583347D01*
X419872Y583542D01*
X419834Y583735D01*
X419771Y583920D01*
X419684Y584096D01*
X419575Y584259D01*
X419446Y584407D01*
X419299Y584536D01*
X419136Y584645D01*
X418960Y584732D01*
X418774Y584795D01*
X418581Y584833D01*
X418386Y584846D01*
X413307D01*
X413111Y584833D01*
X412919Y584795D01*
X412733Y584732D01*
X412557Y584645D01*
X412432Y584561D01*
X412334Y584524D01*
X411904Y584562D01*
X411771Y584622D01*
X411767Y584627D01*
Y591987D01*
X433062Y613282D01*
X433215Y613457D01*
X433307Y613595D01*
X433437Y613660D01*
X433877Y613707D01*
X433916Y613693D01*
X438082Y609527D01*
Y606090D01*
X437928Y605897D01*
X437787Y605672D01*
X437672Y605433D01*
X437584Y605183D01*
X437525Y604924D01*
X437495Y604660D01*
Y604395D01*
X437525Y604131D01*
X437584Y603873D01*
X437672Y603622D01*
X437787Y603383D01*
X437928Y603159D01*
X438093Y602951D01*
X438281Y602763D01*
X438488Y602598D01*
X438713Y602457D01*
X438952Y602342D01*
X439202Y602254D01*
X439461Y602195D01*
X439725Y602165D01*
X439990D01*
X440254Y602195D01*
X440513Y602254D01*
X440763Y602342D01*
X441002Y602457D01*
X441227Y602598D01*
X441297Y602654D01*
X441661Y602922D01*
X442024Y602654D01*
X442095Y602598D01*
X442319Y602457D01*
X442558Y602342D01*
X442809Y602254D01*
X443067Y602195D01*
X443331Y602165D01*
X443596D01*
X443860Y602195D01*
X444119Y602254D01*
X444369Y602342D01*
X444608Y602457D01*
X444833Y602598D01*
X444903Y602654D01*
X445267Y602922D01*
X445631Y602654D01*
X445701Y602598D01*
X445925Y602457D01*
X446165Y602342D01*
X446415Y602254D01*
X446674Y602195D01*
X446937Y602165D01*
X447202D01*
X447466Y602195D01*
X447725Y602254D01*
X447975Y602342D01*
X448214Y602457D01*
X448439Y602598D01*
X448509Y602654D01*
X448873Y602922D01*
X449237Y602654D01*
X449307Y602598D01*
X449532Y602457D01*
X449771Y602342D01*
X450021Y602254D01*
X450280Y602195D01*
X450543Y602165D01*
X450809D01*
X451072Y602195D01*
X451331Y602254D01*
X451581Y602342D01*
X451821Y602457D01*
X452045Y602598D01*
X452253Y602763D01*
X452440Y602951D01*
X452606Y603159D01*
X452747Y603383D01*
X452862Y603622D01*
X452949Y603873D01*
X453009Y604131D01*
X453038Y604395D01*
Y604660D01*
X453009Y604924D01*
X452949Y605183D01*
X452862Y605433D01*
X452747Y605672D01*
X452606Y605897D01*
X452452Y606090D01*
Y610249D01*
X452436Y610481D01*
X452391Y610709D01*
X452316Y610929D01*
X452214Y611137D01*
X452085Y611330D01*
X451931Y611505D01*
X443213Y620224D01*
Y633126D01*
X443674Y633317D01*
X449883Y627108D01*
X450065Y626946D01*
X450263Y626805D01*
X450476Y626688D01*
X450701Y626595D01*
X450934Y626527D01*
X451174Y626487D01*
X451417Y626473D01*
X503223D01*
X503233Y626461D01*
X503361Y626349D01*
X503503Y626254D01*
X503655Y626179D01*
X503817Y626124D01*
X503984Y626091D01*
X504153Y626080D01*
X507657D01*
X507827Y626091D01*
X507995Y626124D01*
X508156Y626179D01*
X508309Y626254D01*
X508450Y626349D01*
X508578Y626461D01*
X508690Y626589D01*
X508785Y626731D01*
X508860Y626884D01*
X508915Y627045D01*
X508948Y627212D01*
X508959Y627382D01*
Y629902D01*
X508948Y630071D01*
X508915Y630239D01*
X508860Y630400D01*
X508785Y630553D01*
X508690Y630694D01*
X508578Y630822D01*
X508450Y630934D01*
X508309Y631029D01*
X508156Y631105D01*
X507995Y631159D01*
X507972Y631164D01*
Y632025D01*
X507995Y632030D01*
X508156Y632085D01*
X508309Y632160D01*
X508450Y632255D01*
X508578Y632367D01*
X508690Y632495D01*
X508785Y632636D01*
X508852Y632772D01*
X509501D01*
X510036Y632237D01*
Y599005D01*
X508180Y597150D01*
X480830D01*
X480599Y597134D01*
X480371Y597089D01*
X480151Y597014D01*
X479943Y596912D01*
X479749Y596783D01*
X479575Y596629D01*
X473205Y590260D01*
X440551D01*
X440319Y590244D01*
X440092Y590199D01*
X439872Y590125D01*
X439664Y590022D01*
X439470Y589893D01*
X439296Y589740D01*
X424372Y574816D01*
X424113Y574819D01*
X423785Y574936D01*
X423724Y575062D01*
X423583Y575286D01*
X423418Y575494D01*
X423230Y575681D01*
X423023Y575847D01*
X422798Y575988D01*
X422559Y576103D01*
X422308Y576191D01*
X422050Y576250D01*
X421786Y576279D01*
X421521D01*
X421257Y576250D01*
X420999Y576191D01*
X420748Y576103D01*
X420509Y575988D01*
X420285Y575847D01*
X420091Y575693D01*
X404510D01*
X404479Y575716D01*
X404242Y576193D01*
X404257Y576218D01*
X404373Y576457D01*
X404460Y576707D01*
X404519Y576966D01*
X404549Y577230D01*
Y577495D01*
X404519Y577759D01*
X404460Y578017D01*
X404373Y578268D01*
X404257Y578507D01*
X404116Y578731D01*
X403951Y578939D01*
X403763Y579126D01*
X403556Y579292D01*
X403331Y579433D01*
X403092Y579548D01*
X402842Y579636D01*
X402583Y579695D01*
X402337Y579722D01*
X400981Y581078D01*
X400807Y581231D01*
X400614Y581360D01*
X400406Y581463D01*
X400185Y581538D01*
X399958Y581583D01*
X399726Y581598D01*
X396894D01*
X396662Y581583D01*
X396434Y581538D01*
X396214Y581463D01*
X396006Y581360D01*
X395813Y581231D01*
X395638Y581078D01*
X395568Y581008D01*
X370102D01*
X364374Y586736D01*
Y610082D01*
X368775Y614483D01*
X368928Y614658D01*
X369057Y614851D01*
X369160Y615059D01*
X369235Y615279D01*
X369280Y615507D01*
X369295Y615738D01*
Y645968D01*
X369470Y645988D01*
X369729Y646047D01*
X369979Y646135D01*
X370218Y646250D01*
X370443Y646391D01*
X370651Y646556D01*
X370838Y646744D01*
X371004Y646951D01*
X371145Y647176D01*
X371260Y647415D01*
X371347Y647665D01*
X371407Y647924D01*
X371436Y648188D01*
Y648453D01*
X371407Y648717D01*
X371347Y648975D01*
X371260Y649226D01*
X371145Y649465D01*
X371004Y649689D01*
X370838Y649897D01*
X370651Y650084D01*
X370443Y650250D01*
X370218Y650391D01*
X369979Y650506D01*
X369729Y650594D01*
X369470Y650653D01*
X369207Y650682D01*
X368941D01*
X368678Y650653D01*
X368419Y650594D01*
X368169Y650506D01*
X367930Y650391D01*
X367705Y650250D01*
X367497Y650084D01*
X367433Y650020D01*
X366978Y650178D01*
X366933Y650216D01*
Y650857D01*
X369225Y653148D01*
X369470Y653176D01*
X369729Y653235D01*
X369979Y653323D01*
X370218Y653438D01*
X370443Y653579D01*
X370651Y653745D01*
X370838Y653932D01*
X371004Y654140D01*
X371145Y654364D01*
X371260Y654603D01*
X371347Y654854D01*
X371407Y655112D01*
X371436Y655376D01*
Y655641D01*
X371407Y655905D01*
X371347Y656164D01*
X371260Y656414D01*
X371145Y656653D01*
X371004Y656878D01*
X370838Y657085D01*
X370651Y657273D01*
X370443Y657438D01*
X370218Y657579D01*
X369979Y657694D01*
X369729Y657782D01*
X369470Y657841D01*
X369207Y657871D01*
X368941D01*
X368678Y657841D01*
X368419Y657782D01*
X368169Y657694D01*
X367930Y657579D01*
X367705Y657438D01*
X367497Y657273D01*
X367310Y657085D01*
X367144Y656878D01*
X367003Y656653D01*
X366888Y656414D01*
X366801Y656164D01*
X366741Y655905D01*
X366714Y655659D01*
X364381Y653327D01*
X363881Y653534D01*
Y673724D01*
X393446D01*
X393689Y673738D01*
X393929Y673778D01*
X394163Y673846D01*
X394387Y673939D01*
X394600Y674056D01*
X394798Y674197D01*
X394980Y674359D01*
X398286Y677665D01*
X398448Y677846D01*
X398588Y678045D01*
X398706Y678258D01*
X398799Y678482D01*
X398866Y678716D01*
X398907Y678956D01*
X398921Y679199D01*
Y706788D01*
X422040D01*
X422283Y706802D01*
X422523Y706842D01*
X422756Y706910D01*
X422981Y707003D01*
X423194Y707120D01*
X423392Y707261D01*
X423574Y707423D01*
X428981Y712831D01*
X429143Y713012D01*
X429284Y713211D01*
X429402Y713423D01*
X429495Y713648D01*
X429531Y713772D01*
X430031Y713701D01*
D02*
G37*
G36*
X464254Y571286D02*
X459366Y566399D01*
X456526D01*
X456333Y566553D01*
X456108Y566694D01*
X455869Y566809D01*
X455618Y566897D01*
X455360Y566956D01*
X455096Y566985D01*
X454831D01*
X454567Y566956D01*
X454309Y566897D01*
X454058Y566809D01*
X453819Y566694D01*
X453594Y566553D01*
X453387Y566387D01*
X453199Y566200D01*
X453034Y565992D01*
X452893Y565768D01*
X452778Y565528D01*
X452690Y565278D01*
X452631Y565020D01*
X452601Y564756D01*
Y564491D01*
X452631Y564227D01*
X452690Y563968D01*
X452778Y563718D01*
X452893Y563479D01*
X453034Y563254D01*
X453199Y563047D01*
X453387Y562859D01*
X453594Y562694D01*
X453819Y562552D01*
X454058Y562437D01*
X454309Y562350D01*
X454567Y562291D01*
X454831Y562261D01*
X455096D01*
X455360Y562291D01*
X455618Y562350D01*
X455869Y562437D01*
X456108Y562552D01*
X456333Y562694D01*
X456526Y562848D01*
X458502D01*
X458694Y562386D01*
X456056Y559748D01*
X450573D01*
X450443Y560209D01*
X450451Y560248D01*
X450598Y560346D01*
X450745Y560475D01*
X450875Y560623D01*
X450983Y560786D01*
X451070Y560962D01*
X451133Y561147D01*
X451171Y561340D01*
X451184Y561536D01*
Y565630D01*
X451171Y565826D01*
X451133Y566018D01*
X451070Y566204D01*
X450983Y566380D01*
X450875Y566543D01*
X450745Y566690D01*
X450598Y566819D01*
X450435Y566928D01*
X450259Y567015D01*
X450073Y567078D01*
X449881Y567116D01*
X449685Y567129D01*
X445288D01*
X445081Y567629D01*
X447296Y569845D01*
X447542Y569873D01*
X447801Y569932D01*
X448051Y570019D01*
X448290Y570135D01*
X448515Y570276D01*
X448722Y570441D01*
X448910Y570629D01*
X449075Y570836D01*
X449216Y571061D01*
X449332Y571300D01*
X449419Y571550D01*
X449464Y571748D01*
X464062D01*
X464254Y571286D01*
D02*
G37*
G36*
X365969Y566756D02*
X366144Y566603D01*
X366337Y566474D01*
X366545Y566371D01*
X366765Y566297D01*
X366993Y566252D01*
X367224Y566236D01*
X411405D01*
X411483Y566199D01*
X411732Y565924D01*
X411815Y565736D01*
X411808Y565630D01*
Y561536D01*
X411821Y561340D01*
X411859Y561147D01*
X411922Y560962D01*
X411934Y560937D01*
X411756Y560546D01*
X411641Y560437D01*
X392129D01*
Y563661D01*
X392116Y563857D01*
X392078Y564049D01*
X392015Y564235D01*
X391928Y564411D01*
X391819Y564574D01*
X391690Y564722D01*
X391543Y564851D01*
X391380Y564960D01*
X391204Y565047D01*
X391018Y565110D01*
X390826Y565148D01*
X390630Y565161D01*
X385551D01*
X385355Y565148D01*
X385163Y565110D01*
X384977Y565047D01*
X384802Y564960D01*
X384639Y564851D01*
X384491Y564722D01*
X384362Y564574D01*
X384253Y564411D01*
X384166Y564235D01*
X384103Y564049D01*
X384065Y563857D01*
X384052Y563661D01*
Y559567D01*
X384065Y559371D01*
X384103Y559179D01*
X384166Y558993D01*
X384253Y558817D01*
X384362Y558654D01*
X384432Y558575D01*
X384376Y558320D01*
X384226Y558075D01*
X360656D01*
X360506Y558320D01*
X360450Y558575D01*
X360520Y558654D01*
X360629Y558817D01*
X360716Y558993D01*
X360779Y559179D01*
X360817Y559371D01*
X360830Y559567D01*
Y563661D01*
X360817Y563857D01*
X360779Y564049D01*
X360716Y564235D01*
X360629Y564411D01*
X360520Y564574D01*
X360391Y564722D01*
X360243Y564851D01*
X360080Y564960D01*
X359905Y565047D01*
X359719Y565110D01*
X359526Y565148D01*
X359331Y565161D01*
X354252D01*
X354056Y565148D01*
X353864Y565110D01*
X353678Y565047D01*
X353502Y564960D01*
X353339Y564851D01*
X353192Y564722D01*
X353063Y564574D01*
X352563Y564726D01*
Y579509D01*
X353025Y579701D01*
X365969Y566756D01*
D02*
G37*
G36*
X519879Y583091D02*
X519891Y582879D01*
X519926Y582669D01*
X519985Y582465D01*
X520066Y582269D01*
X520169Y582084D01*
X520292Y581911D01*
X520433Y581752D01*
X520592Y581611D01*
X520765Y581488D01*
X520950Y581385D01*
X521146Y581304D01*
X521350Y581245D01*
X521560Y581210D01*
X521772Y581198D01*
X526018D01*
X526140Y580698D01*
X525838Y580542D01*
X525391Y580278D01*
X524959Y579989D01*
X524544Y579677D01*
X524148Y579342D01*
X523770Y578986D01*
X523414Y578608D01*
X523079Y578212D01*
X522766Y577797D01*
X522478Y577365D01*
X522214Y576918D01*
X521976Y576457D01*
X521764Y575983D01*
X521579Y575498D01*
X521421Y575003D01*
X521291Y574501D01*
X521190Y573991D01*
X521118Y573477D01*
X521074Y572960D01*
X521059Y572441D01*
X521074Y571922D01*
X521118Y571405D01*
X521190Y570891D01*
X521291Y570381D01*
X521421Y569879D01*
X521579Y569384D01*
X521764Y568899D01*
X521976Y568425D01*
X522214Y567964D01*
X522478Y567517D01*
X522766Y567085D01*
X523079Y566670D01*
X523414Y566273D01*
X523770Y565896D01*
X524148Y565540D01*
X524544Y565205D01*
X524959Y564892D01*
X525391Y564604D01*
X525838Y564340D01*
X526299Y564102D01*
X526773Y563890D01*
X527258Y563705D01*
X527753Y563547D01*
X528255Y563417D01*
X528765Y563316D01*
X528934Y563292D01*
Y531122D01*
X474606D01*
X474421Y531108D01*
X474240Y531064D01*
X474068Y530993D01*
X473910Y530896D01*
X473769Y530775D01*
X473648Y530634D01*
X473551Y530475D01*
X473480Y530303D01*
X473436Y530123D01*
X473422Y529937D01*
Y517523D01*
X450637D01*
X448921Y519239D01*
Y520666D01*
X449685D01*
X449881Y520679D01*
X450073Y520717D01*
X450259Y520780D01*
X450435Y520867D01*
X450598Y520976D01*
X450745Y521105D01*
X450875Y521253D01*
X450983Y521416D01*
X451070Y521592D01*
X451133Y521777D01*
X451171Y521970D01*
X451184Y522165D01*
Y526260D01*
X451171Y526455D01*
X451133Y526648D01*
X451070Y526834D01*
X450983Y527009D01*
X450875Y527173D01*
X450745Y527320D01*
X450598Y527449D01*
X450435Y527558D01*
X450259Y527645D01*
X450073Y527708D01*
X449881Y527746D01*
X449685Y527759D01*
X444606D01*
X444411Y527746D01*
X444218Y527708D01*
X444032Y527645D01*
X443857Y527558D01*
X443694Y527449D01*
X443546Y527320D01*
X443417Y527173D01*
X443308Y527009D01*
X443221Y526834D01*
X443158Y526648D01*
X443120Y526455D01*
X443107Y526260D01*
Y522165D01*
X443120Y521970D01*
X443158Y521777D01*
X443221Y521592D01*
X443308Y521416D01*
X443417Y521253D01*
X443546Y521105D01*
X443694Y520976D01*
X443857Y520867D01*
X444032Y520780D01*
X444218Y520717D01*
X444411Y520679D01*
X444606Y520666D01*
X445370D01*
Y518504D01*
X445385Y518272D01*
X445431Y518044D01*
X445505Y517825D01*
X445608Y517616D01*
X445737Y517423D01*
X445890Y517248D01*
X447712Y515426D01*
X447521Y514964D01*
X444739D01*
X442228Y517475D01*
Y552217D01*
X443846Y553835D01*
X457770D01*
X458002Y553850D01*
X458229Y553895D01*
X458449Y553970D01*
X458658Y554073D01*
X458851Y554202D01*
X459025Y554355D01*
X464509Y559839D01*
X470863D01*
Y559567D01*
X470876Y559371D01*
X470914Y559179D01*
X470977Y558993D01*
X471064Y558817D01*
X471173Y558654D01*
X471302Y558507D01*
X471450Y558378D01*
X471613Y558268D01*
X471789Y558182D01*
X471974Y558119D01*
X472166Y558080D01*
X472362Y558068D01*
X477441D01*
X477637Y558080D01*
X477829Y558119D01*
X478015Y558182D01*
X478191Y558268D01*
X478354Y558378D01*
X478501Y558507D01*
X478630Y558654D01*
X478739Y558817D01*
X478826Y558993D01*
X478889Y559179D01*
X478927Y559371D01*
X478940Y559567D01*
Y563661D01*
X478927Y563857D01*
X478889Y564049D01*
X478826Y564235D01*
X478739Y564411D01*
X478630Y564574D01*
X478501Y564722D01*
X478354Y564851D01*
X478191Y564960D01*
X478015Y565047D01*
X477829Y565110D01*
X477637Y565148D01*
X477441Y565161D01*
X472362D01*
X472166Y565148D01*
X471974Y565110D01*
X471789Y565047D01*
X471613Y564960D01*
X471450Y564851D01*
X471302Y564722D01*
X471173Y564574D01*
X471064Y564411D01*
X470977Y564235D01*
X470914Y564049D01*
X470876Y563857D01*
X470863Y563661D01*
Y563390D01*
X465373D01*
X465181Y563852D01*
X485479Y584150D01*
X519879D01*
Y583091D01*
D02*
G37*
G36*
X343296Y581458D02*
X343500Y581308D01*
Y563775D01*
X335307Y555582D01*
X334845Y555773D01*
Y563292D01*
X335015Y563316D01*
X335524Y563417D01*
X336027Y563547D01*
X336522Y563705D01*
X337006Y563890D01*
X337480Y564102D01*
X337942Y564340D01*
X338389Y564604D01*
X338821Y564892D01*
X339235Y565205D01*
X339632Y565540D01*
X340009Y565896D01*
X340366Y566273D01*
X340701Y566670D01*
X341013Y567085D01*
X341301Y567517D01*
X341565Y567964D01*
X341804Y568425D01*
X342016Y568899D01*
X342201Y569384D01*
X342358Y569879D01*
X342488Y570381D01*
X342589Y570891D01*
X342662Y571405D01*
X342706Y571922D01*
X342720Y572441D01*
X342706Y572960D01*
X342662Y573477D01*
X342589Y573991D01*
X342488Y574501D01*
X342358Y575003D01*
X342201Y575498D01*
X342016Y575983D01*
X341804Y576457D01*
X341565Y576918D01*
X341301Y577365D01*
X341013Y577797D01*
X340701Y578212D01*
X340366Y578608D01*
X340009Y578986D01*
X339632Y579342D01*
X339235Y579677D01*
X338821Y579989D01*
X338389Y580278D01*
X337942Y580542D01*
X337639Y580698D01*
X337761Y581198D01*
X341910D01*
X342121Y581210D01*
X342331Y581245D01*
X342535Y581304D01*
X342731Y581385D01*
X342916Y581488D01*
X343001Y581548D01*
X343296Y581458D01*
D02*
G37*
G36*
X384376Y547192D02*
X384432Y546937D01*
X384362Y546858D01*
X384253Y546695D01*
X384166Y546519D01*
X384103Y546333D01*
X384065Y546141D01*
X384052Y545945D01*
Y541850D01*
X384052Y541842D01*
X383779Y541451D01*
X383628Y541342D01*
X381269D01*
X381037Y541327D01*
X380809Y541282D01*
X380589Y541207D01*
X380381Y541105D01*
X380188Y540976D01*
X380013Y540822D01*
X374237Y535046D01*
X374084Y534871D01*
X373955Y534678D01*
X373852Y534470D01*
X373777Y534250D01*
X373732Y534022D01*
X373717Y533791D01*
Y409054D01*
X369436Y404773D01*
X369190Y404745D01*
X368932Y404686D01*
X368681Y404599D01*
X368442Y404484D01*
X368217Y404343D01*
X368010Y404177D01*
X367823Y403990D01*
X367657Y403782D01*
X367516Y403557D01*
X367401Y403318D01*
X367313Y403068D01*
X367254Y402809D01*
X367224Y402546D01*
Y402280D01*
X367254Y402017D01*
X367313Y401758D01*
X367401Y401508D01*
X367516Y401268D01*
X367657Y401044D01*
X367823Y400837D01*
X368010Y400649D01*
X368217Y400483D01*
X368442Y400342D01*
X368681Y400227D01*
X368932Y400140D01*
X369190Y400080D01*
X369454Y400051D01*
X369719D01*
X369983Y400080D01*
X370242Y400140D01*
X370492Y400227D01*
X370731Y400342D01*
X370956Y400483D01*
X371163Y400649D01*
X371351Y400837D01*
X371516Y401044D01*
X371657Y401268D01*
X371773Y401508D01*
X371860Y401758D01*
X371919Y402017D01*
X371947Y402262D01*
X373908Y404223D01*
X374448Y404057D01*
X374493Y403819D01*
X374464Y403782D01*
X374323Y403557D01*
X374208Y403318D01*
X374120Y403068D01*
X374061Y402809D01*
X374031Y402546D01*
Y402280D01*
X374061Y402017D01*
X374120Y401758D01*
X374208Y401508D01*
X374323Y401268D01*
X374464Y401044D01*
X374630Y400837D01*
X374817Y400649D01*
X375025Y400483D01*
X375249Y400342D01*
X375488Y400227D01*
X375739Y400140D01*
X375997Y400080D01*
X376261Y400051D01*
X376526D01*
X376790Y400080D01*
X377049Y400140D01*
X377299Y400227D01*
X377538Y400342D01*
X377763Y400483D01*
X377970Y400649D01*
X378158Y400837D01*
X378323Y401044D01*
X378464Y401268D01*
X378580Y401508D01*
X378667Y401758D01*
X378726Y402017D01*
X378756Y402280D01*
Y402546D01*
X378726Y402809D01*
X378667Y403068D01*
X378580Y403318D01*
X378464Y403557D01*
X378323Y403782D01*
X378169Y403975D01*
Y405144D01*
X378804Y405779D01*
X378971Y405802D01*
X379425Y405452D01*
Y398639D01*
X379271Y398446D01*
X379130Y398221D01*
X379015Y397982D01*
X378927Y397732D01*
X378868Y397473D01*
X378839Y397209D01*
Y396944D01*
X378868Y396680D01*
X378927Y396422D01*
X379015Y396171D01*
X379130Y395932D01*
X379271Y395708D01*
X379437Y395500D01*
X379624Y395313D01*
X379832Y395147D01*
X380056Y395006D01*
X380295Y394891D01*
X380546Y394803D01*
X380804Y394744D01*
X381068Y394715D01*
X381333D01*
X381597Y394744D01*
X381856Y394803D01*
X382106Y394891D01*
X382345Y395006D01*
X382570Y395147D01*
X382777Y395313D01*
X382965Y395500D01*
X383130Y395708D01*
X383272Y395932D01*
X383387Y396171D01*
X383474Y396422D01*
X383533Y396680D01*
X383563Y396944D01*
Y397209D01*
X383533Y397473D01*
X383474Y397732D01*
X383387Y397982D01*
X383272Y398221D01*
X383130Y398446D01*
X382976Y398639D01*
Y405001D01*
X383438Y405193D01*
X386315Y402316D01*
Y397838D01*
X385551D01*
X385355Y397825D01*
X385163Y397787D01*
X384977Y397724D01*
X384802Y397637D01*
X384639Y397528D01*
X384491Y397399D01*
X384362Y397251D01*
X384253Y397088D01*
X384166Y396912D01*
X384103Y396727D01*
X384065Y396534D01*
X384052Y396339D01*
Y392244D01*
X384065Y392048D01*
X384103Y391856D01*
X384166Y391670D01*
X384253Y391494D01*
X384362Y391331D01*
X384491Y391184D01*
X384639Y391055D01*
X384802Y390946D01*
X384977Y390859D01*
X385163Y390796D01*
X385355Y390758D01*
X385551Y390745D01*
X390630D01*
X390826Y390758D01*
X391018Y390796D01*
X391204Y390859D01*
X391380Y390946D01*
X391543Y391055D01*
X391690Y391184D01*
X391819Y391331D01*
X391928Y391494D01*
X392015Y391670D01*
X392078Y391856D01*
X392116Y392048D01*
X392129Y392244D01*
Y396339D01*
X392116Y396534D01*
X392078Y396727D01*
X392015Y396912D01*
X391928Y397088D01*
X391819Y397251D01*
X391690Y397399D01*
X391543Y397528D01*
X391380Y397637D01*
X391204Y397724D01*
X391018Y397787D01*
X390826Y397825D01*
X390630Y397838D01*
X389866D01*
Y403051D01*
X389851Y403283D01*
X389806Y403511D01*
X389731Y403731D01*
X389628Y403939D01*
X389499Y404132D01*
X389346Y404307D01*
X385691Y407961D01*
X385898Y408461D01*
X390630D01*
X390826Y408474D01*
X391018Y408512D01*
X391204Y408575D01*
X391380Y408662D01*
X391543Y408771D01*
X391690Y408900D01*
X391819Y409048D01*
X391928Y409211D01*
X392015Y409387D01*
X392078Y409573D01*
X392116Y409765D01*
X392129Y409961D01*
Y410232D01*
X411808D01*
Y409961D01*
X411821Y409765D01*
X411859Y409573D01*
X411922Y409387D01*
X412009Y409211D01*
X412118Y409048D01*
X412247Y408900D01*
X412394Y408771D01*
X412557Y408662D01*
X412733Y408575D01*
X412919Y408512D01*
X413111Y408474D01*
X413307Y408461D01*
X418386D01*
X418581Y408474D01*
X418774Y408512D01*
X418960Y408575D01*
X419136Y408662D01*
X419299Y408771D01*
X419446Y408900D01*
X419575Y409048D01*
X419684Y409211D01*
X419771Y409387D01*
X419834Y409573D01*
X419872Y409765D01*
X419885Y409961D01*
Y414055D01*
X419872Y414251D01*
X419834Y414443D01*
X419771Y414629D01*
X419684Y414805D01*
X419575Y414968D01*
X419446Y415115D01*
X419299Y415244D01*
X419136Y415353D01*
X418960Y415440D01*
X418774Y415503D01*
X418581Y415542D01*
X418386Y415554D01*
X413307D01*
X413111Y415542D01*
X412919Y415503D01*
X412733Y415440D01*
X412557Y415353D01*
X412394Y415244D01*
X412247Y415115D01*
X412118Y414968D01*
X412009Y414805D01*
X411922Y414629D01*
X411859Y414443D01*
X411821Y414251D01*
X411808Y414055D01*
Y413783D01*
X392129D01*
Y414055D01*
X392116Y414251D01*
X392078Y414443D01*
X392015Y414629D01*
X391928Y414805D01*
X391819Y414968D01*
X391690Y415115D01*
X391543Y415244D01*
X391380Y415353D01*
X391204Y415440D01*
X391018Y415503D01*
X390826Y415542D01*
X390630Y415554D01*
X385551D01*
X385355Y415542D01*
X385163Y415503D01*
X384977Y415440D01*
X384854Y415379D01*
X384672Y415439D01*
X384354Y415651D01*
Y422145D01*
X384672Y422356D01*
X384854Y422416D01*
X384977Y422355D01*
X385163Y422292D01*
X385355Y422254D01*
X385551Y422241D01*
X390630D01*
X390826Y422254D01*
X391018Y422292D01*
X391204Y422355D01*
X391380Y422442D01*
X391543Y422551D01*
X391690Y422680D01*
X391819Y422827D01*
X391928Y422991D01*
X392015Y423166D01*
X392078Y423352D01*
X392116Y423545D01*
X392129Y423740D01*
Y427835D01*
X392116Y428030D01*
X392078Y428223D01*
X392015Y428408D01*
X391928Y428584D01*
X391819Y428747D01*
X391690Y428895D01*
X391543Y429024D01*
X391380Y429133D01*
X391204Y429220D01*
X391018Y429283D01*
X390826Y429321D01*
X390630Y429334D01*
X385551D01*
X385355Y429321D01*
X385163Y429283D01*
X384977Y429220D01*
X384854Y429159D01*
X384672Y429219D01*
X384354Y429430D01*
Y439861D01*
X384672Y440072D01*
X384854Y440132D01*
X384977Y440072D01*
X385163Y440008D01*
X385355Y439970D01*
X385551Y439957D01*
X390630D01*
X390826Y439970D01*
X391018Y440008D01*
X391204Y440072D01*
X391380Y440158D01*
X391543Y440267D01*
X391690Y440397D01*
X391819Y440544D01*
X391928Y440707D01*
X392015Y440883D01*
X392078Y441069D01*
X392116Y441261D01*
X392129Y441457D01*
Y441728D01*
X411808D01*
Y441457D01*
X411821Y441261D01*
X411859Y441069D01*
X411922Y440883D01*
X412009Y440707D01*
X412118Y440544D01*
X412247Y440397D01*
X412394Y440267D01*
X412557Y440158D01*
X412733Y440072D01*
X412919Y440008D01*
X413111Y439970D01*
X413307Y439957D01*
X418386D01*
X418581Y439970D01*
X418774Y440008D01*
X418960Y440072D01*
X419136Y440158D01*
X419299Y440267D01*
X419446Y440397D01*
X419575Y440544D01*
X419684Y440707D01*
X419771Y440883D01*
X419834Y441069D01*
X419872Y441261D01*
X419885Y441457D01*
Y445551D01*
X419872Y445747D01*
X419834Y445939D01*
X419771Y446125D01*
X419684Y446301D01*
X419575Y446464D01*
X419446Y446611D01*
X419299Y446741D01*
X419136Y446850D01*
X418960Y446936D01*
X418774Y446999D01*
X418581Y447038D01*
X418386Y447051D01*
X413307D01*
X413111Y447038D01*
X412919Y446999D01*
X412733Y446936D01*
X412557Y446850D01*
X412394Y446741D01*
X412247Y446611D01*
X412118Y446464D01*
X412009Y446301D01*
X411922Y446125D01*
X411859Y445939D01*
X411821Y445747D01*
X411808Y445551D01*
Y445279D01*
X392129D01*
Y445551D01*
X392116Y445747D01*
X392078Y445939D01*
X392015Y446125D01*
X391928Y446301D01*
X391819Y446464D01*
X391690Y446611D01*
X391543Y446741D01*
X391380Y446850D01*
X391204Y446936D01*
X391018Y446999D01*
X390826Y447038D01*
X390630Y447051D01*
X385551D01*
X385355Y447038D01*
X385163Y446999D01*
X384977Y446936D01*
X384854Y446876D01*
X384672Y446935D01*
X384354Y447147D01*
Y453641D01*
X384672Y453852D01*
X384854Y453912D01*
X384977Y453851D01*
X385163Y453788D01*
X385355Y453750D01*
X385551Y453737D01*
X390630D01*
X390826Y453750D01*
X391018Y453788D01*
X391204Y453851D01*
X391380Y453938D01*
X391543Y454047D01*
X391690Y454176D01*
X391819Y454323D01*
X391928Y454487D01*
X392015Y454663D01*
X392078Y454848D01*
X392116Y455041D01*
X392129Y455236D01*
Y459331D01*
X392116Y459526D01*
X392078Y459719D01*
X392015Y459904D01*
X391928Y460080D01*
X391819Y460243D01*
X391690Y460391D01*
X391543Y460520D01*
X391380Y460629D01*
X391204Y460716D01*
X391018Y460779D01*
X390826Y460817D01*
X390630Y460830D01*
X385551D01*
X385355Y460817D01*
X385163Y460779D01*
X384977Y460716D01*
X384854Y460655D01*
X384672Y460715D01*
X384354Y460926D01*
Y471357D01*
X384672Y471569D01*
X384854Y471628D01*
X384977Y471568D01*
X385163Y471505D01*
X385355Y471466D01*
X385551Y471454D01*
X390630D01*
X390826Y471466D01*
X391018Y471505D01*
X391204Y471568D01*
X391380Y471654D01*
X391543Y471763D01*
X391690Y471893D01*
X391819Y472040D01*
X391928Y472203D01*
X392015Y472379D01*
X392078Y472565D01*
X392116Y472757D01*
X392129Y472953D01*
Y473225D01*
X411808D01*
Y472953D01*
X411821Y472757D01*
X411859Y472565D01*
X411922Y472379D01*
X412009Y472203D01*
X412118Y472040D01*
X412247Y471893D01*
X412394Y471763D01*
X412557Y471654D01*
X412733Y471568D01*
X412919Y471505D01*
X413111Y471466D01*
X413307Y471454D01*
X418386D01*
X418581Y471466D01*
X418774Y471505D01*
X418960Y471568D01*
X419136Y471654D01*
X419299Y471763D01*
X419446Y471893D01*
X419575Y472040D01*
X419684Y472203D01*
X419771Y472379D01*
X419834Y472565D01*
X419872Y472757D01*
X419885Y472953D01*
Y477047D01*
X419872Y477243D01*
X419834Y477435D01*
X419771Y477621D01*
X419684Y477797D01*
X419575Y477960D01*
X419446Y478107D01*
X419299Y478237D01*
X419136Y478346D01*
X418960Y478432D01*
X418774Y478495D01*
X418581Y478534D01*
X418386Y478546D01*
X413307D01*
X413111Y478534D01*
X412919Y478495D01*
X412733Y478432D01*
X412557Y478346D01*
X412394Y478237D01*
X412247Y478107D01*
X412118Y477960D01*
X412009Y477797D01*
X411922Y477621D01*
X411859Y477435D01*
X411821Y477243D01*
X411808Y477047D01*
Y476776D01*
X392129D01*
Y477047D01*
X392116Y477243D01*
X392078Y477435D01*
X392015Y477621D01*
X391928Y477797D01*
X391819Y477960D01*
X391690Y478107D01*
X391543Y478237D01*
X391380Y478346D01*
X391204Y478432D01*
X391018Y478495D01*
X390826Y478534D01*
X390630Y478546D01*
X385551D01*
X385355Y478534D01*
X385163Y478495D01*
X384977Y478432D01*
X384854Y478372D01*
X384672Y478432D01*
X384354Y478643D01*
Y485137D01*
X384672Y485348D01*
X384854Y485408D01*
X384977Y485347D01*
X385163Y485284D01*
X385355Y485246D01*
X385551Y485233D01*
X390630D01*
X390826Y485246D01*
X391018Y485284D01*
X391204Y485347D01*
X391380Y485434D01*
X391543Y485543D01*
X391690Y485672D01*
X391819Y485820D01*
X391928Y485983D01*
X392015Y486159D01*
X392078Y486344D01*
X392116Y486537D01*
X392129Y486732D01*
Y490827D01*
X392116Y491022D01*
X392078Y491215D01*
X392015Y491400D01*
X391928Y491576D01*
X391819Y491740D01*
X391690Y491887D01*
X391543Y492016D01*
X391380Y492125D01*
X391204Y492212D01*
X391018Y492275D01*
X390826Y492313D01*
X390630Y492326D01*
X385551D01*
X385355Y492313D01*
X385163Y492275D01*
X384977Y492212D01*
X384854Y492151D01*
X384672Y492211D01*
X384354Y492422D01*
Y502853D01*
X384672Y503065D01*
X384854Y503125D01*
X384977Y503064D01*
X385163Y503001D01*
X385355Y502962D01*
X385551Y502950D01*
X390630D01*
X390826Y502962D01*
X391018Y503001D01*
X391204Y503064D01*
X391380Y503150D01*
X391543Y503259D01*
X391690Y503389D01*
X391819Y503536D01*
X391928Y503699D01*
X392015Y503875D01*
X392078Y504061D01*
X392116Y504253D01*
X392129Y504449D01*
Y504721D01*
X411808D01*
Y504449D01*
X411821Y504253D01*
X411859Y504061D01*
X411922Y503875D01*
X412009Y503699D01*
X412118Y503536D01*
X412247Y503389D01*
X412394Y503259D01*
X412557Y503150D01*
X412733Y503064D01*
X412919Y503001D01*
X413111Y502962D01*
X413307Y502950D01*
X418386D01*
X418581Y502962D01*
X418774Y503001D01*
X418960Y503064D01*
X419136Y503150D01*
X419299Y503259D01*
X419446Y503389D01*
X419575Y503536D01*
X419684Y503699D01*
X419771Y503875D01*
X419834Y504061D01*
X419872Y504253D01*
X419885Y504449D01*
Y508543D01*
X419872Y508739D01*
X419834Y508931D01*
X419771Y509117D01*
X419684Y509293D01*
X419575Y509456D01*
X419446Y509604D01*
X419299Y509733D01*
X419136Y509842D01*
X418960Y509929D01*
X418774Y509992D01*
X418581Y510030D01*
X418386Y510043D01*
X413307D01*
X413111Y510030D01*
X412919Y509992D01*
X412733Y509929D01*
X412557Y509842D01*
X412394Y509733D01*
X412247Y509604D01*
X412118Y509456D01*
X412009Y509293D01*
X411922Y509117D01*
X411859Y508931D01*
X411821Y508739D01*
X411808Y508543D01*
Y508272D01*
X392129D01*
Y508543D01*
X392116Y508739D01*
X392078Y508931D01*
X392015Y509117D01*
X391928Y509293D01*
X391819Y509456D01*
X391690Y509604D01*
X391543Y509733D01*
X391380Y509842D01*
X391204Y509929D01*
X391018Y509992D01*
X390826Y510030D01*
X390630Y510043D01*
X385551D01*
X385355Y510030D01*
X385163Y509992D01*
X384977Y509929D01*
X384854Y509868D01*
X384672Y509928D01*
X384354Y510139D01*
Y530120D01*
X384939Y530705D01*
X402507D01*
X402739Y530720D01*
X402967Y530765D01*
X403187Y530840D01*
X403395Y530943D01*
X403588Y531072D01*
X403763Y531225D01*
X408159Y535622D01*
X420158D01*
X420389Y535637D01*
X420617Y535682D01*
X420837Y535757D01*
X421045Y535859D01*
X421238Y535988D01*
X421413Y536141D01*
X427937Y542665D01*
X428183Y542693D01*
X428441Y542752D01*
X428692Y542840D01*
X428931Y542955D01*
X429155Y543096D01*
X429363Y543261D01*
X429550Y543449D01*
X429716Y543656D01*
X429857Y543881D01*
X429910Y543991D01*
X430410Y543876D01*
Y540865D01*
X422564Y533019D01*
X422410Y532845D01*
X422281Y532652D01*
X422179Y532443D01*
X422104Y532223D01*
X422059Y531995D01*
X422043Y531764D01*
Y490555D01*
X419885D01*
Y490827D01*
X419872Y491022D01*
X419834Y491215D01*
X419771Y491400D01*
X419684Y491576D01*
X419575Y491740D01*
X419446Y491887D01*
X419299Y492016D01*
X419136Y492125D01*
X418960Y492212D01*
X418774Y492275D01*
X418581Y492313D01*
X418386Y492326D01*
X413307D01*
X413111Y492313D01*
X412919Y492275D01*
X412733Y492212D01*
X412557Y492125D01*
X412394Y492016D01*
X412247Y491887D01*
X412118Y491740D01*
X412009Y491576D01*
X411922Y491400D01*
X411859Y491215D01*
X411821Y491022D01*
X411808Y490827D01*
Y486732D01*
X411821Y486537D01*
X411859Y486344D01*
X411922Y486159D01*
X412009Y485983D01*
X412118Y485820D01*
X412247Y485672D01*
X412394Y485543D01*
X412557Y485434D01*
X412733Y485347D01*
X412919Y485284D01*
X413111Y485246D01*
X413307Y485233D01*
X418386D01*
X418581Y485246D01*
X418774Y485284D01*
X418960Y485347D01*
X419136Y485434D01*
X419299Y485543D01*
X419446Y485672D01*
X419575Y485820D01*
X419684Y485983D01*
X419771Y486159D01*
X419834Y486344D01*
X419872Y486537D01*
X419885Y486732D01*
Y487004D01*
X422043D01*
Y459059D01*
X419885D01*
Y459331D01*
X419872Y459526D01*
X419834Y459719D01*
X419771Y459904D01*
X419684Y460080D01*
X419575Y460243D01*
X419446Y460391D01*
X419299Y460520D01*
X419136Y460629D01*
X418960Y460716D01*
X418774Y460779D01*
X418581Y460817D01*
X418386Y460830D01*
X413307D01*
X413111Y460817D01*
X412919Y460779D01*
X412733Y460716D01*
X412557Y460629D01*
X412394Y460520D01*
X412247Y460391D01*
X412118Y460243D01*
X412009Y460080D01*
X411922Y459904D01*
X411859Y459719D01*
X411821Y459526D01*
X411808Y459331D01*
Y455236D01*
X411821Y455041D01*
X411859Y454848D01*
X411922Y454663D01*
X412009Y454487D01*
X412118Y454323D01*
X412247Y454176D01*
X412394Y454047D01*
X412557Y453938D01*
X412733Y453851D01*
X412919Y453788D01*
X413111Y453750D01*
X413307Y453737D01*
X418386D01*
X418581Y453750D01*
X418774Y453788D01*
X418960Y453851D01*
X419136Y453938D01*
X419299Y454047D01*
X419446Y454176D01*
X419575Y454323D01*
X419684Y454487D01*
X419771Y454663D01*
X419834Y454848D01*
X419872Y455041D01*
X419885Y455236D01*
Y455508D01*
X422043D01*
Y427563D01*
X419885D01*
Y427835D01*
X419872Y428030D01*
X419834Y428223D01*
X419771Y428408D01*
X419684Y428584D01*
X419575Y428747D01*
X419446Y428895D01*
X419299Y429024D01*
X419136Y429133D01*
X418960Y429220D01*
X418774Y429283D01*
X418581Y429321D01*
X418386Y429334D01*
X413307D01*
X413111Y429321D01*
X412919Y429283D01*
X412733Y429220D01*
X412557Y429133D01*
X412394Y429024D01*
X412247Y428895D01*
X412118Y428747D01*
X412009Y428584D01*
X411922Y428408D01*
X411859Y428223D01*
X411821Y428030D01*
X411808Y427835D01*
Y423740D01*
X411821Y423545D01*
X411859Y423352D01*
X411922Y423166D01*
X412009Y422991D01*
X412118Y422827D01*
X412247Y422680D01*
X412394Y422551D01*
X412557Y422442D01*
X412733Y422355D01*
X412919Y422292D01*
X413111Y422254D01*
X413307Y422241D01*
X418386D01*
X418581Y422254D01*
X418774Y422292D01*
X418960Y422355D01*
X419136Y422442D01*
X419299Y422551D01*
X419446Y422680D01*
X419575Y422827D01*
X419684Y422991D01*
X419771Y423166D01*
X419834Y423352D01*
X419872Y423545D01*
X419885Y423740D01*
Y424012D01*
X422043D01*
Y409889D01*
X414591Y402436D01*
X414438Y402262D01*
X414309Y402069D01*
X414206Y401861D01*
X414131Y401641D01*
X414086Y401413D01*
X414071Y401181D01*
Y397838D01*
X413307D01*
X413111Y397825D01*
X412919Y397787D01*
X412733Y397724D01*
X412557Y397637D01*
X412394Y397528D01*
X412247Y397399D01*
X412118Y397251D01*
X412009Y397088D01*
X411922Y396912D01*
X411859Y396727D01*
X411821Y396534D01*
X411808Y396339D01*
Y393438D01*
X411724Y393399D01*
X411224Y393718D01*
Y393924D01*
X411210Y394143D01*
X411167Y394358D01*
X411096Y394566D01*
X410999Y394762D01*
X410878Y394945D01*
X410733Y395110D01*
X408644Y397199D01*
X408632Y397306D01*
X408573Y397564D01*
X408485Y397815D01*
X408370Y398054D01*
X408229Y398278D01*
X408063Y398486D01*
X407876Y398674D01*
X407668Y398839D01*
X407444Y398980D01*
X407205Y399095D01*
X406954Y399183D01*
X406696Y399242D01*
X406432Y399272D01*
X406167D01*
X405903Y399242D01*
X405644Y399183D01*
X405394Y399095D01*
X405155Y398980D01*
X404930Y398839D01*
X404723Y398674D01*
X404535Y398486D01*
X404370Y398278D01*
X404228Y398054D01*
X404113Y397815D01*
X404026Y397564D01*
X403967Y397306D01*
X403937Y397042D01*
Y396777D01*
X403967Y396513D01*
X404026Y396254D01*
X404113Y396004D01*
X404228Y395765D01*
X404370Y395540D01*
X404535Y395333D01*
X404723Y395145D01*
X404847Y395046D01*
X404894Y394744D01*
X404847Y394442D01*
X404723Y394343D01*
X404535Y394155D01*
X404370Y393948D01*
X404228Y393723D01*
X404113Y393484D01*
X404026Y393234D01*
X403967Y392975D01*
X403937Y392711D01*
Y392446D01*
X403967Y392182D01*
X404026Y391924D01*
X404113Y391673D01*
X404228Y391434D01*
X404370Y391210D01*
X404535Y391002D01*
X404723Y390815D01*
X404888Y390683D01*
Y385248D01*
X402890Y383250D01*
X402890Y383250D01*
X402890D01*
X402890Y383250D01*
X402875Y383232D01*
X402715Y383056D01*
X402560Y382846D01*
X402425Y382622D01*
X402314Y382386D01*
X402226Y382140D01*
X402162Y381887D01*
X402124Y381629D01*
X402111Y381368D01*
X402124Y381107D01*
X402162Y380849D01*
X402226Y380596D01*
X402314Y380350D01*
X402425Y380114D01*
X402560Y379890D01*
X402715Y379680D01*
X402890Y379486D01*
X402890Y379486D01*
X403084Y379311D01*
X403294Y379156D01*
X403518Y379022D01*
X403754Y378910D01*
X404000Y378822D01*
X404253Y378759D01*
X404511Y378720D01*
X404804Y378616D01*
X404908Y378324D01*
X404946Y378065D01*
X405010Y377812D01*
X405098Y377566D01*
X405209Y377330D01*
X405343Y377106D01*
X405499Y376896D01*
X405674Y376703D01*
X405674Y376703D01*
X405868Y376528D01*
X406078Y376372D01*
X406301Y376238D01*
X406538Y376126D01*
X406783Y376038D01*
X407037Y375975D01*
X407295Y375936D01*
X407588Y375833D01*
X407692Y375540D01*
X407730Y375281D01*
X407794Y375028D01*
X407881Y374782D01*
X407993Y374546D01*
X408127Y374322D01*
X408283Y374113D01*
X408458Y373919D01*
X408458Y373919D01*
X408652Y373744D01*
X408861Y373588D01*
X409085Y373454D01*
X409321Y373342D01*
X409567Y373254D01*
X409821Y373191D01*
X410079Y373152D01*
X410233Y373145D01*
Y357286D01*
X349213D01*
X349180Y357284D01*
X348549Y357299D01*
X347887Y357345D01*
X347227Y357421D01*
X346572Y357528D01*
X345923Y357665D01*
X345280Y357832D01*
X344646Y358029D01*
X344022Y358254D01*
X343408Y358508D01*
X342807Y358790D01*
X342220Y359100D01*
X341648Y359436D01*
X341092Y359798D01*
X340553Y360186D01*
X340032Y360598D01*
X339532Y361034D01*
X339052Y361492D01*
X338593Y361973D01*
X338157Y362473D01*
X337745Y362994D01*
X337357Y363533D01*
X336995Y364089D01*
X336659Y364661D01*
X336349Y365248D01*
X336067Y365849D01*
X335813Y366462D01*
X335588Y367087D01*
X335391Y367721D01*
X335224Y368363D01*
X335087Y369013D01*
X334980Y369668D01*
X334904Y370328D01*
X334858Y370990D01*
X334843Y371621D01*
X334845Y371654D01*
Y392634D01*
X335333Y392810D01*
X335346Y392810D01*
X335530Y392626D01*
X335737Y392460D01*
X335962Y392319D01*
X336201Y392204D01*
X336451Y392116D01*
X336710Y392057D01*
X336974Y392028D01*
X337239D01*
X337503Y392057D01*
X337761Y392116D01*
X338012Y392204D01*
X338251Y392319D01*
X338475Y392460D01*
X338683Y392626D01*
X338870Y392813D01*
X339036Y393021D01*
X339177Y393245D01*
X339292Y393484D01*
X339380Y393735D01*
X339439Y393993D01*
X339469Y394257D01*
Y394522D01*
X339439Y394786D01*
X339380Y395045D01*
X339350Y395129D01*
X339784Y395402D01*
X350025Y385162D01*
X350073Y385120D01*
X349883Y384628D01*
X349532Y384646D01*
X348894D01*
X348257Y384614D01*
X347622Y384552D01*
X346991Y384458D01*
X346365Y384334D01*
X345746Y384179D01*
X345136Y383994D01*
X344535Y383779D01*
X343946Y383535D01*
X343369Y383262D01*
X342807Y382961D01*
X342260Y382633D01*
X341729Y382279D01*
X341217Y381899D01*
X340724Y381494D01*
X340251Y381066D01*
X339800Y380615D01*
X339372Y380142D01*
X338967Y379649D01*
X338587Y379137D01*
X338233Y378606D01*
X337905Y378059D01*
X337604Y377497D01*
X337332Y376920D01*
X337087Y376331D01*
X336873Y375730D01*
X336687Y375120D01*
X336532Y374501D01*
X336408Y373875D01*
X336314Y373244D01*
X336252Y372610D01*
X336221Y371972D01*
Y371335D01*
X336252Y370697D01*
X336314Y370063D01*
X336408Y369432D01*
X336532Y368806D01*
X336687Y368187D01*
X336873Y367577D01*
X337087Y366976D01*
X337332Y366387D01*
X337604Y365810D01*
X337905Y365248D01*
X338233Y364701D01*
X338587Y364170D01*
X338967Y363658D01*
X339372Y363165D01*
X339800Y362692D01*
X340251Y362241D01*
X340724Y361813D01*
X341217Y361408D01*
X341729Y361028D01*
X342260Y360674D01*
X342807Y360346D01*
X343369Y360045D01*
X343946Y359772D01*
X344535Y359528D01*
X345136Y359314D01*
X345746Y359128D01*
X346365Y358973D01*
X346991Y358849D01*
X347622Y358755D01*
X348257Y358693D01*
X348894Y358661D01*
X349532D01*
X350169Y358693D01*
X350803Y358755D01*
X351434Y358849D01*
X352060Y358973D01*
X352679Y359128D01*
X353289Y359314D01*
X353890Y359528D01*
X354479Y359772D01*
X355056Y360045D01*
X355618Y360346D01*
X356166Y360674D01*
X356696Y361028D01*
X357208Y361408D01*
X357701Y361813D01*
X358174Y362241D01*
X358625Y362692D01*
X359053Y363165D01*
X359458Y363658D01*
X359838Y364170D01*
X360192Y364701D01*
X360520Y365248D01*
X360821Y365810D01*
X361094Y366387D01*
X361338Y366976D01*
X361553Y367577D01*
X361738Y368187D01*
X361893Y368806D01*
X362017Y369432D01*
X362111Y370063D01*
X362173Y370697D01*
X362205Y371335D01*
Y371972D01*
X362173Y372610D01*
X362111Y373244D01*
X362017Y373875D01*
X361893Y374501D01*
X361738Y375120D01*
X361553Y375730D01*
X361338Y376331D01*
X361094Y376920D01*
X360821Y377497D01*
X360520Y378059D01*
X360192Y378606D01*
X359838Y379137D01*
X359458Y379649D01*
X359053Y380142D01*
X358625Y380615D01*
X358174Y381066D01*
X357701Y381494D01*
X357208Y381899D01*
X356696Y382279D01*
X356166Y382633D01*
X355618Y382961D01*
X355056Y383262D01*
X354479Y383535D01*
X353890Y383779D01*
X353289Y383994D01*
X352800Y384142D01*
X352875Y384642D01*
X367178D01*
X382083Y369737D01*
Y368629D01*
X382049Y368556D01*
X381583Y368219D01*
X381565Y368222D01*
X381257Y368249D01*
X380948D01*
X380639Y368222D01*
X380335Y368168D01*
X380036Y368088D01*
X379745Y367982D01*
X379465Y367851D01*
X379197Y367697D01*
X378943Y367519D01*
X378706Y367320D01*
X378487Y367102D01*
X378289Y366865D01*
X378111Y366611D01*
X377956Y366343D01*
X377826Y366063D01*
X377720Y365772D01*
X377640Y365473D01*
X377586Y365168D01*
X377559Y364860D01*
Y364551D01*
X377586Y364243D01*
X377640Y363938D01*
X377720Y363639D01*
X377826Y363348D01*
X377956Y363068D01*
X378111Y362800D01*
X378289Y362546D01*
X378487Y362309D01*
X378706Y362091D01*
X378943Y361892D01*
X379197Y361714D01*
X379465Y361560D01*
X379745Y361429D01*
X380036Y361323D01*
X380335Y361243D01*
X380639Y361189D01*
X380948Y361162D01*
X381257D01*
X381565Y361189D01*
X381870Y361243D01*
X382169Y361323D01*
X382460Y361429D01*
X382740Y361560D01*
X383008Y361714D01*
X383261Y361892D01*
X383499Y362091D01*
X383717Y362309D01*
X383916Y362546D01*
X384094Y362800D01*
X384248Y363068D01*
X384379Y363348D01*
X384485Y363639D01*
X384565Y363938D01*
X384619Y364243D01*
X384646Y364551D01*
Y364860D01*
X384619Y365168D01*
X384565Y365473D01*
X384526Y365618D01*
X385039Y366132D01*
X385553Y365618D01*
X385514Y365473D01*
X385460Y365168D01*
X385433Y364860D01*
Y364551D01*
X385460Y364243D01*
X385514Y363938D01*
X385594Y363639D01*
X385700Y363348D01*
X385830Y363068D01*
X385985Y362800D01*
X386163Y362546D01*
X386362Y362309D01*
X386580Y362091D01*
X386817Y361892D01*
X387071Y361714D01*
X387339Y361560D01*
X387619Y361429D01*
X387910Y361323D01*
X388209Y361243D01*
X388513Y361189D01*
X388822Y361162D01*
X389131D01*
X389439Y361189D01*
X389744Y361243D01*
X390043Y361323D01*
X390334Y361429D01*
X390614Y361560D01*
X390882Y361714D01*
X391136Y361892D01*
X391372Y362091D01*
X391591Y362309D01*
X391790Y362546D01*
X391968Y362800D01*
X392122Y363068D01*
X392253Y363348D01*
X392359Y363639D01*
X392439Y363938D01*
X392493Y364243D01*
X392520Y364551D01*
Y364860D01*
X392493Y365168D01*
X392439Y365473D01*
X392359Y365772D01*
X392253Y366063D01*
X392122Y366343D01*
X391968Y366611D01*
X391790Y366865D01*
X391591Y367102D01*
X391372Y367320D01*
X391136Y367519D01*
X390882Y367697D01*
X390614Y367851D01*
X390334Y367982D01*
X390043Y368088D01*
X389744Y368168D01*
X389439Y368222D01*
X389131Y368249D01*
X388822D01*
X388513Y368222D01*
X388496Y368219D01*
X388030Y368556D01*
X387996Y368629D01*
Y371451D01*
X387981Y371683D01*
X387935Y371910D01*
X387861Y372130D01*
X387758Y372339D01*
X387629Y372532D01*
X387476Y372706D01*
X370147Y390035D01*
X369973Y390188D01*
X369780Y390317D01*
X369571Y390420D01*
X369351Y390494D01*
X369124Y390540D01*
X368892Y390555D01*
X360396D01*
X360243Y391055D01*
X360391Y391184D01*
X360520Y391331D01*
X360629Y391494D01*
X360716Y391670D01*
X360779Y391856D01*
X360817Y392048D01*
X360830Y392244D01*
Y396339D01*
X360817Y396534D01*
X360779Y396727D01*
X360716Y396912D01*
X360629Y397088D01*
X360520Y397251D01*
X360391Y397399D01*
X360243Y397528D01*
X360080Y397637D01*
X359905Y397724D01*
X359719Y397787D01*
X359526Y397825D01*
X359331Y397838D01*
X354252D01*
X354056Y397825D01*
X353864Y397787D01*
X353678Y397724D01*
X353502Y397637D01*
X353339Y397528D01*
X353192Y397399D01*
X353063Y397251D01*
X352954Y397088D01*
X352867Y396912D01*
X352804Y396727D01*
X352765Y396534D01*
X352753Y396339D01*
Y392244D01*
X352765Y392048D01*
X352804Y391856D01*
X352867Y391670D01*
X352954Y391494D01*
X353021Y391393D01*
X352984Y391145D01*
X352856Y390842D01*
X352849Y390835D01*
X352741Y390808D01*
X342720Y400829D01*
Y422423D01*
X343182Y422614D01*
X352753Y413043D01*
Y409961D01*
X352765Y409765D01*
X352804Y409573D01*
X352867Y409387D01*
X352954Y409211D01*
X353063Y409048D01*
X353192Y408900D01*
X353339Y408771D01*
X353502Y408662D01*
X353678Y408575D01*
X353864Y408512D01*
X354056Y408474D01*
X354252Y408461D01*
X359331D01*
X359526Y408474D01*
X359719Y408512D01*
X359905Y408575D01*
X360080Y408662D01*
X360243Y408771D01*
X360391Y408900D01*
X360520Y409048D01*
X360629Y409211D01*
X360716Y409387D01*
X360779Y409573D01*
X360817Y409765D01*
X360830Y409961D01*
Y414055D01*
X360817Y414251D01*
X360779Y414443D01*
X360716Y414629D01*
X360629Y414805D01*
X360520Y414968D01*
X360391Y415115D01*
X360243Y415244D01*
X360080Y415353D01*
X359905Y415440D01*
X359719Y415503D01*
X359526Y415542D01*
X359331Y415554D01*
X355264D01*
X345082Y425735D01*
Y451556D01*
X345545Y451748D01*
X352753Y444540D01*
Y441457D01*
X352765Y441261D01*
X352804Y441069D01*
X352867Y440883D01*
X352954Y440707D01*
X353063Y440544D01*
X353192Y440397D01*
X353339Y440267D01*
X353502Y440158D01*
X353678Y440072D01*
X353864Y440008D01*
X354056Y439970D01*
X354252Y439957D01*
X359331D01*
X359526Y439970D01*
X359719Y440008D01*
X359905Y440072D01*
X360080Y440158D01*
X360243Y440267D01*
X360391Y440397D01*
X360520Y440544D01*
X360629Y440707D01*
X360716Y440883D01*
X360779Y441069D01*
X360817Y441261D01*
X360830Y441457D01*
Y445551D01*
X360817Y445747D01*
X360779Y445939D01*
X360716Y446125D01*
X360629Y446301D01*
X360520Y446464D01*
X360391Y446611D01*
X360243Y446741D01*
X360080Y446850D01*
X359905Y446936D01*
X359719Y446999D01*
X359526Y447038D01*
X359331Y447051D01*
X355264D01*
X347445Y454869D01*
Y480690D01*
X347907Y480882D01*
X352753Y476036D01*
Y472953D01*
X352765Y472757D01*
X352804Y472565D01*
X352867Y472379D01*
X352954Y472203D01*
X353063Y472040D01*
X353192Y471893D01*
X353339Y471763D01*
X353502Y471654D01*
X353678Y471568D01*
X353864Y471505D01*
X354056Y471466D01*
X354252Y471454D01*
X359331D01*
X359526Y471466D01*
X359719Y471505D01*
X359905Y471568D01*
X360080Y471654D01*
X360243Y471763D01*
X360391Y471893D01*
X360520Y472040D01*
X360629Y472203D01*
X360716Y472379D01*
X360779Y472565D01*
X360817Y472757D01*
X360830Y472953D01*
Y477047D01*
X360817Y477243D01*
X360779Y477435D01*
X360716Y477621D01*
X360629Y477797D01*
X360520Y477960D01*
X360391Y478107D01*
X360243Y478237D01*
X360080Y478346D01*
X359905Y478432D01*
X359719Y478495D01*
X359526Y478534D01*
X359331Y478546D01*
X355264D01*
X349807Y484003D01*
Y510316D01*
X350269Y510508D01*
X352753Y508024D01*
Y504449D01*
X352765Y504253D01*
X352804Y504061D01*
X352867Y503875D01*
X352954Y503699D01*
X353063Y503536D01*
X353192Y503389D01*
X353339Y503259D01*
X353502Y503150D01*
X353678Y503064D01*
X353864Y503001D01*
X354056Y502962D01*
X354252Y502950D01*
X359331D01*
X359526Y502962D01*
X359719Y503001D01*
X359905Y503064D01*
X360080Y503150D01*
X360243Y503259D01*
X360391Y503389D01*
X360520Y503536D01*
X360629Y503699D01*
X360716Y503875D01*
X360779Y504061D01*
X360817Y504253D01*
X360830Y504449D01*
Y508543D01*
X360817Y508739D01*
X360779Y508931D01*
X360716Y509117D01*
X360629Y509293D01*
X360520Y509456D01*
X360391Y509604D01*
X360243Y509733D01*
X360080Y509842D01*
X359905Y509929D01*
X359719Y509992D01*
X359526Y510030D01*
X359331Y510043D01*
X355756D01*
X352169Y513629D01*
Y545408D01*
X352253Y545464D01*
X352753Y545197D01*
Y541850D01*
X352765Y541655D01*
X352804Y541462D01*
X352867Y541277D01*
X352954Y541101D01*
X353063Y540938D01*
X353192Y540790D01*
X353339Y540661D01*
X353502Y540552D01*
X353678Y540465D01*
X353864Y540402D01*
X354056Y540364D01*
X354252Y540351D01*
X359331D01*
X359526Y540364D01*
X359719Y540402D01*
X359905Y540465D01*
X360080Y540552D01*
X360243Y540661D01*
X360391Y540790D01*
X360520Y540938D01*
X360629Y541101D01*
X360716Y541277D01*
X360779Y541462D01*
X360817Y541655D01*
X360830Y541850D01*
Y545945D01*
X360817Y546141D01*
X360779Y546333D01*
X360716Y546519D01*
X360629Y546695D01*
X360520Y546858D01*
X360450Y546937D01*
X360506Y547192D01*
X360656Y547437D01*
X384226D01*
X384376Y547192D01*
D02*
G37*
G36*
X434868Y546146D02*
X434937Y546001D01*
X435078Y545777D01*
X435232Y545583D01*
Y516423D01*
X435248Y516192D01*
X435293Y515964D01*
X435368Y515744D01*
X435470Y515536D01*
X435599Y515343D01*
X435752Y515168D01*
X441349Y509571D01*
X441524Y509418D01*
X441717Y509289D01*
X441925Y509187D01*
X442145Y509112D01*
X442373Y509066D01*
X442604Y509051D01*
X442683D01*
X442834Y508943D01*
X443108Y508551D01*
X443107Y508543D01*
Y504449D01*
X443120Y504253D01*
X443158Y504061D01*
X443221Y503875D01*
X443308Y503699D01*
X443417Y503536D01*
X443546Y503389D01*
X443694Y503259D01*
X443857Y503150D01*
X444032Y503064D01*
X444218Y503001D01*
X444411Y502962D01*
X444606Y502950D01*
X449685D01*
X449881Y502962D01*
X450073Y503001D01*
X450259Y503064D01*
X450435Y503150D01*
X450598Y503259D01*
X450745Y503389D01*
X450875Y503536D01*
X450983Y503699D01*
X451070Y503875D01*
X451133Y504061D01*
X451171Y504253D01*
X451184Y504449D01*
Y504721D01*
X470863D01*
Y504449D01*
X470876Y504253D01*
X470914Y504061D01*
X470977Y503875D01*
X471064Y503699D01*
X471173Y503536D01*
X471302Y503389D01*
X471450Y503259D01*
X471613Y503151D01*
X471789Y503064D01*
X471974Y503001D01*
X472166Y502962D01*
X472362Y502950D01*
X477441D01*
X477637Y502962D01*
X477744Y502984D01*
X478020Y502840D01*
X478216Y502675D01*
X478244Y502619D01*
Y492656D01*
X478216Y492601D01*
X478020Y492436D01*
X477744Y492292D01*
X477637Y492313D01*
X477441Y492326D01*
X472362D01*
X472166Y492313D01*
X471974Y492275D01*
X471789Y492212D01*
X471613Y492125D01*
X471450Y492016D01*
X471302Y491887D01*
X471173Y491740D01*
X471064Y491576D01*
X470977Y491401D01*
X470914Y491215D01*
X470876Y491022D01*
X470863Y490827D01*
Y486732D01*
X470876Y486537D01*
X470914Y486344D01*
X470977Y486159D01*
X471064Y485983D01*
X471173Y485820D01*
X471302Y485672D01*
X471450Y485543D01*
X471613Y485434D01*
X471789Y485347D01*
X471974Y485284D01*
X472166Y485246D01*
X472362Y485233D01*
X477441D01*
X477637Y485246D01*
X477744Y485267D01*
X478020Y485123D01*
X478216Y484958D01*
X478244Y484903D01*
Y478877D01*
X478216Y478822D01*
X478020Y478656D01*
X477744Y478512D01*
X477637Y478534D01*
X477441Y478547D01*
X472362D01*
X472166Y478534D01*
X471974Y478496D01*
X471789Y478432D01*
X471613Y478346D01*
X471450Y478237D01*
X471302Y478107D01*
X471173Y477960D01*
X471064Y477797D01*
X470977Y477621D01*
X470914Y477435D01*
X470876Y477243D01*
X470863Y477047D01*
Y476776D01*
X451184D01*
Y477047D01*
X451171Y477243D01*
X451133Y477435D01*
X451070Y477621D01*
X450983Y477797D01*
X450875Y477960D01*
X450745Y478107D01*
X450598Y478237D01*
X450435Y478346D01*
X450259Y478432D01*
X450073Y478495D01*
X449881Y478534D01*
X449685Y478546D01*
X444606D01*
X444411Y478534D01*
X444218Y478495D01*
X444032Y478432D01*
X443857Y478346D01*
X443694Y478237D01*
X443546Y478107D01*
X443417Y477960D01*
X443308Y477797D01*
X443221Y477621D01*
X443158Y477435D01*
X443120Y477243D01*
X443107Y477047D01*
Y472953D01*
X443120Y472757D01*
X443158Y472565D01*
X443221Y472379D01*
X443308Y472203D01*
X443417Y472040D01*
X443546Y471893D01*
X443694Y471763D01*
X443857Y471654D01*
X444032Y471568D01*
X444218Y471505D01*
X444411Y471466D01*
X444606Y471454D01*
X449685D01*
X449881Y471466D01*
X450073Y471505D01*
X450259Y471568D01*
X450435Y471654D01*
X450598Y471763D01*
X450745Y471893D01*
X450875Y472040D01*
X450983Y472203D01*
X451070Y472379D01*
X451133Y472565D01*
X451171Y472757D01*
X451184Y472953D01*
Y473225D01*
X470863D01*
Y472953D01*
X470876Y472757D01*
X470914Y472565D01*
X470977Y472379D01*
X471064Y472203D01*
X471173Y472040D01*
X471302Y471893D01*
X471450Y471763D01*
X471613Y471654D01*
X471789Y471568D01*
X471974Y471505D01*
X472166Y471466D01*
X472362Y471454D01*
X477441D01*
X477637Y471466D01*
X477744Y471488D01*
X478020Y471344D01*
X478216Y471179D01*
X478244Y471123D01*
Y461160D01*
X478216Y461105D01*
X478020Y460940D01*
X477744Y460796D01*
X477637Y460817D01*
X477441Y460830D01*
X472362D01*
X472166Y460817D01*
X471974Y460779D01*
X471789Y460716D01*
X471613Y460629D01*
X471450Y460520D01*
X471302Y460391D01*
X471173Y460244D01*
X471064Y460080D01*
X470977Y459904D01*
X470914Y459719D01*
X470876Y459526D01*
X470863Y459331D01*
Y455236D01*
X470876Y455041D01*
X470914Y454848D01*
X470977Y454663D01*
X471064Y454487D01*
X471173Y454324D01*
X471302Y454176D01*
X471450Y454047D01*
X471613Y453938D01*
X471789Y453851D01*
X471974Y453788D01*
X472166Y453750D01*
X472362Y453737D01*
X477441D01*
X477637Y453750D01*
X477744Y453771D01*
X478020Y453627D01*
X478216Y453462D01*
X478244Y453407D01*
Y447381D01*
X478216Y447325D01*
X478020Y447160D01*
X477744Y447016D01*
X477637Y447038D01*
X477441Y447051D01*
X472362D01*
X472166Y447038D01*
X471974Y446999D01*
X471789Y446936D01*
X471613Y446850D01*
X471450Y446741D01*
X471302Y446611D01*
X471173Y446464D01*
X471064Y446301D01*
X470977Y446125D01*
X470914Y445939D01*
X470876Y445747D01*
X470863Y445551D01*
Y445279D01*
X451184D01*
Y445551D01*
X451171Y445747D01*
X451133Y445939D01*
X451070Y446125D01*
X450983Y446301D01*
X450875Y446464D01*
X450745Y446611D01*
X450598Y446741D01*
X450435Y446850D01*
X450259Y446936D01*
X450073Y446999D01*
X449881Y447038D01*
X449685Y447051D01*
X444606D01*
X444411Y447038D01*
X444218Y446999D01*
X444032Y446936D01*
X443857Y446850D01*
X443694Y446741D01*
X443546Y446611D01*
X443417Y446464D01*
X443308Y446301D01*
X443221Y446125D01*
X443158Y445939D01*
X443120Y445747D01*
X443107Y445551D01*
Y441457D01*
X443120Y441261D01*
X443158Y441069D01*
X443221Y440883D01*
X443308Y440707D01*
X443417Y440544D01*
X443546Y440397D01*
X443694Y440267D01*
X443857Y440158D01*
X444032Y440072D01*
X444218Y440008D01*
X444411Y439970D01*
X444606Y439957D01*
X449685D01*
X449881Y439970D01*
X450073Y440008D01*
X450259Y440072D01*
X450435Y440158D01*
X450598Y440267D01*
X450745Y440397D01*
X450875Y440544D01*
X450983Y440707D01*
X451070Y440883D01*
X451133Y441069D01*
X451171Y441261D01*
X451184Y441457D01*
Y441728D01*
X470863D01*
Y441457D01*
X470876Y441261D01*
X470914Y441069D01*
X470977Y440883D01*
X471064Y440707D01*
X471173Y440544D01*
X471302Y440397D01*
X471450Y440267D01*
X471613Y440158D01*
X471789Y440072D01*
X471974Y440009D01*
X472166Y439970D01*
X472362Y439958D01*
X477441D01*
X477637Y439970D01*
X477744Y439992D01*
X478020Y439848D01*
X478216Y439682D01*
X478244Y439627D01*
Y429664D01*
X478216Y429609D01*
X478020Y429444D01*
X477744Y429300D01*
X477637Y429321D01*
X477441Y429334D01*
X472362D01*
X472166Y429321D01*
X471974Y429283D01*
X471789Y429220D01*
X471613Y429133D01*
X471450Y429024D01*
X471302Y428895D01*
X471173Y428747D01*
X471064Y428584D01*
X470977Y428408D01*
X470914Y428223D01*
X470876Y428030D01*
X470863Y427835D01*
Y423740D01*
X470876Y423545D01*
X470914Y423352D01*
X470977Y423167D01*
X471064Y422991D01*
X471173Y422827D01*
X471302Y422680D01*
X471450Y422551D01*
X471613Y422442D01*
X471789Y422355D01*
X471974Y422292D01*
X472166Y422254D01*
X472362Y422241D01*
X477441D01*
X477637Y422254D01*
X477744Y422275D01*
X478020Y422131D01*
X478216Y421966D01*
X478244Y421911D01*
Y415885D01*
X478216Y415829D01*
X478020Y415664D01*
X477744Y415520D01*
X477637Y415542D01*
X477441Y415554D01*
X472362D01*
X472166Y415542D01*
X471974Y415503D01*
X471789Y415440D01*
X471613Y415353D01*
X471450Y415245D01*
X471302Y415115D01*
X471173Y414968D01*
X471064Y414805D01*
X470977Y414629D01*
X470914Y414443D01*
X470876Y414251D01*
X470863Y414055D01*
Y413783D01*
X451184D01*
Y414055D01*
X451171Y414251D01*
X451133Y414443D01*
X451070Y414629D01*
X450983Y414805D01*
X450875Y414968D01*
X450745Y415115D01*
X450598Y415244D01*
X450435Y415353D01*
X450259Y415440D01*
X450073Y415503D01*
X449881Y415542D01*
X449685Y415554D01*
X444606D01*
X444411Y415542D01*
X444218Y415503D01*
X444032Y415440D01*
X443857Y415353D01*
X443694Y415244D01*
X443546Y415115D01*
X443417Y414968D01*
X443308Y414805D01*
X443221Y414629D01*
X443158Y414443D01*
X443120Y414251D01*
X443107Y414055D01*
Y409961D01*
X443120Y409765D01*
X443158Y409573D01*
X443221Y409387D01*
X443308Y409211D01*
X443417Y409048D01*
X443546Y408900D01*
X443694Y408771D01*
X443857Y408662D01*
X444032Y408575D01*
X444218Y408512D01*
X444411Y408474D01*
X444606Y408461D01*
X449685D01*
X449881Y408474D01*
X450073Y408512D01*
X450259Y408575D01*
X450435Y408662D01*
X450598Y408771D01*
X450745Y408900D01*
X450875Y409048D01*
X450983Y409211D01*
X451070Y409387D01*
X451133Y409573D01*
X451171Y409765D01*
X451184Y409961D01*
Y410232D01*
X470863D01*
Y409961D01*
X470876Y409765D01*
X470914Y409573D01*
X470977Y409387D01*
X471064Y409211D01*
X471173Y409048D01*
X471302Y408900D01*
X471450Y408771D01*
X471613Y408662D01*
X471789Y408575D01*
X471974Y408512D01*
X472166Y408474D01*
X472362Y408461D01*
X476737D01*
X476928Y407999D01*
X471481Y402552D01*
X471328Y402377D01*
X471199Y402184D01*
X471096Y401976D01*
X471021Y401756D01*
X470976Y401528D01*
X470961Y401297D01*
Y396864D01*
X470914Y396727D01*
X470876Y396534D01*
X470863Y396339D01*
Y392833D01*
X470363Y392710D01*
X470321Y392782D01*
X470277Y392846D01*
X470235Y392911D01*
X470105Y393081D01*
X470053Y393139D01*
X470002Y393198D01*
X469851Y393349D01*
X469792Y393399D01*
X469735Y393451D01*
X469565Y393581D01*
X469500Y393624D01*
X469436Y393668D01*
X469250Y393775D01*
X469181Y393808D01*
X469111Y393843D01*
X468914Y393925D01*
X468840Y393949D01*
X468767Y393975D01*
X468560Y394030D01*
X468484Y394044D01*
X468408Y394060D01*
X468196Y394088D01*
X468119Y394092D01*
X468041Y394098D01*
X467935Y394098D01*
X467935Y394098D01*
X464241Y394098D01*
X464126Y394098D01*
X464049Y394092D01*
X463971Y394088D01*
X463742Y394058D01*
X463666Y394042D01*
X463590Y394028D01*
X463367Y393968D01*
X463294Y393942D01*
X463220Y393918D01*
X463007Y393830D01*
X462938Y393795D01*
X462868Y393762D01*
X462668Y393646D01*
X462604Y393602D01*
X462539Y393560D01*
X462356Y393420D01*
X462298Y393368D01*
X462239Y393318D01*
X462076Y393154D01*
X461934Y393019D01*
X461733Y392926D01*
X461706Y392943D01*
X461698Y392948D01*
X461686Y392954D01*
X461675Y392961D01*
X461618Y392998D01*
X461595Y393008D01*
X461573Y393021D01*
X461429Y393092D01*
X461351Y393122D01*
X461274Y393154D01*
X461265Y393157D01*
X461256Y393160D01*
X461175Y393178D01*
X461093Y393198D01*
X461084Y393198D01*
X461075Y393201D01*
X460991Y393206D01*
X460908Y393212D01*
X460523D01*
X460451Y393207D01*
X460380Y393204D01*
X460359Y393199D01*
X460337Y393198D01*
X460268Y393181D01*
X460198Y393167D01*
X460177Y393159D01*
X460156Y393154D01*
X460090Y393127D01*
X460023Y393102D01*
X460005Y393092D01*
X459985Y393083D01*
X459924Y393046D01*
X459862Y393011D01*
X459845Y392997D01*
X459826Y392986D01*
X459772Y392940D01*
X459716Y392895D01*
X459597Y392785D01*
X459331Y392827D01*
X459098Y392957D01*
X458951Y393083D01*
X458650Y393301D01*
X458334Y393495D01*
X458003Y393664D01*
X457660Y393806D01*
X457307Y393921D01*
X456946Y394007D01*
X456579Y394065D01*
X456209Y394094D01*
X455838D01*
X455468Y394065D01*
X455101Y394007D01*
X454740Y393921D01*
X454387Y393806D01*
X454044Y393664D01*
X453713Y393495D01*
X453397Y393301D01*
X453096Y393083D01*
X452896Y392912D01*
X452858Y392886D01*
X452704Y392824D01*
X452365Y392768D01*
X452324Y392801D01*
X452285Y392837D01*
X452252Y392859D01*
X452220Y392885D01*
X452174Y392911D01*
X452131Y392940D01*
X452094Y392957D01*
X452059Y392977D01*
X452009Y392996D01*
X451962Y393018D01*
X451923Y393029D01*
X451885Y393043D01*
X451833Y393054D01*
X451783Y393068D01*
X451743Y393073D01*
X451703Y393081D01*
X451650Y393084D01*
X451598Y393090D01*
X451326Y393301D01*
X451287Y393344D01*
X451184Y393559D01*
Y396339D01*
X451171Y396534D01*
X451133Y396727D01*
X451070Y396912D01*
X450983Y397088D01*
X450875Y397251D01*
X450745Y397399D01*
X450598Y397528D01*
X450435Y397637D01*
X450259Y397724D01*
X450073Y397787D01*
X449881Y397825D01*
X449685Y397838D01*
X444606D01*
X444411Y397825D01*
X444218Y397787D01*
X444032Y397724D01*
X443857Y397637D01*
X443694Y397528D01*
X443546Y397399D01*
X443417Y397251D01*
X443308Y397088D01*
X443221Y396912D01*
X443158Y396727D01*
X443120Y396534D01*
X443107Y396339D01*
Y393212D01*
X419885D01*
Y396339D01*
X419872Y396534D01*
X419834Y396727D01*
X419771Y396912D01*
X419684Y397088D01*
X419575Y397251D01*
X419446Y397399D01*
X419299Y397528D01*
X419136Y397637D01*
X418960Y397724D01*
X418774Y397787D01*
X418581Y397825D01*
X418386Y397838D01*
X417622D01*
Y400446D01*
X425074Y407898D01*
X425227Y408073D01*
X425356Y408266D01*
X425459Y408474D01*
X425534Y408694D01*
X425579Y408922D01*
X425594Y409154D01*
Y425787D01*
Y457283D01*
Y488780D01*
Y531028D01*
X433440Y538874D01*
X433594Y539049D01*
X433723Y539242D01*
X433825Y539451D01*
X433900Y539670D01*
X433945Y539898D01*
X433960Y540130D01*
Y545583D01*
X434115Y545777D01*
X434256Y546001D01*
X434325Y546146D01*
X434596Y546197D01*
X434868Y546146D01*
D02*
G37*
G36*
X528934Y452661D02*
X486519D01*
Y511151D01*
X486504Y511383D01*
X486459Y511610D01*
X486384Y511830D01*
X486282Y512039D01*
X486153Y512232D01*
X486071Y512325D01*
X485999Y512406D01*
X485803Y512603D01*
X481402Y517003D01*
X481228Y517157D01*
X481035Y517286D01*
X480826Y517388D01*
X480606Y517463D01*
X480379Y517508D01*
X480147Y517523D01*
X474606D01*
Y529937D01*
X528934D01*
Y452661D01*
D02*
G37*
G36*
Y371654D02*
X528936Y371621D01*
X528922Y370990D01*
X528876Y370328D01*
X528799Y369668D01*
X528692Y369013D01*
X528555Y368363D01*
X528388Y367721D01*
X528192Y367087D01*
X527966Y366462D01*
X527712Y365849D01*
X527430Y365248D01*
X527121Y364661D01*
X526785Y364089D01*
X526422Y363533D01*
X526034Y362994D01*
X525622Y362473D01*
X525186Y361973D01*
X524728Y361492D01*
X524248Y361034D01*
X523747Y360598D01*
X523227Y360186D01*
X522688Y359798D01*
X522132Y359436D01*
X521559Y359100D01*
X520972Y358790D01*
X520371Y358508D01*
X519758Y358254D01*
X519134Y358029D01*
X518500Y357832D01*
X517857Y357665D01*
X517207Y357528D01*
X516552Y357421D01*
X515893Y357345D01*
X515231Y357299D01*
X514599Y357284D01*
X514567Y357286D01*
X492430D01*
X492339Y357407D01*
X492229Y357786D01*
X492315Y357872D01*
X492481Y358080D01*
X492622Y358304D01*
X492737Y358543D01*
X492825Y358794D01*
X492884Y359052D01*
X492913Y359316D01*
Y359581D01*
X492884Y359845D01*
X492825Y360104D01*
X492737Y360354D01*
X492622Y360593D01*
X492481Y360818D01*
X492315Y361025D01*
X492128Y361213D01*
X491920Y361378D01*
X491696Y361520D01*
X491457Y361635D01*
X491206Y361722D01*
X490947Y361781D01*
X490684Y361811D01*
X490418D01*
X490155Y361781D01*
X489896Y361722D01*
X489646Y361635D01*
X489407Y361520D01*
X489182Y361378D01*
X488975Y361213D01*
X488787Y361025D01*
X488622Y360818D01*
X488481Y360593D01*
X488365Y360354D01*
X488278Y360104D01*
X488219Y359845D01*
X488197Y359649D01*
X454279D01*
X450693Y363235D01*
Y375896D01*
X450847Y376089D01*
X450988Y376314D01*
X451103Y376553D01*
X451191Y376803D01*
X451250Y377062D01*
X451279Y377326D01*
Y377591D01*
X451250Y377855D01*
X451191Y378113D01*
X451103Y378364D01*
X450988Y378603D01*
X450847Y378827D01*
X450681Y379035D01*
X450494Y379222D01*
X450286Y379388D01*
X450062Y379529D01*
X449823Y379644D01*
X449572Y379732D01*
X449314Y379791D01*
X449050Y379820D01*
X448785D01*
X448521Y379791D01*
X448262Y379732D01*
X448012Y379644D01*
X447773Y379529D01*
X447548Y379388D01*
X447341Y379222D01*
X447153Y379035D01*
X446988Y378827D01*
X446847Y378603D01*
X446732Y378364D01*
X446644Y378113D01*
X446585Y377855D01*
X446555Y377591D01*
Y377326D01*
X446585Y377062D01*
X446644Y376803D01*
X446732Y376553D01*
X446847Y376314D01*
X446988Y376089D01*
X447142Y375896D01*
Y371467D01*
X446869Y371258D01*
X446642Y371175D01*
X446445Y371268D01*
X446162Y371369D01*
X445872Y371442D01*
X445575Y371486D01*
X445276Y371500D01*
X444976Y371486D01*
X444680Y371442D01*
X444389Y371369D01*
X444107Y371268D01*
X443835Y371140D01*
X443578Y370986D01*
X443338Y370807D01*
X443116Y370606D01*
X442914Y370384D01*
X442736Y370143D01*
X442582Y369886D01*
X442453Y369615D01*
X442352Y369333D01*
X442279Y369042D01*
X442236Y368745D01*
X442221Y368446D01*
Y364705D01*
X442236Y364406D01*
X442279Y364110D01*
X442352Y363819D01*
X442453Y363537D01*
X442582Y363265D01*
X442736Y363008D01*
X442914Y362768D01*
X443116Y362545D01*
X443338Y362344D01*
X443578Y362165D01*
X443835Y362011D01*
X444107Y361883D01*
X444389Y361782D01*
X444680Y361709D01*
X444976Y361665D01*
X445276Y361651D01*
X445575Y361665D01*
X445872Y361709D01*
X446162Y361782D01*
X446445Y361883D01*
X446700Y362004D01*
X446717Y362012D01*
X446766Y362014D01*
X447257Y361828D01*
X447296Y361783D01*
X447380Y361612D01*
X447509Y361419D01*
X447662Y361245D01*
X451158Y357748D01*
X450967Y357286D01*
X448636D01*
X448618Y357285D01*
X448414Y357297D01*
X448195Y357334D01*
X447982Y357396D01*
X447776Y357481D01*
X447614Y357570D01*
X447237Y357867D01*
X446904Y358180D01*
X446876Y358203D01*
X446553Y358472D01*
X446184Y358743D01*
X445801Y358992D01*
X445402Y359216D01*
X444991Y359416D01*
X444569Y359591D01*
X444137Y359740D01*
X443697Y359863D01*
X443250Y359959D01*
X442798Y360028D01*
X442379Y360066D01*
X442343Y360069D01*
X441886Y360083D01*
Y360083D01*
X421106D01*
Y360083D01*
X420649Y360069D01*
X420613Y360066D01*
X420194Y360028D01*
X419742Y359959D01*
X419295Y359863D01*
X418855Y359740D01*
X418423Y359591D01*
X418001Y359416D01*
X417590Y359216D01*
X417192Y358992D01*
X416808Y358743D01*
X416439Y358472D01*
X416116Y358203D01*
X416088Y358180D01*
X415756Y357867D01*
X415378Y357570D01*
X415216Y357481D01*
X415011Y357396D01*
X414797Y357334D01*
X414578Y357297D01*
X414374Y357285D01*
X414356Y357286D01*
X411417D01*
Y373370D01*
X411594Y373454D01*
X411818Y373588D01*
X411998Y373722D01*
X414460Y371259D01*
X414461Y371259D01*
X414808Y370911D01*
X414809Y370911D01*
X414916Y370803D01*
X414996Y370733D01*
X415083Y370649D01*
X415165Y370203D01*
X415121Y370050D01*
X415022Y369886D01*
X414894Y369615D01*
X414793Y369333D01*
X414720Y369042D01*
X414676Y368745D01*
X414662Y368446D01*
Y364705D01*
X414676Y364406D01*
X414720Y364110D01*
X414793Y363819D01*
X414894Y363537D01*
X415022Y363265D01*
X415176Y363008D01*
X415355Y362768D01*
X415556Y362545D01*
X415779Y362344D01*
X416019Y362165D01*
X416277Y362011D01*
X416547Y361883D01*
X416830Y361782D01*
X417121Y361709D01*
X417417Y361665D01*
X417717Y361651D01*
X418016Y361665D01*
X418313Y361709D01*
X418603Y361782D01*
X418886Y361883D01*
X419157Y362011D01*
X419414Y362165D01*
X419655Y362344D01*
X419877Y362545D01*
X420078Y362768D01*
X420257Y363008D01*
X420411Y363265D01*
X420539Y363537D01*
X420640Y363819D01*
X420713Y364110D01*
X420757Y364406D01*
X420771Y364705D01*
Y368348D01*
X420993Y368497D01*
X421266Y368560D01*
X424083Y365743D01*
X424248Y365599D01*
X424430Y365477D01*
X424627Y365380D01*
X424834Y365310D01*
X425050Y365267D01*
X425269Y365252D01*
X434252D01*
X434471Y365267D01*
X434686Y365310D01*
X434894Y365380D01*
X435090Y365477D01*
X435273Y365599D01*
X435438Y365743D01*
X436127Y366432D01*
X436271Y366597D01*
X436393Y366780D01*
X436490Y366976D01*
X436561Y367184D01*
X436603Y367399D01*
X436618Y367618D01*
Y369301D01*
X436705Y369388D01*
X436870Y369596D01*
X437012Y369820D01*
X437127Y370059D01*
X437214Y370310D01*
X437273Y370568D01*
X437303Y370832D01*
Y371097D01*
X437273Y371361D01*
X437214Y371620D01*
X437127Y371870D01*
X437012Y372109D01*
X436870Y372334D01*
X436705Y372541D01*
X436517Y372729D01*
X436310Y372894D01*
X436085Y373035D01*
X435846Y373150D01*
X435596Y373238D01*
X435337Y373297D01*
X435074Y373327D01*
X434808D01*
X434545Y373297D01*
X434286Y373238D01*
X434036Y373150D01*
X433797Y373035D01*
X433572Y372894D01*
X433364Y372729D01*
X433177Y372541D01*
X433078Y372417D01*
X432776Y372370D01*
X432473Y372417D01*
X432374Y372541D01*
X432187Y372729D01*
X431979Y372894D01*
X431755Y373035D01*
X431516Y373150D01*
X431265Y373238D01*
X431006Y373297D01*
X430743Y373327D01*
X430478D01*
X430214Y373297D01*
X429955Y373238D01*
X429705Y373150D01*
X429466Y373035D01*
X429241Y372894D01*
X429034Y372729D01*
X428846Y372541D01*
X428681Y372334D01*
X428540Y372109D01*
X428424Y371870D01*
X428337Y371620D01*
X428278Y371361D01*
X428248Y371097D01*
Y370832D01*
X428194Y370771D01*
X426860D01*
X423391Y374240D01*
X423387Y374425D01*
X423531Y374807D01*
X423618Y374838D01*
X423846Y374946D01*
X424061Y375075D01*
X424263Y375225D01*
X424449Y375394D01*
X424618Y375580D01*
X424768Y375782D01*
X424897Y375998D01*
X425005Y376225D01*
X425090Y376462D01*
X425151Y376706D01*
X425188Y376954D01*
X425200Y377205D01*
X425188Y377457D01*
X425151Y377705D01*
X425090Y377949D01*
X425005Y378186D01*
X424897Y378413D01*
X424768Y378629D01*
X424618Y378831D01*
X424449Y379017D01*
X424263Y379186D01*
X424061Y379336D01*
X423846Y379465D01*
X423618Y379573D01*
X423382Y379657D01*
X423138Y379718D01*
X422889Y379755D01*
X422638Y379768D01*
X420669D01*
X420418Y379755D01*
X420169Y379718D01*
X419926Y379657D01*
X419689Y379573D01*
X419461Y379465D01*
X419246Y379336D01*
X419044Y379186D01*
X418899Y379055D01*
X418821Y379020D01*
X418304Y379059D01*
X418257Y379088D01*
X418108Y379254D01*
X417914Y379429D01*
X417704Y379584D01*
X417480Y379719D01*
X417244Y379830D01*
X417164Y379859D01*
X416759Y380104D01*
X416791Y380376D01*
X416829Y380634D01*
X416842Y380895D01*
X416829Y381156D01*
X416791Y381414D01*
X416728Y381668D01*
X416640Y381913D01*
X416528Y382150D01*
X416394Y382373D01*
X416238Y382583D01*
X416063Y382777D01*
X415870Y382952D01*
X415660Y383108D01*
X415436Y383242D01*
X415200Y383353D01*
X414954Y383441D01*
X414701Y383505D01*
X414442Y383543D01*
X414149Y383647D01*
X414046Y383940D01*
X414007Y384198D01*
X413944Y384452D01*
X413856Y384697D01*
X413744Y384933D01*
X413610Y385157D01*
X413454Y385367D01*
X413279Y385561D01*
X413279D01*
X413279Y385561D01*
X413279D01*
X413262Y385576D01*
X413086Y385736D01*
X412876Y385892D01*
X412652Y386026D01*
X412416Y386137D01*
X412170Y386225D01*
X411917Y386289D01*
X411658Y386327D01*
X411417Y386339D01*
Y391601D01*
X411917Y391684D01*
X411922Y391670D01*
X412009Y391494D01*
X412118Y391331D01*
X412247Y391184D01*
X412394Y391055D01*
X412557Y390946D01*
X412733Y390859D01*
X412919Y390796D01*
X413111Y390758D01*
X413307Y390745D01*
X418386D01*
X418581Y390758D01*
X418774Y390796D01*
X418960Y390859D01*
X419136Y390946D01*
X419299Y391055D01*
X419446Y391184D01*
X419575Y391331D01*
X419684Y391494D01*
X419771Y391670D01*
X419834Y391856D01*
X419868Y392028D01*
X443124D01*
X443158Y391856D01*
X443221Y391670D01*
X443308Y391494D01*
X443417Y391331D01*
X443546Y391184D01*
X443694Y391055D01*
X443857Y390946D01*
X444032Y390859D01*
X444218Y390796D01*
X444411Y390758D01*
X444606Y390745D01*
X449685D01*
X449881Y390758D01*
X450073Y390796D01*
X450259Y390859D01*
X450435Y390946D01*
X450598Y391055D01*
X450745Y391184D01*
X450875Y391331D01*
X450983Y391494D01*
X451070Y391670D01*
X451117Y391809D01*
X451325Y391879D01*
X451552Y391906D01*
X451791Y391470D01*
X451730Y391350D01*
X451588Y391007D01*
X451473Y390653D01*
X451386Y390293D01*
X451328Y389926D01*
X451299Y389556D01*
Y389184D01*
X451328Y388814D01*
X451386Y388448D01*
X451473Y388087D01*
X451588Y387734D01*
X451730Y387391D01*
X451898Y387060D01*
X452092Y386743D01*
X452311Y386443D01*
X452552Y386161D01*
X452814Y385898D01*
X453096Y385657D01*
X453397Y385439D01*
X453713Y385245D01*
X454044Y385076D01*
X454387Y384934D01*
X454740Y384820D01*
X455101Y384733D01*
X455468Y384675D01*
X455838Y384646D01*
X456209D01*
X456579Y384675D01*
X456946Y384733D01*
X457307Y384820D01*
X457660Y384934D01*
X458003Y385076D01*
X458334Y385245D01*
X458650Y385439D01*
X458951Y385657D01*
X459233Y385898D01*
X459496Y386161D01*
X459737Y386443D01*
X459955Y386743D01*
X460149Y387060D01*
X460317Y387391D01*
X460460Y387734D01*
X460574Y388087D01*
X460661Y388448D01*
X460719Y388814D01*
X460748Y389184D01*
Y389556D01*
X460719Y389926D01*
X460661Y390293D01*
X460574Y390653D01*
X460460Y391007D01*
X460317Y391350D01*
X460227Y391528D01*
X460403Y391917D01*
X460523Y392028D01*
X460908D01*
X461053Y391957D01*
X461069Y391944D01*
X461319Y391528D01*
X461306Y391423D01*
X461302Y391345D01*
X461296Y391268D01*
X461296Y391152D01*
Y387494D01*
X461302Y387417D01*
X461306Y387339D01*
X461336Y387107D01*
X461348Y387052D01*
X461352Y387022D01*
X461359Y386996D01*
X461366Y386955D01*
X461407Y386803D01*
X461423Y386740D01*
X461439Y386696D01*
X461453Y386656D01*
X461477Y386583D01*
X461496Y386537D01*
X461521Y386467D01*
X461552Y386400D01*
X461566Y386367D01*
X461593Y386313D01*
X461645Y386205D01*
X461733Y386058D01*
X461752Y386025D01*
X461757Y386017D01*
X461794Y385956D01*
X461835Y385900D01*
X461838Y385896D01*
X461849Y385882D01*
X461967Y385723D01*
X462066Y385614D01*
X462082Y385594D01*
X462093Y385583D01*
X462161Y385508D01*
X462237Y385440D01*
X462248Y385429D01*
X462267Y385412D01*
X462376Y385313D01*
X462536Y385195D01*
X462550Y385184D01*
X462554Y385182D01*
X462609Y385140D01*
X462670Y385104D01*
X462679Y385098D01*
X462711Y385079D01*
X462858Y384991D01*
X462967Y384940D01*
X463020Y384913D01*
X463054Y384899D01*
X463121Y384867D01*
X463191Y384842D01*
X463236Y384823D01*
X463310Y384799D01*
X463350Y384785D01*
X463394Y384769D01*
X463457Y384754D01*
X463609Y384713D01*
X463649Y384705D01*
X463675Y384699D01*
X463706Y384694D01*
X463761Y384683D01*
X463993Y384652D01*
X464070Y384648D01*
X464147Y384642D01*
X464263D01*
X464285Y384642D01*
X464463Y384640D01*
X464826Y384619D01*
X465179Y384578D01*
X465529Y384517D01*
X465875Y384436D01*
X466216Y384335D01*
X466550Y384215D01*
X466885Y384072D01*
X467046Y383995D01*
X467268Y383885D01*
X467289Y383877D01*
X467309Y383866D01*
X467778Y383656D01*
X467799Y383648D01*
X467819Y383638D01*
X468296Y383446D01*
X468317Y383439D01*
X468338Y383430D01*
X468821Y383256D01*
X468843Y383250D01*
X468864Y383242D01*
X469354Y383087D01*
X469376Y383081D01*
X469397Y383074D01*
X469893Y382938D01*
X469915Y382933D01*
X469937Y382926D01*
X470437Y382809D01*
X470459Y382806D01*
X470481Y382800D01*
X470985Y382702D01*
X471008Y382699D01*
X471030Y382694D01*
X471538Y382616D01*
X471560Y382614D01*
X471583Y382610D01*
X472093Y382551D01*
X472115Y382550D01*
X472138Y382546D01*
X472650Y382507D01*
X472673Y382507D01*
X472695Y382504D01*
X473209Y382485D01*
X473231Y382486D01*
X473254Y382484D01*
X479387D01*
X479680Y382484D01*
X479703Y382486D01*
X479727Y382485D01*
X480313Y382508D01*
X480336Y382510D01*
X480359D01*
X480943Y382556D01*
X480966Y382560D01*
X480990Y382561D01*
X481572Y382630D01*
X481595Y382634D01*
X481618Y382636D01*
X482197Y382728D01*
X482220Y382733D01*
X482243Y382736D01*
X482818Y382850D01*
X482840Y382856D01*
X482863Y382860D01*
X483433Y382997D01*
X483456Y383004D01*
X483478Y383008D01*
X484043Y383167D01*
X484065Y383175D01*
X484087Y383181D01*
X484645Y383362D01*
X484666Y383370D01*
X484689Y383377D01*
X485239Y383579D01*
X485260Y383589D01*
X485282Y383596D01*
X485824Y383820D01*
X485845Y383831D01*
X485867Y383839D01*
X486399Y384084D01*
X486420Y384095D01*
X486441Y384104D01*
X486964Y384370D01*
X486984Y384382D01*
X487005Y384392D01*
X487516Y384678D01*
X487536Y384691D01*
X487557Y384701D01*
X488057Y385007D01*
X488076Y385021D01*
X488096Y385032D01*
X488584Y385358D01*
X488602Y385372D01*
X488622Y385384D01*
X489097Y385728D01*
X489114Y385743D01*
X489134Y385756D01*
X489595Y386119D01*
X489612Y386135D01*
X489630Y386148D01*
X490077Y386528D01*
X490093Y386545D01*
X490111Y386559D01*
X490543Y386957D01*
X490558Y386974D01*
X490576Y386989D01*
X490784Y387196D01*
X490784Y387196D01*
X490785Y387197D01*
X500359Y396771D01*
X500514Y396922D01*
X500845Y397215D01*
X501186Y397481D01*
X501542Y397727D01*
X501912Y397950D01*
X502296Y398151D01*
X502691Y398327D01*
X503096Y398480D01*
X503509Y398608D01*
X503930Y398710D01*
X504356Y398787D01*
X504794Y398839D01*
X505011Y398854D01*
X505260Y398868D01*
X505292Y398873D01*
X505324Y398874D01*
X505839Y398931D01*
X505871Y398937D01*
X505903Y398940D01*
X506414Y399025D01*
X506445Y399033D01*
X506477Y399037D01*
X506983Y399150D01*
X507014Y399160D01*
X507045Y399166D01*
X507545Y399306D01*
X507575Y399317D01*
X507606Y399324D01*
X508097Y399491D01*
X508126Y399504D01*
X508157Y399513D01*
X508638Y399706D01*
X508667Y399721D01*
X508697Y399732D01*
X509167Y399950D01*
X509195Y399966D01*
X509225Y399979D01*
X509683Y400223D01*
X509710Y400240D01*
X509738Y400254D01*
X510182Y400523D01*
X510208Y400541D01*
X510236Y400557D01*
X510665Y400849D01*
X510690Y400869D01*
X510717Y400886D01*
X511129Y401201D01*
X511153Y401222D01*
X511179Y401241D01*
X511574Y401577D01*
X511596Y401600D01*
X511621Y401620D01*
X511997Y401977D01*
X512019Y402001D01*
X512043Y402023D01*
X512399Y402400D01*
X512419Y402425D01*
X512441Y402447D01*
X512777Y402843D01*
X512795Y402869D01*
X512817Y402893D01*
X513130Y403306D01*
X513147Y403333D01*
X513167Y403358D01*
X513458Y403788D01*
X513474Y403816D01*
X513492Y403842D01*
X513759Y404286D01*
X513773Y404315D01*
X513791Y404342D01*
X514033Y404801D01*
X514046Y404830D01*
X514062Y404858D01*
X514279Y405329D01*
X514290Y405359D01*
X514304Y405388D01*
X514496Y405870D01*
X514505Y405900D01*
X514518Y405930D01*
X514683Y406421D01*
X514691Y406452D01*
X514702Y406483D01*
X514841Y406982D01*
X514847Y407014D01*
X514856Y407044D01*
X514967Y407551D01*
X514972Y407583D01*
X514979Y407614D01*
X515063Y408126D01*
X515066Y408158D01*
X515072Y408189D01*
X515128Y408705D01*
X515129Y408737D01*
X515133Y408769D01*
X515161Y409286D01*
X515160Y409318D01*
X515163Y409350D01*
X515163Y409609D01*
X515163Y409610D01*
X515163Y417316D01*
X515165Y417412D01*
X515185Y417618D01*
X515223Y417806D01*
X515278Y417989D01*
X515352Y418167D01*
X515442Y418336D01*
X515549Y418496D01*
X515671Y418644D01*
X515806Y418780D01*
X515955Y418901D01*
X516114Y419008D01*
X516284Y419099D01*
X516461Y419172D01*
X516645Y419228D01*
X516833Y419265D01*
X517038Y419285D01*
X517135Y419288D01*
X520211D01*
X520278Y419293D01*
X520344Y419295D01*
X520607Y419325D01*
X520672Y419338D01*
X520738Y419347D01*
X520997Y419406D01*
X521060Y419426D01*
X521124Y419443D01*
X521374Y419530D01*
X521435Y419557D01*
X521497Y419581D01*
X521736Y419696D01*
X521793Y419730D01*
X521852Y419761D01*
X521982Y419842D01*
X521984Y419843D01*
X521986Y419844D01*
X522077Y419902D01*
X522130Y419941D01*
X522185Y419978D01*
X522392Y420144D01*
X522441Y420189D01*
X522491Y420232D01*
X522679Y420420D01*
X522722Y420470D01*
X522767Y420519D01*
X522890Y420672D01*
X522893Y420676D01*
X522893Y420677D01*
X522932Y420726D01*
X522970Y420781D01*
X523009Y420834D01*
X523060Y420914D01*
X523070Y420929D01*
X523082Y420950D01*
X523150Y421059D01*
X523181Y421117D01*
X523215Y421175D01*
X523330Y421414D01*
X523349Y421463D01*
X523355Y421477D01*
X523360Y421491D01*
X523381Y421536D01*
X523468Y421787D01*
X523485Y421851D01*
X523505Y421914D01*
X523530Y422023D01*
X523541Y422067D01*
X523547Y422100D01*
X523564Y422173D01*
X523573Y422238D01*
X523586Y422303D01*
X523591Y422349D01*
X523595Y422372D01*
X523600Y422428D01*
X523616Y422567D01*
X523618Y422632D01*
X523622Y422680D01*
Y422686D01*
X523623Y422700D01*
Y422965D01*
X523622Y422978D01*
Y422989D01*
X523618Y423041D01*
X523616Y423097D01*
X523602Y423218D01*
X523595Y423298D01*
X523590Y423329D01*
X523586Y423361D01*
X523573Y423426D01*
X523564Y423492D01*
X523551Y423547D01*
X523541Y423602D01*
X523522Y423675D01*
X523505Y423750D01*
X523485Y423813D01*
X523468Y423878D01*
X523466Y423882D01*
X523461Y423901D01*
X523422Y424010D01*
X523381Y424128D01*
X523371Y424149D01*
X523355Y424192D01*
X523337Y424231D01*
X523330Y424251D01*
X523282Y424348D01*
X523225Y424472D01*
X523176Y424557D01*
X523150Y424606D01*
X523118Y424657D01*
X523070Y424740D01*
X523028Y424800D01*
X523009Y424830D01*
X522972Y424880D01*
X522966Y424889D01*
X522932Y424938D01*
X522923Y424951D01*
X522893Y424994D01*
X522808Y425095D01*
X522767Y425146D01*
X522747Y425168D01*
X522694Y425231D01*
X522475Y425450D01*
X522410Y425504D01*
X522392Y425521D01*
X522352Y425553D01*
X522238Y425648D01*
X522189Y425682D01*
X522185Y425686D01*
X522168Y425697D01*
X522109Y425738D01*
X522077Y425763D01*
X522057Y425775D01*
X521984Y425826D01*
X521882Y425885D01*
X521852Y425904D01*
X521824Y425919D01*
X521716Y425981D01*
X521506Y426079D01*
X521497Y426083D01*
X521496Y426084D01*
X521436Y426111D01*
X521375Y426134D01*
X521374Y426134D01*
X521372Y426135D01*
X521145Y426217D01*
X521021Y426250D01*
X520997Y426258D01*
X520969Y426264D01*
X520846Y426297D01*
X520753Y426314D01*
X520738Y426317D01*
X520713Y426321D01*
X520542Y426351D01*
X520373Y426366D01*
X520344Y426369D01*
X520330Y426369D01*
X520233Y426378D01*
X519924D01*
X519907Y426376D01*
X516974Y426376D01*
X516773Y426376D01*
X516734Y426373D01*
X516695Y426374D01*
X516294Y426348D01*
X516255Y426342D01*
X516217Y426340D01*
X515817Y426288D01*
X515779Y426279D01*
X515741Y426275D01*
X515346Y426196D01*
X515309Y426186D01*
X515271Y426179D01*
X514882Y426075D01*
X514845Y426062D01*
X514807Y426052D01*
X514426Y425923D01*
X514391Y425907D01*
X514354Y425895D01*
X513982Y425741D01*
X513947Y425724D01*
X513911Y425709D01*
X513550Y425531D01*
X513517Y425511D01*
X513482Y425495D01*
X513133Y425293D01*
X513101Y425272D01*
X513067Y425252D01*
X512732Y425029D01*
X512702Y425005D01*
X512669Y424984D01*
X512350Y424739D01*
X512321Y424713D01*
X512290Y424689D01*
X511987Y424424D01*
X511960Y424396D01*
X511931Y424371D01*
X511646Y424086D01*
X511621Y424057D01*
X511593Y424030D01*
X511328Y423727D01*
X511304Y423696D01*
X511278Y423667D01*
X511033Y423348D01*
X511012Y423315D01*
X510988Y423285D01*
X510765Y422950D01*
X510745Y422916D01*
X510723Y422884D01*
X510522Y422535D01*
X510505Y422500D01*
X510486Y422467D01*
X510308Y422106D01*
X510293Y422070D01*
X510276Y422035D01*
X510122Y421663D01*
X510110Y421626D01*
X510094Y421591D01*
X509965Y421209D01*
X509955Y421172D01*
X509942Y421135D01*
X509838Y420747D01*
X509831Y420708D01*
X509821Y420671D01*
X509742Y420276D01*
X509737Y420237D01*
X509729Y420200D01*
X509677Y419800D01*
X509675Y419762D01*
X509669Y419723D01*
X509643Y419321D01*
X509644Y419283D01*
X509641Y419244D01*
X509641Y419043D01*
Y415837D01*
X509539Y415714D01*
X509140Y415499D01*
X509128Y415503D01*
X508936Y415542D01*
X508740Y415554D01*
X503661D01*
X503466Y415542D01*
X503273Y415503D01*
X503088Y415440D01*
X502912Y415353D01*
X502749Y415245D01*
X502601Y415115D01*
X502472Y414968D01*
X502363Y414805D01*
X502276Y414629D01*
X502213Y414443D01*
X502175Y414251D01*
X502162Y414055D01*
Y413783D01*
X486369D01*
X484157Y415995D01*
Y444220D01*
X484619Y444412D01*
X486782Y442248D01*
X486957Y442095D01*
X487150Y441966D01*
X487358Y441864D01*
X487578Y441789D01*
X487806Y441744D01*
X488038Y441728D01*
X502162D01*
Y441457D01*
X502175Y441261D01*
X502213Y441069D01*
X502276Y440883D01*
X502363Y440707D01*
X502472Y440544D01*
X502601Y440397D01*
X502749Y440267D01*
X502912Y440158D01*
X503088Y440072D01*
X503273Y440009D01*
X503466Y439970D01*
X503661Y439958D01*
X508740D01*
X508936Y439970D01*
X509128Y440009D01*
X509314Y440072D01*
X509490Y440158D01*
X509653Y440267D01*
X509800Y440397D01*
X509930Y440544D01*
X510039Y440707D01*
X510125Y440883D01*
X510188Y441069D01*
X510227Y441261D01*
X510239Y441457D01*
Y445551D01*
X510227Y445747D01*
X510188Y445939D01*
X510125Y446125D01*
X510039Y446301D01*
X509930Y446464D01*
X509800Y446611D01*
X509653Y446741D01*
X509490Y446850D01*
X509314Y446936D01*
X509128Y446999D01*
X508936Y447038D01*
X508740Y447051D01*
X503661D01*
X503466Y447038D01*
X503273Y446999D01*
X503088Y446936D01*
X502912Y446850D01*
X502749Y446741D01*
X502601Y446611D01*
X502472Y446464D01*
X502363Y446301D01*
X502276Y446125D01*
X502213Y445939D01*
X502175Y445747D01*
X502162Y445551D01*
Y445279D01*
X488773D01*
X486519Y447533D01*
Y451476D01*
X528934D01*
Y371654D01*
D02*
G37*
G36*
X520079Y425192D02*
X520211D01*
X520475Y425162D01*
X520733Y425103D01*
X520983Y425015D01*
X521222Y424900D01*
X521446Y424759D01*
X521654Y424594D01*
X521841Y424407D01*
X522006Y424200D01*
X522147Y423975D01*
X522262Y423736D01*
X522350Y423486D01*
X522409Y423228D01*
X522438Y422965D01*
Y422700D01*
X522409Y422436D01*
X522350Y422178D01*
X522262Y421928D01*
X522147Y421689D01*
X522006Y421464D01*
X521841Y421257D01*
X521654Y421070D01*
X521446Y420905D01*
X521222Y420764D01*
X520983Y420649D01*
X520733Y420561D01*
X520475Y420502D01*
X520211Y420472D01*
X517120D01*
X517120Y420472D01*
X516966Y420469D01*
X516659Y420438D01*
X516357Y420378D01*
X516061Y420289D01*
X515776Y420171D01*
X515505Y420025D01*
X515248Y419854D01*
X515010Y419659D01*
X514792Y419441D01*
X514596Y419202D01*
X514425Y418946D01*
X514280Y418674D01*
X514161Y418389D01*
X514072Y418094D01*
X514012Y417792D01*
X513982Y417485D01*
X513978Y417330D01*
X513978Y409610D01*
X513978Y409610D01*
X513978Y409350D01*
X513950Y408833D01*
X513894Y408317D01*
X513810Y407805D01*
X513699Y407299D01*
X513560Y406799D01*
X513395Y406307D01*
X513203Y405826D01*
X512986Y405355D01*
X512744Y404896D01*
X512477Y404452D01*
X512186Y404022D01*
X511873Y403609D01*
X511537Y403213D01*
X511181Y402836D01*
X510805Y402479D01*
X510410Y402143D01*
X509998Y401828D01*
X509570Y401537D01*
X509126Y401268D01*
X508668Y401025D01*
X508198Y400806D01*
X507716Y400613D01*
X507225Y400446D01*
X506726Y400307D01*
X506220Y400194D01*
X505708Y400109D01*
X505193Y400051D01*
X504934Y400037D01*
Y400037D01*
X504682Y400019D01*
X504181Y399959D01*
X503684Y399870D01*
X503194Y399750D01*
X502712Y399601D01*
X502240Y399423D01*
X501779Y399217D01*
X501332Y398983D01*
X500899Y398723D01*
X500484Y398436D01*
X500086Y398125D01*
X499709Y397791D01*
X499527Y397615D01*
X489947Y388035D01*
X489947Y388035D01*
X489739Y387828D01*
X489308Y387430D01*
X488862Y387050D01*
X488401Y386687D01*
X487926Y386343D01*
X487439Y386018D01*
X486938Y385712D01*
X486427Y385426D01*
X485904Y385160D01*
X485371Y384915D01*
X484830Y384691D01*
X484279Y384489D01*
X483722Y384308D01*
X483157Y384149D01*
X482587Y384012D01*
X482012Y383898D01*
X481433Y383806D01*
X480851Y383737D01*
X480266Y383692D01*
X479680Y383669D01*
X479387Y383669D01*
X473254D01*
X472741Y383688D01*
X472229Y383728D01*
X471719Y383787D01*
X471211Y383865D01*
X470707Y383963D01*
X470207Y384080D01*
X469712Y384216D01*
X469222Y384371D01*
X468739Y384545D01*
X468262Y384737D01*
X467794Y384947D01*
X467564Y385061D01*
X467564Y385061D01*
X467373Y385152D01*
X466983Y385318D01*
X466584Y385462D01*
X466178Y385582D01*
X465766Y385678D01*
X465348Y385751D01*
X464928Y385800D01*
X464505Y385824D01*
X464293Y385827D01*
X464264Y385827D01*
X464147D01*
X463915Y385857D01*
X463690Y385918D01*
X463474Y386007D01*
X463271Y386124D01*
X463086Y386267D01*
X462920Y386432D01*
X462778Y386617D01*
X462661Y386820D01*
X462571Y387036D01*
X462511Y387262D01*
X462480Y387494D01*
Y387611D01*
Y391153D01*
X462480Y391269D01*
X462510Y391497D01*
X462570Y391720D01*
X462658Y391934D01*
X462774Y392133D01*
X462914Y392317D01*
X463077Y392480D01*
X463260Y392620D01*
X463460Y392736D01*
X463673Y392824D01*
X463896Y392883D01*
X464125Y392914D01*
X464241Y392913D01*
X467935Y392913D01*
X467935Y392913D01*
X468042Y392913D01*
X468254Y392886D01*
X468461Y392830D01*
X468658Y392748D01*
X468844Y392641D01*
X469013Y392511D01*
X469165Y392360D01*
X469295Y392190D01*
X469402Y392005D01*
X469484Y391807D01*
X469539Y391600D01*
X469567Y391388D01*
X469567Y391281D01*
X469569Y391134D01*
X469589Y390841D01*
X469627Y390549D01*
X469685Y390261D01*
X469761Y389977D01*
X469856Y389699D01*
X469968Y389427D01*
X470099Y389164D01*
X470246Y388909D01*
X470410Y388665D01*
X470589Y388432D01*
X470784Y388211D01*
X470886Y388106D01*
X470990Y388006D01*
X471206Y387817D01*
X471435Y387642D01*
X471674Y387483D01*
X471923Y387339D01*
X472182Y387212D01*
X472448Y387102D01*
X472720Y387010D01*
X472998Y386936D01*
X473280Y386880D01*
X473565Y386842D01*
X473853Y386824D01*
X473996Y386821D01*
X480102D01*
X480349Y386824D01*
X480841Y386848D01*
X481332Y386896D01*
X481819Y386968D01*
X482303Y387063D01*
X482781Y387183D01*
X483253Y387325D01*
X483717Y387491D01*
X484172Y387679D01*
X484618Y387889D01*
X485053Y388120D01*
X485476Y388373D01*
X485887Y388646D01*
X486283Y388939D01*
X486664Y389251D01*
X487030Y389581D01*
X487207Y389753D01*
X497986Y400532D01*
X498147Y400693D01*
X498484Y400998D01*
X498835Y401287D01*
X499200Y401558D01*
X499578Y401811D01*
X499968Y402045D01*
X500369Y402259D01*
X500780Y402454D01*
X501200Y402628D01*
X501628Y402782D01*
X502063Y402914D01*
X502504Y403025D01*
X502950Y403114D01*
X503400Y403181D01*
X503853Y403226D01*
X504307Y403249D01*
X504534Y403250D01*
X504740Y403253D01*
X505151Y403279D01*
X505559Y403333D01*
X505963Y403413D01*
X506361Y403519D01*
X506751Y403652D01*
X507131Y403809D01*
X507501Y403991D01*
X507857Y404197D01*
X508200Y404425D01*
X508526Y404676D01*
X508836Y404947D01*
X509127Y405239D01*
X509399Y405548D01*
X509649Y405875D01*
X509878Y406217D01*
X510084Y406574D01*
X510266Y406943D01*
X510423Y407324D01*
X510555Y407714D01*
X510662Y408111D01*
X510742Y408515D01*
X510795Y408923D01*
X510822Y409334D01*
X510825Y409540D01*
X510825Y419043D01*
X510825Y419244D01*
X510851Y419646D01*
X510904Y420045D01*
X510983Y420440D01*
X511087Y420829D01*
X511216Y421210D01*
X511370Y421582D01*
X511548Y421943D01*
X511750Y422292D01*
X511973Y422626D01*
X512218Y422946D01*
X512484Y423248D01*
X512768Y423533D01*
X513071Y423799D01*
X513390Y424044D01*
X513725Y424267D01*
X514074Y424469D01*
X514435Y424647D01*
X514807Y424801D01*
X515188Y424930D01*
X515577Y425034D01*
X515972Y425113D01*
X516371Y425165D01*
X516773Y425192D01*
X516974Y425192D01*
X520079Y425192D01*
Y425192D01*
D02*
G37*
G36*
X484378Y410752D02*
X484553Y410599D01*
X484746Y410470D01*
X484954Y410368D01*
X485174Y410293D01*
X485402Y410248D01*
X485634Y410232D01*
X502162D01*
Y409961D01*
X502175Y409765D01*
X502213Y409573D01*
X502276Y409387D01*
X502363Y409211D01*
X502472Y409048D01*
X502601Y408900D01*
X502749Y408771D01*
X502912Y408662D01*
X503088Y408575D01*
X503273Y408512D01*
X503466Y408474D01*
X503661Y408461D01*
X508740D01*
X508936Y408474D01*
X509019Y408491D01*
X509277Y408302D01*
X509429Y408086D01*
X509421Y408057D01*
X509314Y407741D01*
X509186Y407432D01*
X509038Y407132D01*
X508871Y406843D01*
X508685Y406565D01*
X508482Y406300D01*
X508262Y406049D01*
X508026Y405813D01*
X507774Y405592D01*
X507509Y405389D01*
X507232Y405203D01*
X506942Y405036D01*
X506642Y404889D01*
X506334Y404761D01*
X506017Y404654D01*
X505695Y404567D01*
X505367Y404502D01*
X505036Y404459D01*
X504693Y404437D01*
X504524Y404434D01*
X504305Y404434D01*
X504276Y404432D01*
X504247Y404432D01*
X503793Y404410D01*
X503764Y404406D01*
X503735Y404405D01*
X503283Y404360D01*
X503254Y404355D01*
X503225Y404353D01*
X502775Y404286D01*
X502747Y404279D01*
X502718Y404276D01*
X502272Y404187D01*
X502244Y404179D01*
X502215Y404174D01*
X501775Y404063D01*
X501747Y404054D01*
X501719Y404047D01*
X501283Y403915D01*
X501256Y403905D01*
X501228Y403897D01*
X500800Y403743D01*
X500774Y403731D01*
X500746Y403722D01*
X500326Y403548D01*
X500300Y403535D01*
X500273Y403525D01*
X499862Y403330D01*
X499837Y403315D01*
X499810Y403304D01*
X499409Y403089D01*
X499385Y403074D01*
X499359Y403061D01*
X498969Y402827D01*
X498945Y402810D01*
X498920Y402796D01*
X498542Y402543D01*
X498519Y402525D01*
X498494Y402509D01*
X498129Y402238D01*
X498107Y402219D01*
X498083Y402203D01*
X497732Y401914D01*
X497711Y401894D01*
X497688Y401876D01*
X497351Y401571D01*
X497331Y401549D01*
X497309Y401531D01*
X497148Y401370D01*
X486376Y390597D01*
X486220Y390446D01*
X485892Y390150D01*
X485556Y389875D01*
X485206Y389616D01*
X484844Y389375D01*
X484471Y389153D01*
X484087Y388948D01*
X483694Y388763D01*
X483292Y388597D01*
X482882Y388451D01*
X482466Y388325D01*
X482044Y388220D01*
X481618Y388136D01*
X481188Y388072D01*
X480755Y388030D01*
X480313Y388008D01*
X480096Y388006D01*
X474006D01*
X473901Y388008D01*
X473681Y388022D01*
X473473Y388049D01*
X473267Y388090D01*
X473063Y388145D01*
X472864Y388212D01*
X472670Y388292D01*
X472481Y388385D01*
X472299Y388490D01*
X472124Y388607D01*
X471956Y388734D01*
X471791Y388879D01*
X471722Y388945D01*
X471654Y389016D01*
X471504Y389186D01*
X471372Y389357D01*
X471252Y389537D01*
X471143Y389724D01*
X471048Y389918D01*
X470965Y390117D01*
X470895Y390322D01*
X470839Y390531D01*
X470797Y390743D01*
X470787Y390816D01*
X470875Y390917D01*
X470937Y390956D01*
X471450Y391055D01*
X471613Y390946D01*
X471789Y390859D01*
X471974Y390796D01*
X472166Y390758D01*
X472362Y390745D01*
X477441D01*
X477637Y390758D01*
X477829Y390796D01*
X478015Y390859D01*
X478191Y390946D01*
X478354Y391055D01*
X478501Y391184D01*
X478630Y391331D01*
X478739Y391494D01*
X478826Y391670D01*
X478889Y391856D01*
X478927Y392048D01*
X478940Y392244D01*
Y396339D01*
X478927Y396534D01*
X478889Y396727D01*
X478826Y396912D01*
X478739Y397088D01*
X478630Y397251D01*
X478501Y397399D01*
X478354Y397528D01*
X478278Y397579D01*
X478314Y397877D01*
X478418Y398078D01*
X479881D01*
X480112Y398094D01*
X480340Y398139D01*
X480560Y398214D01*
X480768Y398316D01*
X480962Y398445D01*
X481136Y398599D01*
X485782Y403244D01*
X487844D01*
X488038Y403090D01*
X488262Y402949D01*
X488501Y402834D01*
X488752Y402746D01*
X489010Y402687D01*
X489274Y402658D01*
X489539D01*
X489803Y402687D01*
X490062Y402746D01*
X490312Y402834D01*
X490551Y402949D01*
X490776Y403090D01*
X490983Y403256D01*
X491171Y403443D01*
X491336Y403651D01*
X491477Y403875D01*
X491593Y404114D01*
X491680Y404365D01*
X491739Y404623D01*
X491769Y404887D01*
Y405152D01*
X491739Y405416D01*
X491680Y405675D01*
X491593Y405925D01*
X491477Y406164D01*
X491336Y406389D01*
X491171Y406596D01*
X490983Y406784D01*
X490776Y406949D01*
X490551Y407090D01*
X490312Y407205D01*
X490062Y407293D01*
X489803Y407352D01*
X489539Y407382D01*
X489274D01*
X489010Y407352D01*
X488752Y407293D01*
X488501Y407205D01*
X488262Y407090D01*
X488038Y406949D01*
X487844Y406795D01*
X485046D01*
X484815Y406780D01*
X484587Y406735D01*
X484367Y406660D01*
X484159Y406557D01*
X483965Y406428D01*
X483791Y406275D01*
X479145Y401629D01*
X477350D01*
X477156Y401784D01*
X476932Y401925D01*
X476693Y402040D01*
X476552Y402575D01*
X476560Y402610D01*
X481275Y407325D01*
X481428Y407499D01*
X481557Y407692D01*
X481660Y407901D01*
X481735Y408121D01*
X481780Y408348D01*
X481795Y408580D01*
Y412682D01*
X482257Y412874D01*
X484378Y410752D01*
D02*
G37*
%LPC*%
G36*
X514886Y786221D02*
X514248D01*
X513611Y786189D01*
X512976Y786127D01*
X512345Y786033D01*
X511720Y785909D01*
X511101Y785754D01*
X510490Y785569D01*
X509890Y785354D01*
X509300Y785110D01*
X508724Y784837D01*
X508161Y784536D01*
X507614Y784208D01*
X507084Y783854D01*
X506571Y783474D01*
X506078Y783069D01*
X505606Y782641D01*
X505155Y782190D01*
X504726Y781717D01*
X504322Y781224D01*
X503942Y780712D01*
X503587Y780181D01*
X503259Y779634D01*
X502959Y779072D01*
X502686Y778495D01*
X502442Y777906D01*
X502227Y777305D01*
X502042Y776695D01*
X501887Y776076D01*
X501762Y775450D01*
X501669Y774819D01*
X501606Y774184D01*
X501575Y773547D01*
Y772909D01*
X501606Y772272D01*
X501669Y771637D01*
X501762Y771006D01*
X501887Y770381D01*
X502042Y769762D01*
X502227Y769152D01*
X502442Y768551D01*
X502686Y767962D01*
X502959Y767385D01*
X503259Y766823D01*
X503587Y766276D01*
X503942Y765745D01*
X504322Y765233D01*
X504726Y764740D01*
X505155Y764267D01*
X505606Y763816D01*
X506078Y763388D01*
X506571Y762983D01*
X507084Y762603D01*
X507614Y762249D01*
X508161Y761921D01*
X508724Y761620D01*
X509300Y761347D01*
X509890Y761103D01*
X510490Y760888D01*
X511101Y760703D01*
X511720Y760548D01*
X512345Y760424D01*
X512976Y760330D01*
X513611Y760267D01*
X514248Y760236D01*
X514886D01*
X515523Y760267D01*
X516158Y760330D01*
X516789Y760424D01*
X517414Y760548D01*
X518033Y760703D01*
X518644Y760888D01*
X519244Y761103D01*
X519834Y761347D01*
X520410Y761620D01*
X520973Y761921D01*
X521520Y762249D01*
X522050Y762603D01*
X522563Y762983D01*
X523056Y763388D01*
X523528Y763816D01*
X523979Y764267D01*
X524408Y764740D01*
X524812Y765233D01*
X525192Y765745D01*
X525547Y766276D01*
X525875Y766823D01*
X526175Y767385D01*
X526448Y767962D01*
X526692Y768551D01*
X526907Y769152D01*
X527092Y769762D01*
X527247Y770381D01*
X527372Y771006D01*
X527465Y771637D01*
X527528Y772272D01*
X527559Y772909D01*
Y773547D01*
X527528Y774184D01*
X527465Y774819D01*
X527372Y775450D01*
X527247Y776076D01*
X527092Y776695D01*
X526907Y777305D01*
X526692Y777906D01*
X526448Y778495D01*
X526175Y779072D01*
X525875Y779634D01*
X525547Y780181D01*
X525192Y780712D01*
X524812Y781224D01*
X524408Y781717D01*
X523979Y782190D01*
X523528Y782641D01*
X523056Y783069D01*
X522563Y783474D01*
X522050Y783854D01*
X521520Y784208D01*
X520973Y784536D01*
X520410Y784837D01*
X519834Y785110D01*
X519244Y785354D01*
X518644Y785569D01*
X518033Y785754D01*
X517414Y785909D01*
X516789Y786033D01*
X516158Y786127D01*
X515523Y786189D01*
X514886Y786221D01*
D02*
G37*
G36*
X396907Y747244D02*
X396597D01*
X396289Y747217D01*
X395984Y747163D01*
X395686Y747083D01*
X395395Y746978D01*
X395114Y746847D01*
X394846Y746692D01*
X394593Y746515D01*
X394356Y746316D01*
X394137Y746097D01*
X393938Y745860D01*
X393761Y745606D01*
X393606Y745338D01*
X393475Y745058D01*
X393370Y744767D01*
X393289Y744468D01*
X393236Y744164D01*
X393209Y743855D01*
Y743546D01*
X393236Y743238D01*
X393289Y742933D01*
X393370Y742634D01*
X393475Y742344D01*
X393606Y742063D01*
X393761Y741795D01*
X393938Y741542D01*
X394137Y741305D01*
X394356Y741086D01*
X394593Y740887D01*
X394846Y740710D01*
X395114Y740555D01*
X395395Y740424D01*
X395686Y740318D01*
X395984Y740238D01*
X396289Y740184D01*
X396597Y740158D01*
X396907D01*
X397215Y740184D01*
X397520Y740238D01*
X397818Y740318D01*
X398109Y740424D01*
X398390Y740555D01*
X398658Y740710D01*
X398911Y740887D01*
X399148Y741086D01*
X399367Y741305D01*
X399566Y741542D01*
X399743Y741795D01*
X399898Y742063D01*
X400029Y742344D01*
X400135Y742634D01*
X400215Y742933D01*
X400268Y743238D01*
X400295Y743546D01*
Y743855D01*
X400268Y744164D01*
X400215Y744468D01*
X400135Y744767D01*
X400029Y745058D01*
X399898Y745338D01*
X399743Y745606D01*
X399566Y745860D01*
X399367Y746097D01*
X399148Y746316D01*
X398911Y746515D01*
X398658Y746692D01*
X398390Y746847D01*
X398109Y746978D01*
X397818Y747083D01*
X397520Y747163D01*
X397215Y747217D01*
X396907Y747244D01*
D02*
G37*
G36*
X390059Y747248D02*
X387697D01*
X387432Y747233D01*
X387170Y747189D01*
X386915Y747115D01*
X386670Y747014D01*
X386438Y746885D01*
X386222Y746732D01*
X386024Y746555D01*
X385847Y746357D01*
X385694Y746141D01*
X385565Y745908D01*
X385464Y745663D01*
X385390Y745408D01*
X385346Y745147D01*
X385331Y744882D01*
Y742520D01*
X385346Y742255D01*
X385390Y741993D01*
X385464Y741738D01*
X385565Y741493D01*
X385694Y741261D01*
X385847Y741045D01*
X386024Y740847D01*
X386222Y740670D01*
X386438Y740516D01*
X386670Y740388D01*
X386915Y740286D01*
X387170Y740213D01*
X387432Y740169D01*
X387697Y740154D01*
X390059D01*
X390324Y740169D01*
X390585Y740213D01*
X390841Y740286D01*
X391086Y740388D01*
X391318Y740516D01*
X391534Y740670D01*
X391732Y740847D01*
X391909Y741045D01*
X392062Y741261D01*
X392191Y741493D01*
X392292Y741738D01*
X392366Y741993D01*
X392410Y742255D01*
X392425Y742520D01*
Y744882D01*
X392410Y745147D01*
X392366Y745408D01*
X392292Y745663D01*
X392191Y745908D01*
X392062Y746141D01*
X391909Y746357D01*
X391732Y746555D01*
X391534Y746732D01*
X391318Y746885D01*
X391086Y747014D01*
X390841Y747115D01*
X390585Y747189D01*
X390324Y747233D01*
X390059Y747248D01*
D02*
G37*
G36*
X509843Y742326D02*
X509534Y742313D01*
X509227Y742272D01*
X508925Y742205D01*
X508630Y742112D01*
X508344Y741994D01*
X508070Y741851D01*
X507809Y741685D01*
X507563Y741497D01*
X507335Y741287D01*
X507126Y741059D01*
X506938Y740814D01*
X506772Y740553D01*
X506629Y740278D01*
X506510Y739993D01*
X506417Y739698D01*
X506350Y739395D01*
X506310Y739089D01*
X506296Y738780D01*
Y723819D01*
X506310Y723510D01*
X506350Y723203D01*
X506417Y722901D01*
X506510Y722606D01*
X506629Y722320D01*
X506772Y722046D01*
X506938Y721785D01*
X507126Y721539D01*
X507335Y721311D01*
X507563Y721102D01*
X507809Y720914D01*
X508070Y720747D01*
X508344Y720605D01*
X508630Y720486D01*
X508925Y720393D01*
X509227Y720326D01*
X509534Y720286D01*
X509843Y720272D01*
X510152Y720286D01*
X510459Y720326D01*
X510761Y720393D01*
X511056Y720486D01*
X511342Y720605D01*
X511616Y720747D01*
X511877Y720914D01*
X512123Y721102D01*
X512351Y721311D01*
X512560Y721539D01*
X512748Y721785D01*
X512915Y722046D01*
X513057Y722320D01*
X513176Y722606D01*
X513269Y722901D01*
X513336Y723203D01*
X513376Y723510D01*
X513390Y723819D01*
Y738780D01*
X513376Y739089D01*
X513336Y739395D01*
X513269Y739698D01*
X513176Y739993D01*
X513057Y740278D01*
X512915Y740553D01*
X512748Y740814D01*
X512560Y741059D01*
X512351Y741287D01*
X512123Y741497D01*
X511877Y741685D01*
X511616Y741851D01*
X511342Y741994D01*
X511056Y742112D01*
X510761Y742205D01*
X510459Y742272D01*
X510152Y742313D01*
X509843Y742326D01*
D02*
G37*
G36*
X512402Y710043D02*
X512092Y710028D01*
X511786Y709983D01*
X511486Y709907D01*
X511195Y709803D01*
X510915Y709671D01*
X510650Y709512D01*
X510401Y709327D01*
X510172Y709120D01*
X509964Y708890D01*
X509780Y708642D01*
X509621Y708376D01*
X509488Y708097D01*
X509384Y707805D01*
X509309Y707505D01*
X509263Y707199D01*
X509248Y706890D01*
Y704921D01*
X509263Y704612D01*
X509309Y704306D01*
X509384Y704006D01*
X509488Y703715D01*
X509621Y703435D01*
X509780Y703169D01*
X509964Y702921D01*
X510172Y702692D01*
X510401Y702484D01*
X510650Y702299D01*
X510915Y702140D01*
X511195Y702008D01*
X511486Y701904D01*
X511786Y701828D01*
X512092Y701783D01*
X512402Y701768D01*
X512711Y701783D01*
X513017Y701828D01*
X513317Y701904D01*
X513608Y702008D01*
X513888Y702140D01*
X514153Y702299D01*
X514402Y702484D01*
X514631Y702692D01*
X514839Y702921D01*
X515024Y703169D01*
X515183Y703435D01*
X515315Y703715D01*
X515419Y704006D01*
X515494Y704306D01*
X515540Y704612D01*
X515555Y704921D01*
Y706890D01*
X515540Y707199D01*
X515494Y707505D01*
X515419Y707805D01*
X515315Y708097D01*
X515183Y708376D01*
X515024Y708642D01*
X514839Y708890D01*
X514631Y709120D01*
X514402Y709327D01*
X514153Y709512D01*
X513888Y709671D01*
X513608Y709803D01*
X513317Y709907D01*
X513017Y709983D01*
X512711Y710028D01*
X512402Y710043D01*
D02*
G37*
G36*
X353149Y742326D02*
X352840Y742313D01*
X352533Y742272D01*
X352231Y742205D01*
X351936Y742112D01*
X351650Y741994D01*
X351376Y741851D01*
X351115Y741685D01*
X350869Y741497D01*
X350641Y741287D01*
X350432Y741059D01*
X350244Y740814D01*
X350078Y740553D01*
X349935Y740278D01*
X349816Y739993D01*
X349723Y739698D01*
X349656Y739395D01*
X349616Y739089D01*
X349602Y738780D01*
Y723819D01*
X349616Y723510D01*
X349656Y723203D01*
X349723Y722901D01*
X349816Y722606D01*
X349935Y722320D01*
X350078Y722046D01*
X350244Y721785D01*
X350432Y721539D01*
X350641Y721311D01*
X350869Y721102D01*
X351115Y720914D01*
X351376Y720747D01*
X351650Y720605D01*
X351936Y720486D01*
X352231Y720393D01*
X352533Y720326D01*
X352840Y720286D01*
X353149Y720272D01*
X353458Y720286D01*
X353765Y720326D01*
X354067Y720393D01*
X354362Y720486D01*
X354648Y720605D01*
X354922Y720747D01*
X355183Y720914D01*
X355429Y721102D01*
X355657Y721311D01*
X355866Y721539D01*
X356054Y721785D01*
X356221Y722046D01*
X356364Y722320D01*
X356482Y722606D01*
X356575Y722901D01*
X356642Y723203D01*
X356682Y723510D01*
X356696Y723819D01*
Y738780D01*
X356682Y739089D01*
X356642Y739395D01*
X356575Y739698D01*
X356482Y739993D01*
X356364Y740278D01*
X356221Y740553D01*
X356054Y740814D01*
X355866Y741059D01*
X355657Y741287D01*
X355429Y741497D01*
X355183Y741685D01*
X354922Y741851D01*
X354648Y741994D01*
X354362Y742112D01*
X354067Y742205D01*
X353765Y742272D01*
X353458Y742313D01*
X353149Y742326D01*
D02*
G37*
G36*
X366718Y719882D02*
X366353D01*
X365988Y719856D01*
X365626Y719804D01*
X365269Y719726D01*
X364918Y719623D01*
X364576Y719495D01*
X364243Y719343D01*
X363922Y719168D01*
X363615Y718971D01*
X363322Y718751D01*
X363046Y718512D01*
X362787Y718254D01*
X362548Y717977D01*
X362329Y717685D01*
X362131Y717377D01*
X361956Y717056D01*
X361804Y716724D01*
X361676Y716381D01*
X361573Y716030D01*
X361495Y715673D01*
X361443Y715311D01*
X361417Y714947D01*
Y714581D01*
X361443Y714216D01*
X361495Y713855D01*
X361573Y713497D01*
X361676Y713146D01*
X361804Y712804D01*
X361956Y712471D01*
X362131Y712150D01*
X362329Y711843D01*
X362548Y711550D01*
X362787Y711274D01*
X363046Y711016D01*
X363322Y710776D01*
X363615Y710557D01*
X363922Y710359D01*
X364243Y710184D01*
X364576Y710032D01*
X364918Y709904D01*
X365269Y709801D01*
X365626Y709724D01*
X365988Y709672D01*
X366353Y709646D01*
X366718D01*
X367083Y709672D01*
X367445Y709724D01*
X367802Y709801D01*
X368153Y709904D01*
X368495Y710032D01*
X368828Y710184D01*
X369149Y710359D01*
X369456Y710557D01*
X369749Y710776D01*
X370025Y711016D01*
X370284Y711274D01*
X370523Y711550D01*
X370742Y711843D01*
X370940Y712150D01*
X371115Y712471D01*
X371267Y712804D01*
X371395Y713146D01*
X371498Y713497D01*
X371575Y713855D01*
X371627Y714216D01*
X371654Y714581D01*
Y714947D01*
X371627Y715311D01*
X371575Y715673D01*
X371498Y716030D01*
X371395Y716381D01*
X371267Y716724D01*
X371115Y717056D01*
X370940Y717377D01*
X370742Y717685D01*
X370523Y717977D01*
X370284Y718254D01*
X370025Y718512D01*
X369749Y718751D01*
X369456Y718971D01*
X369149Y719168D01*
X368828Y719343D01*
X368495Y719495D01*
X368153Y719623D01*
X367802Y719726D01*
X367445Y719804D01*
X367083Y719856D01*
X366718Y719882D01*
D02*
G37*
G36*
X500576Y615551D02*
X500211D01*
X499846Y615525D01*
X499484Y615473D01*
X499127Y615395D01*
X498776Y615292D01*
X498434Y615165D01*
X498101Y615013D01*
X497780Y614838D01*
X497473Y614640D01*
X497180Y614421D01*
X496904Y614181D01*
X496645Y613923D01*
X496406Y613647D01*
X496187Y613354D01*
X495989Y613046D01*
X495814Y612725D01*
X495662Y612393D01*
X495534Y612050D01*
X495431Y611700D01*
X495354Y611342D01*
X495302Y610981D01*
X495276Y610616D01*
Y610250D01*
X495302Y609886D01*
X495354Y609524D01*
X495431Y609166D01*
X495534Y608816D01*
X495662Y608473D01*
X495814Y608141D01*
X495989Y607820D01*
X496187Y607512D01*
X496406Y607220D01*
X496645Y606943D01*
X496904Y606685D01*
X497180Y606445D01*
X497473Y606226D01*
X497780Y606029D01*
X498101Y605853D01*
X498434Y605702D01*
X498776Y605574D01*
X499127Y605471D01*
X499484Y605393D01*
X499846Y605341D01*
X500211Y605315D01*
X500576D01*
X500941Y605341D01*
X501303Y605393D01*
X501660Y605471D01*
X502011Y605574D01*
X502354Y605702D01*
X502686Y605853D01*
X503007Y606029D01*
X503314Y606226D01*
X503607Y606445D01*
X503884Y606685D01*
X504142Y606943D01*
X504381Y607220D01*
X504600Y607512D01*
X504798Y607820D01*
X504973Y608141D01*
X505125Y608473D01*
X505253Y608816D01*
X505356Y609166D01*
X505434Y609524D01*
X505486Y609886D01*
X505512Y610250D01*
Y610616D01*
X505486Y610981D01*
X505434Y611342D01*
X505356Y611700D01*
X505253Y612050D01*
X505125Y612393D01*
X504973Y612725D01*
X504798Y613046D01*
X504600Y613354D01*
X504381Y613647D01*
X504142Y613923D01*
X503884Y614181D01*
X503607Y614421D01*
X503314Y614640D01*
X503007Y614838D01*
X502686Y615013D01*
X502354Y615165D01*
X502011Y615292D01*
X501660Y615395D01*
X501303Y615473D01*
X500941Y615525D01*
X500576Y615551D01*
D02*
G37*
G36*
X484762Y605311D02*
X468407D01*
X468341Y605308D01*
X468275D01*
X468209Y605300D01*
X468143Y605297D01*
X468077Y605285D01*
X468011Y605278D01*
X467946Y605263D01*
X467881Y605252D01*
X467817Y605234D01*
X467753Y605219D01*
X467690Y605197D01*
X467626Y605179D01*
X467565Y605153D01*
X467502Y605131D01*
X467442Y605102D01*
X467381Y605077D01*
X467323Y605045D01*
X467263Y605016D01*
X467207Y604981D01*
X467149Y604949D01*
X467095Y604910D01*
X467038Y604875D01*
X466987Y604834D01*
X466932Y604795D01*
X466883Y604751D01*
X466831Y604710D01*
X466784Y604663D01*
X466735Y604618D01*
X466690Y604569D01*
X466643Y604522D01*
X466602Y604470D01*
X466558Y604421D01*
X466519Y604366D01*
X466478Y604315D01*
X466443Y604258D01*
X466404Y604204D01*
X466372Y604146D01*
X466337Y604090D01*
X466308Y604030D01*
X466276Y603972D01*
X466251Y603911D01*
X466222Y603851D01*
X466200Y603788D01*
X466174Y603727D01*
X466156Y603663D01*
X466134Y603600D01*
X466119Y603536D01*
X466101Y603472D01*
X466090Y603406D01*
X466075Y603342D01*
X466068Y603276D01*
X466056Y603210D01*
X466053Y603144D01*
X466045Y603078D01*
Y603012D01*
X466042Y602945D01*
X466045Y602879D01*
Y602813D01*
X466053Y602747D01*
X466056Y602680D01*
X466068Y602615D01*
X466075Y602549D01*
X466090Y602484D01*
X466101Y602419D01*
X466119Y602355D01*
X466134Y602290D01*
X466156Y602228D01*
X466174Y602164D01*
X466200Y602103D01*
X466222Y602040D01*
X466251Y601980D01*
X466276Y601919D01*
X466308Y601861D01*
X466337Y601801D01*
X466372Y601745D01*
X466404Y601687D01*
X466443Y601632D01*
X466478Y601576D01*
X466519Y601524D01*
X466558Y601470D01*
X466602Y601421D01*
X466643Y601369D01*
X466690Y601322D01*
X466735Y601272D01*
X466784Y601228D01*
X466831Y601181D01*
X466883Y601140D01*
X466932Y601096D01*
X466987Y601057D01*
X467038Y601016D01*
X467095Y600981D01*
X467149Y600942D01*
X467207Y600910D01*
X467263Y600875D01*
X467323Y600846D01*
X467381Y600814D01*
X467442Y600788D01*
X467502Y600760D01*
X467565Y600738D01*
X467626Y600712D01*
X467690Y600694D01*
X467753Y600672D01*
X467817Y600657D01*
X467881Y600639D01*
X467946Y600628D01*
X468011Y600613D01*
X468077Y600605D01*
X468143Y600594D01*
X468209Y600591D01*
X468275Y600583D01*
X468341D01*
X468407Y600580D01*
X484762D01*
X484829Y600583D01*
X484895D01*
X484961Y600591D01*
X485027Y600594D01*
X485093Y600605D01*
X485159Y600613D01*
X485223Y600628D01*
X485289Y600639D01*
X485353Y600657D01*
X485417Y600672D01*
X485480Y600694D01*
X485544Y600712D01*
X485605Y600738D01*
X485668Y600760D01*
X485728Y600788D01*
X485789Y600814D01*
X485847Y600846D01*
X485907Y600875D01*
X485963Y600910D01*
X486021Y600942D01*
X486075Y600981D01*
X486131Y601016D01*
X486183Y601057D01*
X486237Y601096D01*
X486287Y601140D01*
X486339Y601181D01*
X486386Y601228D01*
X486435Y601272D01*
X486480Y601322D01*
X486526Y601369D01*
X486568Y601421D01*
X486612Y601470D01*
X486651Y601524D01*
X486692Y601576D01*
X486727Y601632D01*
X486766Y601687D01*
X486798Y601745D01*
X486833Y601801D01*
X486862Y601861D01*
X486894Y601919D01*
X486919Y601980D01*
X486948Y602040D01*
X486970Y602103D01*
X486996Y602164D01*
X487014Y602228D01*
X487036Y602290D01*
X487051Y602355D01*
X487069Y602419D01*
X487080Y602484D01*
X487095Y602549D01*
X487102Y602615D01*
X487114Y602680D01*
X487117Y602747D01*
X487125Y602813D01*
Y602879D01*
X487128Y602945D01*
X487125Y603012D01*
Y603078D01*
X487117Y603144D01*
X487114Y603210D01*
X487102Y603276D01*
X487095Y603342D01*
X487080Y603406D01*
X487069Y603472D01*
X487051Y603536D01*
X487036Y603600D01*
X487014Y603663D01*
X486996Y603727D01*
X486970Y603788D01*
X486948Y603851D01*
X486919Y603911D01*
X486894Y603972D01*
X486862Y604030D01*
X486833Y604090D01*
X486798Y604146D01*
X486766Y604204D01*
X486727Y604258D01*
X486692Y604315D01*
X486651Y604366D01*
X486612Y604421D01*
X486568Y604470D01*
X486526Y604522D01*
X486480Y604569D01*
X486435Y604618D01*
X486386Y604663D01*
X486339Y604710D01*
X486287Y604751D01*
X486237Y604795D01*
X486183Y604834D01*
X486131Y604875D01*
X486075Y604910D01*
X486021Y604949D01*
X485963Y604981D01*
X485907Y605016D01*
X485847Y605045D01*
X485789Y605077D01*
X485728Y605102D01*
X485668Y605131D01*
X485605Y605153D01*
X485544Y605179D01*
X485480Y605197D01*
X485417Y605219D01*
X485353Y605234D01*
X485289Y605252D01*
X485223Y605263D01*
X485159Y605278D01*
X485093Y605285D01*
X485027Y605297D01*
X484961Y605300D01*
X484895Y605308D01*
X484829D01*
X484762Y605311D01*
D02*
G37*
G36*
X508740Y565161D02*
X503661D01*
X503466Y565148D01*
X503273Y565110D01*
X503088Y565047D01*
X502912Y564960D01*
X502749Y564851D01*
X502601Y564722D01*
X502472Y564574D01*
X502363Y564411D01*
X502276Y564235D01*
X502213Y564049D01*
X502175Y563857D01*
X502162Y563661D01*
Y559567D01*
X502175Y559371D01*
X502213Y559179D01*
X502276Y558993D01*
X502363Y558817D01*
X502472Y558654D01*
X502601Y558507D01*
X502749Y558378D01*
X502912Y558268D01*
X503088Y558182D01*
X503273Y558119D01*
X503466Y558080D01*
X503661Y558068D01*
X508740D01*
X508936Y558080D01*
X509128Y558119D01*
X509314Y558182D01*
X509490Y558268D01*
X509653Y558378D01*
X509800Y558507D01*
X509930Y558654D01*
X510039Y558817D01*
X510125Y558993D01*
X510188Y559179D01*
X510227Y559371D01*
X510239Y559567D01*
Y563661D01*
X510227Y563857D01*
X510188Y564049D01*
X510125Y564235D01*
X510039Y564411D01*
X509930Y564574D01*
X509800Y564722D01*
X509653Y564851D01*
X509490Y564960D01*
X509314Y565047D01*
X509128Y565110D01*
X508936Y565148D01*
X508740Y565161D01*
D02*
G37*
G36*
Y547444D02*
X503661D01*
X503466Y547431D01*
X503273Y547393D01*
X503088Y547330D01*
X502912Y547243D01*
X502749Y547134D01*
X502601Y547005D01*
X502472Y546858D01*
X502363Y546695D01*
X502276Y546519D01*
X502213Y546333D01*
X502175Y546141D01*
X502162Y545945D01*
Y541850D01*
X502175Y541655D01*
X502213Y541462D01*
X502276Y541277D01*
X502363Y541101D01*
X502472Y540938D01*
X502601Y540790D01*
X502749Y540661D01*
X502912Y540552D01*
X503088Y540465D01*
X503273Y540402D01*
X503466Y540364D01*
X503661Y540351D01*
X508740D01*
X508936Y540364D01*
X509128Y540402D01*
X509314Y540465D01*
X509490Y540552D01*
X509653Y540661D01*
X509800Y540790D01*
X509930Y540938D01*
X510039Y541101D01*
X510125Y541277D01*
X510188Y541462D01*
X510227Y541655D01*
X510239Y541850D01*
Y545945D01*
X510227Y546141D01*
X510188Y546333D01*
X510125Y546519D01*
X510039Y546695D01*
X509930Y546858D01*
X509800Y547005D01*
X509653Y547134D01*
X509490Y547243D01*
X509314Y547330D01*
X509128Y547393D01*
X508936Y547431D01*
X508740Y547444D01*
D02*
G37*
G36*
X446983Y548425D02*
X446718D01*
X446454Y548395D01*
X446195Y548337D01*
X445945Y548249D01*
X445706Y548134D01*
X445481Y547993D01*
X445274Y547827D01*
X445086Y547640D01*
X444921Y547432D01*
X444780Y547207D01*
X444665Y546968D01*
X444577Y546718D01*
X444518Y546459D01*
X444488Y546196D01*
Y545930D01*
X444433Y545598D01*
X444218Y545425D01*
X444033Y545362D01*
X443857Y545275D01*
X443694Y545166D01*
X443546Y545037D01*
X443417Y544889D01*
X443308Y544726D01*
X443221Y544550D01*
X443158Y544364D01*
X443120Y544172D01*
X443107Y543976D01*
Y539882D01*
X443120Y539686D01*
X443158Y539494D01*
X443221Y539308D01*
X443308Y539132D01*
X443417Y538969D01*
X443546Y538822D01*
X443694Y538693D01*
X443857Y538584D01*
X444033Y538497D01*
X444218Y538434D01*
X444411Y538396D01*
X444606Y538383D01*
X449685D01*
X449881Y538396D01*
X450073Y538434D01*
X450259Y538497D01*
X450435Y538584D01*
X450598Y538693D01*
X450745Y538822D01*
X450875Y538969D01*
X450983Y539132D01*
X451070Y539308D01*
X451133Y539494D01*
X451171Y539686D01*
X451184Y539882D01*
Y540154D01*
X472933D01*
X473165Y540169D01*
X473393Y540214D01*
X473612Y540289D01*
X473739Y540351D01*
X477441D01*
X477637Y540364D01*
X477829Y540402D01*
X478015Y540465D01*
X478191Y540552D01*
X478354Y540661D01*
X478501Y540790D01*
X478630Y540938D01*
X478739Y541101D01*
X478826Y541277D01*
X478889Y541462D01*
X478927Y541655D01*
X478940Y541850D01*
Y545945D01*
X478927Y546141D01*
X478889Y546333D01*
X478826Y546519D01*
X478739Y546695D01*
X478630Y546858D01*
X478501Y547005D01*
X478354Y547134D01*
X478191Y547243D01*
X478015Y547330D01*
X477829Y547393D01*
X477637Y547431D01*
X477441Y547444D01*
X472362D01*
X472166Y547431D01*
X471974Y547393D01*
X471789Y547330D01*
X471613Y547243D01*
X471450Y547134D01*
X471302Y547005D01*
X471173Y546858D01*
X471064Y546695D01*
X470977Y546519D01*
X470914Y546333D01*
X470876Y546141D01*
X470863Y545945D01*
Y543705D01*
X451184D01*
Y543976D01*
X451171Y544172D01*
X451133Y544364D01*
X451070Y544550D01*
X450983Y544726D01*
X450875Y544889D01*
X450745Y545037D01*
X450598Y545166D01*
X450435Y545275D01*
X450259Y545362D01*
X450073Y545425D01*
X449881Y545463D01*
X449685Y545476D01*
X449605D01*
X449213Y545930D01*
Y546196D01*
X449183Y546459D01*
X449124Y546718D01*
X449036Y546968D01*
X448921Y547207D01*
X448780Y547432D01*
X448615Y547640D01*
X448427Y547827D01*
X448219Y547993D01*
X447995Y548134D01*
X447756Y548249D01*
X447505Y548337D01*
X447247Y548395D01*
X446983Y548425D01*
D02*
G37*
G36*
X418386Y527759D02*
X413307D01*
X413111Y527746D01*
X412919Y527708D01*
X412733Y527645D01*
X412557Y527558D01*
X412394Y527449D01*
X412247Y527320D01*
X412118Y527173D01*
X412009Y527009D01*
X411922Y526834D01*
X411859Y526648D01*
X411821Y526455D01*
X411808Y526260D01*
Y522165D01*
X411821Y521970D01*
X411859Y521777D01*
X411922Y521592D01*
X412009Y521416D01*
X412118Y521253D01*
X412247Y521105D01*
X412394Y520976D01*
X412557Y520867D01*
X412733Y520780D01*
X412919Y520717D01*
X413111Y520679D01*
X413307Y520666D01*
X418386D01*
X418581Y520679D01*
X418774Y520717D01*
X418960Y520780D01*
X419136Y520867D01*
X419299Y520976D01*
X419446Y521105D01*
X419575Y521253D01*
X419684Y521416D01*
X419771Y521592D01*
X419834Y521777D01*
X419872Y521970D01*
X419885Y522165D01*
Y526260D01*
X419872Y526455D01*
X419834Y526648D01*
X419771Y526834D01*
X419684Y527009D01*
X419575Y527173D01*
X419446Y527320D01*
X419299Y527449D01*
X419136Y527558D01*
X418960Y527645D01*
X418774Y527708D01*
X418581Y527746D01*
X418386Y527759D01*
D02*
G37*
G36*
X359331Y492326D02*
X354252D01*
X354056Y492313D01*
X353864Y492275D01*
X353678Y492212D01*
X353502Y492125D01*
X353339Y492016D01*
X353192Y491887D01*
X353063Y491740D01*
X352954Y491576D01*
X352867Y491400D01*
X352804Y491215D01*
X352765Y491022D01*
X352753Y490827D01*
Y486732D01*
X352765Y486537D01*
X352804Y486344D01*
X352867Y486159D01*
X352954Y485983D01*
X353063Y485820D01*
X353192Y485672D01*
X353339Y485543D01*
X353502Y485434D01*
X353678Y485347D01*
X353864Y485284D01*
X354056Y485246D01*
X354252Y485233D01*
X359331D01*
X359526Y485246D01*
X359719Y485284D01*
X359905Y485347D01*
X360080Y485434D01*
X360243Y485543D01*
X360391Y485672D01*
X360520Y485820D01*
X360629Y485983D01*
X360716Y486159D01*
X360779Y486344D01*
X360817Y486537D01*
X360830Y486732D01*
Y490827D01*
X360817Y491022D01*
X360779Y491215D01*
X360716Y491400D01*
X360629Y491576D01*
X360520Y491740D01*
X360391Y491887D01*
X360243Y492016D01*
X360080Y492125D01*
X359905Y492212D01*
X359719Y492275D01*
X359526Y492313D01*
X359331Y492326D01*
D02*
G37*
G36*
Y460830D02*
X354252D01*
X354056Y460817D01*
X353864Y460779D01*
X353678Y460716D01*
X353502Y460629D01*
X353339Y460520D01*
X353192Y460391D01*
X353063Y460243D01*
X352954Y460080D01*
X352867Y459904D01*
X352804Y459719D01*
X352765Y459526D01*
X352753Y459331D01*
Y455236D01*
X352765Y455041D01*
X352804Y454848D01*
X352867Y454663D01*
X352954Y454487D01*
X353063Y454323D01*
X353192Y454176D01*
X353339Y454047D01*
X353502Y453938D01*
X353678Y453851D01*
X353864Y453788D01*
X354056Y453750D01*
X354252Y453737D01*
X359331D01*
X359526Y453750D01*
X359719Y453788D01*
X359905Y453851D01*
X360080Y453938D01*
X360243Y454047D01*
X360391Y454176D01*
X360520Y454323D01*
X360629Y454487D01*
X360716Y454663D01*
X360779Y454848D01*
X360817Y455041D01*
X360830Y455236D01*
Y459331D01*
X360817Y459526D01*
X360779Y459719D01*
X360716Y459904D01*
X360629Y460080D01*
X360520Y460243D01*
X360391Y460391D01*
X360243Y460520D01*
X360080Y460629D01*
X359905Y460716D01*
X359719Y460779D01*
X359526Y460817D01*
X359331Y460830D01*
D02*
G37*
G36*
Y429334D02*
X354252D01*
X354056Y429321D01*
X353864Y429283D01*
X353678Y429220D01*
X353502Y429133D01*
X353339Y429024D01*
X353192Y428895D01*
X353063Y428747D01*
X352954Y428584D01*
X352867Y428408D01*
X352804Y428223D01*
X352765Y428030D01*
X352753Y427835D01*
Y423740D01*
X352765Y423545D01*
X352804Y423352D01*
X352867Y423166D01*
X352954Y422991D01*
X353063Y422827D01*
X353192Y422680D01*
X353339Y422551D01*
X353502Y422442D01*
X353678Y422355D01*
X353864Y422292D01*
X354056Y422254D01*
X354252Y422241D01*
X359331D01*
X359526Y422254D01*
X359719Y422292D01*
X359905Y422355D01*
X360080Y422442D01*
X360243Y422551D01*
X360391Y422680D01*
X360520Y422827D01*
X360629Y422991D01*
X360716Y423166D01*
X360779Y423352D01*
X360817Y423545D01*
X360830Y423740D01*
Y427835D01*
X360817Y428030D01*
X360779Y428223D01*
X360716Y428408D01*
X360629Y428584D01*
X360520Y428747D01*
X360391Y428895D01*
X360243Y429024D01*
X360080Y429133D01*
X359905Y429220D01*
X359719Y429283D01*
X359526Y429321D01*
X359331Y429334D01*
D02*
G37*
G36*
X449685Y492326D02*
X444606D01*
X444411Y492313D01*
X444218Y492275D01*
X444032Y492212D01*
X443857Y492125D01*
X443694Y492016D01*
X443546Y491887D01*
X443417Y491740D01*
X443308Y491576D01*
X443221Y491400D01*
X443158Y491215D01*
X443120Y491022D01*
X443107Y490827D01*
Y486732D01*
X443120Y486537D01*
X443158Y486344D01*
X443221Y486159D01*
X443308Y485983D01*
X443417Y485820D01*
X443546Y485672D01*
X443694Y485543D01*
X443857Y485434D01*
X444032Y485347D01*
X444218Y485284D01*
X444411Y485246D01*
X444606Y485233D01*
X449685D01*
X449881Y485246D01*
X450073Y485284D01*
X450259Y485347D01*
X450435Y485434D01*
X450598Y485543D01*
X450745Y485672D01*
X450875Y485820D01*
X450983Y485983D01*
X451070Y486159D01*
X451133Y486344D01*
X451171Y486537D01*
X451184Y486732D01*
Y490827D01*
X451171Y491022D01*
X451133Y491215D01*
X451070Y491400D01*
X450983Y491576D01*
X450875Y491740D01*
X450745Y491887D01*
X450598Y492016D01*
X450435Y492125D01*
X450259Y492212D01*
X450073Y492275D01*
X449881Y492313D01*
X449685Y492326D01*
D02*
G37*
G36*
Y460830D02*
X444606D01*
X444411Y460817D01*
X444218Y460779D01*
X444032Y460716D01*
X443857Y460629D01*
X443694Y460520D01*
X443546Y460391D01*
X443417Y460243D01*
X443308Y460080D01*
X443221Y459904D01*
X443158Y459719D01*
X443120Y459526D01*
X443107Y459331D01*
Y455236D01*
X443120Y455041D01*
X443158Y454848D01*
X443221Y454663D01*
X443308Y454487D01*
X443417Y454323D01*
X443546Y454176D01*
X443694Y454047D01*
X443857Y453938D01*
X444032Y453851D01*
X444218Y453788D01*
X444411Y453750D01*
X444606Y453737D01*
X449685D01*
X449881Y453750D01*
X450073Y453788D01*
X450259Y453851D01*
X450435Y453938D01*
X450598Y454047D01*
X450745Y454176D01*
X450875Y454323D01*
X450983Y454487D01*
X451070Y454663D01*
X451133Y454848D01*
X451171Y455041D01*
X451184Y455236D01*
Y459331D01*
X451171Y459526D01*
X451133Y459719D01*
X451070Y459904D01*
X450983Y460080D01*
X450875Y460243D01*
X450745Y460391D01*
X450598Y460520D01*
X450435Y460629D01*
X450259Y460716D01*
X450073Y460779D01*
X449881Y460817D01*
X449685Y460830D01*
D02*
G37*
G36*
Y429334D02*
X444606D01*
X444411Y429321D01*
X444218Y429283D01*
X444032Y429220D01*
X443857Y429133D01*
X443694Y429024D01*
X443546Y428895D01*
X443417Y428747D01*
X443308Y428584D01*
X443221Y428408D01*
X443158Y428223D01*
X443120Y428030D01*
X443107Y427835D01*
Y423740D01*
X443120Y423545D01*
X443158Y423352D01*
X443221Y423166D01*
X443308Y422991D01*
X443417Y422827D01*
X443546Y422680D01*
X443694Y422551D01*
X443857Y422442D01*
X444032Y422355D01*
X444218Y422292D01*
X444411Y422254D01*
X444606Y422241D01*
X449685D01*
X449881Y422254D01*
X450073Y422292D01*
X450259Y422355D01*
X450435Y422442D01*
X450598Y422551D01*
X450745Y422680D01*
X450875Y422827D01*
X450983Y422991D01*
X451070Y423166D01*
X451133Y423352D01*
X451171Y423545D01*
X451184Y423740D01*
Y427835D01*
X451171Y428030D01*
X451133Y428223D01*
X451070Y428408D01*
X450983Y428584D01*
X450875Y428747D01*
X450745Y428895D01*
X450598Y429024D01*
X450435Y429133D01*
X450259Y429220D01*
X450073Y429283D01*
X449881Y429321D01*
X449685Y429334D01*
D02*
G37*
G36*
X508740Y510043D02*
X503661D01*
X503466Y510030D01*
X503273Y509992D01*
X503088Y509929D01*
X502912Y509842D01*
X502749Y509733D01*
X502601Y509604D01*
X502472Y509456D01*
X502363Y509293D01*
X502276Y509117D01*
X502213Y508931D01*
X502175Y508739D01*
X502162Y508543D01*
Y504449D01*
X502175Y504253D01*
X502213Y504061D01*
X502276Y503875D01*
X502363Y503699D01*
X502472Y503536D01*
X502601Y503389D01*
X502749Y503259D01*
X502912Y503151D01*
X503088Y503064D01*
X503273Y503001D01*
X503466Y502962D01*
X503661Y502950D01*
X508740D01*
X508936Y502962D01*
X509128Y503001D01*
X509314Y503064D01*
X509490Y503151D01*
X509653Y503259D01*
X509800Y503389D01*
X509930Y503536D01*
X510039Y503699D01*
X510125Y503875D01*
X510188Y504061D01*
X510227Y504253D01*
X510239Y504449D01*
Y508543D01*
X510227Y508739D01*
X510188Y508931D01*
X510125Y509117D01*
X510039Y509293D01*
X509930Y509456D01*
X509800Y509604D01*
X509653Y509733D01*
X509490Y509842D01*
X509314Y509929D01*
X509128Y509992D01*
X508936Y510030D01*
X508740Y510043D01*
D02*
G37*
G36*
Y492326D02*
X503661D01*
X503466Y492313D01*
X503273Y492275D01*
X503088Y492212D01*
X502912Y492125D01*
X502749Y492016D01*
X502601Y491887D01*
X502472Y491740D01*
X502363Y491576D01*
X502276Y491401D01*
X502213Y491215D01*
X502175Y491022D01*
X502162Y490827D01*
Y486732D01*
X502175Y486537D01*
X502213Y486344D01*
X502276Y486159D01*
X502363Y485983D01*
X502472Y485820D01*
X502601Y485672D01*
X502749Y485543D01*
X502912Y485434D01*
X503088Y485347D01*
X503273Y485284D01*
X503466Y485246D01*
X503661Y485233D01*
X508740D01*
X508936Y485246D01*
X509128Y485284D01*
X509314Y485347D01*
X509490Y485434D01*
X509653Y485543D01*
X509800Y485672D01*
X509930Y485820D01*
X510039Y485983D01*
X510125Y486159D01*
X510188Y486344D01*
X510227Y486537D01*
X510239Y486732D01*
Y490827D01*
X510227Y491022D01*
X510188Y491215D01*
X510125Y491401D01*
X510039Y491576D01*
X509930Y491740D01*
X509800Y491887D01*
X509653Y492016D01*
X509490Y492125D01*
X509314Y492212D01*
X509128Y492275D01*
X508936Y492313D01*
X508740Y492326D01*
D02*
G37*
G36*
X508740Y478547D02*
X503661D01*
X503466Y478534D01*
X503273Y478496D01*
X503088Y478432D01*
X502912Y478346D01*
X502749Y478237D01*
X502601Y478107D01*
X502472Y477960D01*
X502363Y477797D01*
X502276Y477621D01*
X502213Y477435D01*
X502175Y477243D01*
X502162Y477047D01*
Y472953D01*
X502175Y472757D01*
X502213Y472565D01*
X502276Y472379D01*
X502363Y472203D01*
X502472Y472040D01*
X502601Y471893D01*
X502749Y471763D01*
X502912Y471654D01*
X503088Y471568D01*
X503273Y471505D01*
X503466Y471466D01*
X503661Y471454D01*
X508740D01*
X508936Y471466D01*
X509128Y471505D01*
X509314Y471568D01*
X509490Y471654D01*
X509653Y471763D01*
X509800Y471893D01*
X509930Y472040D01*
X510039Y472203D01*
X510125Y472379D01*
X510188Y472565D01*
X510227Y472757D01*
X510239Y472953D01*
Y477047D01*
X510227Y477243D01*
X510188Y477435D01*
X510125Y477621D01*
X510039Y477797D01*
X509930Y477960D01*
X509800Y478107D01*
X509653Y478237D01*
X509490Y478346D01*
X509314Y478432D01*
X509128Y478496D01*
X508936Y478534D01*
X508740Y478547D01*
D02*
G37*
G36*
Y460830D02*
X503661D01*
X503466Y460817D01*
X503273Y460779D01*
X503088Y460716D01*
X502912Y460629D01*
X502749Y460520D01*
X502601Y460391D01*
X502472Y460244D01*
X502363Y460080D01*
X502276Y459904D01*
X502213Y459719D01*
X502175Y459526D01*
X502162Y459331D01*
Y455236D01*
X502175Y455041D01*
X502213Y454848D01*
X502276Y454663D01*
X502363Y454487D01*
X502472Y454324D01*
X502601Y454176D01*
X502749Y454047D01*
X502912Y453938D01*
X503088Y453851D01*
X503273Y453788D01*
X503466Y453750D01*
X503661Y453737D01*
X508740D01*
X508936Y453750D01*
X509128Y453788D01*
X509314Y453851D01*
X509490Y453938D01*
X509653Y454047D01*
X509800Y454176D01*
X509930Y454324D01*
X510039Y454487D01*
X510125Y454663D01*
X510188Y454848D01*
X510227Y455041D01*
X510239Y455236D01*
Y459331D01*
X510227Y459526D01*
X510188Y459719D01*
X510125Y459904D01*
X510039Y460080D01*
X509930Y460244D01*
X509800Y460391D01*
X509653Y460520D01*
X509490Y460629D01*
X509314Y460716D01*
X509128Y460779D01*
X508936Y460817D01*
X508740Y460830D01*
D02*
G37*
G36*
X520233Y434252D02*
X519924D01*
X519616Y434225D01*
X519311Y434171D01*
X519012Y434091D01*
X518721Y433985D01*
X518441Y433855D01*
X518173Y433700D01*
X517920Y433523D01*
X517683Y433324D01*
X517464Y433105D01*
X517265Y432868D01*
X517088Y432614D01*
X516933Y432346D01*
X516802Y432066D01*
X516696Y431775D01*
X516616Y431476D01*
X516562Y431172D01*
X516536Y430863D01*
Y430554D01*
X516562Y430246D01*
X516616Y429941D01*
X516696Y429642D01*
X516802Y429351D01*
X516933Y429071D01*
X517088Y428803D01*
X517265Y428550D01*
X517464Y428313D01*
X517683Y428094D01*
X517920Y427895D01*
X518173Y427717D01*
X518441Y427563D01*
X518721Y427432D01*
X519012Y427326D01*
X519311Y427246D01*
X519616Y427192D01*
X519924Y427165D01*
X520233D01*
X520542Y427192D01*
X520846Y427246D01*
X521145Y427326D01*
X521436Y427432D01*
X521716Y427563D01*
X521984Y427717D01*
X522238Y427895D01*
X522475Y428094D01*
X522694Y428313D01*
X522893Y428550D01*
X523070Y428803D01*
X523225Y429071D01*
X523355Y429351D01*
X523461Y429642D01*
X523541Y429941D01*
X523595Y430246D01*
X523622Y430554D01*
Y430863D01*
X523595Y431172D01*
X523541Y431476D01*
X523461Y431775D01*
X523355Y432066D01*
X523225Y432346D01*
X523070Y432614D01*
X522893Y432868D01*
X522694Y433105D01*
X522475Y433324D01*
X522238Y433523D01*
X521984Y433700D01*
X521716Y433855D01*
X521436Y433985D01*
X521145Y434091D01*
X520846Y434171D01*
X520542Y434225D01*
X520233Y434252D01*
D02*
G37*
G36*
X508740Y429334D02*
X503661D01*
X503466Y429321D01*
X503273Y429283D01*
X503088Y429220D01*
X502912Y429133D01*
X502749Y429024D01*
X502601Y428895D01*
X502472Y428747D01*
X502363Y428584D01*
X502276Y428408D01*
X502213Y428223D01*
X502175Y428030D01*
X502162Y427835D01*
Y423740D01*
X502175Y423545D01*
X502213Y423352D01*
X502276Y423167D01*
X502363Y422991D01*
X502472Y422827D01*
X502601Y422680D01*
X502749Y422551D01*
X502912Y422442D01*
X503088Y422355D01*
X503273Y422292D01*
X503466Y422254D01*
X503661Y422241D01*
X508740D01*
X508936Y422254D01*
X509128Y422292D01*
X509314Y422355D01*
X509490Y422442D01*
X509653Y422551D01*
X509800Y422680D01*
X509930Y422827D01*
X510039Y422991D01*
X510125Y423167D01*
X510188Y423352D01*
X510227Y423545D01*
X510239Y423740D01*
Y427835D01*
X510227Y428030D01*
X510188Y428223D01*
X510125Y428408D01*
X510039Y428584D01*
X509930Y428747D01*
X509800Y428895D01*
X509653Y429024D01*
X509490Y429133D01*
X509314Y429220D01*
X509128Y429283D01*
X508936Y429321D01*
X508740Y429334D01*
D02*
G37*
G36*
X520233Y418504D02*
X519924D01*
X519616Y418477D01*
X519311Y418423D01*
X519012Y418343D01*
X518721Y418237D01*
X518441Y418107D01*
X518173Y417952D01*
X517920Y417774D01*
X517683Y417576D01*
X517464Y417357D01*
X517265Y417120D01*
X517088Y416866D01*
X516933Y416598D01*
X516802Y416318D01*
X516696Y416027D01*
X516616Y415728D01*
X516562Y415424D01*
X516536Y415115D01*
Y414806D01*
X516562Y414498D01*
X516616Y414193D01*
X516696Y413894D01*
X516802Y413603D01*
X516933Y413323D01*
X517088Y413055D01*
X517265Y412802D01*
X517464Y412565D01*
X517683Y412346D01*
X517920Y412147D01*
X518173Y411969D01*
X518441Y411815D01*
X518721Y411684D01*
X519012Y411578D01*
X519311Y411498D01*
X519616Y411444D01*
X519924Y411417D01*
X520233D01*
X520542Y411444D01*
X520846Y411498D01*
X521145Y411578D01*
X521436Y411684D01*
X521716Y411815D01*
X521984Y411969D01*
X522238Y412147D01*
X522475Y412346D01*
X522694Y412565D01*
X522893Y412802D01*
X523070Y413055D01*
X523225Y413323D01*
X523355Y413603D01*
X523461Y413894D01*
X523541Y414193D01*
X523595Y414498D01*
X523622Y414806D01*
Y415115D01*
X523595Y415424D01*
X523541Y415728D01*
X523461Y416027D01*
X523355Y416318D01*
X523225Y416598D01*
X523070Y416866D01*
X522893Y417120D01*
X522694Y417357D01*
X522475Y417576D01*
X522238Y417774D01*
X521984Y417952D01*
X521716Y418107D01*
X521436Y418237D01*
X521145Y418343D01*
X520846Y418423D01*
X520542Y418477D01*
X520233Y418504D01*
D02*
G37*
G36*
X508740Y397838D02*
X503661D01*
X503466Y397825D01*
X503273Y397787D01*
X503088Y397724D01*
X502912Y397637D01*
X502749Y397528D01*
X502601Y397399D01*
X502472Y397251D01*
X502363Y397088D01*
X502276Y396912D01*
X502213Y396727D01*
X502175Y396534D01*
X502162Y396339D01*
Y392244D01*
X502175Y392048D01*
X502213Y391856D01*
X502276Y391670D01*
X502363Y391494D01*
X502472Y391331D01*
X502601Y391184D01*
X502749Y391055D01*
X502912Y390946D01*
X503088Y390859D01*
X503273Y390796D01*
X503466Y390758D01*
X503661Y390745D01*
X508740D01*
X508936Y390758D01*
X509128Y390796D01*
X509314Y390859D01*
X509490Y390946D01*
X509653Y391055D01*
X509800Y391184D01*
X509930Y391331D01*
X510039Y391494D01*
X510125Y391670D01*
X510188Y391856D01*
X510227Y392048D01*
X510239Y392244D01*
Y396339D01*
X510227Y396534D01*
X510188Y396727D01*
X510125Y396912D01*
X510039Y397088D01*
X509930Y397251D01*
X509800Y397399D01*
X509653Y397528D01*
X509490Y397637D01*
X509314Y397724D01*
X509128Y397787D01*
X508936Y397825D01*
X508740Y397838D01*
D02*
G37*
G36*
X442323Y379768D02*
X440354D01*
X440103Y379755D01*
X439854Y379718D01*
X439611Y379657D01*
X439374Y379573D01*
X439147Y379465D01*
X438931Y379336D01*
X438729Y379186D01*
X438543Y379017D01*
X438374Y378831D01*
X438224Y378629D01*
X438095Y378413D01*
X437987Y378186D01*
X437902Y377949D01*
X437841Y377705D01*
X437805Y377457D01*
X437792Y377205D01*
X437805Y376954D01*
X437841Y376706D01*
X437902Y376462D01*
X437987Y376225D01*
X438095Y375998D01*
X438224Y375782D01*
X438374Y375580D01*
X438543Y375394D01*
X438729Y375225D01*
X438931Y375075D01*
X439147Y374946D01*
X439374Y374838D01*
X439611Y374754D01*
X439854Y374693D01*
X440103Y374656D01*
X440354Y374643D01*
X442323D01*
X442574Y374656D01*
X442823Y374693D01*
X443067Y374754D01*
X443303Y374838D01*
X443531Y374946D01*
X443746Y375075D01*
X443948Y375225D01*
X444135Y375394D01*
X444303Y375580D01*
X444453Y375782D01*
X444582Y375998D01*
X444690Y376225D01*
X444775Y376462D01*
X444836Y376706D01*
X444873Y376954D01*
X444885Y377205D01*
X444873Y377457D01*
X444836Y377705D01*
X444775Y377949D01*
X444690Y378186D01*
X444582Y378413D01*
X444453Y378629D01*
X444303Y378831D01*
X444135Y379017D01*
X443948Y379186D01*
X443746Y379336D01*
X443531Y379465D01*
X443303Y379573D01*
X443067Y379657D01*
X442823Y379718D01*
X442574Y379755D01*
X442323Y379768D01*
D02*
G37*
G36*
X514886Y384646D02*
X514248D01*
X513611Y384614D01*
X512976Y384552D01*
X512345Y384458D01*
X511720Y384334D01*
X511101Y384179D01*
X510490Y383994D01*
X509890Y383779D01*
X509300Y383535D01*
X508724Y383262D01*
X508161Y382961D01*
X507614Y382633D01*
X507084Y382279D01*
X506571Y381899D01*
X506078Y381494D01*
X505606Y381066D01*
X505155Y380615D01*
X504726Y380142D01*
X504322Y379649D01*
X503942Y379137D01*
X503587Y378606D01*
X503259Y378059D01*
X502959Y377497D01*
X502686Y376920D01*
X502442Y376331D01*
X502227Y375730D01*
X502042Y375120D01*
X501887Y374501D01*
X501762Y373875D01*
X501669Y373244D01*
X501606Y372610D01*
X501575Y371972D01*
Y371335D01*
X501606Y370697D01*
X501669Y370063D01*
X501762Y369432D01*
X501887Y368806D01*
X502042Y368187D01*
X502227Y367577D01*
X502442Y366976D01*
X502686Y366387D01*
X502959Y365810D01*
X503259Y365248D01*
X503587Y364701D01*
X503942Y364170D01*
X504322Y363658D01*
X504726Y363165D01*
X505155Y362692D01*
X505606Y362241D01*
X506078Y361813D01*
X506571Y361408D01*
X507084Y361028D01*
X507614Y360674D01*
X508161Y360346D01*
X508724Y360045D01*
X509300Y359772D01*
X509890Y359528D01*
X510490Y359314D01*
X511101Y359128D01*
X511720Y358973D01*
X512345Y358849D01*
X512976Y358755D01*
X513611Y358693D01*
X514248Y358661D01*
X514886D01*
X515523Y358693D01*
X516158Y358755D01*
X516789Y358849D01*
X517414Y358973D01*
X518033Y359128D01*
X518644Y359314D01*
X519244Y359528D01*
X519834Y359772D01*
X520410Y360045D01*
X520973Y360346D01*
X521520Y360674D01*
X522050Y361028D01*
X522563Y361408D01*
X523056Y361813D01*
X523528Y362241D01*
X523979Y362692D01*
X524408Y363165D01*
X524812Y363658D01*
X525192Y364170D01*
X525547Y364701D01*
X525875Y365248D01*
X526175Y365810D01*
X526448Y366387D01*
X526692Y366976D01*
X526907Y367577D01*
X527092Y368187D01*
X527247Y368806D01*
X527372Y369432D01*
X527465Y370063D01*
X527528Y370697D01*
X527559Y371335D01*
Y371972D01*
X527528Y372610D01*
X527465Y373244D01*
X527372Y373875D01*
X527247Y374501D01*
X527092Y375120D01*
X526907Y375730D01*
X526692Y376331D01*
X526448Y376920D01*
X526175Y377497D01*
X525875Y378059D01*
X525547Y378606D01*
X525192Y379137D01*
X524812Y379649D01*
X524408Y380142D01*
X523979Y380615D01*
X523528Y381066D01*
X523056Y381494D01*
X522563Y381899D01*
X522050Y382279D01*
X521520Y382633D01*
X520973Y382961D01*
X520410Y383262D01*
X519834Y383535D01*
X519244Y383779D01*
X518644Y383994D01*
X518033Y384179D01*
X517414Y384334D01*
X516789Y384458D01*
X516158Y384552D01*
X515523Y384614D01*
X514886Y384646D01*
D02*
G37*
G36*
X510825Y419043D02*
Y419043D01*
D01*
Y419043D01*
D02*
G37*
%LPD*%
D15*
X423819Y409154D02*
Y425787D01*
X415846Y401181D02*
X423819Y409154D01*
X415846Y394291D02*
Y401181D01*
X420158Y537397D02*
X427786Y545026D01*
X407424Y537397D02*
X420158D01*
X472736Y395472D02*
Y401297D01*
X480020Y408580D01*
X472736Y395472D02*
X473917Y394291D01*
X474902D01*
X480020Y408580D02*
Y425648D01*
X388090Y561614D02*
X391043Y558661D01*
X415846Y563583D02*
X418685Y560744D01*
X416603Y558661D02*
X429823Y571881D01*
X391043Y558661D02*
X416603D01*
X417581Y556299D02*
X437955Y576673D01*
X343307Y549502D02*
X350104Y556299D01*
X417581D01*
X437955Y576673D02*
Y576844D01*
X388090Y543898D02*
Y549213D01*
X424153D01*
X350394Y546567D02*
X353040Y549213D01*
X421766Y551575D02*
X442520Y572329D01*
X353040Y549213D02*
X388090D01*
X348031Y547545D02*
X352061Y551575D01*
X424153Y549213D02*
X447146Y572205D01*
X345669Y548524D02*
X351083Y553937D01*
X352061Y551575D02*
X421766D01*
X419789Y553937D02*
X442353Y576501D01*
X351083Y553937D02*
X419789D01*
X411319Y546850D02*
X425132D01*
X436253Y557972D01*
X407579Y543110D02*
X411319Y546850D01*
X395669D02*
X402461D01*
X394882Y540978D02*
Y546063D01*
X395669Y546850D01*
X382247Y537205D02*
X396761D01*
X381269Y539567D02*
X393471D01*
X394882Y540978D01*
X398917Y539361D02*
Y543110D01*
X396761Y537205D02*
X398917Y539361D01*
X380217Y531834D02*
X383225Y534842D01*
X399311D01*
X407579Y543110D01*
X384204Y532480D02*
X402507D01*
X407424Y537397D01*
X382579Y530855D02*
X384204Y532480D01*
X382579Y488780D02*
Y530855D01*
X377854Y532812D02*
X382247Y537205D01*
X380217Y407585D02*
X381201Y406600D01*
X380217Y407585D02*
Y408319D01*
X375492D02*
Y533791D01*
X377854Y407340D02*
Y532812D01*
X380217Y408319D02*
Y531834D01*
X375492Y533791D02*
X381269Y539567D01*
X382579Y457283D02*
Y488780D01*
X482787Y590650D02*
X515990D01*
X423819Y488780D02*
Y531764D01*
X432185Y540130D02*
Y547146D01*
X423819Y531764D02*
X432185Y540130D01*
X357677Y637992D02*
Y690648D01*
Y635138D02*
Y637992D01*
X473941Y588484D02*
X480830Y595374D01*
X423032Y570965D02*
X440551Y588484D01*
X473941D01*
X367520Y615738D02*
Y646766D01*
X362598Y610817D02*
X367520Y615738D01*
X362598Y586000D02*
Y610817D01*
Y586000D02*
X369367Y579232D01*
X360236Y585022D02*
X368388Y576870D01*
X360236Y611796D02*
X365158Y616717D01*
X360236Y585022D02*
Y611796D01*
X357874Y584044D02*
X368000Y573917D01*
X357874Y584044D02*
Y617421D01*
X360335Y619882D01*
X357087Y634547D02*
X357677Y635138D01*
X357085Y691240D02*
X357677Y690648D01*
X353051Y634547D02*
X357087D01*
X352067Y633563D02*
X353051Y634547D01*
X352067Y627258D02*
Y633563D01*
Y627258D02*
X355512Y623813D01*
Y583065D02*
Y623813D01*
Y583065D02*
X367612Y570965D01*
X340945Y631699D02*
X350787Y621856D01*
X338583Y630720D02*
Y692913D01*
X348425Y561457D02*
Y620878D01*
X353150Y582087D02*
Y622835D01*
X338583Y630720D02*
X348425Y620878D01*
X350787Y560478D02*
Y621856D01*
X340945Y631699D02*
Y691935D01*
X343307Y632677D02*
Y689468D01*
Y632677D02*
X353150Y622835D01*
X367612Y570965D02*
X423032D01*
X396303Y579232D02*
Y579232D01*
X369367D02*
X396303D01*
X368388Y576870D02*
X398117D01*
X368000Y573917D02*
X421654D01*
X396894Y579823D02*
X399726D01*
X402187Y577362D01*
X396303Y579232D02*
X396894Y579823D01*
X367224Y568012D02*
X421654D01*
X353150Y582087D02*
X367224Y568012D01*
X367520Y646766D02*
X369074Y648320D01*
X365158Y616717D02*
Y651592D01*
X409991Y583065D02*
Y592723D01*
X431806Y614538D01*
X480830Y595374D02*
X508915D01*
X511811Y598270D01*
X376394Y402413D02*
Y405879D01*
X377854Y407340D01*
X369587Y402413D02*
X375492Y408319D01*
X381201Y397077D02*
Y406600D01*
X440453Y516740D02*
Y552953D01*
X437008Y516423D02*
Y547146D01*
Y516423D02*
X442604Y510827D01*
X478387D01*
X440453Y516740D02*
X444004Y513189D01*
X479365D01*
X440453Y552953D02*
X443110Y555610D01*
X382579Y488780D02*
X388091D01*
X447146Y541929D02*
X472933D01*
X474902Y543898D01*
X447146Y506496D02*
X474901D01*
X338583Y551614D02*
X348425Y561457D01*
X338583Y399115D02*
Y551614D01*
X340945Y550636D02*
X350787Y560478D01*
X340945Y400093D02*
Y550636D01*
X429823Y571881D02*
Y573425D01*
X343307Y425000D02*
Y549502D01*
X348031Y483268D02*
Y547545D01*
X350394Y512894D02*
Y546567D01*
X345669Y454134D02*
Y548524D01*
X350394Y512894D02*
X356791Y506496D01*
X343307Y425000D02*
X356299Y412008D01*
X345669Y454134D02*
X356299Y443504D01*
X348031Y483268D02*
X356299Y475000D01*
X481988Y510566D02*
X482382Y510172D01*
Y415260D02*
X485634Y412008D01*
X481299Y511255D02*
X481988Y510566D01*
X482382Y415260D02*
Y510172D01*
X479365Y513189D02*
X481299Y511255D01*
X480147Y515748D02*
X484547Y511348D01*
X484744Y446798D02*
X488038Y443504D01*
X484744Y446798D02*
Y511151D01*
X484547Y511348D02*
X484744Y511151D01*
X449902Y515748D02*
X480147D01*
X447146Y518504D02*
X449902Y515748D01*
X478387Y510827D02*
X479724Y509489D01*
X480020Y488779D02*
Y509194D01*
X479724Y509489D02*
X480020Y509194D01*
X447146Y518504D02*
Y524213D01*
X481809Y593012D02*
X515012D01*
X516535Y594536D01*
X464683Y575886D02*
X481710Y592913D01*
X481809Y593012D01*
X516535Y601195D02*
X519291Y603951D01*
Y610610D01*
X524606Y615925D01*
X516535Y594536D02*
Y601195D01*
X518898Y600216D02*
X524606Y605925D01*
X515990Y590650D02*
X518898Y593557D01*
Y600216D01*
X519577Y600896D01*
X338583Y399115D02*
X351280Y386417D01*
X352259Y388780D02*
X368892D01*
X351280Y386417D02*
X367913D01*
X340945Y400093D02*
X352259Y388780D01*
X367913Y386417D02*
X383858Y370473D01*
X488038Y443504D02*
X506201D01*
X448917Y362500D02*
X453543Y357874D01*
X488976D02*
X490551Y359449D01*
X453543Y357874D02*
X488976D01*
X485046Y405020D02*
X489407D01*
X475787Y399854D02*
X479881D01*
X485046Y405020D01*
X480020Y457283D02*
Y488779D01*
X480020Y488780D02*
X480020Y488779D01*
X474902Y488780D02*
X480020D01*
X480020Y425648D02*
Y457283D01*
X474902D02*
X480020D01*
X479881Y425787D02*
X480020Y425648D01*
X474902Y425787D02*
X479881D01*
X485634Y412008D02*
X506201D01*
X340945Y691935D02*
X350764Y701754D01*
X343307Y689468D02*
X347342Y693504D01*
X338583Y692913D02*
X349785Y704116D01*
X505905Y634547D02*
X510236D01*
X511811Y598270D02*
Y632972D01*
X510236Y634547D02*
X511811Y632972D01*
X418209Y741437D02*
X449803D01*
X415335Y738564D02*
X418209Y741437D01*
X415335Y726975D02*
Y738564D01*
X453051Y708563D02*
Y738189D01*
X449803Y741437D02*
X453051Y738189D01*
X365158Y651592D02*
X369074Y655509D01*
X442353Y576501D02*
Y576617D01*
X350764Y701754D02*
X377684D01*
X388587Y682083D02*
Y694192D01*
X349785Y704116D02*
X378663D01*
X384055Y682283D02*
Y695383D01*
X377684Y701754D02*
X384055Y695383D01*
X378663Y704116D02*
X388587Y694192D01*
X447146Y575886D02*
X464683D01*
X446063D02*
X447146D01*
X447146Y575886D02*
X447146Y575886D01*
X447146Y575886D02*
Y581299D01*
X484744Y585925D02*
X524606D01*
X460101Y564623D02*
X483766Y588287D01*
X454963Y564623D02*
X460101D01*
X465661Y573524D02*
X482787Y590650D01*
X448464Y573524D02*
X465661D01*
X447146Y572205D02*
X448464Y573524D01*
X516968Y588287D02*
X524606Y595925D01*
X483766Y588287D02*
X516968D01*
X456791Y557972D02*
X484744Y585925D01*
X443110Y555610D02*
X457770D01*
X463774Y561614D02*
X474902D01*
X457770Y555610D02*
X463774Y561614D01*
X436253Y557972D02*
X456791D01*
X442520Y572342D02*
X446063Y575886D01*
X442520Y572329D02*
Y572342D01*
X403248Y543110D02*
Y546063D01*
X402461Y546850D02*
X403248Y546063D01*
X382579Y425787D02*
Y457283D01*
X382579Y457283D01*
X388090D01*
X382579Y408563D02*
Y425787D01*
X388090D01*
X382579Y408563D02*
X388091Y403051D01*
Y394291D02*
Y403051D01*
X448917Y362500D02*
Y377458D01*
X505709Y634744D02*
Y691045D01*
X505904Y691240D01*
X505709Y634744D02*
X505905Y634547D01*
X404215Y713976D02*
X416831D01*
X404035Y714156D02*
X404215Y713976D01*
X416831D02*
X419373Y716519D01*
Y726975D01*
X446850Y542224D02*
X447146Y541929D01*
X446850Y542224D02*
Y546063D01*
X383858Y367461D02*
Y370473D01*
X386221Y367461D02*
Y371451D01*
X368892Y388780D02*
X386221Y371451D01*
X381102Y364705D02*
X383858Y367461D01*
X386221D02*
X388976Y364705D01*
X431806Y614538D02*
Y726712D01*
X434168Y615951D02*
Y700399D01*
X435523Y701754D02*
Y727032D01*
X434168Y700399D02*
X435523Y701754D01*
X450676Y604528D02*
Y610249D01*
X441437Y619488D02*
X450676Y610249D01*
X441437Y619488D02*
Y696949D01*
X439075Y618314D02*
Y697927D01*
Y618314D02*
X447070Y610319D01*
Y604528D02*
Y610319D01*
X439075Y697927D02*
X443598Y702450D01*
X441437Y696949D02*
X453051Y708563D01*
X436530Y616930D02*
X443464Y609997D01*
X434168Y615951D02*
X439857Y610262D01*
X436530Y698724D02*
X439561Y701754D01*
X436530Y616930D02*
Y698724D01*
X439857Y604528D02*
Y610262D01*
X443598Y702450D02*
Y727032D01*
X439561Y701754D02*
Y727032D01*
X443464Y604924D02*
Y609997D01*
X423819Y457283D02*
Y488780D01*
X415846D02*
X423819D01*
Y425787D02*
Y457283D01*
X388091Y506496D02*
X415846D01*
X356299Y475000D02*
X356791D01*
X356299Y443504D02*
X356791D01*
X356299Y412008D02*
X356791D01*
X447146Y412008D02*
X474901D01*
X447146Y443504D02*
X474901D01*
X447146Y475000D02*
X474901D01*
X388090D02*
X415846D01*
X388090Y443504D02*
X415846D01*
X388091Y412008D02*
X415846D01*
X415846Y412008D01*
Y425787D02*
X423819D01*
X415846Y457283D02*
X423819D01*
D17*
X474902Y561614D02*
D03*
Y543898D02*
D03*
X506201Y561614D02*
D03*
Y543898D02*
D03*
X415846Y563583D02*
D03*
X447146Y581299D02*
D03*
Y563583D02*
D03*
X415846Y581299D02*
D03*
X356791Y561614D02*
D03*
Y543898D02*
D03*
X388090Y561614D02*
D03*
Y543898D02*
D03*
X447146Y524213D02*
D03*
X447146Y541929D02*
D03*
X415846Y524213D02*
D03*
Y541929D02*
D03*
X356791Y506496D02*
D03*
Y488780D02*
D03*
X388091Y506496D02*
D03*
Y488780D02*
D03*
X474902Y506496D02*
D03*
X474902Y488780D02*
D03*
X506201Y506496D02*
D03*
Y488780D02*
D03*
X415846Y506496D02*
D03*
Y488779D02*
D03*
X447146Y506496D02*
D03*
Y488779D02*
D03*
X415846Y475000D02*
D03*
Y457283D02*
D03*
X447146Y475000D02*
D03*
Y457283D02*
D03*
X356791Y475000D02*
D03*
Y457283D02*
D03*
X388090Y475000D02*
D03*
Y457283D02*
D03*
X356791Y443504D02*
D03*
Y425787D02*
D03*
X388090Y443504D02*
D03*
Y425787D02*
D03*
X415846Y443504D02*
D03*
Y425787D02*
D03*
X447146Y443504D02*
D03*
Y425787D02*
D03*
X474902Y457283D02*
D03*
X506201D02*
D03*
Y475000D02*
D03*
X474902D02*
D03*
X474902Y443504D02*
D03*
Y425787D02*
D03*
X506201Y443504D02*
D03*
Y425787D02*
D03*
X474902Y412008D02*
D03*
Y394291D02*
D03*
X506201Y412008D02*
D03*
Y394291D02*
D03*
X415846Y412008D02*
D03*
Y394291D02*
D03*
X447146Y412008D02*
D03*
Y394291D02*
D03*
X388091D02*
D03*
Y412008D02*
D03*
X356791Y394291D02*
D03*
Y412008D02*
D03*
D18*
X505905Y628642D02*
D03*
Y634547D02*
D03*
X505904Y697146D02*
D03*
Y691240D02*
D03*
X357087Y628642D02*
D03*
Y634547D02*
D03*
X357085Y697146D02*
D03*
Y691240D02*
D03*
D19*
X415335Y726975D02*
D03*
X419373D02*
D03*
X423411D02*
D03*
X427448D02*
D03*
X443598Y727032D02*
D03*
X439561D02*
D03*
X435523D02*
D03*
X431485D02*
D03*
X447635D02*
D03*
D20*
X475492Y770472D02*
D03*
X497736D02*
D03*
D21*
X486614Y771654D02*
D03*
D31*
X445276Y366576D02*
D03*
X417717D02*
D03*
D42*
X412707Y375384D02*
G03*
X411315Y375384I-696J-696D01*
G01*
X409644Y375104D02*
G03*
X411036Y375104I696J696D01*
G01*
X409644Y376496D02*
G03*
X409644Y375104I696J-696D01*
G01*
X409923Y376776D02*
G03*
X409923Y378168I-696J696D01*
G01*
D02*
G03*
X408531Y378168I-696J-696D01*
G01*
X406860Y377888D02*
G03*
X408252Y377888I696J696D01*
G01*
X406860Y379280D02*
G03*
X406860Y377888I696J-696D01*
G01*
X407678Y380098D02*
G03*
X407678Y381490I-696J696D01*
G01*
D02*
G03*
X406286Y381490I-696J-696D01*
G01*
X404076Y380672D02*
G03*
X405468Y380672I696J696D01*
G01*
X404076Y382064D02*
G03*
X404076Y380672I696J-696D01*
G01*
X406277Y384265D02*
G03*
X406565Y384961I-696J696D01*
G01*
X416395Y376149D02*
G03*
X416395Y374758I696J-696D01*
G01*
X416922Y376676D02*
G03*
X416922Y378068I-696J696D01*
G01*
D02*
G03*
X415530Y378068I-696J-696D01*
G01*
X413612Y377541D02*
G03*
X415003Y377541I696J696D01*
G01*
X413612Y378933D02*
G03*
X413612Y377541I696J-696D01*
G01*
X414878Y380199D02*
G03*
X414878Y381591I-696J696D01*
G01*
D02*
G03*
X413486Y381591I-696J-696D01*
G01*
X410828Y380325D02*
G03*
X412220Y380325I696J696D01*
G01*
X410828Y381717D02*
G03*
X410828Y380325I696J-696D01*
G01*
X412094Y382983D02*
G03*
X412094Y384375I-696J696D01*
G01*
X412094Y384375D02*
G03*
X410702Y384375I-696J-696D01*
G01*
X408730Y384780D02*
G03*
X410410Y384084I984J0D01*
G01*
X425269Y366929D02*
X433760D01*
X420276Y371922D02*
X425269Y366929D01*
X426165Y369094D02*
X428839D01*
X421850Y373410D02*
X426165Y369094D01*
X433760Y366929D02*
X434252D01*
X420209Y371989D02*
X420276Y371922D01*
X416102Y371989D02*
X420209D01*
X434252Y366929D02*
X434941Y367618D01*
X428839Y369094D02*
X428981D01*
X421105Y374154D02*
X421850Y373410D01*
X430427Y370541D02*
Y371358D01*
X428981Y369094D02*
X430427Y370541D01*
X434941Y367618D02*
Y370965D01*
X415646Y372445D02*
X415994Y372096D01*
X412707Y375384D02*
X415646Y372445D01*
X412707Y375384D02*
X412707Y375384D01*
X411036Y375104D02*
X411315Y375384D01*
X409644Y376496D02*
X409644D01*
X409923Y376776D01*
X408531Y378168D02*
X408531D01*
X408252Y377888D02*
X408531Y378168D01*
X406860Y379280D02*
X406860D01*
X407678Y380098D01*
X407678Y381490D02*
X407678Y381490D01*
X406286D02*
X406286D01*
X405468Y380672D02*
X406286Y381490D01*
X404076Y382064D02*
X404076D01*
X406277Y384265D01*
X406565Y384961D02*
Y390817D01*
X415994Y372096D02*
X416102Y371989D01*
X406565Y390817D02*
Y392313D01*
X406299Y392579D02*
X406565Y392313D01*
X416998Y374154D02*
X417917D01*
X416395Y374758D02*
X416998Y374154D01*
X416395Y376149D02*
X416922Y376676D01*
X415530Y378068D02*
X415530D01*
X415003Y377541D02*
X415530Y378068D01*
X413612Y378933D02*
X413612D01*
X414878Y380199D01*
X413486Y381591D02*
X413486D01*
X412220Y380325D02*
X413486Y381591D01*
X410828Y381717D02*
X410828D01*
X412094Y382983D01*
X412094Y384375D02*
X412094Y384375D01*
X412094Y384375D01*
X412094Y384375D02*
X412094Y384375D01*
X410702D02*
X410702D01*
X410410Y384084D02*
X410702Y384375D01*
X408730Y384780D02*
Y385883D01*
X417917Y374154D02*
X421105D01*
X408730Y385883D02*
Y390416D01*
X406846Y396625D02*
X409547Y393924D01*
X406846Y396625D02*
Y396909D01*
X408730Y390416D02*
X409547Y391233D01*
Y393924D01*
X406299Y396909D02*
X406846D01*
D43*
X502952Y697146D02*
X505904D01*
X501279Y695473D02*
X502952Y697146D01*
X501279Y628642D02*
X505905D01*
X451417D02*
X501279D01*
Y695473D01*
X335827Y553034D02*
X345669Y562877D01*
X335827Y395669D02*
X337106Y394390D01*
X335827Y395669D02*
Y553034D01*
X455807Y707421D02*
Y739330D01*
X444193Y635866D02*
Y695807D01*
X455807Y707421D01*
X444193Y635866D02*
X451417Y628642D01*
X335827Y629232D02*
X339075Y625984D01*
Y615925D02*
Y625984D01*
X335827Y629232D02*
Y739567D01*
X505904Y697146D02*
X510783D01*
X512402Y686221D02*
Y695528D01*
X510783Y697146D02*
X512402Y695528D01*
X345669Y562877D02*
Y609331D01*
X396752Y679199D02*
Y708957D01*
X427448Y714364D02*
Y726975D01*
X396752Y708957D02*
Y737090D01*
Y708957D02*
X422040D01*
X427448Y714364D01*
X393446Y675893D02*
X396752Y679199D01*
X361713Y675893D02*
X393446D01*
X360630Y697146D02*
X361713Y696063D01*
X357085Y697146D02*
X360630D01*
X361713Y630020D02*
Y675893D01*
Y696063D01*
X360335Y628642D02*
X361713Y630020D01*
X396752Y737090D02*
X409964D01*
X385765D02*
X396752D01*
X339075Y615925D02*
X345669Y609331D01*
X370197Y752658D02*
Y752658D01*
X335827Y739567D02*
X348917Y752658D01*
X370197Y752658D02*
X385765Y737090D01*
X450945Y744193D02*
X455807Y739330D01*
X409964Y737090D02*
X417067Y744193D01*
X450945D01*
X357085Y697146D02*
X357085Y697146D01*
X357087Y628642D02*
X360335D01*
X348917Y752658D02*
X370197D01*
X446268Y738280D02*
X447635Y736912D01*
X428638Y738280D02*
X446268D01*
X427448Y737090D02*
X428638Y738280D01*
X447635Y727032D02*
Y736912D01*
X427448Y726975D02*
Y737090D01*
D44*
X482306Y602945D02*
X484762D01*
X470864D02*
X482306D01*
X468407D02*
X470864D01*
D45*
X520079Y406299D02*
D03*
Y439370D02*
D03*
D46*
Y430709D02*
D03*
Y422835D02*
D03*
Y414961D02*
D03*
X381102Y364705D02*
D03*
X388976D02*
D03*
X396752Y743701D02*
D03*
D47*
X512402Y686221D02*
D03*
D48*
Y705905D02*
D03*
D49*
X421654Y377205D02*
D03*
X441339D02*
D03*
D50*
X366535Y714764D02*
D03*
X500394Y610433D02*
D03*
D51*
X353149Y731299D02*
D03*
X509843D02*
D03*
X353149Y650984D02*
D03*
X509843D02*
D03*
D52*
X388878Y743701D02*
D03*
D53*
X524606Y615925D02*
D03*
Y605925D02*
D03*
Y595925D02*
D03*
X456024Y389370D02*
D03*
X339075Y595925D02*
D03*
Y605925D02*
D03*
Y615925D02*
D03*
X486695Y762447D02*
D03*
D54*
X524606Y585925D02*
D03*
X339075D02*
D03*
D55*
X380197Y752658D02*
D03*
D56*
X370197D02*
D03*
D57*
X466024Y389370D02*
D03*
D58*
X349213Y371654D02*
D03*
X514567D02*
D03*
X349213Y773228D02*
D03*
X514567D02*
D03*
D59*
X516227Y754583D02*
D03*
X526070Y734898D02*
D03*
X516227Y715213D02*
D03*
X526070Y695528D02*
D03*
X516227Y675843D02*
D03*
X526070Y538047D02*
D03*
X496542Y754583D02*
D03*
Y715213D02*
D03*
Y636473D02*
D03*
X506385Y616787D02*
D03*
Y577417D02*
D03*
X496542Y557732D02*
D03*
X506385Y538047D02*
D03*
X476857Y754583D02*
D03*
Y715213D02*
D03*
Y675843D02*
D03*
X486700Y656157D02*
D03*
X476857Y636473D02*
D03*
X486700Y616787D02*
D03*
Y577417D02*
D03*
X457172Y754583D02*
D03*
Y636473D02*
D03*
X467015Y616787D02*
D03*
X457172Y597102D02*
D03*
X467015Y538047D02*
D03*
Y498677D02*
D03*
X457172Y478992D02*
D03*
X467015Y459307D02*
D03*
X457172Y439622D02*
D03*
X467015Y419937D02*
D03*
X447330Y774268D02*
D03*
X437487Y754583D02*
D03*
X447330Y498677D02*
D03*
X437487Y478992D02*
D03*
Y439622D02*
D03*
X447330Y419937D02*
D03*
X437487Y400252D02*
D03*
X427644Y774268D02*
D03*
X417802Y754583D02*
D03*
X427644Y695528D02*
D03*
X417802Y675843D02*
D03*
X427644Y656157D02*
D03*
X417802Y518362D02*
D03*
X427644Y498677D02*
D03*
Y459307D02*
D03*
Y419937D02*
D03*
X407959Y774268D02*
D03*
Y695528D02*
D03*
Y656157D02*
D03*
X398117Y636473D02*
D03*
Y518362D02*
D03*
X407959Y498677D02*
D03*
X398117Y478992D02*
D03*
X407959Y459307D02*
D03*
X398117Y439622D02*
D03*
Y360882D02*
D03*
X378432Y715213D02*
D03*
Y636473D02*
D03*
Y597102D02*
D03*
X388274Y498677D02*
D03*
X368589Y695528D02*
D03*
X358747Y518362D02*
D03*
X368589Y498677D02*
D03*
Y459307D02*
D03*
Y380567D02*
D03*
X358747Y360882D02*
D03*
X339062Y754583D02*
D03*
X348904Y459307D02*
D03*
X425591Y538189D02*
D03*
X428792Y583811D02*
D03*
X422835Y577854D02*
D03*
X426806Y581826D02*
D03*
X424820Y579840D02*
D03*
X438240Y581941D02*
D03*
X432283Y575984D02*
D03*
X436255Y579956D02*
D03*
X434269Y577970D02*
D03*
X399496Y563441D02*
D03*
X405496D02*
D03*
X402496D02*
D03*
X427786Y545026D02*
D03*
X336566Y561584D02*
D03*
X456507Y569619D02*
D03*
X459507D02*
D03*
X460529Y598436D02*
D03*
X463529D02*
D03*
X466529D02*
D03*
X357677Y637992D02*
D03*
X398117Y576870D02*
D03*
X421654Y573917D02*
D03*
Y568012D02*
D03*
X402187Y577362D02*
D03*
X409991Y583065D02*
D03*
X376394Y402413D02*
D03*
X381201Y397077D02*
D03*
X407579Y543110D02*
D03*
X487718Y538047D02*
D03*
X490526D02*
D03*
X492898Y459947D02*
D03*
X498514D02*
D03*
X490090D02*
D03*
X495706D02*
D03*
X446482Y360083D02*
D03*
X445325Y373368D02*
D03*
X499278Y359416D02*
D03*
X502086D02*
D03*
X504894D02*
D03*
X482382Y367982D02*
D03*
X459331Y376613D02*
D03*
X481557Y361034D02*
D03*
X478749D02*
D03*
X475941D02*
D03*
X473133D02*
D03*
X461900D02*
D03*
X470325D02*
D03*
X467517D02*
D03*
X464708D02*
D03*
X503150Y785270D02*
D03*
X359842Y785132D02*
D03*
X338077Y382727D02*
D03*
X362500Y402947D02*
D03*
X345923Y403297D02*
D03*
X370374Y371972D02*
D03*
X394401Y377400D02*
D03*
X381784Y382067D02*
D03*
X422247Y397521D02*
D03*
X384646Y400111D02*
D03*
X408644Y358760D02*
D03*
Y367184D02*
D03*
Y361568D02*
D03*
Y364376D02*
D03*
X402111Y385965D02*
D03*
Y394390D02*
D03*
Y388773D02*
D03*
Y391582D02*
D03*
X437008Y547146D02*
D03*
X337106Y394390D02*
D03*
X341732Y578844D02*
D03*
X344094Y620866D02*
D03*
X521074Y652598D02*
D03*
Y655407D02*
D03*
Y649790D02*
D03*
X366535Y739698D02*
D03*
X371083Y629880D02*
D03*
Y627072D02*
D03*
Y624263D02*
D03*
X395347Y760028D02*
D03*
X392539D02*
D03*
X389731D02*
D03*
X525529Y630856D02*
D03*
Y633664D02*
D03*
Y628048D02*
D03*
Y636473D02*
D03*
X423815Y626249D02*
D03*
X425801Y624263D02*
D03*
X421829Y628235D02*
D03*
X427786Y622278D02*
D03*
X447445Y621876D02*
D03*
X449431Y619890D02*
D03*
X445460Y623862D02*
D03*
X451417Y617905D02*
D03*
X431399Y602166D02*
D03*
Y599358D02*
D03*
Y604974D02*
D03*
Y596549D02*
D03*
X386564Y359035D02*
D03*
X383756D02*
D03*
X389372D02*
D03*
X380948D02*
D03*
X465257Y582141D02*
D03*
Y584949D02*
D03*
X505210Y533209D02*
D03*
X508019D02*
D03*
X502402D02*
D03*
X510827D02*
D03*
X483268Y554131D02*
D03*
Y551323D02*
D03*
Y556939D02*
D03*
Y548515D02*
D03*
X470825Y554271D02*
D03*
Y551463D02*
D03*
Y557080D02*
D03*
Y548655D02*
D03*
X470930Y532431D02*
D03*
Y535239D02*
D03*
Y529623D02*
D03*
Y538047D02*
D03*
X437955Y576844D02*
D03*
X407511Y580535D02*
D03*
X405525Y578549D02*
D03*
X390089Y584640D02*
D03*
X392075Y582654D02*
D03*
X388104Y586625D02*
D03*
X401776Y613590D02*
D03*
X403761Y615576D02*
D03*
X399790Y611605D02*
D03*
X405747Y617562D02*
D03*
X405423Y705360D02*
D03*
X408232D02*
D03*
X402615D02*
D03*
X411040D02*
D03*
X469991Y682779D02*
D03*
X472799D02*
D03*
X456004Y676962D02*
D03*
X475607Y682779D02*
D03*
X422912Y646391D02*
D03*
X425720D02*
D03*
X428528D02*
D03*
X493927Y621213D02*
D03*
X496735D02*
D03*
X491118D02*
D03*
X499543D02*
D03*
X485844Y636473D02*
D03*
X488652D02*
D03*
X483036D02*
D03*
X491460D02*
D03*
X485295Y607562D02*
D03*
X488103D02*
D03*
X482487D02*
D03*
X490912D02*
D03*
X485295Y598436D02*
D03*
X488103D02*
D03*
X482487D02*
D03*
X490912D02*
D03*
X491460Y554271D02*
D03*
Y551463D02*
D03*
Y557080D02*
D03*
Y548655D02*
D03*
X498186Y538047D02*
D03*
X483268Y537252D02*
D03*
X495378Y538047D02*
D03*
X483268Y534444D02*
D03*
X465282Y398297D02*
D03*
X355640Y567870D02*
D03*
X526218Y533209D02*
D03*
X339997Y699326D02*
D03*
X365158Y679731D02*
D03*
X468407Y602945D02*
D03*
X470864D02*
D03*
X484762D02*
D03*
X482306D02*
D03*
X526218Y519245D02*
D03*
Y527670D02*
D03*
Y522053D02*
D03*
Y524861D02*
D03*
X510885Y527461D02*
D03*
X505269D02*
D03*
X508077D02*
D03*
X502461D02*
D03*
Y524821D02*
D03*
X508077D02*
D03*
X505269D02*
D03*
X483268Y527559D02*
D03*
Y524861D02*
D03*
Y519245D02*
D03*
Y522053D02*
D03*
X507352Y448484D02*
D03*
X490586D02*
D03*
X504544D02*
D03*
X493394D02*
D03*
X499301Y482248D02*
D03*
X490877D02*
D03*
X496493D02*
D03*
X493685D02*
D03*
X510621D02*
D03*
X502197D02*
D03*
X507813D02*
D03*
X505005D02*
D03*
X510573Y496143D02*
D03*
Y498952D02*
D03*
Y493335D02*
D03*
Y501760D02*
D03*
X517337Y491589D02*
D03*
X518110Y483697D02*
D03*
X526448Y488593D02*
D03*
Y491401D02*
D03*
Y485785D02*
D03*
Y494209D02*
D03*
Y477268D02*
D03*
Y480076D02*
D03*
Y474460D02*
D03*
Y482884D02*
D03*
X520602Y460329D02*
D03*
X523410D02*
D03*
X517794D02*
D03*
X526218D02*
D03*
Y444193D02*
D03*
X517794D02*
D03*
X523410D02*
D03*
X520602D02*
D03*
X438386Y361783D02*
D03*
X434941D02*
D03*
X483026Y408766D02*
D03*
X485834D02*
D03*
X488583Y408766D02*
D03*
X490426Y397263D02*
D03*
X492412Y399248D02*
D03*
X494355Y401192D02*
D03*
X490860Y431901D02*
D03*
Y429152D02*
D03*
Y426344D02*
D03*
X485836Y431854D02*
D03*
Y429105D02*
D03*
Y426297D02*
D03*
X424606Y361783D02*
D03*
X428051D02*
D03*
X431496D02*
D03*
X523633Y399942D02*
D03*
X521648Y397956D02*
D03*
X519662Y395970D02*
D03*
X525619Y401927D02*
D03*
X517676Y393985D02*
D03*
X515691Y391999D02*
D03*
X513705Y390013D02*
D03*
X511720Y388028D02*
D03*
X499278Y378341D02*
D03*
Y375533D02*
D03*
Y372725D02*
D03*
Y381150D02*
D03*
Y369917D02*
D03*
X502092Y431901D02*
D03*
X499284D02*
D03*
X496476D02*
D03*
X504900D02*
D03*
X493668D02*
D03*
X490860Y423536D02*
D03*
Y420728D02*
D03*
Y417919D02*
D03*
X526907Y429152D02*
D03*
Y426344D02*
D03*
Y423536D02*
D03*
Y431960D02*
D03*
Y420728D02*
D03*
Y417919D02*
D03*
Y415111D02*
D03*
Y412303D02*
D03*
X489407Y405020D02*
D03*
X350641Y697146D02*
D03*
X422426Y737853D02*
D03*
X419373Y738031D02*
D03*
X448425Y715631D02*
D03*
X414076Y702923D02*
D03*
X406595Y681293D02*
D03*
X444833Y552217D02*
D03*
X347342Y693504D02*
D03*
X369074Y648320D02*
D03*
Y655509D02*
D03*
X429823Y573425D02*
D03*
X442353Y576617D02*
D03*
X388587Y682083D02*
D03*
X384055D02*
D03*
X454963Y564623D02*
D03*
X442520Y572342D02*
D03*
X447146Y572205D02*
D03*
X403248Y543110D02*
D03*
X398917D02*
D03*
X369587Y402413D02*
D03*
X475787Y399854D02*
D03*
X448917Y377458D02*
D03*
X490551Y359449D02*
D03*
X422247Y381778D02*
D03*
X424606D02*
D03*
X422247Y384494D02*
D03*
X424606D02*
D03*
Y387303D02*
D03*
X422247D02*
D03*
X463386Y371571D02*
D03*
X463386Y369050D02*
D03*
X468661D02*
D03*
X466024Y369050D02*
D03*
X468661Y371571D02*
D03*
X466024D02*
D03*
Y376613D02*
D03*
X463386D02*
D03*
X466024Y379134D02*
D03*
X463386D02*
D03*
X468661D02*
D03*
Y376613D02*
D03*
Y374092D02*
D03*
X463386D02*
D03*
X466024D02*
D03*
X406299Y396909D02*
D03*
Y392579D02*
D03*
X434941Y370965D02*
D03*
X430610D02*
D03*
X404035Y714156D02*
D03*
X446850Y546063D02*
D03*
X432185Y547146D02*
D03*
X439857Y604528D02*
D03*
X443464D02*
D03*
X447070D02*
D03*
X450676D02*
D03*
X481599Y765518D02*
D03*
X480849Y761253D02*
D03*
X483207Y757621D02*
D03*
X483647Y753312D02*
D03*
Y748982D02*
D03*
Y744651D02*
D03*
Y740320D02*
D03*
Y735990D02*
D03*
Y731659D02*
D03*
Y727328D02*
D03*
Y722998D02*
D03*
Y718667D02*
D03*
Y714336D02*
D03*
Y710006D02*
D03*
Y705675D02*
D03*
Y701344D02*
D03*
Y697013D02*
D03*
Y692683D02*
D03*
Y688352D02*
D03*
Y684021D02*
D03*
Y679691D02*
D03*
Y675360D02*
D03*
Y671029D02*
D03*
X483101Y666733D02*
D03*
X481040Y662925D02*
D03*
X477779Y660074D02*
D03*
X473732Y658533D02*
D03*
X469405Y658356D02*
D03*
X456938Y656914D02*
D03*
X470604Y652261D02*
D03*
X474922Y652598D02*
D03*
X479048Y653913D02*
D03*
X482756Y656151D02*
D03*
X485821Y659210D02*
D03*
X488072Y662910D02*
D03*
X489394Y667034D02*
D03*
X489742Y671351D02*
D03*
Y675681D02*
D03*
Y680012D02*
D03*
Y684343D02*
D03*
Y688673D02*
D03*
Y693004D02*
D03*
Y697335D02*
D03*
Y701666D02*
D03*
Y705996D02*
D03*
Y710327D02*
D03*
Y714658D02*
D03*
Y718988D02*
D03*
Y723319D02*
D03*
Y727650D02*
D03*
Y731981D02*
D03*
Y736311D02*
D03*
Y740642D02*
D03*
Y744973D02*
D03*
Y749303D02*
D03*
Y753634D02*
D03*
X490535Y757892D02*
D03*
X492599Y761699D02*
D03*
X491547Y765900D02*
D03*
D60*
X360335Y619882D02*
D03*
D61*
X358812Y371654D02*
D03*
X357526Y376453D02*
D03*
X354012Y379967D02*
D03*
X349213Y381253D02*
D03*
X344413Y379967D02*
D03*
X340899Y376453D02*
D03*
X339613Y371654D02*
D03*
X340899Y366854D02*
D03*
X344413Y363340D02*
D03*
X349213Y362054D02*
D03*
X354012Y363340D02*
D03*
X357526Y366854D02*
D03*
X524167Y371654D02*
D03*
X522881Y376453D02*
D03*
X519367Y379967D02*
D03*
X514567Y381253D02*
D03*
X509767Y379967D02*
D03*
X506253Y376453D02*
D03*
X504967Y371654D02*
D03*
X506253Y366854D02*
D03*
X509767Y363340D02*
D03*
X514567Y362054D02*
D03*
X519367Y363340D02*
D03*
X522881Y366854D02*
D03*
X358812Y773228D02*
D03*
X357526Y778028D02*
D03*
X354012Y781542D02*
D03*
X349213Y782828D02*
D03*
X344413Y781542D02*
D03*
X340899Y778028D02*
D03*
X339613Y773228D02*
D03*
X340899Y768429D02*
D03*
X344413Y764915D02*
D03*
X349213Y763629D02*
D03*
X354012Y764915D02*
D03*
X357526Y768429D02*
D03*
X524167Y773228D02*
D03*
X522881Y778028D02*
D03*
X519367Y781542D02*
D03*
X514567Y782828D02*
D03*
X509767Y781542D02*
D03*
X506253Y778028D02*
D03*
X504967Y773228D02*
D03*
X506253Y768429D02*
D03*
X509767Y764915D02*
D03*
X514567Y763629D02*
D03*
X519367Y764915D02*
D03*
X522881Y768429D02*
D03*
M02*
