M48
;Layer_Color=9474304
;FILE_FORMAT=2:4
INCH,TZ
;TYPE=PLATED
T4F00S00C0.0197
T6F00S00C0.0236
T11F00S00C0.0394
;TYPE=NON_PLATED
T14F00S00C0.0472
%
G90
G05
T04
G00X42264Y37721
M15
G01X42067
M16
G00X44232Y37721
M15
G01X44035
M16
T06
G00X41772Y36520
M15
G01Y36795
M16
G00X44528Y36520
M15
G01Y36795
M16
T11
G00X51909Y40630
M15
G01X52106
M16
G00X51909Y43937
M15
G01X52106
M16
T14
G00X50984Y64350
M15
G01Y65846
M16
G00X35315Y64350
M15
G01Y65846
M16
G00X35315Y72382
M15
G01Y73878
M16
G00X50984Y72382
M15
G01Y73878
M16
M17
M30
