M48
;Layer_Color=9474304
;FILE_FORMAT=2:4
INCH,TZ
;TYPE=PLATED
T1F00S00C0.0118
T2F00S00C0.0157
T3F00S00C0.0197
T5F00S00C0.0236
T7F00S00C0.0276
T8F00S00C0.0315
T9F00S00C0.0354
T10F00S00C0.0394
T12F00S00C0.0400
T13F00S00C0.1220
;TYPE=NON_PLATED
T15F00S00C0.0787
%
T01
X46752Y36103
X47032
X47313
X47594
X47875
X48156
X48238Y36798
X46866Y36905
X46866Y37157
Y37409
Y37661
Y37913
X47579Y39985
X48303Y40877
X48583
X48858Y40877
X48941Y40502
X49436Y40119
X49241Y39925
X49043Y39726
X49928Y38115
Y37834
Y37553
Y37273
Y36992
Y35942
X50209
X50489
X49055Y35945
X51172Y38803
X51371Y39001
X51569Y39200
X51768Y39398
X51966Y39597
X52165Y39796
X52363Y39994
X52562Y40193
X52691Y41230
X46528Y39830
X46602Y37913
Y37661
Y37409
Y37157
Y36905
X46339Y36905
X46339Y37157
Y37409
Y37661
Y37913
X45933Y37661
X44892Y37746
X44532Y37337
X43494Y37096
X43061
X43150Y36178
X43494
X43839
X44648Y36008
X46190Y36103
X46471
X42805Y36178
X42461
X40864Y36157
Y35876
Y36438
Y36718
X39812Y36088
X38937Y35903
X38656
X38376
X38095
X37037Y37197
X36859Y38057
X38178Y38207
X38120Y39708
X38465Y40011
X37639Y40241
X36959
X36250Y40295
X34592Y40330
X33711Y39439
X33808Y38273
X35875Y36088
X39440Y37740
X40211Y38597
Y38877
Y39158
Y39439
X40630Y39258
Y39691
X42225Y39752
Y38730
X42461
Y38449
X42225
Y38178
X42461
X43749Y40025
X44733Y41994
X42764
X43749Y43962
X45717
Y47899
X43749
X44733Y49868
X42764
X40796
X38827
X36859
X35875Y51836
X39812
X41780
X42559Y53819
X42779Y54503
X43218Y54715
X43701
X44685Y54606
X44483Y55222
X45496Y56462
X42165Y56801
X40550Y56344
X40250
X39950
X39892Y54311
X40325
X40758
X39812Y47899
X40796Y45931
X42764
X39812Y43962
X36859Y45931
X34890
X33657Y56158
X35564Y56787
X47082Y55708
Y55427
Y55146
Y54865
X47093Y53805
Y53524
Y53243
Y52962
X46701Y53805
X48327Y53725
Y53444
Y52756
Y52486
Y52205
Y51925
X48772Y53805
X49053
X49538
X49819
X50638
X50521Y53321
X50802
X51083
X51089Y52746
X50808
Y52482
X50527
Y52746
X50246
Y52482
X50240Y53321
X52622
X52607Y53805
X52622Y52767
Y52486
Y52205
Y51925
X52645Y49421
Y49140
Y48859
Y48578
Y48288
Y48008
Y47727
Y47446
X52622Y46033
X52341
X52060
X51779
Y44419
X52060
X52341
X52622
X52691Y43196
Y42915
Y42634
Y42354
Y42073
Y41792
Y41511
X50490Y43190
X50209
X49928
X49648
X49367
X49086
Y42915
Y42634
Y42354
Y42073
Y41792
X48584Y42630
Y42911
Y43185
X49059Y44848
X49339
X50454
X50735
X49851Y45995
X49571
X49290
X49009
X49088Y48225
X49369
X49649
X49930
X50220
X50500
X50781
X51062
X51811Y48370
X51734Y49159
X51057Y49334
Y49614
Y49895
Y50176
X46701Y49868
Y45931
Y41994
X48327Y54851
Y55132
Y55413
Y55694
X49146Y55708
Y55427
Y55146
Y54865
X49654Y55773
X50638Y57742
X48670
X48810Y59844
X48530
X48249
X48231Y60295
X48476
X48530Y60756
X48810
X49091
X48249
X48670Y61679
X49112Y62121
X49393
X49673
X49954
X50638Y61679
X49654Y63647
X49146
X48865
X48584
X48304
X47686
X47492Y65260
X47060Y65226
X46941Y65836
X47373Y65853
X47778Y66007
X48104Y66292
X48310Y66673
X48365Y67103
Y67536
Y67969
Y68402
Y68835
Y69268
Y69701
Y70134
Y70567
Y71001
Y71434
Y71867
Y72300
X48974Y72332
Y71899
Y71466
Y71033
Y70600
Y70167
Y69733
Y69300
Y68867
Y68434
Y68001
Y67568
Y67135
X48939Y66703
X48807Y66291
X48582Y65921
X48670Y65616
X48276Y65615
X47905Y65391
X47686Y67584
X47561Y68278
X47280
X46999
X47686Y71521
X49654
X51623
X52607Y69553
X51623Y67584
X52107Y65541
Y65260
Y64979
X52553Y63647
Y63366
Y63086
Y62805
X49091Y59844
X47086Y60295
X46841
X46701Y61679
X45142Y61790
X44943Y61989
X44745Y62188
X44546Y62386
X42779Y62228
X42580Y62426
X42381Y62625
X42183Y62823
X42291Y64639
X42572
X42853
X42764Y65616
X40796
X40659Y68129
X40796Y69553
X40823Y70536
X40542
X40262
X41104
X41408Y70292
X42764Y69553
X41780Y67584
X38859Y68208
X38406
X36516Y67973
X36859Y69553
X35064Y69715
X34734Y69350
X34000Y69933
X37843Y71521
X40404Y71416
X44843Y71563
X45600Y67696
X45694Y65691
X45717Y63647
X45068Y60453
X44707
X44346
X43986
X43140Y60497
Y60217
Y59936
Y59655
X42879Y58381
X42681Y58183
X42482Y57984
X42283Y57785
X42165Y57392
X42982Y57343
X43228Y57598
X43427Y57797
X43625Y57996
X43824Y58194
X43795Y57684
X44235Y57662
X44252Y57234
X44715Y57221
X45651Y56962
X45951
X46526Y58214
Y58495
X46653Y59844
X46353
X46053
X45717Y59710
X40999Y58307
X40751Y58053
X40553Y57855
X40219Y57736
X39812Y57687
X39207Y58265
X39009Y58464
X38810Y58663
X37843Y59710
X37108Y62426
Y62707
Y62988
X37843Y63647
X39812
X40178Y61359
X40376Y61558
X40575Y61756
X39979Y61160
X34409Y62087
X35768Y63799
X36907Y64832
Y65551
X34173Y57884
X33906Y75458
X36654Y73970
X38973Y76003
X39254
X39535
X40796Y77427
X42764
X44733
X45717Y75458
X43749
X41780
X41937Y73803
X42243Y73785
X35984Y78513
X48160Y76552
X48085Y76125
X48321Y75762
X48365Y75331
Y74898
Y74465
Y74032
Y73599
Y73166
Y72733
X48974Y72765
Y73198
Y73631
Y74064
Y74497
Y74930
Y75363
X49054Y75789
X49260Y76170
X49155Y76590
X49654Y75458
X51623
X52607Y73490
X47686Y75458
X50315Y78527
T02
X36033Y61988
T03
X50977Y36334
X51457Y36205
X51937Y36334
X52288Y36685
X52417Y37165
X52288Y37645
X51937Y37997
X51457Y38125
X50977Y37997
X50625Y37645
X50497Y37165
X50625Y36685
X35753Y36685
X35881Y37165
X35753Y37645
X35401Y37997
X34921Y38125
X34441Y37997
X34090Y37645
X33961Y37165
X34090Y36685
X34441Y36334
X34921Y36205
X35401Y36334
Y76491
X34921Y76363
X34441Y76491
X34090Y76843
X33961Y77323
X34090Y77803
X34441Y78154
X34921Y78283
X35401Y78154
X35753Y77803
X35881Y77323
X35753Y76843
X50625Y76843
X50497Y77323
X50625Y77803
X50977Y78154
X51457Y78283
X51937Y78154
X52288Y77803
X52417Y77323
X52288Y76843
X51937Y76491
X51457Y76363
X50977Y76491
T05
X38888Y74370
X39675
T07
X38110Y36471
X38898
X52008Y41496
Y42283
Y43071
T08
X51240Y68622
Y70591
T09
X45602Y38937
X46602
X52461Y58593
Y59593
Y60593
Y61593
X33907
Y60593
Y59593
Y58593
T10
X48669Y76245
T12
X37020Y75266
X38020
T13
X51457Y37165
X34921
Y77323
X51457
T15
X50039Y61043
X36654Y71476
M30
